<svg width="26" height="15" viewBox="0 0 26 15" fill="none" xmlns="http://www.w3.org/2000/svg">
<path d="M24.7767 2.88821L13.567 14.1118C13.4335 14.245 13.289 14.3391 13.1334 14.3941C12.9778 14.45 12.8111 14.4778 12.6333 14.4777C12.4556 14.4775 12.2889 14.4494 12.1334 14.3932C11.9779 14.338 11.8335 14.2436 11.7003 14.1102L0.476751 2.86708C0.165911 2.5557 0.0106935 2.16668 0.0110992 1.70001C0.011505 1.23335 0.178519 0.833492 0.512142 0.500448C0.845765 0.167405 1.2348 0.00107635 1.67924 0.00146274C2.12369 0.00184914 2.51243 0.168854 2.84547 0.502477L12.637 10.311L22.4455 0.519517C22.7569 0.208676 23.1401 0.0534535 23.5952 0.0538492C24.0512 0.0542456 24.4457 0.221255 24.7788 0.554878C25.1118 0.888501 25.2781 1.27754 25.2778 1.72198C25.2774 2.16642 25.1104 2.55517 24.7767 2.88821Z" fill="#7DF51F"/>
</svg>
