<svg width="30" height="23" viewBox="0 0 30 23" fill="none" xmlns="http://www.w3.org/2000/svg">
<path d="M25.4128 2.13441C23.4454 1.24253 21.364 0.608807 19.2237 0.25C18.9571 0.716988 18.6456 1.34509 18.4308 1.84478C16.1231 1.50858 13.8367 1.50858 11.5714 1.84478C11.3567 1.3452 11.0382 0.716988 10.7692 0.25C8.62674 0.608972 6.54358 1.24431 4.57522 2.13907C0.658351 7.87383 -0.403485 13.466 0.127375 18.979C2.7253 20.8587 5.24296 22.0005 7.71819 22.7477C8.33335 21.9281 8.87713 21.0604 9.34393 20.1535C8.45522 19.8257 7.59846 19.4217 6.78386 18.9463C6.99823 18.7924 7.20755 18.6319 7.41151 18.4652C12.3477 20.7022 17.7111 20.7022 22.5885 18.4652C22.7933 18.6308 23.0026 18.7912 23.216 18.9463C22.4001 19.4229 21.5417 19.8277 20.6512 20.1558C21.1207 21.0664 21.6635 21.935 22.277 22.75C24.7546 22.0029 27.2746 20.861 29.8725 18.979C30.4954 12.5881 28.8084 7.04727 25.4128 2.13441ZM10.0165 15.5886C8.53464 15.5886 7.3194 14.2483 7.3194 12.6161C7.3194 10.984 8.50874 9.64142 10.0165 9.64142C11.5243 9.64142 12.7394 10.9816 12.7135 12.6161C12.7159 14.2483 11.5243 15.5886 10.0165 15.5886ZM19.9834 15.5886C18.5015 15.5886 17.2864 14.2483 17.2864 12.6161C17.2864 10.984 18.4756 9.64142 19.9834 9.64142C21.4912 9.64142 22.7063 10.9816 22.6805 12.6161C22.6805 14.2483 21.4912 15.5886 19.9834 15.5886Z" fill="white"/>
</svg>
