<svg width="71" height="55" viewBox="0 0 71 55" fill="none" xmlns="http://www.w3.org/2000/svg">
<path d="M60.0364 5.28468C55.5476 3.19218 50.6877 1.67343 45.6252 0.795932C45.5808 0.794512 45.5366 0.802842 45.4958 0.820335C45.455 0.837829 45.4185 0.864062 45.3889 0.897182C44.7814 2.01093 44.0727 3.46218 43.6002 4.57593C38.2305 3.76593 32.7698 3.76593 27.4002 4.57593C26.9277 3.42843 26.2189 2.01093 25.5777 0.897182C25.5439 0.829682 25.4427 0.795932 25.3414 0.795932C20.2789 1.67343 15.4527 3.19218 10.9302 5.28468C10.8964 5.28468 10.8627 5.31843 10.8289 5.35218C1.6489 19.0884 -0.882349 32.4534 0.366401 45.6834C0.366401 45.7509 0.400151 45.8184 0.467651 45.8522C6.54265 50.3072 12.3814 53.0072 18.1527 54.7959C18.2539 54.8297 18.3552 54.7959 18.3889 54.7284C19.7389 52.8722 20.9539 50.9147 22.0002 48.8559C22.0677 48.7209 22.0002 48.5859 21.8652 48.5522C19.9414 47.8097 18.1189 46.9322 16.3302 45.9197C16.1952 45.8522 16.1952 45.6497 16.2964 45.5484C16.6677 45.2784 17.0389 44.9747 17.4102 44.7047C17.4777 44.6372 17.5789 44.6372 17.6464 44.6709C29.2564 49.9697 41.7777 49.9697 53.2527 44.6709C53.3202 44.6372 53.4214 44.6372 53.4889 44.7047C53.8602 45.0084 54.2314 45.2784 54.6026 45.5822C54.7376 45.6834 54.7376 45.8859 54.5689 45.9534C52.8139 46.9997 50.9577 47.8434 49.0339 48.5859C48.8989 48.6197 48.8652 48.7884 48.8989 48.8897C49.9789 50.9484 51.1939 52.9059 52.5102 54.7622C52.6114 54.7959 52.7127 54.8297 52.8139 54.7959C58.6189 53.0072 64.4576 50.3072 70.5326 45.8522C70.6001 45.8184 70.6339 45.7509 70.6339 45.6834C72.1189 30.3947 68.1701 17.1309 60.1714 5.35218C60.1376 5.31843 60.1039 5.28468 60.0364 5.28468ZM23.7552 37.6172C20.2789 37.6172 17.3764 34.4109 17.3764 30.4622C17.3764 26.5134 20.2114 23.3072 23.7552 23.3072C27.3327 23.3072 30.1677 26.5472 30.1339 30.4622C30.1339 34.4109 27.2989 37.6172 23.7552 37.6172ZM47.2789 37.6172C43.8027 37.6172 40.9002 34.4109 40.9002 30.4622C40.9002 26.5134 43.7351 23.3072 47.2789 23.3072C50.8564 23.3072 53.6914 26.5472 53.6576 30.4622C53.6576 34.4109 50.8564 37.6172 47.2789 37.6172Z" fill="url(#paint0_linear_202_43)"/>
<defs>
<linearGradient id="paint0_linear_202_43" x1="0.0688479" y1="26.8715" x2="70.9419" y2="26.8715" gradientUnits="userSpaceOnUse">
<stop stop-color="#BDDB06"/>
<stop offset="1" stop-color="#08DB06"/>
</linearGradient>
</defs>
</svg>
