<svg width="31" height="24" viewBox="0 0 31 24" fill="none" xmlns="http://www.w3.org/2000/svg">
<path d="M25.4526 2.69589C23.5526 1.81016 21.4954 1.16728 19.3525 0.795842C19.3337 0.795241 19.315 0.798767 19.2977 0.806172C19.2804 0.813577 19.265 0.824681 19.2525 0.838701C18.9953 1.31014 18.6953 1.92444 18.4953 2.39589C16.2224 2.05302 13.9109 2.05302 11.638 2.39589C11.438 1.91016 11.138 1.31014 10.8665 0.838701C10.8522 0.810128 10.8094 0.795842 10.7665 0.795842C8.6236 1.16728 6.58069 1.81016 4.66635 2.69589C4.65206 2.69589 4.63778 2.71018 4.62349 2.72447C0.737672 8.53891 -0.333786 14.1962 0.1948 19.7964C0.1948 19.8249 0.209086 19.8535 0.237658 19.8678C2.80916 21.7536 5.28065 22.8964 7.72358 23.6536C7.76644 23.6679 7.80929 23.6536 7.82358 23.625C8.39502 22.8393 8.90932 22.0107 9.35219 21.1393C9.38077 21.0821 9.35219 21.025 9.29505 21.0107C8.48074 20.6964 7.70929 20.325 6.95213 19.8964C6.89498 19.8678 6.89498 19.7821 6.93784 19.7392C7.09499 19.6249 7.25214 19.4964 7.40928 19.3821C7.43786 19.3535 7.48071 19.3535 7.50929 19.3678C12.4237 21.6107 17.7239 21.6107 22.5811 19.3678C22.6097 19.3535 22.6526 19.3535 22.6811 19.3821C22.8383 19.5106 22.9954 19.6249 23.1526 19.7535C23.2097 19.7964 23.2097 19.8821 23.1383 19.9107C22.3954 20.3535 21.6097 20.7107 20.7954 21.025C20.7382 21.0393 20.7239 21.1107 20.7382 21.1535C21.1954 22.025 21.7097 22.8536 22.2668 23.6393C22.3097 23.6536 22.3525 23.6679 22.3954 23.6536C24.8526 22.8964 27.3241 21.7536 29.8956 19.8678C29.9242 19.8535 29.9385 19.8249 29.9385 19.7964C30.5671 13.3248 28.8956 7.71032 25.5098 2.72447C25.4955 2.71018 25.4812 2.69589 25.4526 2.69589ZM10.0951 16.382C8.6236 16.382 7.395 15.0248 7.395 13.3533C7.395 11.6819 8.59503 10.3247 10.0951 10.3247C11.6094 10.3247 12.8094 11.6961 12.7951 13.3533C12.7951 15.0248 11.5951 16.382 10.0951 16.382ZM20.0525 16.382C18.581 16.382 17.3524 15.0248 17.3524 13.3533C17.3524 11.6819 18.5524 10.3247 20.0525 10.3247C21.5668 10.3247 22.7668 11.6961 22.7526 13.3533C22.7526 15.0248 21.5668 16.382 20.0525 16.382Z" fill="url(#paint0_linear_202_43)"/>
<defs>
<linearGradient id="paint0_linear_202_43" x1="0.0688478" y1="11.8334" x2="30.0688" y2="11.8334" gradientUnits="userSpaceOnUse">
<stop stop-color="#BDDB06"/>
<stop offset="1" stop-color="#08DB06"/>
</linearGradient>
</defs>
</svg>
