<svg width="140" height="70" viewBox="0 0 140 70" fill="none" xmlns="http://www.w3.org/2000/svg">
<path opacity="0.3" d="M73.816 5.8L70.936 17H69.032L66.664 8.024H66.632L64.264 17H62.36L59.48 5.8H61.032L63.304 14.952H63.336L65.752 5.8H67.544L69.944 14.952H69.976L72.264 5.8H73.816ZM80.5965 5.8L84.5965 17H83.0285L82.0845 14.344H77.1245L76.1805 17H74.6125L78.6125 5.8H80.5965ZM79.5885 7.384L77.6365 12.904H81.5725L79.6205 7.384H79.5885ZM90.8535 12.536H88.4375V17H86.8375V5.8H92.5815L94.4375 6.872V11.464L92.5815 12.536L95.1575 17H93.3815L90.8535 12.536ZM88.4375 7.24V11.096H92.8375V7.24H88.4375ZM97.4819 7.24V5.8H104.762V6.76L99.2419 15.528V15.56H104.762V17H97.1619V16.04L102.682 7.272V7.24H97.4819ZM116.041 16.008L114.185 17.08H109.497L107.641 16.008V6.792L109.497 5.72H114.185L116.041 6.792V16.008ZM109.241 7.16V15.64H114.441V7.16H109.241ZM121.003 8.536V17H119.403V5.8H120.859L126.651 14.264H126.683V5.8H128.283V17H126.827L121.035 8.536H121.003ZM133.248 11.96V15.56H138.032V17H131.648V5.8H138.032V7.24H133.248V10.52H137.072V11.96H133.248Z" fill="url(#paint0_linear_223_68)"/>
<path d="M72.816 5.8L69.936 17H68.032L65.664 8.024H65.632L63.264 17H61.36L58.48 5.8H60.032L62.304 14.952H62.336L64.752 5.8H66.544L68.944 14.952H68.976L71.264 5.8H72.816ZM79.5965 5.8L83.5965 17H82.0285L81.0845 14.344H76.1245L75.1805 17H73.6125L77.6125 5.8H79.5965ZM78.5885 7.384L76.6365 12.904H80.5725L78.6205 7.384H78.5885ZM89.8535 12.536H87.4375V17H85.8375V5.8H91.5815L93.4375 6.872V11.464L91.5815 12.536L94.1575 17H92.3815L89.8535 12.536ZM87.4375 7.24V11.096H91.8375V7.24H87.4375ZM96.4819 7.24V5.8H103.762V6.76L98.2419 15.528V15.56H103.762V17H96.1619V16.04L101.682 7.272V7.24H96.4819ZM115.041 16.008L113.185 17.08H108.497L106.641 16.008V6.792L108.497 5.72H113.185L115.041 6.792V16.008ZM108.241 7.16V15.64H113.441V7.16H108.241ZM120.003 8.536V17H118.403V5.8H119.859L125.651 14.264H125.683V5.8H127.283V17H125.827L120.035 8.536H120.003ZM132.248 11.96V15.56H137.032V17H130.648V5.8H137.032V7.24H132.248V10.52H136.072V11.96H132.248Z" fill="url(#paint1_linear_223_68)"/>
<path opacity="0.3" d="M87.42 20.4H95.54V57.404L88.812 61.29H70.658L63.93 57.404V20.4H72.05V53.75H87.42V20.4ZM124.183 20.4L138.683 61H130.679L127.605 52.242H112.409L109.335 61H101.331L115.831 20.4H124.183ZM119.949 30.608L114.845 45.282H125.111L120.065 30.608H119.949Z" fill="url(#paint2_linear_223_68)"/>
<path d="M84.42 20.4H92.54V57.404L85.812 61.29H67.658L60.93 57.404V20.4H69.05V53.75H84.42V20.4ZM121.183 20.4L135.683 61H127.679L124.605 52.242H109.409L106.335 61H98.3309L112.831 20.4H121.183ZM116.949 30.608L111.845 45.282H122.111L117.065 30.608H116.949Z" fill="url(#paint3_linear_223_68)"/>
<path d="M29.0497 16.7811L29.0497 16.7811L29.5477 17.9173L29.2304 17.5309C29.2304 17.5309 29.2304 17.5309 29.2304 17.5309C27.4734 18.9739 25.7864 20.3913 25.7864 23.2464C25.7864 23.493 25.7548 23.6622 25.7078 23.7541C25.6886 23.7917 25.6748 23.8004 25.6725 23.8019L25.6725 23.8019C25.671 23.8029 25.6514 23.8159 25.5902 23.8159C25.4743 23.8159 25.3772 23.7663 25.2972 23.6674C25.2115 23.5613 25.1558 23.4066 25.1558 23.2464C25.1558 20.0315 27.1691 18.3256 29.0497 16.7811Z" fill="url(#paint4_linear_223_68)" stroke="url(#paint5_linear_223_68)"/>
<path d="M49.0501 30.5879L49.0503 30.5883C51.5726 36.1979 51.5383 41.1997 51.494 47.6785C51.488 48.5586 51.4818 49.4659 51.4818 50.4057C51.4818 52.542 50.0592 53.9038 48.2821 54.3084C46.4913 54.716 44.4075 54.1293 43.1867 52.3801L42.7767 52.6662L43.1867 52.3801C42.9112 51.9854 42.3733 51.2674 41.6756 50.3364C41.4204 49.9958 41.1439 49.6268 40.851 49.2347C39.7519 47.7629 38.411 45.9501 37.069 44.0495L36.8511 43.7409L36.4947 43.8662C35.9078 44.0725 35.2714 44.1865 34.6051 44.1865C33.4697 44.1865 32.6383 43.9771 31.9816 43.6763C31.3211 43.3738 30.8126 42.968 30.3267 42.5351C30.2226 42.4422 30.1185 42.3468 30.0134 42.2504C29.1637 41.471 28.2472 40.6303 26.6658 40.6303C26.6062 40.6303 26.5599 40.6258 26.5225 40.6196L26.4405 40.6059L26.3585 40.6196C26.3211 40.6258 26.2747 40.6303 26.2151 40.6303C24.6339 40.6303 23.7174 41.471 22.8677 42.2503C22.7626 42.3468 22.6585 42.4422 22.5543 42.5351C22.0684 42.968 21.5599 43.3738 20.8995 43.6763C20.2427 43.9771 19.4113 44.1865 18.2759 44.1865H18.2753C17.3926 44.1876 16.5248 43.9844 15.7498 43.5969L15.3631 43.4036L15.116 43.7583C13.7517 45.716 12.3749 47.595 11.2431 49.1222C10.8907 49.5977 10.5609 50.0406 10.2623 50.4416C9.60649 51.3223 9.10106 52.001 8.83652 52.3801C7.61258 54.1338 5.52488 54.7485 3.73728 54.3564C1.9689 53.9685 0.541482 52.6121 0.541482 50.4057C0.541482 49.2908 0.530633 48.2217 0.52016 47.1899C0.456737 40.9407 0.407155 36.0553 2.86532 30.5883L2.86546 30.588C2.90608 30.4975 2.94612 30.408 2.98577 30.3193C3.13013 29.9966 3.26921 29.6857 3.41111 29.3828L3.42016 29.3635L3.42753 29.3434C4.57605 26.2239 7.76133 23.9537 11.5408 23.9537H40.4416C44.4149 23.9537 47.729 26.4616 48.7144 29.8275L48.7242 29.8609L48.7385 29.8926C48.8026 30.0349 48.8665 30.1777 48.9315 30.3229C48.9705 30.4103 49.01 30.4985 49.0501 30.5879Z" stroke="url(#paint6_linear_223_68)"/>
<path d="M47.5914 32.1994C47.5914 35.9321 44.3455 38.9869 40.3045 38.9869C36.2636 38.9869 33.0177 35.9322 33.0177 32.1994C33.0177 28.4667 36.2636 25.412 40.3045 25.412C44.3455 25.412 47.5914 28.4667 47.5914 32.1994ZM4.7915 32.1994C4.7915 28.4667 8.03759 25.412 12.0784 25.412C16.1192 25.412 19.3653 28.4667 19.3653 32.1994C19.3653 35.9322 16.1193 38.9869 12.0784 38.9869C8.03749 38.9869 4.7915 35.9322 4.7915 32.1994Z" stroke="url(#paint7_linear_223_68)" stroke-width="0.5"/>
<path d="M42.0957 35.7725C42.0957 36.5905 41.3781 37.2938 40.4416 37.2938C39.5051 37.2938 38.7875 36.5905 38.7875 35.7725C38.7875 34.9546 39.5051 34.2512 40.4416 34.2512C41.3781 34.2512 42.0957 34.9546 42.0957 35.7725Z" stroke="url(#paint8_linear_223_68)" stroke-width="0.7"/>
<path d="M40.4416 30.6358C41.5484 30.6358 42.4457 29.7981 42.4457 28.7646C42.4457 27.7311 41.5484 26.8933 40.4416 26.8933C39.3348 26.8933 38.4375 27.7311 38.4375 28.7646C38.4375 29.7981 39.3348 30.6358 40.4416 30.6358Z" fill="url(#paint9_linear_223_68)"/>
<path d="M38.3427 32.2684C38.3427 33.0863 37.6252 33.7896 36.6886 33.7896C35.7521 33.7896 35.0346 33.0863 35.0346 32.2684C35.0346 31.4504 35.7521 30.7471 36.6886 30.7471C37.6252 30.7471 38.3427 31.4504 38.3427 32.2684Z" stroke="url(#paint10_linear_223_68)" stroke-width="0.7"/>
<path d="M44.1945 34.1396C45.3013 34.1396 46.1986 33.3018 46.1986 32.2684C46.1986 31.2349 45.3013 30.3971 44.1945 30.3971C43.0877 30.3971 42.1904 31.2349 42.1904 32.2684C42.1904 33.3018 43.0877 34.1396 44.1945 34.1396Z" fill="url(#paint11_linear_223_68)"/>
<path d="M10.2875 31.7154L10.2875 31.7154C10.3789 31.8166 10.4313 31.9661 10.4313 32.126C10.4313 32.2858 10.3789 32.4354 10.2875 32.5366L9.48341 33.4265C9.41168 33.5058 9.32935 33.5399 9.25437 33.5399H6.5381C6.37335 33.5399 6.16533 33.3516 6.16533 33.0159V31.236C6.16533 30.9004 6.37335 30.712 6.5381 30.712H9.25437C9.32928 30.712 9.41154 30.7461 9.48342 30.8255L10.2875 31.7154ZM13.4912 29.8677L13.4912 29.8677L12.5381 30.6185L12.538 30.6185C12.4268 30.7062 12.2593 30.7581 12.0785 30.7581C11.8978 30.7581 11.7303 30.7062 11.619 30.6185C11.619 30.6185 11.619 30.6185 11.619 30.6185L10.6659 29.8677C10.5787 29.799 10.5501 29.7274 10.5501 29.6724V27.1361C10.5501 27.073 10.587 26.9941 10.6907 26.9226C10.7936 26.8516 10.9467 26.8013 11.1254 26.8013H13.0317C13.2104 26.8013 13.3635 26.8516 13.4664 26.9226C13.5701 26.9941 13.6071 27.073 13.6071 27.1361V29.6724C13.6071 29.7274 13.5784 29.7989 13.4912 29.8677ZM14.6738 33.5733L14.6737 33.5733L13.8695 32.6833L13.8695 32.6833C13.7781 32.5822 13.7257 32.4326 13.7257 32.2728C13.7257 32.1129 13.7781 31.9633 13.8695 31.8622L14.6737 30.9723C14.7454 30.8929 14.8278 30.8588 14.9028 30.8588H17.619C17.7838 30.8588 17.9918 31.0472 17.9918 31.3828V33.1628C17.9918 33.4984 17.7838 33.6867 17.619 33.6867H14.9028C14.8278 33.6867 14.7455 33.6527 14.6738 33.5733ZM11.6191 33.7803L11.6191 33.7802C11.7303 33.6926 11.8978 33.6406 12.0786 33.6406C12.2593 33.6406 12.4269 33.6926 12.5382 33.7803C12.5382 33.7803 12.5382 33.7803 12.5382 33.7803L13.4912 34.531C13.5784 34.5998 13.6071 34.6714 13.6071 34.7264V37.2626C13.6071 37.3258 13.5701 37.4046 13.4664 37.4762C13.3635 37.5471 13.2104 37.5974 13.0317 37.5974H11.1254C10.9467 37.5974 10.7936 37.5471 10.6907 37.4762C10.587 37.4046 10.5501 37.3258 10.5501 37.2626V34.7264C10.5501 34.6714 10.5786 34.5999 10.6659 34.5311C10.6659 34.5311 10.6659 34.5311 10.6659 34.5311L11.6191 33.7803ZM24.3364 35.2809H21.8298C21.6706 35.2809 21.5205 35.2217 21.4118 35.1203C21.3036 35.0192 21.2456 34.8853 21.2456 34.7487C21.2456 34.6122 21.3036 34.4782 21.4118 34.3772C21.5205 34.2757 21.6706 34.2165 21.8298 34.2165H24.3364C24.4956 34.2165 24.6457 34.2757 24.7544 34.3772C24.8626 34.4782 24.9205 34.6122 24.9205 34.7487C24.9205 34.8853 24.8626 35.0192 24.7544 35.1203C24.6457 35.2217 24.4956 35.2809 24.3364 35.2809ZM31.2437 34.3772C31.3519 34.4782 31.4098 34.6122 31.4098 34.7487C31.4098 34.8852 31.3518 35.0192 31.2436 35.1202C31.135 35.2217 30.9849 35.2809 30.8257 35.2809H28.3191C28.1599 35.2809 28.0098 35.2217 27.9011 35.1203C27.7929 35.0192 27.7349 34.8853 27.7349 34.7487C27.7349 34.6122 27.7929 34.4782 27.9011 34.3772C28.0098 34.2757 28.1599 34.2165 28.3191 34.2165H30.8257C30.9849 34.2165 31.135 34.2757 31.2437 34.3772Z" fill="url(#paint12_linear_223_68)" stroke="url(#paint13_linear_223_68)" stroke-width="0.4"/>
<defs>
<linearGradient id="paint0_linear_223_68" x1="59" y1="11.1034" x2="140" y2="11.1034" gradientUnits="userSpaceOnUse">
<stop stop-color="#BDDB06"/>
<stop offset="1" stop-color="#08DB06"/>
</linearGradient>
<linearGradient id="paint1_linear_223_68" x1="58" y1="11.1034" x2="138" y2="11.1034" gradientUnits="userSpaceOnUse">
<stop stop-color="#BDDB06"/>
<stop offset="1" stop-color="#08DB06"/>
</linearGradient>
<linearGradient id="paint2_linear_223_68" x1="59" y1="40" x2="140" y2="40" gradientUnits="userSpaceOnUse">
<stop stop-color="#BDDB06"/>
<stop offset="1" stop-color="#08DB06"/>
</linearGradient>
<linearGradient id="paint3_linear_223_68" x1="56" y1="40" x2="137" y2="40" gradientUnits="userSpaceOnUse">
<stop stop-color="#BDDB06"/>
<stop offset="1" stop-color="#08DB06"/>
</linearGradient>
<linearGradient id="paint4_linear_223_68" x1="24.6558" y1="17.4719" x2="33.5958" y2="17.4719" gradientUnits="userSpaceOnUse">
<stop stop-color="#CDEC10"/>
<stop offset="1" stop-color="#08DB06"/>
</linearGradient>
<linearGradient id="paint5_linear_223_68" x1="24.6558" y1="17.4719" x2="33.5958" y2="17.4719" gradientUnits="userSpaceOnUse">
<stop stop-color="#CDEC10"/>
<stop offset="1" stop-color="#08DB06"/>
</linearGradient>
<linearGradient id="paint6_linear_223_68" x1="1.88324e-07" y1="38.6683" x2="52.0059" y2="38.6683" gradientUnits="userSpaceOnUse">
<stop stop-color="#CDEC10"/>
<stop offset="1" stop-color="#08DB06"/>
</linearGradient>
<linearGradient id="paint7_linear_223_68" x1="4.5415" y1="31.9567" x2="47.8414" y2="31.9567" gradientUnits="userSpaceOnUse">
<stop stop-color="#BDDB06"/>
<stop offset="1" stop-color="#08DB06"/>
</linearGradient>
<linearGradient id="paint8_linear_223_68" x1="38.4375" y1="35.708" x2="42.4457" y2="35.708" gradientUnits="userSpaceOnUse">
<stop stop-color="#CDEC10"/>
<stop offset="1" stop-color="#08DB06"/>
</linearGradient>
<linearGradient id="paint9_linear_223_68" x1="38.4375" y1="28.7001" x2="42.4457" y2="28.7001" gradientUnits="userSpaceOnUse">
<stop stop-color="#CDEC10"/>
<stop offset="1" stop-color="#08DB06"/>
</linearGradient>
<linearGradient id="paint10_linear_223_68" x1="34.6846" y1="32.2038" x2="38.6927" y2="32.2038" gradientUnits="userSpaceOnUse">
<stop stop-color="#CDEC10"/>
<stop offset="1" stop-color="#08DB06"/>
</linearGradient>
<linearGradient id="paint11_linear_223_68" x1="42.1904" y1="32.2038" x2="46.1986" y2="32.2038" gradientUnits="userSpaceOnUse">
<stop stop-color="#CDEC10"/>
<stop offset="1" stop-color="#08DB06"/>
</linearGradient>
<linearGradient id="paint12_linear_223_68" x1="5.96533" y1="34.6583" x2="34.7194" y2="34.6583" gradientUnits="userSpaceOnUse">
<stop stop-color="#CDEC10"/>
<stop offset="1" stop-color="#08DB06"/>
</linearGradient>
<linearGradient id="paint13_linear_223_68" x1="5.96533" y1="34.6583" x2="34.7194" y2="34.6583" gradientUnits="userSpaceOnUse">
<stop stop-color="#BDDB06"/>
<stop offset="1" stop-color="#08DB06"/>
</linearGradient>
</defs>
</svg>
