<svg width="139" height="57" viewBox="0 0 139 57" fill="none" xmlns="http://www.w3.org/2000/svg">
<g opacity="0.3">
<path d="M73.816 0.799971L70.936 12H69.032L66.664 3.02397H66.632L64.264 12H62.36L59.48 0.799971H61.032L63.304 9.95197H63.336L65.752 0.799971H67.544L69.944 9.95197H69.976L72.264 0.799971H73.816Z" fill="url(#paint0_linear_223_68)"/>
<path d="M80.5965 0.799971L84.5965 12H83.0285L82.0845 9.34397H77.1245L76.1805 12H74.6125L78.6125 0.799971H80.5965ZM79.5885 2.38397L77.6365 7.90397H81.5725L79.6205 2.38397H79.5885Z" fill="url(#paint1_linear_223_68)"/>
<path d="M90.8535 7.53597H88.4375V12H86.8375V0.799971H92.5815L94.4375 1.87197V6.46397L92.5815 7.53597L95.1575 12H93.3815L90.8535 7.53597ZM88.4375 2.23997V6.09597H92.8375V2.23997H88.4375Z" fill="url(#paint2_linear_223_68)"/>
<path d="M97.4819 2.23997V0.799971H104.762V1.75997L99.2419 10.528V10.56H104.762V12H97.1619V11.04L102.682 2.27197V2.23997H97.4819Z" fill="url(#paint3_linear_223_68)"/>
<path d="M116.041 11.008L114.185 12.08H109.497L107.641 11.008V1.79197L109.497 0.719971H114.185L116.041 1.79197V11.008ZM109.241 2.15997V10.64H114.441V2.15997H109.241Z" fill="url(#paint4_linear_223_68)"/>
<path d="M121.002 3.53597V12H119.402V0.799971H120.858L126.65 9.26397H126.682V0.799971H128.282V12H126.826L121.034 3.53597H121.002Z" fill="url(#paint5_linear_223_68)"/>
<path d="M133.248 6.95997V10.56H138.032V12H131.648V0.799971H138.032V2.23997H133.248V5.51997H137.072V6.95997H133.248Z" fill="url(#paint6_linear_223_68)"/>
</g>
<path d="M72.816 0.799971L69.936 12H68.032L65.664 3.02397H65.632L63.264 12H61.36L58.48 0.799971H60.032L62.304 9.95197H62.336L64.752 0.799971H66.544L68.944 9.95197H68.976L71.264 0.799971H72.816Z" fill="url(#paint7_linear_223_68)"/>
<path d="M79.5965 0.799971L83.5965 12H82.0285L81.0845 9.34397H76.1245L75.1805 12H73.6125L77.6125 0.799971H79.5965ZM78.5885 2.38397L76.6365 7.90397H80.5725L78.6205 2.38397H78.5885Z" fill="url(#paint8_linear_223_68)"/>
<path d="M89.8535 7.53597H87.4375V12H85.8375V0.799971H91.5815L93.4375 1.87197V6.46397L91.5815 7.53597L94.1575 12H92.3815L89.8535 7.53597ZM87.4375 2.23997V6.09597H91.8375V2.23997H87.4375Z" fill="url(#paint9_linear_223_68)"/>
<path d="M96.4819 2.23997V0.799971H103.762V1.75997L98.2419 10.528V10.56H103.762V12H96.1619V11.04L101.682 2.27197V2.23997H96.4819Z" fill="url(#paint10_linear_223_68)"/>
<path d="M115.041 11.008L113.185 12.08H108.497L106.641 11.008V1.79197L108.497 0.719971H113.185L115.041 1.79197V11.008ZM108.241 2.15997V10.64H113.441V2.15997H108.241Z" fill="url(#paint11_linear_223_68)"/>
<path d="M120.002 3.53597V12H118.402V0.799971H119.858L125.65 9.26397H125.682V0.799971H127.282V12H125.826L120.034 3.53597H120.002Z" fill="url(#paint12_linear_223_68)"/>
<path d="M132.248 6.95997V10.56H137.032V12H130.648V0.799971H137.032V2.23997H132.248V5.51997H136.072V6.95997H132.248Z" fill="url(#paint13_linear_223_68)"/>
<g opacity="0.3">
<path d="M87.4202 15.4H95.5402V52.404L88.8122 56.29H70.6582L63.9302 52.404V15.4H72.0502V48.75H87.4202V15.4Z" fill="url(#paint14_linear_223_68)"/>
<path d="M124.183 15.4L138.683 56H130.679L127.605 47.242H112.409L109.335 56H101.331L115.831 15.4H124.183ZM119.949 25.608L114.845 40.282H125.111L120.065 25.608H119.949Z" fill="url(#paint15_linear_223_68)"/>
</g>
<path d="M84.4202 15.4H92.5402V52.404L85.8122 56.29H67.6582L60.9302 52.404V15.4H69.0502V48.75H84.4202V15.4Z" fill="url(#paint16_linear_223_68)"/>
<path d="M121.183 15.4L135.683 56H127.679L124.605 47.242H109.409L106.335 56H98.3311L112.831 15.4H121.183ZM116.949 25.608L111.845 40.282H122.111L117.065 25.608H116.949Z" fill="url(#paint17_linear_223_68)"/>
<path d="M25.5902 25.2316C25.0177 25.2316 24.6558 24.6968 24.6558 24.1622C24.6558 20.6889 26.8608 18.8476 28.7324 17.3105C30.3293 15.999 31.8357 15.067 31.8357 12.9681C31.8357 12.4335 31.9865 12 32.5591 12C33.1316 12 33.5958 12.4335 33.5958 12.9681C33.5958 15.9425 31.2727 17.4163 29.5477 18.8331C27.7832 20.2823 26.2864 21.5645 26.2864 24.1622C26.2864 24.6969 26.1628 25.2316 25.5902 25.2316Z" fill="url(#paint18_linear_223_68)"/>
<path fill-rule="evenodd" clip-rule="evenodd" d="M32.8532 12.7691C32.8532 12.7691 32.8531 12.7695 32.8528 12.7702ZM28.7324 17.3105C26.8608 18.8476 24.6558 20.6889 24.6558 24.1622C24.6558 24.6968 25.0177 25.2316 25.5902 25.2316C26.1628 25.2316 26.2864 24.6969 26.2864 24.1622C26.2864 21.5645 27.7832 20.2823 29.5477 18.8331C29.7394 18.6757 29.9384 18.5176 30.1408 18.3568C31.7602 17.0703 33.5958 15.612 33.5958 12.9681C33.5958 12.4335 33.1316 12 32.5591 12C31.9865 12 31.8357 12.4335 31.8357 12.9681C31.8357 14.8262 30.6551 15.7698 29.2762 16.8718C29.0975 17.0146 28.9156 17.1601 28.7324 17.3105Z" fill="url(#paint19_linear_223_68)"/>
<path fill-rule="evenodd" clip-rule="evenodd" d="M48.5943 31.7091L48.5939 31.7083C48.5533 31.6177 48.5135 31.5289 48.4743 31.4413C48.4098 31.2969 48.3466 31.1556 48.2827 31.014L48.2541 30.9506L48.2345 30.8838C47.3155 27.7443 44.2071 25.3695 40.4416 25.3695H11.5408C7.95988 25.3695 4.96915 27.5191 3.89674 30.432L3.882 30.472L3.86391 30.5106C3.72403 30.8093 3.58727 31.115 3.44319 31.437C3.40331 31.5262 3.36286 31.6166 3.32162 31.7085L3.32134 31.7091C0.911322 37.0691 0.958589 41.8363 1.02057 48.0877C1.03083 49.1219 1.04148 50.1967 1.04148 51.3215C1.04148 53.2594 2.27096 54.4386 3.84442 54.7838C5.4563 55.1374 7.33043 54.5802 8.4265 53.0097C8.69563 52.6241 9.20919 51.9344 9.86908 51.0482C10.1664 50.6488 10.4935 50.2096 10.8414 49.7403C11.9721 48.2146 13.3456 46.34 14.7058 44.3882L15.2001 43.6789L15.9734 44.0655C16.6778 44.4176 17.4687 44.6032 18.2747 44.6023L18.2759 44.6023C19.346 44.6023 20.1055 44.4058 20.6913 44.1375C21.2842 43.8658 21.7489 43.4987 22.2217 43.0775C22.3198 42.9901 22.4203 42.8974 22.5241 42.8017C23.367 42.0243 24.4277 41.0461 26.2151 41.0461C26.2486 41.0461 26.2676 41.0436 26.2765 41.0421L26.4405 41.0148L26.6045 41.0421C26.6134 41.0436 26.6323 41.0461 26.6658 41.0461C28.4533 41.0461 29.514 42.0243 30.357 42.8017C30.4608 42.8974 30.5612 42.9901 30.6594 43.0775C31.1322 43.4988 31.5968 43.8658 32.1898 44.1375C32.7755 44.4058 33.535 44.6023 34.6051 44.6023C35.2141 44.6023 35.7944 44.4982 36.3289 44.3103L37.0416 44.0597L37.4774 44.6769C38.8156 46.5721 40.1535 48.3808 41.2516 49.8513C41.5407 50.2383 41.8147 50.604 42.0685 50.9427C42.7695 51.8781 43.316 52.6075 43.5967 53.0097L42.7767 53.582C42.5064 53.1947 41.9769 52.488 41.2824 51.5613C40.0751 49.9501 38.3693 47.6737 36.6605 45.2537C36.0211 45.4785 35.3287 45.6023 34.6051 45.6023C31.9405 45.6023 30.7407 44.5077 29.6724 43.533C28.8152 42.7509 28.0426 42.0461 26.6658 42.0461C26.5801 42.0461 26.5063 42.0395 26.4405 42.0286C26.3746 42.0395 26.3008 42.0461 26.2151 42.0461C24.8384 42.0461 24.0659 42.7509 23.2086 43.533C22.1403 44.5076 20.9405 45.6023 18.2759 45.6023C17.3166 45.6034 16.3719 45.3827 15.5262 44.9599C13.7266 47.5422 11.9067 49.9862 10.6554 51.6666C10.0039 52.5416 9.5065 53.2095 9.24654 53.582C6.54291 57.456 0.0414823 56.271 0.0414823 51.3215C0.0414823 50.2164 0.0304426 49.1533 0.0197535 48.1238C-0.0451124 41.8769 -0.0970674 36.8733 2.4093 31.299C2.4493 31.2099 2.48894 31.1213 2.52835 31.0332C2.67298 30.7099 2.81439 30.3938 2.95832 30.0865C4.18294 26.7602 7.56278 24.3695 11.5408 24.3695H40.4416C44.6226 24.3695 48.1426 27.0104 49.1943 30.6028C49.2586 30.7454 49.3231 30.8896 49.3882 31.0353C49.4273 31.1227 49.4667 31.2106 49.5063 31.299C52.076 37.014 52.0399 42.1292 51.9944 48.5994C51.9882 49.4801 51.9818 50.3858 51.9818 51.3215C51.9818 56.1407 45.4803 57.4559 42.7767 53.582L43.5967 53.0097C44.6865 54.5712 46.5528 55.105 48.1711 54.7366C49.762 54.3744 50.9818 53.1845 50.9818 51.3215C50.9818 50.3779 50.9878 49.4691 50.9936 48.5897C51.0367 42.102 51.0692 37.2134 48.5943 31.7091Z" fill="url(#paint20_linear_223_68)"/>
<path fill-rule="evenodd" clip-rule="evenodd" d="M40.3045 39.6526C44.2238 39.6526 47.3414 36.6939 47.3414 33.1152C47.3414 29.5364 44.2238 26.5778 40.3045 26.5778C36.3853 26.5778 33.2677 29.5364 33.2677 33.1152C33.2677 36.694 36.3853 39.6526 40.3045 39.6526ZM12.0784 26.5778C8.15924 26.5778 5.0415 29.5364 5.0415 33.1152C5.0415 36.694 8.15914 39.6526 12.0784 39.6526C15.9977 39.6526 19.1153 36.694 19.1153 33.1152C19.1153 29.5364 15.9976 26.5778 12.0784 26.5778ZM40.3045 40.1526C44.4671 40.1526 47.8414 37.0018 47.8414 33.1152C47.8414 29.2285 44.4671 26.0778 40.3045 26.0778C36.142 26.0778 32.7677 29.2285 32.7677 33.1152C32.7677 37.0019 36.142 40.1526 40.3045 40.1526ZM4.5415 33.1152C4.5415 29.2285 7.91594 26.0778 12.0784 26.0778C16.2409 26.0778 19.6153 29.2285 19.6153 33.1152C19.6153 37.0019 16.241 40.1526 12.0784 40.1526C7.91584 40.1526 4.5415 37.0019 4.5415 33.1152Z" fill="url(#paint21_linear_223_68)"/>
<path fill-rule="evenodd" clip-rule="evenodd" d="M40.4416 37.8596C41.2078 37.8596 41.7457 37.2907 41.7457 36.6883C41.7457 36.0858 41.2078 35.517 40.4416 35.517C39.6754 35.517 39.1375 36.0858 39.1375 36.6883C39.1375 37.2907 39.6754 37.8596 40.4416 37.8596ZM42.4457 36.6883C42.4457 37.7218 41.5484 38.5596 40.4416 38.5596C39.3348 38.5596 38.4375 37.7218 38.4375 36.6883C38.4375 35.6548 39.3348 34.817 40.4416 34.817C41.5484 34.817 42.4457 35.6548 42.4457 36.6883Z" fill="url(#paint22_linear_223_68)"/>
<path d="M40.4416 31.5516C41.5484 31.5516 42.4457 30.7138 42.4457 29.6804C42.4457 28.6469 41.5484 27.8091 40.4416 27.8091C39.3348 27.8091 38.4375 28.6469 38.4375 29.6804C38.4375 30.7138 39.3348 31.5516 40.4416 31.5516Z" fill="url(#paint23_linear_223_68)"/>
<path fill-rule="evenodd" clip-rule="evenodd" d="M36.6886 34.3554C37.4549 34.3554 37.9927 33.7866 37.9927 33.1841C37.9927 32.5817 37.4549 32.0129 36.6886 32.0129C35.9224 32.0129 35.3846 32.5817 35.3846 33.1841C35.3846 33.7866 35.9224 34.3554 36.6886 34.3554ZM38.6927 33.1841C38.6927 34.2176 37.7955 35.0554 36.6886 35.0554C35.5818 35.0554 34.6846 34.2176 34.6846 33.1841C34.6846 32.1507 35.5818 31.3129 36.6886 31.3129C37.7955 31.3129 38.6927 32.1507 38.6927 33.1841Z" fill="url(#paint24_linear_223_68)"/>
<path d="M44.1945 35.0554C45.3013 35.0554 46.1986 34.2176 46.1986 33.1841C46.1986 32.1507 45.3013 31.3129 44.1945 31.3129C43.0877 31.3129 42.1904 32.1507 42.1904 33.1841C42.1904 34.2176 43.0877 35.0554 44.1945 35.0554Z" fill="url(#paint25_linear_223_68)"/>
<path d="M21.8298 36.3967H24.3364C24.5444 36.3967 24.7438 36.3195 24.8909 36.1822C25.0379 36.0449 25.1205 35.8587 25.1205 35.6645C25.1205 35.4703 25.0379 35.2841 24.8909 35.1468C24.7438 35.0095 24.5444 34.9323 24.3364 34.9323H21.8298C21.6218 34.9323 21.4224 35.0095 21.2753 35.1468C21.1283 35.2841 21.0456 35.4703 21.0456 35.6645C21.0456 35.8587 21.1283 36.0449 21.2753 36.1822C21.4224 36.3195 21.6218 36.3967 21.8298 36.3967Z" fill="url(#paint26_linear_223_68)"/>
<path d="M31.3802 35.1468C31.5272 35.2841 31.6098 35.4703 31.6098 35.6645C31.6098 35.8587 31.5272 36.0449 31.3801 36.1822C31.2331 36.3195 31.0337 36.3966 30.8257 36.3967H28.3191C28.1111 36.3967 27.9117 36.3195 27.7646 36.1822C27.6176 36.0449 27.5349 35.8587 27.5349 35.6645C27.5349 35.4703 27.6176 35.2841 27.7646 35.1468C27.9117 35.0095 28.1111 34.9323 28.3191 34.9323H30.8257C31.0337 34.9323 31.2331 35.0095 31.3802 35.1468Z" fill="url(#paint27_linear_223_68)"/>
<path d="M6.5381 31.4278H9.25437C9.39318 31.4278 9.52719 31.4915 9.63176 31.6072L10.4359 32.4971C10.6965 32.7855 10.6965 33.298 10.4359 33.5864L9.63176 34.4764C9.5273 34.5919 9.39318 34.6557 9.25437 34.6557H6.5381C6.22175 34.6557 5.96533 34.3316 5.96533 33.9317V32.1518C5.96533 31.7519 6.22175 31.4278 6.5381 31.4278Z" fill="url(#paint28_linear_223_68)"/>
<path d="M13.8071 28.0519V30.5882C13.8071 30.7178 13.7388 30.843 13.6149 30.9405L12.6618 31.6914C12.353 31.9347 11.8041 31.9347 11.4952 31.6914L10.5421 30.9405C10.4183 30.843 10.3501 30.7178 10.3501 30.5882V28.0519C10.3501 27.7565 10.6972 27.5171 11.1254 27.5171H13.0317C13.4599 27.5171 13.8071 27.7565 13.8071 28.0519Z" fill="url(#paint29_linear_223_68)"/>
<path d="M17.619 34.8025H14.9028C14.7639 34.8025 14.6298 34.7388 14.5254 34.6231L13.7211 33.7332C13.4605 33.4448 13.4605 32.9323 13.7211 32.6439L14.5254 31.7539C14.6298 31.6384 14.7639 31.5746 14.9028 31.5746H17.619C17.9354 31.5746 18.1918 31.8987 18.1918 32.2986V34.0785C18.1918 34.4784 17.9354 34.8025 17.619 34.8025Z" fill="url(#paint30_linear_223_68)"/>
<path d="M10.3501 38.1784V35.6421C10.3501 35.5125 10.4182 35.3874 10.5422 35.2897L11.4953 34.5389C11.8041 34.2956 12.353 34.2956 12.6619 34.5389L13.615 35.2897C13.7388 35.3873 13.8071 35.5125 13.8071 35.6421V38.1784C13.8071 38.4738 13.4599 38.7132 13.0317 38.7132H11.1254C10.6972 38.7132 10.3501 38.4738 10.3501 38.1784Z" fill="url(#paint31_linear_223_68)"/>
<path fill-rule="evenodd" clip-rule="evenodd" d="M10.4359 32.4971L9.63176 31.6072C9.52719 31.4915 9.39318 31.4278 9.25437 31.4278H6.5381C6.22175 31.4278 5.96533 31.7519 5.96533 32.1518V33.9317C5.96533 34.3316 6.22175 34.6557 6.5381 34.6557H9.25437C9.39318 34.6557 9.5273 34.5919 9.63176 34.4764L10.4359 33.5864C10.6965 33.298 10.6965 32.7855 10.4359 32.4971ZM10.1391 33.3183C10.1391 33.3183 10.1391 33.3183 10.1391 33.3183C10.1916 33.2601 10.2313 33.1612 10.2313 33.0417C10.2313 32.9223 10.1916 32.8234 10.1391 32.7653L9.33509 31.8755C9.33505 31.8754 9.33513 31.8755 9.33509 31.8755C9.29594 31.8322 9.26537 31.8278 9.25437 31.8278H6.5381C6.52503 31.8278 6.48996 31.8334 6.44679 31.888C6.40308 31.9432 6.36533 32.0352 6.36533 32.1518V33.9317C6.36533 34.0483 6.40308 34.1402 6.44679 34.1955C6.48996 34.25 6.52503 34.2557 6.5381 34.2557H9.25437C9.26551 34.2557 9.29602 34.2512 9.33497 34.2082L10.1391 33.3183ZM13.6149 30.9405C13.7388 30.843 13.8071 30.7178 13.8071 30.5882V28.0519C13.8071 27.7565 13.4599 27.5171 13.0317 27.5171H11.1254C10.6972 27.5171 10.3501 27.7565 10.3501 28.0519V30.5882C10.3501 30.7178 10.4183 30.843 10.5421 30.9405L11.4952 31.6914C11.8041 31.9347 12.353 31.9347 12.6618 31.6914L13.6149 30.9405ZM11.7427 31.3772C11.7427 31.3772 11.7427 31.3772 11.7427 31.3772C11.8109 31.4309 11.9316 31.4739 12.0785 31.4739C12.2256 31.4739 12.3462 31.4308 12.4143 31.3772L13.3674 30.6263C13.3924 30.6067 13.4028 30.5912 13.4062 30.5849C13.4066 30.5843 13.4068 30.5838 13.4071 30.5833V28.0566C13.4039 28.0494 13.392 28.03 13.3528 28.003C13.2874 27.9578 13.1751 27.9171 13.0317 27.9171H11.1254C10.9821 27.9171 10.8697 27.9578 10.8043 28.003C10.7651 28.03 10.7532 28.0494 10.7501 28.0566V30.5834C10.7503 30.5838 10.7506 30.5843 10.7509 30.585C10.7544 30.5913 10.7647 30.6067 10.7896 30.6263M10.7896 30.6263L11.7427 31.3772ZM14.5254 34.6231C14.6298 34.7388 14.7639 34.8025 14.9028 34.8025H17.619C17.9354 34.8025 18.1918 34.4784 18.1918 34.0785V32.2986C18.1918 31.8987 17.9354 31.5746 17.619 31.5746H14.9028C14.7639 31.5746 14.6298 31.6384 14.5254 31.7539L13.7211 32.6439C13.4605 32.9323 13.4605 33.4448 13.7211 33.7332L14.5254 34.6231ZM14.0179 32.912C13.9654 32.9702 13.9257 33.0691 13.9257 33.1886C13.9257 33.308 13.9654 33.4069 14.0179 33.465L14.8221 34.3549C14.8611 34.3981 14.8916 34.4025 14.9028 34.4025H17.619C17.6321 34.4025 17.6672 34.3969 17.7103 34.3423C17.754 34.287 17.7918 34.1951 17.7918 34.0785V32.2986C17.7918 32.182 17.754 32.0901 17.7103 32.0348C17.6672 31.9803 17.6321 31.9746 17.619 31.9746H14.9028C14.8916 31.9746 14.861 31.9791 14.8221 32.0222L14.0179 32.912ZM11.4953 34.5389L10.5422 35.2897C10.4182 35.3874 10.3501 35.5125 10.3501 35.6421V38.1784C10.3501 38.4738 10.6972 38.7132 11.1254 38.7132H13.0317C13.4599 38.7132 13.8071 38.4738 13.8071 38.1784V35.6421C13.8071 35.5125 13.7388 35.3873 13.615 35.2897L12.6619 34.5389C12.353 34.2956 11.8041 34.2956 11.4953 34.5389ZM12.4144 34.8531C12.4144 34.8531 12.4144 34.8531 12.4144 34.8531C12.3462 34.7994 12.2256 34.7564 12.0786 34.7564C11.9316 34.7564 11.811 34.7994 11.7429 34.8531L10.7897 35.6039C10.7897 35.604 10.7897 35.6039 10.7897 35.6039C10.7646 35.6237 10.7543 35.6391 10.7509 35.6454C10.7505 35.646 10.7503 35.6465 10.7501 35.6469V38.1737C10.7532 38.1809 10.7651 38.2003 10.8043 38.2273C10.8697 38.2725 10.9821 38.3132 11.1254 38.3132H13.0317C13.1751 38.3132 13.2874 38.2725 13.3528 38.2273C13.392 38.2003 13.4039 38.1809 13.4071 38.1737V35.6469C13.4068 35.6465 13.4066 35.646 13.4062 35.6453C13.4028 35.639 13.3924 35.6235 13.3674 35.6039L12.4144 34.8531ZM21.8298 35.9967H24.3364C24.4468 35.9967 24.5476 35.9555 24.6179 35.8899C24.6872 35.8251 24.7205 35.7434 24.7205 35.6645C24.7205 35.5856 24.6872 35.5039 24.6179 35.4391C24.5476 35.3735 24.4468 35.3323 24.3364 35.3323H21.8298C21.7194 35.3323 21.6186 35.3735 21.5483 35.4391C21.479 35.5039 21.4456 35.5856 21.4456 35.6645C21.4456 35.7434 21.479 35.8251 21.5483 35.8899C21.6186 35.9555 21.7194 35.9967 21.8298 35.9967ZM31.2098 35.6644C31.2098 35.5856 31.1765 35.5039 31.1072 35.4391C31.0369 35.3735 30.9361 35.3323 30.8257 35.3323H28.3191C28.2087 35.3323 28.1079 35.3735 28.0376 35.4391C27.9683 35.5039 27.9349 35.5856 27.9349 35.6645C27.9349 35.7434 27.9683 35.8251 28.0376 35.8899C28.1079 35.9555 28.2087 35.9967 28.3191 35.9967H30.8257C30.8257 35.9967 30.8256 35.9967 30.8257 35.9967C30.936 35.9966 31.0369 35.9554 31.1072 35.8898C31.1765 35.8251 31.2098 35.7433 31.2098 35.6644ZM30.8257 36.3967C31.0337 36.3966 31.2331 36.3195 31.3801 36.1822C31.5272 36.0449 31.6098 35.8587 31.6098 35.6645C31.6098 35.4703 31.5272 35.2841 31.3802 35.1468C31.2331 35.0095 31.0337 34.9323 30.8257 34.9323H28.3191C28.1111 34.9323 27.9117 35.0095 27.7646 35.1468C27.6176 35.2841 27.5349 35.4703 27.5349 35.6645C27.5349 35.8587 27.6176 36.0449 27.7646 36.1822C27.9117 36.3195 28.1111 36.3967 28.3191 36.3967H30.8257ZM24.3364 36.3967H21.8298C21.6218 36.3967 21.4224 36.3195 21.2753 36.1822C21.1283 36.0449 21.0456 35.8587 21.0456 35.6645C21.0456 35.4703 21.1283 35.2841 21.2753 35.1468C21.4224 35.0095 21.6218 34.9323 21.8298 34.9323H24.3364C24.5444 34.9323 24.7438 35.0095 24.8909 35.1468C25.0379 35.2841 25.1205 35.4703 25.1205 35.6645C25.1205 35.8587 25.0379 36.0449 24.8909 36.1822C24.7438 36.3195 24.5444 36.3967 24.3364 36.3967Z" fill="url(#paint32_linear_223_68)"/>
<defs>
<linearGradient id="paint0_linear_223_68" x1="59.48" y1="6.2041" x2="138.032" y2="6.20411" gradientUnits="userSpaceOnUse">
<stop stop-color="#BDDB06"/>
<stop offset="1" stop-color="#08DB06"/>
</linearGradient>
<linearGradient id="paint1_linear_223_68" x1="59.48" y1="6.2041" x2="138.032" y2="6.20411" gradientUnits="userSpaceOnUse">
<stop stop-color="#BDDB06"/>
<stop offset="1" stop-color="#08DB06"/>
</linearGradient>
<linearGradient id="paint2_linear_223_68" x1="59.48" y1="6.2041" x2="138.032" y2="6.20411" gradientUnits="userSpaceOnUse">
<stop stop-color="#BDDB06"/>
<stop offset="1" stop-color="#08DB06"/>
</linearGradient>
<linearGradient id="paint3_linear_223_68" x1="59.48" y1="6.2041" x2="138.032" y2="6.20411" gradientUnits="userSpaceOnUse">
<stop stop-color="#BDDB06"/>
<stop offset="1" stop-color="#08DB06"/>
</linearGradient>
<linearGradient id="paint4_linear_223_68" x1="59.48" y1="6.2041" x2="138.032" y2="6.20411" gradientUnits="userSpaceOnUse">
<stop stop-color="#BDDB06"/>
<stop offset="1" stop-color="#08DB06"/>
</linearGradient>
<linearGradient id="paint5_linear_223_68" x1="59.48" y1="6.2041" x2="138.032" y2="6.20411" gradientUnits="userSpaceOnUse">
<stop stop-color="#BDDB06"/>
<stop offset="1" stop-color="#08DB06"/>
</linearGradient>
<linearGradient id="paint6_linear_223_68" x1="59.48" y1="6.2041" x2="138.032" y2="6.20411" gradientUnits="userSpaceOnUse">
<stop stop-color="#BDDB06"/>
<stop offset="1" stop-color="#08DB06"/>
</linearGradient>
<linearGradient id="paint7_linear_223_68" x1="58.48" y1="6.2041" x2="137.032" y2="6.20411" gradientUnits="userSpaceOnUse">
<stop stop-color="#BDDB06"/>
<stop offset="1" stop-color="#08DB06"/>
</linearGradient>
<linearGradient id="paint8_linear_223_68" x1="58.48" y1="6.2041" x2="137.032" y2="6.20411" gradientUnits="userSpaceOnUse">
<stop stop-color="#BDDB06"/>
<stop offset="1" stop-color="#08DB06"/>
</linearGradient>
<linearGradient id="paint9_linear_223_68" x1="58.48" y1="6.2041" x2="137.032" y2="6.20411" gradientUnits="userSpaceOnUse">
<stop stop-color="#BDDB06"/>
<stop offset="1" stop-color="#08DB06"/>
</linearGradient>
<linearGradient id="paint10_linear_223_68" x1="58.48" y1="6.2041" x2="137.032" y2="6.20411" gradientUnits="userSpaceOnUse">
<stop stop-color="#BDDB06"/>
<stop offset="1" stop-color="#08DB06"/>
</linearGradient>
<linearGradient id="paint11_linear_223_68" x1="58.48" y1="6.2041" x2="137.032" y2="6.20411" gradientUnits="userSpaceOnUse">
<stop stop-color="#BDDB06"/>
<stop offset="1" stop-color="#08DB06"/>
</linearGradient>
<linearGradient id="paint12_linear_223_68" x1="58.48" y1="6.2041" x2="137.032" y2="6.20411" gradientUnits="userSpaceOnUse">
<stop stop-color="#BDDB06"/>
<stop offset="1" stop-color="#08DB06"/>
</linearGradient>
<linearGradient id="paint13_linear_223_68" x1="58.48" y1="6.2041" x2="137.032" y2="6.20411" gradientUnits="userSpaceOnUse">
<stop stop-color="#BDDB06"/>
<stop offset="1" stop-color="#08DB06"/>
</linearGradient>
<linearGradient id="paint14_linear_223_68" x1="63.9302" y1="35.14" x2="138.683" y2="35.14" gradientUnits="userSpaceOnUse">
<stop stop-color="#BDDB06"/>
<stop offset="1" stop-color="#08DB06"/>
</linearGradient>
<linearGradient id="paint15_linear_223_68" x1="63.9302" y1="35.14" x2="138.683" y2="35.14" gradientUnits="userSpaceOnUse">
<stop stop-color="#BDDB06"/>
<stop offset="1" stop-color="#08DB06"/>
</linearGradient>
<linearGradient id="paint16_linear_223_68" x1="60.9302" y1="35.14" x2="135.683" y2="35.14" gradientUnits="userSpaceOnUse">
<stop stop-color="#BDDB06"/>
<stop offset="1" stop-color="#08DB06"/>
</linearGradient>
<linearGradient id="paint17_linear_223_68" x1="60.9302" y1="35.14" x2="135.683" y2="35.14" gradientUnits="userSpaceOnUse">
<stop stop-color="#BDDB06"/>
<stop offset="1" stop-color="#08DB06"/>
</linearGradient>
<linearGradient id="paint18_linear_223_68" x1="24.6558" y1="18.3877" x2="33.5958" y2="18.3877" gradientUnits="userSpaceOnUse">
<stop stop-color="#CDEC10"/>
<stop offset="1" stop-color="#08DB06"/>
</linearGradient>
<linearGradient id="paint19_linear_223_68" x1="24.6558" y1="18.3877" x2="33.5958" y2="18.3877" gradientUnits="userSpaceOnUse">
<stop stop-color="#CDEC10"/>
<stop offset="1" stop-color="#08DB06"/>
</linearGradient>
<linearGradient id="paint20_linear_223_68" x1="1.88324e-07" y1="39.5841" x2="52.0059" y2="39.5841" gradientUnits="userSpaceOnUse">
<stop stop-color="#CDEC10"/>
<stop offset="1" stop-color="#08DB06"/>
</linearGradient>
<linearGradient id="paint21_linear_223_68" x1="4.5415" y1="32.8725" x2="47.8414" y2="32.8725" gradientUnits="userSpaceOnUse">
<stop stop-color="#BDDB06"/>
<stop offset="1" stop-color="#08DB06"/>
</linearGradient>
<linearGradient id="paint22_linear_223_68" x1="38.4375" y1="36.6238" x2="42.4457" y2="36.6238" gradientUnits="userSpaceOnUse">
<stop stop-color="#CDEC10"/>
<stop offset="1" stop-color="#08DB06"/>
</linearGradient>
<linearGradient id="paint23_linear_223_68" x1="38.4375" y1="29.6158" x2="42.4457" y2="29.6158" gradientUnits="userSpaceOnUse">
<stop stop-color="#CDEC10"/>
<stop offset="1" stop-color="#08DB06"/>
</linearGradient>
<linearGradient id="paint24_linear_223_68" x1="34.6846" y1="33.1196" x2="38.6927" y2="33.1196" gradientUnits="userSpaceOnUse">
<stop stop-color="#CDEC10"/>
<stop offset="1" stop-color="#08DB06"/>
</linearGradient>
<linearGradient id="paint25_linear_223_68" x1="42.1904" y1="33.1196" x2="46.1986" y2="33.1196" gradientUnits="userSpaceOnUse">
<stop stop-color="#CDEC10"/>
<stop offset="1" stop-color="#08DB06"/>
</linearGradient>
<linearGradient id="paint26_linear_223_68" x1="5.96533" y1="32.9221" x2="31.6098" y2="32.9221" gradientUnits="userSpaceOnUse">
<stop stop-color="#CDEC10"/>
<stop offset="1" stop-color="#08DB06"/>
</linearGradient>
<linearGradient id="paint27_linear_223_68" x1="5.96533" y1="32.9221" x2="31.6098" y2="32.9221" gradientUnits="userSpaceOnUse">
<stop stop-color="#CDEC10"/>
<stop offset="1" stop-color="#08DB06"/>
</linearGradient>
<linearGradient id="paint28_linear_223_68" x1="5.96533" y1="32.9221" x2="31.6098" y2="32.9221" gradientUnits="userSpaceOnUse">
<stop stop-color="#CDEC10"/>
<stop offset="1" stop-color="#08DB06"/>
</linearGradient>
<linearGradient id="paint29_linear_223_68" x1="5.96533" y1="32.9221" x2="31.6098" y2="32.9221" gradientUnits="userSpaceOnUse">
<stop stop-color="#CDEC10"/>
<stop offset="1" stop-color="#08DB06"/>
</linearGradient>
<linearGradient id="paint30_linear_223_68" x1="5.96533" y1="32.9221" x2="31.6098" y2="32.9221" gradientUnits="userSpaceOnUse">
<stop stop-color="#CDEC10"/>
<stop offset="1" stop-color="#08DB06"/>
</linearGradient>
<linearGradient id="paint31_linear_223_68" x1="5.96533" y1="32.9221" x2="31.6098" y2="32.9221" gradientUnits="userSpaceOnUse">
<stop stop-color="#CDEC10"/>
<stop offset="1" stop-color="#08DB06"/>
</linearGradient>
<linearGradient id="paint32_linear_223_68" x1="5.96533" y1="32.9221" x2="31.6098" y2="32.9221" gradientUnits="userSpaceOnUse">
<stop stop-color="#BDDB06"/>
<stop offset="1" stop-color="#08DB06"/>
</linearGradient>
</defs>
</svg>
