<svg width="30" height="33" viewBox="0 0 30 33" fill="none" xmlns="http://www.w3.org/2000/svg">
<path d="M30 10.1807V10.2902C30 11.5802 30 12.2267 29.6895 12.7547C29.379 13.2827 28.8135 13.5962 27.6855 14.2247L26.496 14.8847C27.315 12.1127 27.5895 9.13368 27.69 6.58668L27.705 6.25519L27.708 6.17719C28.6845 6.51619 29.2335 6.76968 29.5755 7.24369C30 7.83318 30 8.61618 30 10.1807ZM0 10.1807V10.2902C0 11.5802 2.23517e-08 12.2267 0.3105 12.7547C0.621 13.2827 1.1865 13.5962 2.3145 14.2247L3.5055 14.8847C2.685 12.1127 2.4105 9.13368 2.31 6.58668L2.295 6.25519L2.2935 6.17719C1.3155 6.51619 0.7665 6.76968 0.4245 7.24369C0 7.83318 0 8.61768 0 10.1807Z" fill="white"/>
<path fill-rule="evenodd" clip-rule="evenodd" d="M21.5661 1.45817C19.3958 1.10248 17.1997 0.928375 15.0006 0.93767C12.3261 0.93767 10.1211 1.17317 8.43506 1.45817C6.72656 1.74617 5.87306 1.89017 5.15906 2.76917C4.44656 3.64817 4.48406 4.59767 4.55906 6.49667C4.81856 13.0187 6.22556 21.1667 13.8756 21.8867V27.1877H11.7306C11.3839 27.1879 11.0481 27.3081 10.7801 27.528C10.5121 27.7479 10.3285 28.0538 10.2606 28.3937L9.97556 29.8127H6.00056C5.70219 29.8127 5.41604 29.9312 5.20506 30.1422C4.99408 30.3532 4.87556 30.6393 4.87556 30.9377C4.87556 31.236 4.99408 31.5222 5.20506 31.7332C5.41604 31.9441 5.70219 32.0627 6.00056 32.0627H24.0006C24.2989 32.0627 24.5851 31.9441 24.7961 31.7332C25.007 31.5222 25.1256 31.236 25.1256 30.9377C25.1256 30.6393 25.007 30.3532 24.7961 30.1422C24.5851 29.9312 24.2989 29.8127 24.0006 29.8127H20.0256L19.7406 28.3937C19.6726 28.0538 19.489 27.7479 19.2211 27.528C18.9531 27.3081 18.6172 27.1879 18.2706 27.1877H16.1256V21.8867C23.7756 21.1667 25.1841 13.0202 25.4421 6.49667C25.5171 4.59767 25.5561 3.64667 24.8421 2.76917C24.1281 1.89017 23.2746 1.74617 21.5661 1.45817Z" fill="white"/>
</svg>
