<svg width="30" height="31" viewBox="0 0 30 31" fill="none" xmlns="http://www.w3.org/2000/svg">
<path fill-rule="evenodd" clip-rule="evenodd" d="M10.8025 1.03366C7.891 1.88055 5.3026 3.58584 3.37542 5.92678C1.44824 8.26773 0.271877 11.1355 0 14.1554H6.88468C7.2838 9.56002 8.61619 5.09434 10.8003 1.03151L10.8025 1.03366ZM6.88468 16.8448H0C0.271308 19.8648 1.44717 22.7329 3.37397 25.0742C5.30077 27.4155 7.88893 29.1213 10.8003 29.9687C8.61619 25.9059 7.2838 21.4402 6.88468 16.8448ZM14.2513 30.5431C11.6411 26.4069 10.0417 21.7141 9.58262 16.8448H20.4152C19.9561 21.7141 18.3567 26.4069 15.7466 30.5431C15.2484 30.5673 14.7494 30.5673 14.2513 30.5431ZM19.1997 29.9665C22.1108 29.1193 24.6987 27.4138 26.6255 25.0729C28.5522 22.732 29.7283 19.8644 30 16.8448H23.1153C22.7162 21.4402 21.3838 25.9059 19.1997 29.9687V29.9665ZM23.1153 14.1554H30C29.7287 11.1354 28.5528 8.26734 26.626 5.92601C24.6992 3.58467 22.1111 1.8789 19.1997 1.03151C21.3839 5.09431 22.7163 9.56001 23.1153 14.1554ZM14.2513 0.45707C14.7501 0.432645 15.2499 0.432645 15.7487 0.45707C18.3581 4.59349 19.9568 9.28627 20.4152 14.1554H9.58477C10.0516 9.25655 11.6545 4.55991 14.2513 0.45707Z" fill="white"/>
</svg>
