<svg width="31" height="30" viewBox="0 0 31 30" fill="none" xmlns="http://www.w3.org/2000/svg">
<path d="M17.9848 14.7495L14.5035 13.1775C14.1997 13.041 13.9501 13.194 13.9501 13.5195V16.4805C13.9501 16.806 14.1997 16.959 14.5035 16.8225L17.9832 15.2505C18.2886 15.1125 18.2886 14.8875 17.9848 14.7495ZM15.5001 0.599976C7.28202 0.599976 0.620117 7.04698 0.620117 15C0.620117 22.953 7.28202 29.4 15.5001 29.4C23.7182 29.4 30.3801 22.953 30.3801 15C30.3801 7.04698 23.7182 0.599976 15.5001 0.599976ZM15.5001 20.85C7.88342 20.85 7.75012 20.1855 7.75012 15C7.75012 9.81447 7.88342 9.14997 15.5001 9.14997C23.1168 9.14997 23.2501 9.81447 23.2501 15C23.2501 20.1855 23.1168 20.85 15.5001 20.85Z" fill="#7DF51F"/>
</svg>
