<?xml version="1.0" standalone="no"?>
<!DOCTYPE svg PUBLIC "-//W3C//DTD SVG 20010904//EN"
 "http://www.w3.org/TR/2001/REC-SVG-20010904/DTD/svg10.dtd">
<svg version="1.0" xmlns="http://www.w3.org/2000/svg"
 width="604.000000pt" height="604.000000pt" viewBox="0 0 604.000000 604.000000"
 preserveAspectRatio="xMidYMid meet">
<metadata>
Created by potrace 1.14, written by Peter Selinger 2001-2017
</metadata>
<g transform="translate(0.000000,604.000000) scale(0.100000,-0.100000)"
fill="#000000" stroke="none">
<path d="M3715 5550 c-13 -14 -20 -46 -26 -111 -16 -173 -67 -243 -333 -463
-358 -296 -473 -472 -493 -752 l-6 -84 -781 0 c-508 0 -812 -4 -871 -11 -340
-42 -646 -241 -799 -520 -64 -117 -188 -412 -242 -574 -82 -249 -132 -519
-154 -835 -5 -80 -10 -392 -10 -695 0 -597 3 -635 56 -743 32 -65 118 -160
184 -202 65 -41 183 -79 274 -86 155 -13 345 52 460 157 33 30 131 151 219
269 194 260 483 656 556 762 l53 76 42 -17 c81 -35 173 -52 285 -52 233 0 357
52 561 231 173 153 223 175 386 175 107 0 112 -1 185 -37 45 -23 107 -68 159
-114 167 -149 248 -199 388 -235 100 -26 277 -28 376 -5 38 9 73 13 76 9 4 -5
72 -98 152 -208 79 -110 251 -342 380 -516 250 -334 287 -374 411 -432 124
-59 296 -77 426 -43 153 39 295 147 353 268 56 114 58 138 58 693 0 281 -5
582 -10 670 -27 415 -93 740 -215 1050 -93 237 -163 402 -195 455 -138 233
-365 398 -659 478 l-96 26 -904 4 -904 3 6 82 c13 207 104 335 421 589 252
203 344 311 391 461 29 90 36 202 17 239 -30 56 -139 80 -177 38z m1180 -1559
c283 -58 521 -234 640 -471 18 -36 36 -76 40 -90 4 -14 34 -87 66 -162 136
-319 205 -582 244 -932 23 -203 34 -668 27 -1081 l-7 -360 -27 -57 c-66 -142
-228 -238 -403 -238 -116 0 -257 56 -340 135 -42 39 -435 562 -695 925 -73
102 -134 186 -135 188 -2 2 -41 -9 -87 -24 -72 -24 -99 -28 -208 -28 -217 -1
-299 37 -523 236 -136 123 -250 169 -412 169 -198 1 -269 -33 -511 -244 -43
-37 -110 -84 -149 -103 -175 -86 -396 -84 -574 5 -66 34 -86 38 -94 19 -14
-36 -767 -1069 -825 -1132 -43 -46 -140 -105 -210 -126 -76 -24 -211 -27 -288
-6 -161 43 -271 165 -295 329 -12 85 -11 994 1 1197 32 508 100 788 307 1251
99 222 169 318 305 422 119 91 282 163 425 187 26 4 856 8 1843 9 1714 1 1799
0 1885 -18z"/>
<path d="M1235 3926 c-191 -37 -330 -111 -471 -251 -83 -83 -108 -115 -147
-192 -78 -151 -108 -311 -88 -458 46 -328 280 -590 618 -691 119 -35 299 -44
428 -19 292 55 545 254 650 513 61 149 71 360 25 507 -49 156 -150 306 -273
405 -80 65 -240 145 -342 171 -103 27 -302 34 -400 15z m405 -86 c41 -11 115
-42 165 -68 124 -63 261 -199 323 -319 57 -110 82 -211 82 -333 0 -450 -404
-791 -888 -749 -115 10 -195 33 -312 91 -92 45 -116 63 -195 142 -103 104
-145 170 -187 291 -90 263 -11 562 200 756 111 102 240 168 402 205 86 20 317
11 410 -16z"/>
<path d="M1235 3758 c-11 -6 -23 -16 -27 -22 -14 -20 -9 -340 5 -358 6 -9 43
-40 81 -68 65 -49 73 -52 116 -48 37 4 60 15 113 57 37 29 72 61 77 71 6 10
10 89 10 175 0 152 -1 156 -25 180 -23 24 -28 25 -177 25 -95 0 -161 -5 -173
-12z"/>
<path d="M715 3295 c-24 -23 -25 -29 -25 -160 0 -131 7 -169 34 -187 6 -4 95
-8 197 -8 l186 0 61 69 c96 107 95 136 -4 241 l-66 70 -180 0 c-177 0 -179 0
-203 -25z"/>
<path d="M1637 3229 c-36 -39 -67 -83 -70 -98 -8 -38 13 -78 78 -148 l57 -63
178 0 c98 0 186 3 195 6 34 13 45 59 45 184 0 125 -11 171 -45 184 -9 3 -97 6
-195 6 l-178 0 -65 -71z"/>
<path d="M1355 2970 c-11 -4 -50 -33 -87 -64 l-68 -56 0 -175 0 -175 27 -17
c23 -15 51 -18 179 -18 148 0 153 1 178 24 26 24 26 26 26 182 0 87 -3 164 -6
173 -6 16 -113 104 -151 125 -25 13 -69 14 -98 1z"/>
<path d="M4527 3930 c-141 -24 -312 -101 -424 -190 -124 -99 -224 -249 -275
-410 -20 -64 -23 -96 -23 -215 1 -131 3 -146 33 -233 66 -192 173 -328 347
-441 145 -95 308 -141 497 -141 405 1 745 248 850 617 29 102 31 295 4 392
-85 310 -342 544 -671 612 -94 20 -249 23 -338 9z m299 -71 c330 -58 585 -295
648 -601 95 -462 -284 -888 -790 -888 -250 0 -430 73 -599 244 -146 147 -215
308 -215 500 0 124 21 214 76 323 87 176 256 322 449 388 124 42 305 57 431
34z"/>
<path d="M4616 3726 c-158 -59 -206 -244 -93 -358 103 -102 289 -87 371 30 53
76 46 187 -17 258 -61 70 -177 101 -261 70z"/>
<path d="M4160 3309 c-88 -40 -134 -108 -134 -200 -1 -74 39 -141 108 -184 44
-27 58 -30 126 -30 68 0 82 3 126 30 197 122 109 405 -126 405 -34 0 -72 -8
-100 -21z m170 -84 c47 -24 70 -62 70 -116 0 -146 -223 -177 -280 -39 -23 57
7 121 75 158 29 16 101 14 135 -3z"/>
<path d="M5019 3302 c-203 -106 -140 -388 91 -409 106 -10 193 39 236 132 41
87 26 164 -46 235 -76 76 -185 93 -281 42z"/>
<path d="M4649 2921 c-48 -10 -123 -55 -147 -89 -90 -129 -28 -293 126 -338
152 -45 302 60 302 211 0 139 -136 243 -281 216z m129 -110 c31 -17 62 -69 62
-106 0 -36 -30 -88 -62 -108 -94 -60 -228 3 -228 107 0 105 124 163 228 107z"/>
<path d="M2466 2884 c-28 -28 -34 -70 -16 -105 22 -41 60 -49 230 -49 170 0
208 8 230 49 18 35 12 77 -16 105 l-27 26 -187 0 -187 0 -27 -26z"/>
<path d="M3219 2881 c-32 -33 -36 -58 -14 -100 23 -46 55 -53 243 -49 165 3
171 4 196 27 35 33 36 92 1 126 -24 25 -26 25 -210 25 l-187 0 -29 -29z"/>
</g>
</svg>
