<?xml version="1.0" standalone="no"?>
<!DOCTYPE svg PUBLIC "-//W3C//DTD SVG 20010904//EN"
 "http://www.w3.org/TR/2001/REC-SVG-20010904/DTD/svg10.dtd">
<svg version="1.0" xmlns="http://www.w3.org/2000/svg"
 width="1024.000000pt" height="1024.000000pt" viewBox="0 0 1024.000000 1024.000000"
 preserveAspectRatio="xMidYMid meet">
<metadata>
Created by potrace 1.14, written by Peter Selinger 2001-2017
</metadata>
<g transform="translate(0.000000,1024.000000) scale(0.100000,-0.100000)"
fill="#000000" stroke="none">
<path d="M4895 9410 c189 -68 329 -231 370 -429 8 -41 13 -77 9 -80 -3 -3
-121 -9 -262 -13 -231 -6 -393 -17 -521 -35 l-44 -6 6 106 c4 79 12 121 30
166 14 34 22 61 18 61 -27 0 -151 -220 -151 -267 0 -13 -5 -23 -11 -23 -18 0
-4 144 22 219 12 35 41 92 64 127 24 35 38 61 31 56 -6 -4 -29 -19 -51 -34
l-40 -28 -44 -187 c-56 -237 -99 -339 -171 -404 l-51 -46 10 -64 c23 -140 25
-253 6 -308 -13 -40 -14 -58 -6 -81 l10 -30 -1620 0 c-890 0 -1619 -2 -1619
-5 0 -3 33 -63 74 -133 40 -70 191 -332 336 -582 144 -250 432 -747 638 -1105
545 -943 502 -865 492 -889 -69 -178 -90 -241 -86 -253 3 -7 41 -68 84 -136
43 -67 90 -141 105 -163 l26 -42 98 24 c54 13 101 24 104 24 4 0 39 -57 79
-127 40 -71 126 -220 191 -333 66 -113 118 -209 117 -215 -4 -13 -22 -11 -473
31 -382 36 -895 90 -1165 124 -692 87 -814 101 -830 93 -10 -4 -128 -96 -264
-203 l-246 -195 0 -1102 0 -1103 2168 0 c1634 0 2171 -3 2180 -12 6 -6 127
-213 269 -459 193 -335 261 -445 269 -436 6 7 80 131 164 277 296 515 354 615
365 622 5 4 1022 8 2258 8 l2248 0 -6 603 c-3 331 -8 934 -11 1340 -6 657 -8
737 -22 737 -9 0 -187 -25 -396 -55 -874 -125 -1757 -230 -2334 -276 l-143
-11 -54 47 c-30 26 -55 49 -55 51 0 3 29 39 63 82 82 99 142 189 174 259 20
44 26 76 31 161 l5 107 152 265 c83 146 196 342 250 435 54 94 231 400 393
680 161 281 336 582 387 670 51 88 169 293 262 455 94 162 227 393 297 513 69
121 126 221 126 223 0 2 -805 4 -1788 4 l-1789 0 52 53 c44 45 54 61 64 113
14 67 17 59 -104 374 -46 119 -91 198 -105 183 -4 -4 -10 -30 -14 -58 -4 -42
-4 -46 5 -22 6 15 14 27 17 27 14 0 124 -337 135 -407 9 -66 8 -75 -8 -93 -29
-32 -74 -23 -102 19 -13 19 -23 37 -23 41 0 4 21 5 46 2 l46 -5 -26 39 c-32
49 -83 199 -91 267 -6 54 -15 76 -15 39 0 -12 -4 -22 -8 -22 -4 0 -84 149
-176 330 l-168 331 -46 23 c-59 30 -218 86 -240 85 -9 0 6 -9 33 -19z m289
-566 l85 -28 7 -42 c12 -83 9 -112 -16 -139 -29 -31 -113 -63 -192 -74 -53 -7
-64 -5 -108 18 -27 14 -81 55 -120 90 -84 75 -83 75 -129 -45 -17 -45 -40 -89
-51 -99 -31 -28 -90 -44 -163 -45 -64 0 -71 2 -95 29 -15 16 -40 55 -57 86
l-30 57 55 48 c87 78 144 105 215 104 38 -1 76 -9 105 -23 65 -30 82 -27 144
28 31 26 70 53 88 59 51 17 167 7 262 -24z m188 -314 c-5 -31 -20 -80 -32
-109 -22 -50 -23 -51 -66 -51 -32 0 -44 4 -44 15 0 16 -12 18 -58 9 -22 -4
-38 -17 -53 -42 l-21 -36 -20 27 c-23 31 -34 33 -59 11 -16 -14 -23 -15 -49
-4 -29 12 -33 11 -65 -20 -34 -33 -42 -33 -80 -5 -19 13 -23 13 -43 -1 -12 -8
-22 -26 -22 -40 0 -32 -9 -30 -55 9 -35 30 -37 35 -25 57 9 18 -5 10 -53 -29
-64 -50 -87 -57 -87 -25 0 11 -13 6 -45 -18 -94 -68 -81 -70 -119 13 -59 128
-102 335 -48 232 45 -86 130 -120 254 -103 36 5 78 14 92 20 35 13 59 13 51 0
-4 -6 -4 -24 0 -40 5 -25 12 -30 35 -30 18 0 34 8 44 22 15 21 16 21 35 4 28
-25 69 -14 77 21 4 15 0 47 -9 74 -8 27 -13 49 -11 49 2 0 28 -16 58 -35 64
-40 74 -42 147 -16 123 42 237 111 239 143 0 4 5 19 12 35 11 28 12 27 21 -26
7 -36 7 -72 -1 -111z m-1187 -2 c-10 -161 -24 -165 -50 -13 -13 69 -12 70 13
98 14 15 30 27 35 27 6 0 7 -44 2 -112z m905 -262 c0 -29 -15 -50 -30 -41 -8
5 -21 -4 -36 -21 l-24 -29 -28 33 -27 33 -30 -40 c-17 -22 -34 -41 -39 -41 -6
0 -21 10 -34 23 -23 21 -25 21 -36 3 -6 -10 -18 -27 -27 -38 -15 -20 -16 -20
-52 12 l-37 32 -11 -26 c-16 -34 -25 -33 -44 4 -15 28 -14 33 2 60 21 36 27
36 78 5 22 -14 43 -25 47 -25 4 0 17 18 30 41 l23 41 21 -28 22 -27 43 36 c23
21 46 37 49 37 4 0 19 -9 33 -20 l26 -21 23 31 23 31 17 -21 c10 -12 18 -32
18 -44z m-847 -16 c9 -32 17 -69 17 -82 0 -20 -3 -19 -39 16 l-40 39 -7 -62
c-7 -60 -20 -76 -42 -48 -13 16 -1 92 21 134 15 28 52 63 67 63 3 0 13 -27 23
-60z m927 -25 c0 -55 -37 -142 -73 -169 -53 -40 -150 -84 -207 -94 -68 -13
-125 -3 -184 32 -60 35 -70 51 -25 42 74 -16 142 -19 135 -8 -4 7 -13 12 -19
12 -15 0 -90 50 -85 56 3 2 24 -4 47 -13 43 -17 43 -17 62 8 18 24 18 24 51 6
35 -20 32 -22 72 38 14 20 14 19 36 -8 l23 -28 24 40 c23 39 43 46 43 15 0
-34 31 -9 57 45 15 33 31 60 36 60 4 1 7 -15 7 -34z m45 -211 c-9 -25 -29 -59
-43 -77 l-27 -32 30 18 c17 10 50 40 74 65 36 39 41 42 28 17 -19 -38 -78 -98
-125 -130 -23 -15 -65 -29 -111 -36 -73 -11 -181 -5 -181 11 0 4 21 13 48 20
68 17 202 82 243 118 19 17 44 47 55 67 25 48 32 19 9 -41z m850 -244 c49 -6
103 -17 119 -25 25 -13 163 -15 968 -15 516 0 938 -4 938 -8 0 -5 -222 -316
-494 -692 l-494 -684 -26 -96 c-27 -93 -41 -129 -49 -120 -2 3 -29 77 -60 165
-31 88 -94 259 -140 379 l-82 219 -140 98 -140 99 -26 107 c-23 95 -126 369
-135 360 -2 -2 3 -51 12 -108 19 -123 14 -276 -12 -392 -9 -42 -19 -75 -22
-72 -2 2 -21 -22 -41 -55 -52 -86 -142 -190 -222 -257 -73 -61 -175 -133 -189
-133 -4 0 3 27 17 60 33 82 53 195 53 297 l0 85 -56 -71 c-52 -65 -74 -84 -74
-63 0 4 9 35 20 69 37 120 53 273 47 453 -4 91 -10 185 -14 210 l-8 45 -6 -45
c-4 -30 -7 -5 -7 72 l-2 117 58 4 c31 2 71 4 87 5 17 1 70 -3 120 -8z m-876
-13 c-2 -2 -21 -16 -42 -32 -50 -37 -121 -138 -152 -214 -14 -33 -25 -63 -25
-66 0 -4 33 21 73 54 77 63 230 161 254 161 45 0 -41 -131 -134 -205 -108 -85
-227 -125 -282 -95 -36 19 -61 70 -61 126 0 84 57 156 170 214 66 34 230 81
199 57z m-1059 -35 c0 -4 -22 -16 -49 -27 -39 -16 -61 -35 -103 -89 -58 -75
-64 -79 -239 -130 -86 -26 -86 -26 -121 -83 -27 -44 -39 -78 -48 -138 -11 -72
-18 -89 -76 -178 -36 -54 -70 -100 -77 -102 -125 -43 -125 -43 -237 -167 -95
-105 -120 -139 -181 -256 l-72 -135 -18 24 c-10 13 -61 83 -112 154 -52 72
-254 352 -450 623 -196 271 -357 498 -357 503 0 5 416 9 1070 9 589 0 1070 -3
1070 -8z m144 -59 c-3 -32 -15 -85 -25 -118 -31 -98 -44 -254 -31 -380 6 -60
9 -111 7 -114 -3 -2 -23 9 -46 25 -45 31 -105 98 -167 187 l-41 59 -6 -34 c-6
-33 8 -178 21 -211 23 -61 -146 38 -262 153 l-61 61 8 51 c5 28 10 52 11 53 9
9 584 325 591 325 5 0 5 -26 1 -57z m1531 -182 c3 -5 1 -12 -5 -16 -5 -3 -10
1 -10 9 0 18 6 21 15 7z m-3605 -711 c260 -360 477 -660 482 -667 16 -21 -65
-235 -82 -217 -4 5 -162 277 -350 604 -189 327 -384 665 -433 750 -49 85 -99
171 -110 190 l-20 35 20 -20 c11 -11 233 -315 493 -675z m6169 658 c-11 -20
-335 -584 -584 -1013 -398 -689 -476 -822 -488 -839 -12 -16 -15 -11 -26 55
-7 41 -21 109 -32 151 l-19 77 47 65 c27 35 287 395 578 799 292 404 531 733
533 732 2 -2 -2 -14 -9 -27z m-2572 -30 c-3 -8 -6 -5 -6 6 -1 11 2 17 5 13 3
-3 4 -12 1 -19z m-10 -50 c-3 -8 -6 -5 -6 6 -1 11 2 17 5 13 3 -3 4 -12 1 -19z
m-128 -45 c0 -44 -2 -53 -9 -36 -8 20 -3 93 6 93 2 0 4 -26 3 -57z m-1264
-143 c14 -105 74 -412 91 -459 16 -47 -143 54 -221 141 -86 95 -241 318 -221
318 3 0 33 -37 67 -82 76 -101 200 -225 257 -256 48 -26 47 -27 28 65 -21 98
-37 289 -29 351 3 29 7 51 9 50 1 -2 10 -59 19 -128z m1372 108 c-3 -8 -6 -5
-6 6 -1 11 2 17 5 13 3 -3 4 -12 1 -19z m-133 -32 c-3 -15 -8 -25 -11 -23 -2
3 -1 17 3 31 3 15 8 25 11 23 2 -3 1 -17 -3 -31z m-324 -62 c-67 -68 -170
-120 -325 -164 -60 -18 -117 -34 -125 -37 -27 -9 55 -42 137 -56 43 -7 72 -17
65 -21 -24 -14 -256 -19 -310 -6 -109 26 -149 79 -171 227 -17 109 -18 105 34
82 191 -84 460 -81 680 9 28 12 54 21 60 21 5 1 -15 -24 -45 -55z m337 -26
c-2 -13 -4 -3 -4 22 0 25 2 35 4 23 2 -13 2 -33 0 -45z m-10 -75 c-3 -10 -5
-4 -5 12 0 17 2 24 5 18 2 -7 2 -21 0 -30z m69 0 c-8 -15 -15 -25 -16 -21 0
12 23 58 27 54 3 -2 -2 -17 -11 -33z m-1733 -253 c196 -151 357 -277 357 -280
0 -3 -30 -25 -66 -49 -37 -24 -91 -68 -120 -98 l-54 -53 -40 26 c-22 15 -40
30 -40 35 0 5 33 27 73 49 l72 41 -120 -4 c-66 -3 -144 -11 -172 -19 -43 -12
-53 -13 -53 -2 0 37 100 94 166 94 31 0 39 16 11 24 -12 3 -66 11 -120 18
-127 16 -278 1 -362 -37 -32 -14 -60 -25 -63 -25 -11 0 8 181 28 265 25 103
114 298 134 293 7 -2 173 -127 369 -278z m1608 253 c-12 -20 -14 -14 -5 12 4
9 9 14 11 11 3 -2 0 -13 -6 -23z m-20 -46 c-10 -9 -11 -8 -5 6 3 10 9 15 12
12 3 -3 0 -11 -7 -18z m66 -19 c-3 -8 -6 -5 -6 6 -1 11 2 17 5 13 3 -3 4 -12
1 -19z m34 -41 c-10 -9 -11 -8 -5 6 3 10 9 15 12 12 3 -3 0 -11 -7 -18z m-36
4 c3 -5 1 -12 -5 -16 -5 -3 -10 1 -10 9 0 18 6 21 15 7z m-115 -61 c-6 -11
-13 -20 -16 -20 -2 0 0 9 6 20 6 11 13 20 16 20 2 0 0 -9 -6 -20z m113 -7
c-18 -27 -28 -24 -19 5 4 10 13 19 20 19 12 0 12 -4 -1 -24z m607 -82 c-28
-56 -35 -52 -8 4 12 24 23 43 26 41 2 -2 -6 -22 -18 -45z m-2958 -203 c-2
-123 0 -240 5 -261 l8 -37 49 35 c45 32 154 80 162 72 2 -2 -9 -30 -25 -63
-15 -32 -47 -103 -70 -156 -24 -54 -47 -98 -51 -98 -4 0 -32 11 -63 24 -79 36
-176 66 -208 66 -15 0 -30 3 -32 8 -2 4 27 72 64 152 38 80 68 149 69 153 0 7
-27 5 -104 -10 -27 -5 -28 -4 -22 23 18 71 80 178 143 244 36 39 68 70 72 70
4 0 5 -100 3 -222z m2152 142 c-10 -16 -20 -28 -22 -26 -4 5 28 56 35 56 2 0
-4 -13 -13 -30z m746 -60 c-6 -11 -13 -20 -16 -20 -2 0 0 9 6 20 6 11 13 20
16 20 2 0 0 -9 -6 -20z m-620 -70 l-8 -35 -1 45 c-1 27 3 40 8 35 6 -6 6 -25
1 -45z m1229 -27 c50 -100 105 -272 125 -392 26 -155 16 -405 -21 -526 -14
-48 116 137 146 208 13 28 21 37 25 27 85 -219 135 -395 171 -605 48 -275 44
-559 -11 -682 -24 -56 -63 -117 -70 -110 -2 2 12 57 32 121 33 110 35 119 20
141 -34 52 -84 56 -150 13 -24 -16 -45 -45 -72 -103 -21 -44 -40 -82 -41 -84
-1 -2 -16 8 -33 23 -17 14 -38 26 -46 26 -11 0 -13 9 -7 43 5 23 8 105 7 182
-2 273 -80 523 -228 730 l-36 50 7 -65 c13 -111 9 -401 -6 -435 -14 -30 -14
-29 -32 59 -10 49 -24 103 -31 120 -19 47 -76 105 -129 131 -45 24 -47 26 -43
62 2 21 12 101 20 178 9 77 18 223 19 325 2 121 8 209 18 256 17 73 81 262 94
275 4 4 8 -67 9 -159 0 -92 7 -214 14 -272 l14 -105 12 105 c19 152 52 304 85
390 30 78 73 150 89 150 5 0 27 -35 49 -77z m-659 14 c0 -2 -12 -14 -27 -28
l-28 -24 24 28 c23 25 31 32 31 24z m-673 -39 c-3 -8 -6 -5 -6 6 -1 11 2 17 5
13 3 -3 4 -12 1 -19z m827 7 c-4 -8 -11 -15 -16 -15 -6 0 -5 6 2 15 7 8 14 15
16 15 2 0 1 -7 -2 -15z m-34 -18 c0 -2 -10 -12 -22 -23 l-23 -19 19 23 c18 21
26 27 26 19z m-170 -11 c0 -2 -8 -10 -17 -17 -16 -13 -17 -12 -4 4 13 16 21
21 21 13z m180 -16 c-6 -11 -13 -20 -16 -20 -2 0 0 9 6 20 6 11 13 20 16 20 2
0 0 -9 -6 -20z m-527 -77 c13 -43 36 -136 51 -208 15 -71 30 -146 34 -165 6
-31 19 -41 140 -113 77 -46 137 -76 142 -71 17 17 141 384 134 395 -4 7 -3 9
4 5 5 -3 13 0 15 6 3 7 6 4 6 -6 1 -18 -38 -191 -109 -481 -16 -66 -34 -146
-41 -177 -7 -32 -15 -58 -19 -58 -11 0 -282 242 -276 247 2 3 50 -7 106 -21
55 -14 104 -26 108 -26 7 0 -21 19 -213 142 l-101 65 8 94 c9 103 -7 398 -23
414 -12 12 -12 35 1 35 5 0 20 -35 33 -77z m-113 57 c0 -5 -5 -10 -11 -10 -5
0 -7 5 -4 10 3 6 8 10 11 10 2 0 4 -4 4 -10z m580 6 c0 -2 -8 -10 -17 -17 -16
-13 -17 -12 -4 4 13 16 21 21 21 13z m-723 -28 c-3 -8 -6 -5 -6 6 -1 11 2 17
5 13 3 -3 4 -12 1 -19z m70 -55 c-2 -16 -4 -5 -4 22 0 28 2 40 4 28 2 -13 2
-35 0 -50z m430 -1 c-37 -37 -65 -71 -61 -74 3 -4 -4 -11 -15 -18 -12 -6 -21
-7 -21 -3 0 8 151 163 159 163 3 0 -25 -31 -62 -68z m173 54 c0 -2 -8 -10 -17
-17 -16 -13 -17 -12 -4 4 13 16 21 21 21 13z m-450 -26 c0 -5 -4 -10 -10 -10
-5 0 -10 5 -10 10 0 6 5 10 10 10 6 0 10 -4 10 -10z m-210 -10 c0 -5 -5 -10
-11 -10 -5 0 -7 5 -4 10 3 6 8 10 11 10 2 0 4 -4 4 -10z m-560 -41 c0 -40 -22
-89 -53 -118 -25 -23 -27 -23 -52 -7 -14 9 -25 21 -25 26 0 16 111 140 121
135 5 -4 9 -20 9 -36z m697 9 c-3 -8 -6 -5 -6 6 -1 11 2 17 5 13 3 -3 4 -12 1
-19z m556 -13 c-10 -13 -22 -25 -27 -25 -5 0 1 11 14 25 30 32 36 32 13 0z
m-496 -7 c-3 -8 -6 -5 -6 6 -1 11 2 17 5 13 3 -3 4 -12 1 -19z m-200 -10 c-3
-8 -6 -5 -6 6 -1 11 2 17 5 13 3 -3 4 -12 1 -19z m533 17 c0 -2 -10 -9 -22
-15 -22 -11 -22 -10 -4 4 21 17 26 19 26 11z m-2960 -11 c0 -4 -28 -50 -62
-104 l-62 -98 -51 -5 c-27 -3 -52 -3 -54 -1 -3 3 34 69 95 171 16 25 134 58
134 37z m1357 -31 c2 -5 -22 -29 -53 -53 l-56 -42 -25 25 -25 25 58 40 c51 35
62 39 78 28 11 -7 21 -17 23 -23z m1120 -20 c-3 -10 -5 -2 -5 17 0 19 2 27 5
18 2 -10 2 -26 0 -35z m100 25 c-3 -8 -6 -5 -6 6 -1 11 2 17 5 13 3 -3 4 -12
1 -19z m328 2 c-3 -5 -12 -10 -18 -10 -7 0 -6 4 3 10 19 12 23 12 15 0z m-468
-42 c-3 -7 -5 -2 -5 12 0 14 2 19 5 13 2 -7 2 -19 0 -25z m180 10 c-3 -8 -6
-5 -6 6 -1 11 2 17 5 13 3 -3 4 -12 1 -19z m463 13 c0 -5 -12 -17 -27 -26
l-28 -18 24 27 c26 28 31 31 31 17z m-493 -48 c-3 -10 -5 -4 -5 12 0 17 2 24
5 18 2 -7 2 -21 0 -30z m-1152 -10 c19 -9 35 -19 35 -23 0 -3 -20 -25 -44 -49
-40 -39 -46 -42 -67 -31 -52 27 -52 31 -7 77 23 23 43 43 45 43 1 0 18 -8 38
-17z m1032 -15 c-3 -7 -5 -2 -5 12 0 14 2 19 5 13 2 -7 2 -19 0 -25z m140 10
c-3 -8 -6 -5 -6 6 -1 11 2 17 5 13 3 -3 4 -12 1 -19z m-148 -48 c1 -13 0 -13
-9 0 -5 8 -9 26 -9 40 l1 25 8 -25 c4 -14 8 -32 9 -40z m571 57 c0 -8 -82 -69
-86 -64 -3 2 14 19 38 36 41 30 48 34 48 28z m-1161 -264 l46 -42 -65 -60 -65
-59 -45 33 c-127 92 -192 136 -196 133 -1 -2 31 -51 72 -108 41 -58 80 -114
86 -125 10 -19 10 -19 -13 1 -169 147 -279 247 -279 253 0 8 75 111 137 189
l34 42 121 -107 c67 -60 142 -127 167 -150z m1257 232 c-11 -8 -25 -15 -30
-15 -6 1 0 7 14 15 32 19 40 18 16 0z m-529 -27 c-3 -7 -5 -2 -5 12 0 14 2 19
5 13 2 -7 2 -19 0 -25z m403 -8 c0 -5 -7 -10 -16 -10 -8 0 -12 5 -9 10 3 6 10
10 16 10 5 0 9 -4 9 -10z m47 4 c-3 -3 -12 -4 -19 -1 -8 3 -5 6 6 6 11 1 17
-2 13 -5z m-736 -393 c231 -202 420 -372 419 -377 -2 -5 -16 -14 -31 -21 -28
-12 -35 -6 -463 355 -239 202 -435 370 -435 373 -1 7 60 37 76 38 6 1 202
-165 434 -368z m-965 283 c2 -5 -11 -20 -27 -33 -29 -22 -31 -23 -50 -5 -19
17 -19 18 8 46 24 25 29 26 47 15 11 -8 21 -18 22 -23z m-1215 -113 c133 -41
189 -67 189 -87 0 -54 -23 -144 -38 -148 -10 -3 -74 -16 -144 -30 -70 -14
-184 -45 -255 -68 l-128 -42 50 -7 c28 -4 104 -12 170 -19 66 -6 150 -19 188
-27 57 -13 67 -18 67 -36 1 -78 22 -260 35 -297 8 -24 13 -45 11 -48 -3 -2
-47 -16 -98 -30 -81 -21 -120 -25 -296 -30 -204 -4 -204 -4 -175 -23 36 -24
127 -54 233 -77 l85 -19 -110 -35 c-145 -47 -280 -64 -371 -49 -82 15 -112 29
-152 76 -39 44 -46 70 -40 150 7 87 18 99 36 40 12 -44 65 -135 78 -135 2 0 2
35 -2 78 -12 149 14 245 156 556 69 153 123 252 144 269 6 4 58 6 116 4 92 -3
116 -8 193 -39 48 -19 87 -32 87 -29 0 8 -75 80 -114 109 -38 29 -27 28 85 -7z
m1889 -113 c17 -12 30 -26 30 -31 0 -11 -120 -227 -127 -227 -15 0 -94 64 -91
74 5 18 142 205 151 206 4 0 21 -10 37 -22z m-612 -100 c14 -14 16 -97 2 -118
-8 -13 -15 -12 -50 7 -22 12 -40 17 -40 12 0 -5 14 -37 31 -71 41 -82 136
-176 214 -212 33 -16 87 -41 120 -57 111 -52 187 -139 121 -139 -13 0 -59 19
-102 41 -62 33 -95 44 -154 50 -74 8 -297 70 -372 103 -21 9 -38 12 -38 8 0
-12 90 -96 119 -112 13 -6 43 -27 67 -45 24 -19 66 -46 94 -61 49 -26 68 -50
33 -40 -10 2 -34 8 -53 11 -39 8 -210 73 -225 86 -5 5 -13 9 -17 9 -16 0 13
-41 83 -117 94 -103 93 -115 -3 -60 -78 44 -154 111 -228 204 l-63 78 5 -62 6
-61 -66 44 c-36 25 -91 58 -122 74 -67 34 -78 45 -95 104 l-14 45 47 39 c160
132 314 219 427 242 66 13 259 12 273 -2z m287 -131 c99 -66 182 -122 185
-124 2 -2 -4 -25 -14 -51 l-17 -47 58 -54 c32 -29 122 -105 201 -170 95 -77
141 -121 138 -131 -17 -54 -83 -200 -90 -200 -10 0 -166 100 -166 106 0 2 11
14 25 28 74 74 -25 239 -221 366 -52 34 -120 73 -152 87 -75 34 -136 76 -161
111 -18 26 -19 32 -6 68 8 21 14 63 15 92 0 40 3 51 13 46 6 -4 93 -61 192
-127z m624 -80 c89 -82 161 -152 161 -155 0 -4 -19 -29 -42 -55 l-43 -47 -136
102 c-75 57 -135 105 -133 107 3 3 27 -5 119 -44 37 -16 34 -10 -57 83 -54 54
-98 103 -98 107 0 15 44 56 56 53 7 -2 84 -70 173 -151z m-189 -213 c105 -75
190 -138 190 -141 0 -12 -46 -83 -52 -80 -11 3 -254 198 -312 250 -49 43 -50
44 -37 75 8 18 15 32 17 32 3 0 90 -61 194 -136z m1057 34 c57 -14 116 -79
138 -150 9 -29 18 -89 22 -133 l5 -80 -58 55 c-33 30 -118 112 -190 183 -141
137 -139 131 -54 140 41 5 78 0 137 -15z m-54 -290 c188 -160 391 -334 450
-386 108 -95 108 -95 89 -115 -20 -19 -21 -19 -44 -1 -13 11 -223 187 -467
393 -424 359 -441 375 -419 387 13 8 29 13 36 14 7 0 167 -131 355 -292z
m-551 215 l26 -28 -40 -70 c-22 -38 -75 -133 -117 -210 -52 -96 -77 -133 -79
-119 -5 32 35 179 70 259 37 86 97 195 107 195 4 0 19 -12 33 -27z m658 -508
c184 -158 339 -292 345 -296 6 -6 -1 -19 -17 -36 l-26 -26 -344 338 c-188 185
-345 342 -347 349 -2 6 9 -1 25 -15 16 -14 180 -156 364 -314z m-1510 254 l25
-21 -26 15 c-26 16 -27 15 -39 -14 -17 -39 -23 -32 -8 9 15 38 16 38 48 11z
m1246 -192 c462 -406 534 -470 534 -480 0 -17 -54 -97 -66 -97 -13 0 -192 135
-344 258 -188 154 -408 388 -385 410 2 3 48 -31 102 -74 136 -111 144 -115 92
-54 -51 61 -179 237 -179 246 0 6 -2 8 246 -209z m-1191 163 c3 -6 -1 -7 -9
-4 -18 7 -21 14 -7 14 6 0 13 -4 16 -10z m90 -58 c-4 -5 -75 37 -75 44 0 3 18
-6 39 -18 22 -12 38 -24 36 -26z m-1153 -407 c367 -507 351 -485 345 -491 -8
-9 -498 23 -507 32 -4 5 -103 175 -219 378 -195 341 -210 370 -194 382 63 49
252 139 264 126 4 -4 143 -196 311 -427z m1168 368 c-11 -17 -11 -17 -6 0 3
10 6 24 7 30 0 9 2 9 5 0 3 -7 0 -20 -6 -30z m-904 1 c18 -14 18 -14 -6 -3
-31 14 -36 19 -24 19 6 0 19 -7 30 -16z m764 -253 c6 -46 21 -116 34 -155 17
-52 25 -107 30 -206 4 -74 11 -155 16 -180 4 -25 7 -46 6 -47 -1 -1 -77 8
-169 20 l-166 22 -51 74 c-28 40 -49 75 -47 77 2 2 30 -5 62 -16 49 -17 194
-42 202 -35 2 1 -8 28 -21 61 -26 65 -52 171 -44 179 3 3 28 -7 57 -21 28 -15
53 -25 55 -23 3 2 -2 49 -9 104 -23 158 -17 327 12 395 4 8 10 -25 14 -75 4
-49 13 -128 19 -174z m-652 144 c-3 -3 -9 2 -12 12 -6 14 -5 15 5 6 7 -7 10
-15 7 -18z m539 -107 c-2 -24 -4 -5 -4 42 0 47 2 66 4 43 2 -24 2 -62 0 -85z
m223 98 c0 -3 -4 -8 -10 -11 -5 -3 -10 -1 -10 4 0 6 5 11 10 11 6 0 10 -2 10
-4z m-743 -68 c-3 -8 -6 -5 -6 6 -1 11 2 17 5 13 3 -3 4 -12 1 -19z m250 -10
c-3 -8 -6 -5 -6 6 -1 11 2 17 5 13 3 -3 4 -12 1 -19z m172 15 c0 -5 -4 -17 -9
-28 -8 -18 -9 -17 -9 8 -1 15 4 27 9 27 6 0 10 -3 9 -7z m503 -51 c31 -32 65
-77 77 -101 13 -24 25 -41 27 -38 3 3 6 35 6 71 0 73 8 75 39 14 19 -36 20
-51 14 -125 -5 -60 -10 -83 -19 -80 -7 3 -51 30 -99 61 -94 62 -125 97 -134
150 -7 46 5 106 21 106 7 0 38 -26 68 -58z m-205 26 c-3 -8 -6 -5 -6 6 -1 11
2 17 5 13 3 -3 4 -12 1 -19z m-715 -40 c-8 -8 -9 -4 -5 13 4 13 8 18 11 10 2
-7 -1 -18 -6 -23z m705 -10 c-3 -7 -5 -2 -5 12 0 14 2 19 5 13 2 -7 2 -19 0
-25z m-238 -68 c0 -8 -6 0 -14 19 -8 18 -15 36 -15 40 1 13 29 -45 29 -59z
m2446 -26 c-22 -106 -79 -279 -109 -331 -20 -34 -22 -43 -10 -43 12 0 810
-656 886 -729 17 -16 17 -18 -5 -49 -12 -17 -26 -32 -32 -32 -21 0 -470 396
-467 412 2 13 -3 15 -33 8 -36 -8 -39 -6 -281 191 -134 110 -244 202 -244 204
0 3 9 20 20 40 11 20 20 41 20 47 0 6 -25 40 -55 75 -30 36 -55 69 -55 74 0
21 52 78 85 93 36 18 82 21 104 7 11 -7 10 -18 -8 -65 -11 -31 -17 -56 -12
-56 15 0 131 130 168 187 19 30 37 53 39 50 3 -2 -3 -40 -11 -83z m-2218 39
c-3 -10 -5 -4 -5 12 0 17 2 24 5 18 2 -7 2 -21 0 -30z m-480 -5 c-3 -8 -6 -5
-6 6 -1 11 2 17 5 13 3 -3 4 -12 1 -19z m308 12 c3 -5 1 -10 -4 -10 -6 0 -11
5 -11 10 0 6 2 10 4 10 3 0 8 -4 11 -10z m-318 -72 c-3 -7 -5 -2 -5 12 0 14 2
19 5 13 2 -7 2 -19 0 -25z m480 -30 c-2 -13 -4 -3 -4 22 0 25 2 35 4 23 2 -13
2 -33 0 -45z m615 -32 c-2 -46 1 -117 8 -157 12 -79 54 -185 63 -159 3 8 15
48 27 88 13 41 31 83 40 94 16 21 17 20 22 -38 3 -32 11 -78 18 -101 13 -44
30 -58 30 -25 0 31 30 122 40 122 5 0 12 -12 15 -27 15 -67 59 -176 91 -220
42 -59 34 -65 -69 -52 -87 11 -306 64 -320 78 -4 4 -11 60 -14 123 -5 93 -2
137 17 236 12 67 25 122 29 122 3 0 4 -38 3 -84z m-781 24 c8 -13 10 -13 19 0
5 9 10 10 10 3 0 -6 3 -18 6 -27 3 -9 1 -16 -6 -16 -6 0 -9 4 -6 9 3 5 -2 11
-12 13 -9 3 -25 20 -35 39 -15 27 -15 30 -2 14 9 -11 20 -27 26 -35z m-212 0
c11 -24 11 -24 -3 -6 -9 11 -16 24 -16 30 0 12 5 7 19 -24z m98 -17 c-3 -10
-5 -4 -5 12 0 17 2 24 5 18 2 -7 2 -21 0 -30z m753 2 c0 -34 15 -39 29 -8 6
14 14 24 16 21 2 -2 -7 -64 -20 -138 -13 -74 -28 -162 -32 -195 -9 -59 -9 -59
-17 63 -8 130 0 295 15 286 5 -3 9 -16 9 -29z m-963 -27 c-3 -7 -5 -2 -5 12 0
14 2 19 5 13 2 -7 2 -19 0 -25z m682 -75 c96 -98 171 -203 171 -239 0 -13 -3
-24 -6 -24 -20 0 -82 50 -125 102 -32 38 -49 53 -49 41 0 -23 45 -120 74 -158
40 -54 42 -59 10 -41 -99 59 -140 93 -161 136 -36 72 -44 270 -12 270 6 0 50
-39 98 -87z m864 -93 c-7 -79 -17 -104 -29 -69 -11 35 -8 127 7 179 l13 45 7
-45 c5 -25 5 -74 2 -110z m-1372 103 c13 -16 12 -17 -3 -4 -17 13 -22 21 -14
21 2 0 10 -8 17 -17z m79 -48 c0 -5 -5 -3 -10 5 -5 8 -10 20 -10 25 0 6 5 3
10 -5 5 -8 10 -19 10 -25z m1605 -109 c63 -70 115 -129 115 -131 0 -11 -97 27
-132 51 -64 45 -127 145 -128 202 0 35 17 21 145 -122z m-1637 102 c7 -10 20
-18 28 -18 8 0 14 -4 14 -10 0 -19 -16 -10 -51 27 -18 20 -27 32 -19 28 8 -5
21 -17 28 -27z m1493 -191 c24 -29 68 -78 97 -110 30 -32 51 -61 49 -64 -11
-11 -79 20 -126 57 -51 40 -91 108 -91 153 0 36 18 27 71 -36z m50 -24 c13
-16 12 -17 -3 -4 -10 7 -18 15 -18 17 0 8 8 3 21 -13z m592 -38 c1 -5 -11 -12
-27 -13 -27 -3 -28 -2 -16 13 14 17 40 17 43 0z m-512 -22 c13 -16 12 -17 -3
-4 -10 7 -18 15 -18 17 0 8 8 3 21 -13z m-202 -85 c2 -13 -46 -9 -57 5 -6 6
-14 26 -18 42 l-7 30 41 -35 c22 -19 41 -38 41 -42z m-4917 -865 l3 -708 108
-3 107 -3 0 -179 0 -180 -222 0 -223 1 -182 178 -183 179 0 704 c0 388 3 708
7 711 3 4 136 7 295 7 l288 0 2 -707z m1118 -6 l0 -713 -178 -177 -179 -177
-224 2 -224 3 -3 178 -2 177 110 0 110 0 0 710 0 710 295 0 295 0 0 -713z
m1706 -172 c194 -484 350 -883 347 -887 -2 -5 -134 -8 -293 -8 -219 0 -291 3
-297 12 -4 7 -20 42 -34 78 l-27 65 -301 3 c-165 1 -301 6 -301 11 0 4 26 84
59 177 l59 169 172 3 c131 2 171 5 167 15 -53 133 -470 1215 -474 1230 -5 16
11 17 283 15 l289 -3 351 -880z m1014 -10 l0 -885 -118 0 -117 0 -178 178
-177 177 0 535 0 535 178 172 177 172 118 1 117 0 0 -885z m897 713 l173 -173
0 -182 0 -183 -295 0 -295 0 -2 178 -3 177 -192 3 -193 2 0 175 0 175 317 0
318 0 172 -172z m1163 -8 l0 -180 -110 0 -110 0 0 -520 0 -519 108 -3 107 -3
3 -182 2 -183 -226 0 -226 0 -184 176 -184 177 0 531 0 532 178 177 178 177
232 0 232 0 0 -180z m1698 -702 l-3 -883 -297 -3 -298 -2 0 471 0 471 38 -30
c20 -16 46 -39 56 -51 11 -12 23 -21 28 -21 8 0 228 189 228 195 0 2 -79 71
-175 155 l-175 152 0 214 0 214 300 0 300 0 -2 -882z m945 704 l177 -178 0
-525 0 -524 -183 -183 -182 -182 -335 2 -335 3 -3 178 -2 177 220 0 220 0 -2
528 -3 527 -217 3 -218 2 0 175 0 175 343 0 343 0 177 -178z m-2408 54 c88
-72 81 -69 120 -56 l35 11 255 -213 255 -213 0 -410 0 -410 -178 -178 -178
-177 -229 2 -230 3 0 180 0 180 113 3 112 3 0 519 0 520 -109 0 c-61 0 -112 4
-115 9 -3 5 -3 84 1 175 l6 166 46 -37 c25 -20 69 -55 96 -77z m-4262 -41 c14
-38 71 -192 126 -342 l101 -271 -109 -334 c-61 -183 -134 -405 -163 -493 l-53
-160 -282 -3 c-239 -2 -283 0 -283 12 0 8 95 268 211 578 116 309 253 676 304
813 51 138 97 258 101 268 9 25 18 13 47 -68z m5052 -297 c30 -24 54 -47 54
-53 1 -11 -59 -75 -71 -75 -4 0 -31 16 -58 36 -47 34 -51 39 -45 68 10 44 34
79 51 72 8 -3 39 -25 69 -48z m209 -178 c52 -47 95 -90 95 -97 1 -13 -79 -85
-90 -81 -4 2 -53 43 -108 92 l-101 90 42 43 c24 24 49 42 56 41 7 -2 55 -41
106 -88z m-2224 -642 l0 -133 -177 -177 -178 -178 -312 0 -313 0 0 180 0 180
195 0 195 0 0 130 0 130 295 0 295 0 0 -132z m-880 -768 c0 -15 -73 -140 -82
-140 -9 0 -78 122 -78 138 0 8 26 12 80 12 49 0 80 -4 80 -10z"/>
</g>
</svg>
