<svg width="140" height="70" viewBox="0 0 140 70" fill="none" xmlns="http://www.w3.org/2000/svg">
<path opacity="0.3" d="M73.816 5.8L70.936 17H69.032L66.664 8.024H66.632L64.264 17H62.36L59.48 5.8H61.032L63.304 14.952H63.336L65.752 5.8H67.544L69.944 14.952H69.976L72.264 5.8H73.816ZM80.5965 5.8L84.5965 17H83.0285L82.0845 14.344H77.1245L76.1805 17H74.6125L78.6125 5.8H80.5965ZM79.5885 7.384L77.6365 12.904H81.5725L79.6205 7.384H79.5885ZM90.8535 12.536H88.4375V17H86.8375V5.8H92.5815L94.4375 6.872V11.464L92.5815 12.536L95.1575 17H93.3815L90.8535 12.536ZM88.4375 7.24V11.096H92.8375V7.24H88.4375ZM97.4819 7.24V5.8H104.762V6.76L99.2419 15.528V15.56H104.762V17H97.1619V16.04L102.682 7.272V7.24H97.4819ZM116.041 16.008L114.185 17.08H109.497L107.641 16.008V6.792L109.497 5.72H114.185L116.041 6.792V16.008ZM109.241 7.16V15.64H114.441V7.16H109.241ZM121.003 8.536V17H119.403V5.8H120.859L126.651 14.264H126.683V5.8H128.283V17H126.827L121.035 8.536H121.003ZM133.248 11.96V15.56H138.032V17H131.648V5.8H138.032V7.24H133.248V10.52H137.072V11.96H133.248Z" fill="url(#paint0_linear_223_68)"/>
<path d="M72.816 5.8L69.936 17H68.032L65.664 8.024H65.632L63.264 17H61.36L58.48 5.8H60.032L62.304 14.952H62.336L64.752 5.8H66.544L68.944 14.952H68.976L71.264 5.8H72.816ZM79.5965 5.8L83.5965 17H82.0285L81.0845 14.344H76.1245L75.1805 17H73.6125L77.6125 5.8H79.5965ZM78.5885 7.384L76.6365 12.904H80.5725L78.6205 7.384H78.5885ZM89.8535 12.536H87.4375V17H85.8375V5.8H91.5815L93.4375 6.872V11.464L91.5815 12.536L94.1575 17H92.3815L89.8535 12.536ZM87.4375 7.24V11.096H91.8375V7.24H87.4375ZM96.4819 7.24V5.8H103.762V6.76L98.2419 15.528V15.56H103.762V17H96.1619V16.04L101.682 7.272V7.24H96.4819ZM115.041 16.008L113.185 17.08H108.497L106.641 16.008V6.792L108.497 5.72H113.185L115.041 6.792V16.008ZM108.241 7.16V15.64H113.441V7.16H108.241ZM120.003 8.536V17H118.403V5.8H119.859L125.651 14.264H125.683V5.8H127.283V17H125.827L120.035 8.536H120.003ZM132.248 11.96V15.56H137.032V17H130.648V5.8H137.032V7.24H132.248V10.52H136.072V11.96H132.248Z" fill="url(#paint1_linear_223_68)"/>
<path opacity="0.3" d="M87.42 20.4H95.54V57.404L88.812 61.29H70.658L63.93 57.404V20.4H72.05V53.75H87.42V20.4ZM124.183 20.4L138.683 61H130.679L127.605 52.242H112.409L109.335 61H101.331L115.831 20.4H124.183ZM119.949 30.608L114.845 45.282H125.111L120.065 30.608H119.949Z" fill="url(#paint2_linear_223_68)"/>
<path d="M84.42 20.4H92.54V57.404L85.812 61.29H67.658L60.93 57.404V20.4H69.05V53.75H84.42V20.4ZM121.183 20.4L135.683 61H127.679L124.605 52.242H109.409L106.335 61H98.3309L112.831 20.4H121.183ZM116.949 30.608L111.845 45.282H122.111L117.065 30.608H116.949Z" fill="url(#paint3_linear_223_68)"/>
<path d="M29.0497 22.6969L29.0497 22.6969C29.219 22.5579 29.3918 22.4198 29.565 22.2815C30.172 21.7967 30.7829 21.3087 31.2594 20.7636C31.8996 20.031 32.3357 19.1603 32.3357 17.9681C32.3357 17.7293 32.3729 17.6026 32.4069 17.5482C32.4186 17.5295 32.4267 17.5241 32.4343 17.5201C32.4444 17.5149 32.4791 17.5 32.5591 17.5C32.8883 17.5 33.0958 17.7413 33.0958 17.9681C33.0958 20.3555 31.4673 21.6559 29.8349 22.9594C29.6324 23.1211 29.4299 23.2828 29.2304 23.4467C27.4734 24.8897 25.7864 26.3071 25.7864 29.1622C25.7864 29.4087 25.7548 29.5779 25.7078 29.6699C25.6886 29.7074 25.6748 29.7162 25.6725 29.7176L25.6725 29.7177C25.671 29.7187 25.6514 29.7316 25.5902 29.7316C25.4743 29.7316 25.3772 29.6821 25.2972 29.5831C25.2115 29.4771 25.1558 29.3224 25.1558 29.1622C25.1558 25.9472 27.1691 24.2414 29.0497 22.6969Z" fill="url(#paint4_linear_223_68)" stroke="url(#paint5_linear_223_68)"/>
<path d="M49.0501 36.5037L49.0503 36.5041C51.5726 42.1137 51.5383 47.1155 51.494 53.5943C51.488 54.4744 51.4818 55.3817 51.4818 56.3215C51.4818 58.4578 50.0592 59.8196 48.2821 60.2241C46.4913 60.6318 44.4075 60.0451 43.1867 58.2958C42.9112 57.9011 42.3733 57.1832 41.6756 56.2521C41.4204 55.9116 41.1439 55.5426 40.851 55.1505C39.7519 53.6787 38.411 51.8659 37.069 49.9653L36.8511 49.6567L36.4947 49.782C35.9078 49.9883 35.2714 50.1023 34.6051 50.1023C33.4697 50.1023 32.6383 49.8929 31.9816 49.592C31.3211 49.2895 30.8126 48.8837 30.3267 48.4508C30.2226 48.358 30.1185 48.2626 30.0134 48.1661C29.1637 47.3867 28.2472 46.5461 26.6658 46.5461C26.6062 46.5461 26.5599 46.5415 26.5225 46.5353L26.4405 46.5217L26.3585 46.5353C26.3211 46.5415 26.2747 46.5461 26.2151 46.5461C24.6339 46.5461 23.7174 47.3867 22.8677 48.1661C22.7626 48.2625 22.6585 48.358 22.5543 48.4508C22.0684 48.8837 21.5599 49.2895 20.8995 49.592C20.2427 49.8929 19.4113 50.1023 18.2759 50.1023H18.2753C17.3926 50.1033 16.5248 49.9002 15.7498 49.5127L15.3631 49.3194L15.116 49.6741C13.7517 51.6317 12.3749 53.5108 11.2431 55.038C10.8907 55.5135 10.5609 55.9563 10.2623 56.3574C9.6065 57.238 9.10106 57.9168 8.83652 58.2959C7.61258 60.0496 5.52488 60.6643 3.73728 60.2722C1.9689 59.8842 0.541482 58.5278 0.541482 56.3215C0.541482 55.2065 0.530633 54.1375 0.52016 53.1056C0.456737 46.8565 0.407155 41.9711 2.86532 36.5041L2.86546 36.5038C2.90607 36.4133 2.94611 36.3238 2.98576 36.2351C3.13012 35.9124 3.26921 35.6015 3.41111 35.2985L3.42016 35.2792L3.42753 35.2592C4.57605 32.1396 7.76133 29.8695 11.5408 29.8695H40.4416C44.4148 29.8695 47.729 32.3773 48.7144 35.7433L48.7242 35.7767L48.7385 35.8084C48.8024 35.9502 48.8661 36.0926 48.9309 36.2373C48.9701 36.3251 49.0098 36.4138 49.0501 36.5037Z" stroke="url(#paint6_linear_223_68)"/>
<path d="M47.5914 38.1152C47.5914 41.8479 44.3455 44.9026 40.3045 44.9026C36.2636 44.9026 33.0177 41.848 33.0177 38.1152C33.0177 34.3824 36.2636 31.3278 40.3045 31.3278C44.3455 31.3278 47.5914 34.3824 47.5914 38.1152ZM4.7915 38.1152C4.7915 34.3824 8.03759 31.3278 12.0784 31.3278C16.1192 31.3278 19.3653 34.3824 19.3653 38.1152C19.3653 41.848 16.1193 44.9026 12.0784 44.9026C8.03749 44.9026 4.7915 41.848 4.7915 38.1152Z" stroke="url(#paint7_linear_223_68)" stroke-width="0.5"/>
<path d="M42.0957 41.6883C42.0957 42.5062 41.3781 43.2096 40.4416 43.2096C39.5051 43.2096 38.7875 42.5062 38.7875 41.6883C38.7875 40.8703 39.5051 40.167 40.4416 40.167C41.3781 40.167 42.0957 40.8703 42.0957 41.6883Z" stroke="url(#paint8_linear_223_68)" stroke-width="0.7"/>
<path d="M40.4416 36.5516C41.5484 36.5516 42.4457 35.7138 42.4457 34.6804C42.4457 33.6469 41.5484 32.8091 40.4416 32.8091C39.3348 32.8091 38.4375 33.6469 38.4375 34.6804C38.4375 35.7138 39.3348 36.5516 40.4416 36.5516Z" fill="url(#paint9_linear_223_68)"/>
<path d="M38.3427 38.1841C38.3427 39.0021 37.6252 39.7054 36.6886 39.7054C35.7521 39.7054 35.0346 39.0021 35.0346 38.1841C35.0346 37.3662 35.7521 36.6629 36.6886 36.6629C37.6252 36.6629 38.3427 37.3662 38.3427 38.1841Z" stroke="url(#paint10_linear_223_68)" stroke-width="0.7"/>
<path d="M44.1945 40.0554C45.3013 40.0554 46.1986 39.2176 46.1986 38.1841C46.1986 37.1507 45.3013 36.3129 44.1945 36.3129C43.0877 36.3129 42.1904 37.1507 42.1904 38.1841C42.1904 39.2176 43.0877 40.0554 44.1945 40.0554Z" fill="url(#paint11_linear_223_68)"/>
<path d="M10.2875 37.6312L10.2875 37.6312C10.3789 37.7323 10.4313 37.8819 10.4313 38.0417C10.4313 38.2016 10.3789 38.3512 10.2875 38.4524L9.48341 39.3423C9.41168 39.4216 9.32935 39.4557 9.25437 39.4557H6.5381C6.37335 39.4557 6.16533 39.2673 6.16533 38.9317V37.1518C6.16533 36.8161 6.37335 36.6278 6.5381 36.6278H9.25437C9.32928 36.6278 9.41154 36.6618 9.48342 36.7413L10.2875 37.6312ZM12.5381 36.5343L12.538 36.5343C12.4268 36.6219 12.2593 36.6739 12.0785 36.6739C11.8978 36.6739 11.7303 36.6219 11.619 36.5343C11.619 36.5343 11.619 36.5343 11.619 36.5343L10.6659 35.7835C10.5787 35.7148 10.5501 35.6432 10.5501 35.5882V33.0519C10.5501 32.9887 10.587 32.9099 10.6907 32.8384C10.7936 32.7674 10.9467 32.7171 11.1254 32.7171H13.0317C13.2104 32.7171 13.3635 32.7674 13.4664 32.8384C13.5701 32.9099 13.6071 32.9887 13.6071 33.0519V35.5882C13.6071 35.6431 13.5784 35.7147 13.4912 35.7834L13.4912 35.7834L12.5381 36.5343ZM13.8695 38.5991L13.8695 38.5991C13.7781 38.498 13.7257 38.3484 13.7257 38.1886C13.7257 38.0287 13.7781 37.8791 13.8695 37.7779L14.6737 36.888C14.7454 36.8087 14.8278 36.7746 14.9028 36.7746H17.619C17.7838 36.7746 17.9918 36.963 17.9918 37.2986V39.0785C17.9918 39.4142 17.7838 39.6025 17.619 39.6025H14.9028C14.8278 39.6025 14.7455 39.5684 14.6738 39.4891L14.6737 39.489L13.8695 38.5991ZM11.6191 39.696L11.6191 39.696C11.7303 39.6083 11.8978 39.5564 12.0786 39.5564C12.2593 39.5564 12.4269 39.6083 12.5382 39.696C12.5382 39.696 12.5382 39.696 12.5382 39.696L13.4912 40.4468C13.5784 40.5155 13.6071 40.5871 13.6071 40.6421V43.1784C13.6071 43.2416 13.5701 43.3204 13.4664 43.3919C13.3635 43.4629 13.2104 43.5132 13.0317 43.5132H11.1254C10.9467 43.5132 10.7936 43.4629 10.6907 43.3919C10.587 43.3204 10.5501 43.2416 10.5501 43.1784V40.6421C10.5501 40.5871 10.5786 40.5157 10.6659 40.4469C10.6659 40.4469 10.6659 40.4468 10.6659 40.4468L11.6191 39.696ZM24.3364 41.1967H21.8298C21.6706 41.1967 21.5205 41.1375 21.4118 41.036C21.3036 40.935 21.2456 40.801 21.2456 40.6645C21.2456 40.528 21.3036 40.394 21.4118 40.2929C21.5205 40.1915 21.6706 40.1323 21.8298 40.1323H24.3364C24.4956 40.1323 24.6457 40.1915 24.7544 40.2929C24.8626 40.394 24.9205 40.5279 24.9205 40.6645C24.9205 40.801 24.8626 40.935 24.7544 41.036C24.6457 41.1375 24.4956 41.1967 24.3364 41.1967ZM31.2437 40.2929C31.3519 40.394 31.4098 40.528 31.4098 40.6645C31.4098 40.801 31.3518 40.935 31.2436 41.036C31.135 41.1375 30.9849 41.1967 30.8257 41.1967H28.3191C28.1599 41.1967 28.0098 41.1375 27.9011 41.036C27.7929 40.935 27.7349 40.801 27.7349 40.6645C27.7349 40.528 27.7929 40.394 27.9011 40.2929C28.0098 40.1915 28.1599 40.1323 28.3191 40.1323H30.8257C30.9849 40.1323 31.135 40.1915 31.2437 40.2929Z" fill="url(#paint12_linear_223_68)" stroke="url(#paint13_linear_223_68)" stroke-width="0.4"/>
<defs>
<linearGradient id="paint0_linear_223_68" x1="59" y1="11.1034" x2="140" y2="11.1034" gradientUnits="userSpaceOnUse">
<stop stop-color="#BDDB06"/>
<stop offset="1" stop-color="#08DB06"/>
</linearGradient>
<linearGradient id="paint1_linear_223_68" x1="58" y1="11.1034" x2="138" y2="11.1034" gradientUnits="userSpaceOnUse">
<stop stop-color="#BDDB06"/>
<stop offset="1" stop-color="#08DB06"/>
</linearGradient>
<linearGradient id="paint2_linear_223_68" x1="59" y1="40" x2="140" y2="40" gradientUnits="userSpaceOnUse">
<stop stop-color="#BDDB06"/>
<stop offset="1" stop-color="#08DB06"/>
</linearGradient>
<linearGradient id="paint3_linear_223_68" x1="56" y1="40" x2="137" y2="40" gradientUnits="userSpaceOnUse">
<stop stop-color="#BDDB06"/>
<stop offset="1" stop-color="#08DB06"/>
</linearGradient>
<linearGradient id="paint4_linear_223_68" x1="24.6558" y1="23.3877" x2="33.5958" y2="23.3877" gradientUnits="userSpaceOnUse">
<stop stop-color="#CDEC10"/>
<stop offset="1" stop-color="#08DB06"/>
</linearGradient>
<linearGradient id="paint5_linear_223_68" x1="24.6558" y1="23.3877" x2="33.5958" y2="23.3877" gradientUnits="userSpaceOnUse">
<stop stop-color="#CDEC10"/>
<stop offset="1" stop-color="#08DB06"/>
</linearGradient>
<linearGradient id="paint6_linear_223_68" x1="1.88324e-07" y1="44.5841" x2="52.0059" y2="44.5841" gradientUnits="userSpaceOnUse">
<stop stop-color="#CDEC10"/>
<stop offset="1" stop-color="#08DB06"/>
</linearGradient>
<linearGradient id="paint7_linear_223_68" x1="4.5415" y1="37.8725" x2="47.8414" y2="37.8725" gradientUnits="userSpaceOnUse">
<stop stop-color="#BDDB06"/>
<stop offset="1" stop-color="#08DB06"/>
</linearGradient>
<linearGradient id="paint8_linear_223_68" x1="38.4375" y1="41.6238" x2="42.4457" y2="41.6238" gradientUnits="userSpaceOnUse">
<stop stop-color="#CDEC10"/>
<stop offset="1" stop-color="#08DB06"/>
</linearGradient>
<linearGradient id="paint9_linear_223_68" x1="38.4375" y1="34.6158" x2="42.4457" y2="34.6158" gradientUnits="userSpaceOnUse">
<stop stop-color="#CDEC10"/>
<stop offset="1" stop-color="#08DB06"/>
</linearGradient>
<linearGradient id="paint10_linear_223_68" x1="34.6846" y1="38.1196" x2="38.6927" y2="38.1196" gradientUnits="userSpaceOnUse">
<stop stop-color="#CDEC10"/>
<stop offset="1" stop-color="#08DB06"/>
</linearGradient>
<linearGradient id="paint11_linear_223_68" x1="42.1904" y1="38.1196" x2="46.1986" y2="38.1196" gradientUnits="userSpaceOnUse">
<stop stop-color="#CDEC10"/>
<stop offset="1" stop-color="#08DB06"/>
</linearGradient>
<linearGradient id="paint12_linear_223_68" x1="5.96533" y1="40.5741" x2="34.7194" y2="40.5741" gradientUnits="userSpaceOnUse">
<stop stop-color="#CDEC10"/>
<stop offset="1" stop-color="#08DB06"/>
</linearGradient>
<linearGradient id="paint13_linear_223_68" x1="5.96533" y1="40.5741" x2="34.7194" y2="40.5741" gradientUnits="userSpaceOnUse">
<stop stop-color="#BDDB06"/>
<stop offset="1" stop-color="#08DB06"/>
</linearGradient>
</defs>
</svg>
