<svg width="62" height="60" viewBox="0 0 62 60" fill="none" xmlns="http://www.w3.org/2000/svg">
<path fill-rule="evenodd" clip-rule="evenodd" d="M54.9838 28.7458L56.7676 28.4854C56.7676 33.804 56.8522 38.4684 56.8522 43.6995H0.900879V31.203C1.86843 30.428 2.83932 29.66 3.81645 28.8979C23.9179 31.5276 34.6202 31.7193 54.9834 28.7458" fill="#231916"/>
<path fill-rule="evenodd" clip-rule="evenodd" d="M28.4211 33.2494L44.5695 10.9094H12.2732L28.4215 33.2494H28.4211ZM52.8941 7.61175L41.9202 26.6194C41.9119 26.9019 41.8956 27.1811 41.8694 27.4503C41.8585 28.167 41.1526 29.1687 40.5772 29.8579L41.1635 30.3538C40.701 30.3842 40.1905 30.4196 39.7047 30.4563L28.4211 49.9999L3.94815 7.61133H52.8941V7.61175Z" fill="#7DF51F"/>
<path fill-rule="evenodd" clip-rule="evenodd" d="M51.939 8.16309H4.90359L16.6626 28.53L28.4215 48.8969L40.1805 28.53L51.9395 8.16309H51.939ZM28.4211 34.1907L11.1939 10.3578H45.6487L28.4215 34.1907H28.4211Z" fill="black"/>
<path fill-rule="evenodd" clip-rule="evenodd" d="M9.44092 11.6582L28.4211 44.5329L47.4013 11.6582L28.4211 37.9163L9.44092 11.6582Z" fill="#7DF51F"/>
<path fill-rule="evenodd" clip-rule="evenodd" d="M25.3039 44.6005H0V30.7702L0.337935 30.4998C1.30799 29.7226 2.28262 28.9518 3.26267 28.1876L3.55977 27.9559L3.93354 28.0046C8.12835 28.5534 12.329 29.0547 16.5396 29.4205L25.3039 44.6005ZM56.8522 44.6005H31.3596L38.8654 30.8073L32.2421 30.891L30.5908 30.0152C38.7429 29.9314 46.7829 29.0322 54.8538 27.8542L57.6685 27.4434V28.4855C57.6685 33.557 57.7531 38.6281 57.7531 43.6996V44.6005H56.8522Z" fill="#7DF51F"/>
<path fill-rule="evenodd" clip-rule="evenodd" d="M54.9838 28.7458L56.7676 28.4854C56.7676 33.804 56.8522 38.4684 56.8522 43.6995H0.900879V31.203C1.86843 30.428 2.83932 29.66 3.81645 28.8979C23.9179 31.5276 34.6202 31.7193 54.9834 28.7458" fill="black"/>
<path fill-rule="evenodd" clip-rule="evenodd" d="M29.2399 31.2387L27.9411 30.8691L25.9376 30.7549L26.2872 31.2387H29.2399Z" fill="#FFCE4B"/>
<path fill-rule="evenodd" clip-rule="evenodd" d="M31.1875 31.238L30.4087 31.0059L29.6399 31.238H31.1875Z" fill="#FFCE4B"/>
<path fill-rule="evenodd" clip-rule="evenodd" d="M34.2885 28.8838L36.392 30.4614C35.1869 30.8139 34.1802 29.6222 34.2885 28.8838Z" fill="black"/>
<path fill-rule="evenodd" clip-rule="evenodd" d="M33.0276 24.5635L37.4612 28.382L37.1861 28.6412L33.0276 24.5635Z" fill="black"/>
<path fill-rule="evenodd" clip-rule="evenodd" d="M28.7636 28.221C27.9707 27.7838 28.2294 27.0559 28.2294 27.0559L28.2619 26.8538L28.4399 26.8942C28.8607 27.0559 29.2812 27.8326 29.2812 27.8326C29.1678 27.3472 28.6824 26.5059 28.6824 26.5059L29.7829 27.2501L29.5887 28.7547L28.7636 28.2205V28.221Z" fill="black"/>
<path fill-rule="evenodd" clip-rule="evenodd" d="M27.8736 28.4062L29.5566 29.2721L29.4674 30.4451C28.9253 30.2751 28.3753 29.4096 28.3753 29.4096C28.4078 30.1055 29.0711 30.8093 29.0711 30.8093C28.7557 30.5747 28.2703 30.2997 28.2703 30.2997C27.6636 29.9438 27.874 28.4067 27.874 28.4067" fill="black"/>
<path fill-rule="evenodd" clip-rule="evenodd" d="M29.985 30.7521C29.872 29.8387 29.7458 27.4461 30.3975 26.7715C30.215 27.224 30.1871 28.2278 30.1871 28.2278C30.2925 27.7665 30.6646 27.3378 30.6646 27.3378C30.1304 28.5999 29.985 30.7517 29.985 30.7517" fill="black"/>
<path fill-rule="evenodd" clip-rule="evenodd" d="M21.7128 19.1023L21.8341 20.049L22.2304 18.9081L22.4487 19.0698L22.9258 18.6006L23.6784 19.0294L23.9371 18.7543L24.1476 18.8756L23.735 19.5227L24.3417 20.0002C24.3417 20.0002 23.46 19.7898 22.5941 19.9919C22.5941 19.9919 23.1038 20.1378 23.3788 20.2911L21.9387 20.3153L21.3966 20.3557L21.712 19.1014L21.7128 19.1023Z" fill="black"/>
<path fill-rule="evenodd" clip-rule="evenodd" d="M24.2617 19.4423L24.5692 19.1348L24.8201 19.3289L24.488 19.6365L24.2617 19.4423Z" fill="black"/>
<path fill-rule="evenodd" clip-rule="evenodd" d="M24.5851 18.7711L25.0951 18.2939L25.4914 18.496L24.9897 19.014L24.5851 18.7711Z" fill="black"/>
<path fill-rule="evenodd" clip-rule="evenodd" d="M23.9863 18.2296L24.6176 17.8008L24.9009 17.995L24.2371 18.4962L24.043 18.2941L23.9863 18.2296Z" fill="black"/>
<path fill-rule="evenodd" clip-rule="evenodd" d="M19.6823 21.8857C20.459 21.562 21.9637 21.2386 21.9637 21.2386C21.5995 21.5216 21.0253 22.3066 21.0253 22.3066C22.9187 20.8019 25.103 21.1174 25.103 21.1174C25.3214 21.3761 25.1272 21.8941 25.1272 21.8941C24.9409 21.8453 24.5772 21.5949 24.5772 21.5949C25.0301 23.0512 26.2277 23.4396 26.2277 23.4396C27.1498 23.7388 27.9669 24.5805 27.9669 24.5805C28.3715 24.888 28.2582 25.0334 28.2582 25.0334C27.7565 25.268 26.6969 24.378 26.6969 24.378C26.4785 24.1759 26.2277 24.1109 26.2277 24.1109C24.7876 23.8521 23.59 23.2208 23.59 23.2208C24.0513 24.0459 25.726 24.5313 25.726 24.5313L26.0414 24.8713L25.7097 25.0818C24.7472 24.9201 23.6709 24.1029 23.6709 24.1029C24.0671 24.9201 25.2243 25.4784 25.2243 25.4784C25.0543 25.6564 24.5205 25.5755 24.5205 25.5755C23.865 25.3005 23.1533 24.4876 23.1533 24.4876C23.3192 24.9892 23.8975 25.503 23.8975 25.503L23.3638 25.5193L23.2383 25.4059C22.6558 24.7588 21.9924 24.338 21.9924 24.338C20.892 24.0467 19.5977 23.1929 19.5977 23.1929C19.699 23.5167 20.1561 24.0504 20.1561 24.0504L19.4119 24.358C19.056 23.7917 19.234 22.3191 19.234 22.3191L19.3111 22.0316L19.6832 21.8857H19.6823Z" fill="black"/>
<path fill-rule="evenodd" clip-rule="evenodd" d="M21.1953 18.3096L20.4832 20.9472L19.6902 21.0605C19.6902 21.0605 19.9653 18.9409 21.1953 18.31" fill="black"/>
<path fill-rule="evenodd" clip-rule="evenodd" d="M25.5922 21.1328L27.8252 22.6216L27.6148 23.1475C27.9465 23.5359 29.8962 25.0893 29.8962 25.0893C29.7828 25.2835 29.3866 26.3189 29.3866 26.3189L28.3994 25.6718C29.1436 25.316 28.3511 24.3288 28.3511 24.3288C27.9953 23.7221 26.4335 22.9292 26.4335 22.9292C25.7055 22.6862 25.4301 22.1445 25.4301 22.1445C25.713 21.902 25.5918 21.1332 25.5918 21.1332" fill="black"/>
<path fill-rule="evenodd" clip-rule="evenodd" d="M25.1272 19.7005L26.1143 18.4062L27.9753 20.0726L27.2794 20.7364L25.7585 19.6521L26.9073 21.2702L25.1272 19.7005Z" fill="black"/>
<path fill-rule="evenodd" clip-rule="evenodd" d="M28.1324 22.791L30.2925 24.3444L30.0175 24.8057C29.532 24.5065 27.9461 23.131 27.9461 23.131L28.1324 22.791Z" fill="black"/>
<path fill-rule="evenodd" clip-rule="evenodd" d="M28.3799 20.4619L28.7682 20.7532L28.0561 22.0799L27.4898 21.6595L28.3799 20.4619Z" fill="black"/>
<path fill-rule="evenodd" clip-rule="evenodd" d="M45.2429 35.7198L45.7687 35.2344L46.95 36.3182L46.4242 36.7715L45.2429 35.7198Z" fill="black"/>
<path fill-rule="evenodd" clip-rule="evenodd" d="M44.507 35.0641C44.507 35.0641 44.5636 34.5786 44.7903 34.4736L45.5103 35.0482L45.122 35.4849L44.507 35.0641Z" fill="black"/>
<path fill-rule="evenodd" clip-rule="evenodd" d="M32.5584 25.0654L37.0082 28.9973L36.6361 29.5798C32.5747 26.6347 32.4938 25.7288 32.4938 25.7288L34.2252 27.1526C33.6426 26.6672 32.5584 25.0654 32.5584 25.0654Z" fill="black"/>
<path fill-rule="evenodd" clip-rule="evenodd" d="M33.3826 30.1942C32.9067 29.7184 33.1709 28.7266 33.4393 28.2041L34.0055 28.6491C33.771 28.8029 33.8114 29.1262 33.8114 29.1262C33.2047 29.4417 33.3826 30.1942 33.3826 30.1942Z" fill="black"/>
<path fill-rule="evenodd" clip-rule="evenodd" d="M30.6483 30.623C30.4683 29.1951 30.6312 27.5458 31.603 26.4482C31.0042 27.8558 31.1984 29.9272 31.1984 29.9272C31.1984 28.7459 32.4118 27.225 32.4118 27.225C31.8292 28.4871 31.9909 29.8788 31.9909 29.8788C32.0234 28.9725 32.703 27.6783 32.703 27.6783C32.2405 29.7543 33.0914 31.0927 33.0914 31.0927C31.9426 31.0927 30.6479 30.6235 30.6479 30.6235" fill="black"/>
<path fill-rule="evenodd" clip-rule="evenodd" d="M30.6612 25.7206C30.8071 24.8631 31.5513 23.6172 31.5513 23.6172L31.8909 23.9085L30.5804 26.3194V26.0686L30.6612 25.7206Z" fill="black"/>
<path fill-rule="evenodd" clip-rule="evenodd" d="M29.2778 21.4658L31.2033 23.2297L30.7258 23.7876L29.132 22.5905L30.2487 23.0597L28.9624 21.7733L29.2778 21.4658Z" fill="black"/>
<path fill-rule="evenodd" clip-rule="evenodd" d="M26.9839 18.2856L27.6877 17.4443C27.8165 17.9135 27.6594 18.2523 27.2915 18.5123L26.9839 18.2856Z" fill="black"/>
<path fill-rule="evenodd" clip-rule="evenodd" d="M17.2267 17.7715L16.4984 18.9203L15.8754 19.0011L16.523 17.9169L17.2267 17.7715Z" fill="black"/>
<path fill-rule="evenodd" clip-rule="evenodd" d="M31.6108 7.80581C31.6108 7.80581 30.98 7.74122 30.8341 6.17156C30.8341 6.17156 31.1254 6.64075 31.4492 6.77034C31.4492 6.77034 30.98 5.63778 31.0933 4.78023L31.1579 4.5698L31.255 4.35938C31.255 4.35938 31.7079 5.88029 31.9834 6.43074C31.9834 6.43074 32.2584 7.57955 31.6113 7.80623" fill="black"/>
<path fill-rule="evenodd" clip-rule="evenodd" d="M27.8011 18.8271L32.6392 23.0503L32.2671 23.212L27.3644 19.0534L27.8011 18.8271Z" fill="black"/>
<path fill-rule="evenodd" clip-rule="evenodd" d="M35.8427 22.7192C35.8427 22.7192 36.2148 20.3407 36.0532 19.1756C36.0532 19.1756 36.1502 17.9943 36.7653 16.7322C36.7653 16.7322 36.6036 18.3018 36.9432 20.1786C36.9432 20.1786 37.024 17.1689 37.9787 16.2305C37.9787 16.2305 39.71 18.9973 38.7229 22.0716C38.7229 22.0716 39.5642 21.0845 39.7421 20.4699C39.7421 20.4699 41.4089 24.2076 40.7938 27.5411C40.7938 27.5411 40.5188 28.2044 40.26 28.4957L40.6647 27.0881C40.6647 27.0881 40.4217 26.2306 39.5158 27.0073L39.0792 27.9294C39.0792 27.9294 38.9012 27.6382 38.5937 27.6219C38.5937 27.6219 39.2567 24.5313 37.1374 21.9262C37.1374 21.9262 37.4774 24.0296 37.1049 24.968C36.8815 23.8142 36.8761 23.3367 35.8386 22.905L35.8427 22.7192Z" fill="black"/>
<path fill-rule="evenodd" clip-rule="evenodd" d="M37.8887 28.6567C37.8887 28.6567 38.2608 27.9608 38.8354 28.0417C38.8354 28.0417 38.9729 28.0821 39.0133 28.1712C39.0133 28.1712 38.7708 28.77 38.6979 28.8992C38.6979 28.8992 39.3938 28.5108 40.0247 27.3945C40.0247 27.3945 39.8305 28.7375 39.3125 29.8055L39.1267 30.0726L39.345 30.0159L44.3611 34.2066L44.0861 34.5949L41.4326 32.3294L41.5135 32.119L41.0443 32.216L38.3096 29.983L38.5846 29.4651L37.8887 28.6563V28.6567Z" fill="black"/>
<path fill-rule="evenodd" clip-rule="evenodd" d="M32.9063 23.3496L37.995 27.7023L37.7845 27.9128L32.5584 23.495L32.9063 23.3496Z" fill="black"/>
<path fill-rule="evenodd" clip-rule="evenodd" d="M33.9214 23.3334C35.5232 22.9958 36.1411 23.6805 36.1057 25.4368L33.9214 23.3334Z" fill="black"/>
<path fill-rule="evenodd" clip-rule="evenodd" d="M26.2676 16.3442C26.9714 16.4784 27.9819 16.3929 28.634 16.1904C29.5899 16.7513 29.7182 18.5531 29.7182 18.5531C29.9853 18.0593 29.9528 17.0642 29.9528 17.0642C30.6 18.6339 29.8232 19.9119 29.8232 19.9119L28.3548 18.1564L28.3873 17.9784C28.5007 17.0884 27.6594 16.878 27.6594 16.878L26.7856 17.5576L26.2676 16.3442Z" fill="black"/>
<path fill-rule="evenodd" clip-rule="evenodd" d="M25.7701 13.2249C25.7701 13.2249 27.7119 14.3738 30.3333 13.0791C30.3333 13.0791 29.4112 14.1954 28.1328 14.7134C28.1328 14.7134 29.217 14.6325 29.9129 14.1146C29.9129 14.1146 29.3949 15.6517 27.4211 15.6355C25.9031 15.4151 25.9768 14.4613 25.7706 13.2245" fill="black"/>
<path fill-rule="evenodd" clip-rule="evenodd" d="M17.2913 19.7944C17.2913 19.7944 18.3189 20.0127 19.0389 20.3931L18.861 21.2669C18.861 21.2669 17.0568 21.534 15.7463 22.1162C15.7463 22.1162 17.7201 22.197 18.4968 22.4883C18.4968 22.4883 18.4806 23.9608 18.7881 24.5109C18.7881 24.5109 17.178 25.1013 15.2767 24.8263C15.2767 24.8263 15.8592 25.3522 17.3318 25.5138C17.3318 25.5138 14.2066 26.8543 13.5699 25.2467C13.5699 25.2467 13.4728 24.8746 13.6507 24.2113C13.6507 24.2113 13.7478 24.9717 14.2816 25.3276C14.2816 25.3276 13.9095 24.195 14.5891 22.7712L15.4792 20.7969L15.8434 20.1902C15.8434 20.1902 17.073 19.9152 18.2543 20.6919C18.2543 20.6919 17.7526 20.0448 17.2918 19.7939" fill="black"/>
<path fill-rule="evenodd" clip-rule="evenodd" d="M19.7265 17.6666L18.9014 19.495C18.9014 19.495 18.2543 19.0583 17.1538 18.8962L17.9951 17.1161L17.1859 17.2536C17.5243 16.2986 17.746 15.9594 18.4722 15.3281C18.4722 15.3281 18.3022 17.4478 18.4964 18.3379C18.4964 18.3379 19.006 17.8445 19.7261 17.6662" fill="black"/>
<path fill-rule="evenodd" clip-rule="evenodd" d="M27.4527 12.8613C26.2714 10.8062 28.8444 10.2399 28.8444 10.2399L29.0224 10.1995L29.3461 10.1104C28.2782 10.6766 27.9385 12.1492 27.9385 12.1492C28.699 11.2271 29.9449 10.6929 29.9449 10.6929C30.3978 11.34 30.2687 12.1975 30.2687 12.1975C29.9449 12.7476 28.4723 13.1038 28.4723 13.1038C29.0874 12.8772 29.767 11.7771 29.767 11.7771C29.0874 12.4242 27.4531 12.8613 27.4531 12.8613" fill="black"/>
<path fill-rule="evenodd" clip-rule="evenodd" d="M20.309 13.8647L24.4351 17.0523C24.4351 17.0523 23.4804 17.5703 23.0921 18.1691L22.5745 17.8291C22.5745 17.8291 23.1083 17.4569 23.5454 17.3111C23.5454 17.3111 22.4775 17.1657 21.4582 17.5215L21.6362 17.1815C21.6362 17.1815 22.057 16.9065 22.785 16.8903C22.785 16.8903 21.6199 16.3886 20.0502 16.7607L19.6781 16.9223L19.4194 17.0194C19.4194 17.0194 19.306 15.3043 20.3094 13.8643" fill="black"/>
<path fill-rule="evenodd" clip-rule="evenodd" d="M26.4414 7.69091L26.2635 8.0226L26.0777 7.66633L26.2881 7.32673L26.8785 7.65841L27.1615 7.18922L27.4002 7.50048L27.914 7.03546L28.2294 7.31048L28.537 6.94629L28.7232 7.28631L28.6178 7.57757L28.4482 7.43173L28.2294 7.80384L27.8898 7.42382L27.4936 7.90926L27.1698 7.60174L26.8785 8.05468L26.4414 7.69091Z" fill="black"/>
<path fill-rule="evenodd" clip-rule="evenodd" d="M28.8203 8.41186C28.1398 8.9373 26.9815 9.41566 26.2072 8.54145C26.6335 8.73271 27.0027 8.73854 27.364 8.65479C26.7173 8.49686 26.571 8.22601 26.571 8.22601C26.8785 8.42811 27.121 8.42019 27.121 8.42019C27.1885 8.33102 27.256 8.24227 27.3231 8.15309C27.4365 8.24227 27.5498 8.33102 27.6627 8.42019C27.7623 8.26393 27.8623 8.10726 27.9619 7.951L28.2128 8.28268C28.3099 8.11559 28.4069 7.9485 28.504 7.78099L28.6415 8.08017C28.9653 7.89391 29.1028 7.2793 29.1028 7.2793C29.232 7.951 28.8195 8.41186 28.8195 8.41186" fill="black"/>
<path fill-rule="evenodd" clip-rule="evenodd" d="M25.6001 7.01175L24.9042 7.5297C24.5321 6.9955 24.3055 5.98462 24.3055 5.98462L24.265 5.62043L24.3784 5.83877C24.9447 7.028 26.6356 6.23546 26.6356 6.23546C26.5306 6.84216 26.8702 6.76132 26.8702 6.76132C27.1289 6.75341 27.1694 6.44589 27.1694 6.44589C27.3394 6.81008 27.6548 6.60757 27.6548 6.60757C27.954 6.40547 27.574 5.71752 27.574 5.71752C27.6548 5.84711 28.3265 6.20296 28.3265 6.20296C29.0791 6.03295 29.8153 5.60418 29.8153 5.60418C30.1795 5.41792 30.2279 4.90039 30.2279 4.90039C30.5029 5.83086 29.9691 6.6884 29.9691 6.6884H29.5241L29.4674 6.48631L28.974 6.60757L28.7557 6.988L28.4969 6.64007L28.1815 6.87466L27.8498 6.72924L27.4452 7.10134L27.0894 6.85049L26.8223 7.07717L26.8143 7.36052L26.3531 6.96425L26.531 6.61632L25.6735 7.29594L25.6005 7.01259L25.6001 7.01175Z" fill="black"/>
<path d="M2.83724 32.1279H6.16242V40.0992H7.38582V42.0885H4.8336L2.83682 40.0992V32.1279H2.83724ZM7.91126 40.0992H9.14216V32.1279H12.4598V40.0992L10.4706 42.0885H7.91085V40.0992H7.91126Z" fill="#7DF51F"/>
<path d="M16.5042 32.5784L17.9756 36.534L16.1517 42.0885H12.9465L16.5042 32.5784ZM17.6526 39.2362H19.6119L16.8647 32.1279H20.0998L24.0705 42.0885H20.7153L20.3698 41.2101H16.9622L17.6526 39.2358V39.2362Z" fill="#7DF51F"/>
<path d="M24.4817 34.1367L26.4785 32.1475H27.7994V42.108H26.4785L24.4817 40.1187V34.1363V34.1367ZM30.5316 34.1367H28.3248V32.1475H31.86L33.8493 34.1367V36.141H30.5316V34.1367ZM28.3248 40.1191H30.5316V38.6628H33.8493V40.1191L31.86 42.1084H28.3248V40.1191Z" fill="#7DF51F"/>
<path d="M34.8235 34.1367L36.8428 32.1475H39.395V34.1667H38.1491V40.0816H39.395V42.1084H36.8428L34.8235 40.1191V34.1367ZM39.92 40.0816H41.1884V34.1667H39.92V32.1475H42.4948L44.5065 34.1367V40.1191L42.4948 42.1084H39.92V40.0816Z" fill="#7DF51F"/>
<path d="M45.6533 32.1479H48.971V42.1084H45.6533V32.1479ZM49.4964 40.1191H51.9582V34.1367H49.4964V32.1475H53.287L55.2838 34.1367V40.1191L53.287 42.1084H49.4964V40.1191Z" fill="#7DF51F"/>
<g filter="url(#filter0_d_300_197)">
<path fill-rule="evenodd" clip-rule="evenodd" d="M19.6786 12.1485L19.6948 13.1031C19.6948 13.1031 17.0088 14.8832 16.2646 17.6338C16.2646 17.6338 15.5204 18.2163 14.9862 20.1093C14.9862 20.1093 14.4524 21.5169 13.8049 22.1965C13.8049 22.1965 10.8114 25.9342 14.0637 27.0347C14.0637 27.0347 15.4875 27.5527 17.7693 26.533C17.7693 26.533 19.7565 24.6896 22.2312 25.7017C22.8041 25.8705 23.2821 26.1409 23.4242 26.5368C23.4242 26.5368 23.525 26.961 23.5946 27.5122L24.6126 28.9202C24.5713 27.9502 24.8972 26.8764 24.8972 26.8764L24.9618 27.2322L25.0913 27.7339C25.3501 28.8181 26.1106 29.3844 26.1106 29.3844C25.5443 28.3489 25.8356 26.7147 25.8356 26.7147C26.1431 28.0902 26.6285 28.4623 26.6285 28.4623C25.9814 26.5043 26.7739 25.0967 26.7739 25.0967L27.9227 25.7601C26.9681 28.3169 27.5506 30.6466 27.5506 30.6466L25.6968 30.4203L26.2881 31.2383C28.4711 31.3604 31.3575 31.2208 33.5393 31.2616L33.5743 31.2383C33.491 31.0908 33.4455 30.9387 33.4493 30.7999L34.206 31.2383H34.9898C34.3002 31.0474 33.8206 30.3386 33.8918 29.8536L35.7294 31.2316C35.7215 31.2341 35.7132 31.2362 35.7052 31.2383C35.894 31.2229 36.0386 31.2237 36.1469 31.2383H36.4753C36.592 31.0883 36.7103 30.9224 36.8303 30.7399L37.2187 30.8695L37.8174 30.5136L41.2155 33.2484L41.6039 33.103L44.8887 35.8535L44.9212 36.1935L46.3291 37.4394L47.6396 36.2906L44.9049 33.9122L44.7432 34.0901L39.808 29.9153C39.808 29.9153 41.3451 28.2485 41.3289 27.4235C41.3289 27.4235 41.7172 23.5237 40.3905 19.7377C40.3905 19.7377 40.0667 15.3041 36.669 13.4919C36.669 13.4919 36.394 11.6151 35.2936 10.563C35.2936 10.563 37.0574 14.8024 33.0768 18.1355C33.0768 18.1355 34.6948 17.375 35.4227 16.6629C35.4227 16.6629 34.7919 18.1517 33.7885 18.7343C33.7885 18.7343 34.646 18.718 35.2769 18.2326L34.2898 22.3911L32.6717 20.9673L34.2089 21.3719L32.2026 20.0935C32.2026 20.0935 32.413 18.718 32.1055 17.0517C32.1055 17.0517 31.96 18.2492 31.8142 18.8155C31.8142 18.8155 31.7171 17.1813 31.2642 16.2591C31.2642 16.2591 31.2804 18.0067 31.0217 18.8805C31.0217 18.8805 30.8112 16.6475 30.4066 15.9841C30.4066 15.9841 31.6525 14.2853 31.9275 12.1006C31.9275 12.1006 31.9113 14.2365 31.5879 15.1266C31.5879 15.1266 32.9797 13.0394 32.7043 10.143C32.7043 10.143 33.9827 9.94879 34.8885 10.2563C34.8885 10.2563 33.5293 9.25334 31.3613 8.65456C31.3613 8.65456 32.9955 8.2337 32.7205 7.14989C32.7205 7.14989 31.6363 4.09181 31.4909 3.70346C31.4909 3.70346 30.9892 3.29885 30.6658 3.86513C30.6658 3.86513 30.2291 0.175768 26.7664 0.661211C26.7664 0.661211 29.4041 0.855389 29.7599 3.70346C28.707 3.91264 28.4203 3.5722 25.0997 3.97847C25.0997 3.97847 25.0351 2.58673 25.6176 1.89128C25.6176 1.89128 24.7113 2.55465 24.4526 3.8493C24.4051 2.34589 25.0259 1.45167 26.2327 0.686213C24.3596 1.03706 23.4513 2.54715 23.6113 4.44808C23.6113 4.44808 22.77 5.37063 22.9154 5.85607C23.0608 6.34152 23.2387 7.13448 22.9316 7.79784C22.9316 7.79784 22.77 8.86582 23.935 9.48085C23.935 9.48085 20.7149 11.1314 19.6794 12.1506" fill="black"/>
</g>
<path fill-rule="evenodd" clip-rule="evenodd" d="M23.6013 5.15332L23.7792 6.6259L23.4229 6.75507L23.245 5.50917L23.6013 5.15332Z" fill="black"/>
<path fill-rule="evenodd" clip-rule="evenodd" d="M26.6098 9.96095C25.746 9.6626 25.2601 8.83339 25.2601 7.8125C25.2601 7.8125 25.3734 9.70552 27.3635 9.34966C27.3635 9.34966 29.4024 9.22841 29.532 7.95792C29.532 7.95792 29.6291 8.88006 28.9495 9.3655C28.9495 9.3655 29.7587 9.00965 30.0174 8.1196C29.8053 9.51676 27.8957 10.4047 26.6098 9.96053" fill="black"/>
<path fill-rule="evenodd" clip-rule="evenodd" d="M24.168 10.3447C23.9717 11.7177 23.6784 13.4595 24.443 14.6975C24.3459 14.042 24.6855 12.7394 24.6855 12.7394C24.718 14.0016 25.3005 16.2021 25.3005 16.2021C24.0709 15.8463 22.7762 13.5161 22.7762 13.5161C22.9058 14.5516 23.6825 15.6846 23.6825 15.6846C22.4529 14.9404 20.6728 12.8044 20.6728 12.8044L20.7699 12.2219L24.168 10.3447Z" fill="black"/>
<path fill-rule="evenodd" clip-rule="evenodd" d="M23.7304 8.64904L23.2287 8.1311C23.2287 8.1311 23.2771 7.30606 23.8113 7.04688L24.3292 8.90781L23.7629 7.77525L23.7304 8.64904Z" fill="black"/>
<path fill-rule="evenodd" clip-rule="evenodd" d="M35.2927 10.5634C35.1056 10.3679 34.8881 10.2558 34.8881 10.2558C33.9818 9.94833 32.7038 10.1425 32.7038 10.1425C32.9789 13.0389 31.5875 15.1261 31.5875 15.1261C31.9113 14.2361 31.9271 12.1001 31.9271 12.1001C31.6521 14.2844 30.4062 15.9837 30.4062 15.9837C30.8108 16.647 31.0213 18.8801 31.0213 18.8801C31.28 18.0063 31.2638 16.2587 31.2638 16.2587C31.7167 17.1808 31.8138 18.8151 31.8138 18.8151C31.9596 18.2488 32.1051 17.0512 32.1051 17.0512C32.4126 18.718 32.2021 20.093 32.2021 20.093L34.2085 21.3714L32.6713 20.9668L34.2893 22.3907L35.2765 18.2321C34.6456 18.7176 33.7881 18.7338 33.7881 18.7338C34.791 18.1513 35.4223 16.6624 35.4223 16.6624C34.6944 17.3746 33.0764 18.135 33.0764 18.135C37.057 14.8015 35.2931 10.5625 35.2931 10.5625" fill="#505050"/>
<path fill-rule="evenodd" clip-rule="evenodd" d="M25.0988 3.97734C27.364 3.24938 29.7591 3.70232 29.7591 3.70232C29.4032 0.854667 26.7656 0.660073 26.7656 0.660073C26.5093 0.621321 26.2318 0.684241 26.2318 0.684241C25.0251 1.45012 24.4042 2.34391 24.4517 3.84733C24.7105 2.55267 25.6168 1.88931 25.6168 1.88931C25.0343 2.58518 25.0988 3.9765 25.0988 3.9765" fill="#BFBFBF"/>
<path fill-rule="evenodd" clip-rule="evenodd" d="M29.7183 4.22083C28.5936 3.83664 27.7736 3.53954 27.0485 4.47959L26.7248 4.54418C25.7489 3.98623 25.1672 4.33792 24.3625 5.14296C24.8613 6.01592 24.7759 6.12426 25.4993 6.07134C26.3206 6.01134 26.4118 5.78466 26.6848 4.87628C26.6848 4.87628 26.7414 4.6821 26.9519 4.66585C26.9519 4.66585 27.664 5.47506 28.2707 5.65299C28.2707 5.65299 29.7916 5.56382 29.7999 4.90878L29.7191 4.22124L29.7183 4.22083Z" fill="#BFBFBF"/>
<path fill-rule="evenodd" clip-rule="evenodd" d="M29.8153 5.60306C29.8153 5.60306 29.0791 6.03183 28.3265 6.20184C28.3265 6.20184 27.6552 5.84599 27.574 5.7164C27.574 5.7164 27.9544 6.40393 27.6548 6.60645C27.6548 6.60645 27.3394 6.80896 27.1694 6.44477C27.1694 6.44477 27.1289 6.75229 26.8702 6.7602C26.8702 6.7602 26.5306 6.84104 26.6356 6.23434C26.6356 6.23434 24.9447 7.0273 24.3784 5.83766L24.265 5.61931L24.3055 5.9835C24.3055 5.9835 24.5321 6.9948 24.9042 7.52858L25.6001 7.01063L25.673 7.29398L26.5306 6.61436L26.3527 6.9623L26.8139 7.35857L26.8218 7.07522L27.0889 6.84854L27.4448 7.09939L27.8494 6.72729L28.1811 6.87271L28.4965 6.63811L28.7553 6.98605L28.9736 6.60561L29.467 6.48436L29.5237 6.68645H29.9687C29.9687 6.68645 30.5025 5.8289 30.2274 4.89844C30.2274 4.89844 30.1791 5.41638 29.8149 5.60222" fill="#DFDFDF"/>
<path fill-rule="evenodd" clip-rule="evenodd" d="M28.7232 7.28631L28.537 6.94629L28.2294 7.31048L27.914 7.03546L27.4002 7.50048L27.1615 7.18922L26.8785 7.65841L26.2881 7.32673L26.0777 7.66633L26.2635 8.0226L26.4414 7.69091L26.8785 8.05468L27.1698 7.60174L27.4936 7.90926L27.8898 7.42382L28.2294 7.80384L28.4482 7.43173L28.6178 7.57757L28.7232 7.28631Z" fill="#DFDFDF"/>
<path fill-rule="evenodd" clip-rule="evenodd" d="M28.5044 7.77904C28.4073 7.94613 28.3103 8.11364 28.2132 8.28073L27.9623 7.94905C27.8623 8.1053 27.7627 8.26198 27.6631 8.41824C27.5498 8.32907 27.4365 8.24031 27.3235 8.15114C27.256 8.24031 27.1885 8.32907 27.1214 8.41824C27.1214 8.41824 26.8785 8.42615 26.5714 8.22406C26.5714 8.22406 26.7177 8.49491 27.3644 8.65283C27.0031 8.73659 26.6335 8.73117 26.2076 8.53949C26.9818 9.41371 28.1402 8.93535 28.8207 8.4099C28.8207 8.4099 29.2332 7.94905 29.104 7.27734C29.104 7.27734 28.9665 7.89238 28.6428 8.07822L28.5053 7.77904H28.5044Z" fill="#DFDFDF"/>
<path fill-rule="evenodd" clip-rule="evenodd" d="M31.0929 4.78065C30.9796 5.63819 31.4487 6.77075 31.4487 6.77075C31.125 6.64116 30.8337 6.17197 30.8337 6.17197C30.9796 7.74164 31.6104 7.80623 31.6104 7.80623C32.2575 7.57955 31.9825 6.43074 31.9825 6.43074C31.7075 5.88071 31.2542 4.35938 31.2542 4.35938L31.1571 4.5698L31.0925 4.78023L31.0929 4.78065Z" fill="#404040"/>
<path fill-rule="evenodd" clip-rule="evenodd" d="M24.3292 8.90781L23.8113 7.04688C23.2771 7.30564 23.2287 8.1311 23.2287 8.1311L23.7304 8.64904L23.7629 7.77525L24.3292 8.90781Z" fill="#404040"/>
<path fill-rule="evenodd" clip-rule="evenodd" d="M23.4229 6.75507L23.7792 6.6259L23.6013 5.15332L23.245 5.50917L23.4229 6.75507Z" fill="#404040"/>
<path fill-rule="evenodd" clip-rule="evenodd" d="M27.364 9.34966C25.3739 9.70552 25.2605 7.8125 25.2605 7.8125C25.2605 8.83339 25.7464 9.6626 26.6102 9.96095C27.8961 10.4051 29.8054 9.51717 30.0179 8.12002C29.7591 9.01006 28.9499 9.36592 28.9499 9.36592C29.6295 8.88047 29.5324 7.95834 29.5324 7.95834C29.4028 9.22883 27.364 9.35008 27.364 9.35008" fill="#505050"/>
<path fill-rule="evenodd" clip-rule="evenodd" d="M28.8445 10.2399C28.8445 10.2399 26.2718 10.8062 27.4527 12.8613C27.4527 12.8613 29.087 12.4246 29.7666 11.7771C29.7666 11.7771 29.087 12.8772 28.4719 13.1038C28.4719 13.1038 29.9445 12.748 30.2683 12.1975C30.2683 12.1975 30.3979 11.34 29.9445 10.6929C29.9445 10.6929 28.6986 11.2267 27.9382 12.1492C27.9382 12.1492 28.2778 10.6766 29.3457 10.1104L29.022 10.1995L28.844 10.2399H28.8445Z" fill="#505050"/>
<path fill-rule="evenodd" clip-rule="evenodd" d="M30.3329 13.0791C27.7115 14.3738 25.7697 13.2249 25.7697 13.2249C25.976 14.4617 25.9022 15.4155 27.4202 15.6359C29.3945 15.6522 29.912 14.115 29.912 14.115C29.2161 14.6329 28.1319 14.7138 28.1319 14.7138C29.4103 14.1958 30.3325 13.0795 30.3325 13.0795" fill="#505050"/>
<path fill-rule="evenodd" clip-rule="evenodd" d="M24.4434 14.6975C23.6788 13.4599 23.9721 11.7181 24.1684 10.3447L20.7703 12.2219L20.6732 12.8044C20.6732 12.8044 22.4533 14.9404 23.683 15.6846C23.683 15.6846 22.9063 14.552 22.7767 13.5161C22.7767 13.5161 24.0713 15.8463 25.301 16.2021C25.301 16.2021 24.7184 14.0016 24.6859 12.7394C24.6859 12.7394 24.3463 14.042 24.4434 14.6975Z" fill="#505050"/>
<path fill-rule="evenodd" clip-rule="evenodd" d="M24.4351 17.0519L20.309 13.8643C19.3061 15.3043 19.419 17.0194 19.419 17.0194L19.6777 16.9223L20.0498 16.7607C21.6195 16.3886 22.7846 16.8903 22.7846 16.8903C22.0562 16.9065 21.6358 17.1815 21.6358 17.1815L21.4578 17.5215C22.4771 17.1657 23.545 17.3111 23.545 17.3111C23.1079 17.4565 22.5741 17.8291 22.5741 17.8291L23.0917 18.1691C23.48 17.5703 24.4347 17.0523 24.4347 17.0523" fill="#9F9F9F"/>
<path fill-rule="evenodd" clip-rule="evenodd" d="M27.6594 16.878C27.6594 16.878 28.5007 17.0884 28.3873 17.9784L28.3548 18.1564L29.8232 19.9119C29.8232 19.9119 30.6 18.6335 29.9528 17.0642C29.9528 17.0642 29.9853 18.0593 29.7182 18.5531C29.7182 18.5531 29.5899 16.7513 28.634 16.1904C27.9819 16.3929 26.9714 16.4784 26.2676 16.3442L26.7856 17.5576L27.6594 16.878Z" fill="#303030"/>
<path fill-rule="evenodd" clip-rule="evenodd" d="M27.2915 18.5123C27.6594 18.2527 27.8165 17.9135 27.6877 17.4443L26.9839 18.2856L27.2915 18.5123Z" fill="#9F9F9F"/>
<path fill-rule="evenodd" clip-rule="evenodd" d="M37.9787 16.2305C37.024 17.1689 36.9432 20.1786 36.9432 20.1786C36.6036 18.3018 36.7653 16.7322 36.7653 16.7322C36.1502 17.9943 36.0532 19.1756 36.0532 19.1756C36.2148 20.3407 35.8427 22.7192 35.8427 22.7192L35.8386 22.905C36.8761 23.3367 36.8815 23.8142 37.1049 24.968C37.477 24.0296 37.1374 21.9262 37.1374 21.9262C39.2567 24.5313 38.5937 27.6219 38.5937 27.6219C38.9012 27.6382 39.0792 27.9294 39.0792 27.9294L39.5158 27.0073C40.4221 26.2306 40.6647 27.0881 40.6647 27.0881L40.26 28.4957C40.5188 28.2044 40.7938 27.5411 40.7938 27.5411C41.4089 24.208 39.7421 20.4699 39.7421 20.4699C39.5642 21.0849 38.7229 22.0716 38.7229 22.0716C39.71 18.9973 37.9787 16.2305 37.9787 16.2305Z" fill="#9F9F9F"/>
<path fill-rule="evenodd" clip-rule="evenodd" d="M36.1057 25.4368C36.1411 23.6805 35.5232 22.9958 33.9214 23.3334L36.1057 25.4368Z" fill="#505050"/>
<path fill-rule="evenodd" clip-rule="evenodd" d="M33.0914 31.0927C33.0914 31.0927 32.2405 29.7543 32.703 27.6783C32.703 27.6783 32.0234 28.973 31.9909 29.8788C31.9909 29.8788 31.8292 28.4871 32.4118 27.225C32.4118 27.225 31.1983 28.7459 31.1983 29.9272C31.1983 29.9272 31.0042 27.8558 31.603 26.4482C30.6312 27.5454 30.4683 29.1951 30.6483 30.6231C30.6483 30.6231 31.9426 31.0922 33.0918 31.0922" fill="#505050"/>
<path fill-rule="evenodd" clip-rule="evenodd" d="M33.4393 28.2041C33.1709 28.7266 32.9067 29.7184 33.3826 30.1942C33.3826 30.1942 33.2047 29.4421 33.8114 29.1262C33.8114 29.1262 33.771 28.8029 34.0055 28.6491L33.4393 28.2041Z" fill="#505050"/>
<path fill-rule="evenodd" clip-rule="evenodd" d="M34.2885 28.8838C34.1806 29.6226 35.1869 30.8139 36.392 30.4614L34.2885 28.8838Z" fill="#505050"/>
<path fill-rule="evenodd" clip-rule="evenodd" d="M35.729 31.2325L33.8914 29.8545C33.8206 30.3395 34.2998 31.0483 34.9894 31.2391H35.7048C35.7127 31.2371 35.7211 31.235 35.729 31.2325Z" fill="#505050"/>
<path fill-rule="evenodd" clip-rule="evenodd" d="M34.2055 31.2382L33.4488 30.7998C33.4451 30.9386 33.4905 31.0907 33.5738 31.2382H34.2055Z" fill="#505050"/>
<path fill-rule="evenodd" clip-rule="evenodd" d="M23.59 23.2208C23.59 23.2208 24.7876 23.8517 26.2277 24.1109C26.2277 24.1109 26.4785 24.1755 26.6968 24.378C26.6968 24.378 27.7565 25.268 28.2582 25.0334C28.2582 25.0334 28.3715 24.8876 27.9669 24.5805C27.9669 24.5805 27.1498 23.7392 26.2277 23.4396C26.2277 23.4396 25.0301 23.0512 24.5771 21.5949C24.5771 21.5949 24.9413 21.8457 25.1272 21.8941C25.1272 21.8941 25.3214 21.3761 25.103 21.1174C25.103 21.1174 22.9187 20.8019 21.0253 22.3066C21.0253 22.3066 21.5999 21.522 21.9637 21.2386C21.9637 21.2386 20.459 21.5624 19.6823 21.8857L19.3102 22.0316L19.2331 22.3191C19.2331 22.3191 19.0552 23.7917 19.411 24.358L20.1552 24.0504C20.1552 24.0504 19.6981 23.5167 19.5969 23.1929C19.5969 23.1929 20.8915 24.0467 21.9916 24.338C21.9916 24.338 22.655 24.7588 23.2375 25.4059L23.3629 25.5193L23.8967 25.503C23.8967 25.503 23.3183 24.9892 23.1525 24.4876C23.1525 24.4876 23.8646 25.3005 24.5196 25.5755C24.5196 25.5755 25.0534 25.6564 25.2234 25.4784C25.2234 25.4784 24.0663 24.9201 23.67 24.1029C23.67 24.1029 24.7459 24.9201 25.7089 25.0818L26.0406 24.8713L25.7251 24.5313C25.7251 24.5313 24.0505 24.0459 23.5892 23.2208" fill="#505050"/>
<path fill-rule="evenodd" clip-rule="evenodd" d="M25.4305 22.1445C25.4305 22.1445 25.7056 22.6866 26.4339 22.9292C26.4339 22.9292 27.9953 23.7221 28.3515 24.3288C28.3515 24.3288 29.1445 25.316 28.3999 25.6718L29.387 26.3189C29.387 26.3189 29.7833 25.2835 29.8966 25.0893C29.8966 25.0893 27.9469 23.5359 27.6152 23.1475L27.8257 22.6216L25.5926 21.1328C25.5926 21.1328 25.7139 21.9016 25.431 22.1441" fill="#9F9F9F"/>
<path fill-rule="evenodd" clip-rule="evenodd" d="M27.9465 23.131C27.9465 23.131 29.532 24.5065 30.0178 24.8057L30.2928 24.3444L28.1327 22.791L27.9465 23.131Z" fill="#9F9F9F"/>
<path fill-rule="evenodd" clip-rule="evenodd" d="M29.132 22.5905L30.7258 23.7876L31.2033 23.2297L29.2778 21.4658L28.9624 21.7733L30.2487 23.0597L29.132 22.5905Z" fill="#9F9F9F"/>
<path fill-rule="evenodd" clip-rule="evenodd" d="M27.2794 20.7364L27.9753 20.0726L26.1143 18.4062L25.1272 19.7005L26.9073 21.2702L25.7585 19.6521L27.2794 20.7364Z" fill="#9F9F9F"/>
<path fill-rule="evenodd" clip-rule="evenodd" d="M28.3799 20.4619L27.4898 21.6595L28.0561 22.0799L28.7682 20.7532L28.3799 20.4619Z" fill="#9F9F9F"/>
<path fill-rule="evenodd" clip-rule="evenodd" d="M27.3644 19.0534L32.2671 23.212L32.6392 23.0503L27.8011 18.8271L27.3644 19.0534Z" fill="#CFCFCF"/>
<path fill-rule="evenodd" clip-rule="evenodd" d="M24.9897 19.014L25.4914 18.496L25.0951 18.2939L24.5851 18.7711L24.9897 19.014Z" fill="#9F9F9F"/>
<path fill-rule="evenodd" clip-rule="evenodd" d="M24.8201 19.3289L24.5692 19.1348L24.2617 19.4423L24.488 19.6365L24.8201 19.3289Z" fill="#9F9F9F"/>
<path fill-rule="evenodd" clip-rule="evenodd" d="M24.2371 18.4962L24.9009 17.995L24.6176 17.8008L23.9863 18.2296L24.043 18.2941L24.2371 18.4962Z" fill="#9F9F9F"/>
<path fill-rule="evenodd" clip-rule="evenodd" d="M23.6792 19.0303L22.9266 18.6016L22.4495 19.0708L22.2312 18.9091L21.8349 20.05L21.7137 19.1033L21.3982 20.3575L21.9403 20.3171L23.3804 20.2929C23.1054 20.1391 22.5958 19.9937 22.5958 19.9937C23.4613 19.7916 24.3434 20.0021 24.3434 20.0021L23.7367 19.5245L24.1492 18.8774L23.9388 18.7562L23.68 19.0312L23.6792 19.0303Z" fill="#303030"/>
<path fill-rule="evenodd" clip-rule="evenodd" d="M20.4832 20.9472L21.1953 18.3096C19.9657 18.9409 19.6902 21.0601 19.6902 21.0601L20.4832 20.9468V20.9472Z" fill="#303030"/>
<path fill-rule="evenodd" clip-rule="evenodd" d="M18.9014 19.4946L19.7265 17.6662C19.0064 17.8441 18.4968 18.3379 18.4968 18.3379C18.3027 17.4478 18.4727 15.3281 18.4727 15.3281C17.746 15.9594 17.5247 16.2986 17.1864 17.2536L17.9956 17.1161L17.1543 18.8962C18.2547 19.0579 18.9019 19.495 18.9019 19.495" fill="#9F9F9F"/>
<path fill-rule="evenodd" clip-rule="evenodd" d="M18.2539 20.6925C17.0726 19.9158 15.8429 20.1908 15.8429 20.1908L15.4787 20.7975L14.5887 22.7717C13.9091 24.1956 14.2812 25.3281 14.2812 25.3281C13.7474 24.9723 13.6503 24.2118 13.6503 24.2118C13.4724 24.8752 13.5695 25.2473 13.5695 25.2473C14.2062 26.8549 17.3313 25.5144 17.3313 25.5144C15.8588 25.3527 15.2762 24.8269 15.2762 24.8269C17.1776 25.1019 18.7877 24.5114 18.7877 24.5114C18.4801 23.9614 18.4964 22.4888 18.4964 22.4888C17.7197 22.1975 15.7458 22.1167 15.7458 22.1167C17.0563 21.5342 18.8606 21.2675 18.8606 21.2675L19.0385 20.3937C18.3185 20.0133 17.2909 19.7949 17.2909 19.7949C17.7522 20.0458 18.2535 20.6929 18.2535 20.6929" fill="#9F9F9F"/>
<path fill-rule="evenodd" clip-rule="evenodd" d="M23.5942 27.5127C23.5246 26.9614 23.4238 26.5372 23.4238 26.5372C23.2821 26.1418 22.8037 25.8709 22.2308 25.7021C22.2566 25.7126 22.2824 25.723 22.3087 25.7342L23.5942 27.5122V27.5127Z" fill="#505050"/>
<path fill-rule="evenodd" clip-rule="evenodd" d="M25.8347 26.7147C25.8347 26.7147 25.5435 28.3489 26.1098 29.3844C26.1098 29.3844 25.3493 28.8181 25.0905 27.7339L24.9609 27.2322L24.8964 26.8764C24.8964 26.8764 24.5709 27.9502 24.6118 28.9202L25.696 30.4203L27.5498 30.6466C27.5498 30.6466 26.9673 28.3164 27.9219 25.76L26.7731 25.0967C26.7731 25.0967 25.9802 26.5043 26.6277 28.4623C26.6277 28.4623 26.1423 28.0902 25.8347 26.7147Z" fill="#505050"/>
<path fill-rule="evenodd" clip-rule="evenodd" d="M27.8736 28.4057C27.8736 28.4057 27.6631 29.9429 28.2698 30.2987C28.2698 30.2987 28.7553 30.5737 29.0707 30.8083C29.0707 30.8083 28.4073 30.1045 28.3748 29.4087C28.3748 29.4087 28.9249 30.2745 29.467 30.4441L29.5561 29.2712L27.8731 28.4053L27.8736 28.4057Z" fill="#505050"/>
<path fill-rule="evenodd" clip-rule="evenodd" d="M28.2294 27.0555C28.2294 27.0555 27.9707 27.7834 28.7636 28.2205L29.5887 28.7547L29.7829 27.2501L28.6824 26.5059C28.6824 26.5059 29.1678 27.3472 29.2812 27.8326C29.2812 27.8326 28.8603 27.0559 28.4399 26.8942L28.2619 26.8538L28.2294 27.0559V27.0555Z" fill="#505050"/>
<path fill-rule="evenodd" clip-rule="evenodd" d="M30.3975 26.7715C29.7458 27.4457 29.872 29.8383 29.985 30.7521C29.985 30.7521 30.1304 28.5999 30.6646 27.3382C30.6646 27.3382 30.2925 27.767 30.1871 28.2282C30.1871 28.2282 30.2146 27.2244 30.3975 26.7719" fill="#505050"/>
<path fill-rule="evenodd" clip-rule="evenodd" d="M30.5804 26.3194L31.8909 23.9085L31.5513 23.6172C31.5513 23.6172 30.8071 24.8631 30.6612 25.7206L30.5804 26.0686V26.3194Z" fill="#9F9F9F"/>
<path fill-rule="evenodd" clip-rule="evenodd" d="M32.4938 25.7288C32.4938 25.7288 32.5747 26.6351 36.6361 29.5798L37.0082 28.9973L32.5584 25.0654C32.5584 25.0654 33.6426 26.6672 34.2252 27.1526L32.4938 25.7288Z" fill="#CFCFCF"/>
<path fill-rule="evenodd" clip-rule="evenodd" d="M33.0276 24.5635L37.1861 28.6412L37.4612 28.382L33.0276 24.5635Z" fill="#CFCFCF"/>
<path fill-rule="evenodd" clip-rule="evenodd" d="M32.5584 23.495L37.7845 27.9128L37.995 27.7023L32.9063 23.3496L32.5584 23.495Z" fill="#CFCFCF"/>
<path fill-rule="evenodd" clip-rule="evenodd" d="M38.8354 28.0422C38.2608 27.9614 37.8887 28.6572 37.8887 28.6572L38.5846 29.466L38.3096 29.984L41.0443 32.217L41.5135 32.1199L41.4326 32.3304L44.0861 34.5959L44.3611 34.2075L39.345 30.0169L39.1267 30.0736L39.3125 29.8065C39.8305 28.7385 40.0247 27.3955 40.0247 27.3955C39.3938 28.5122 38.6979 28.9002 38.6979 28.9002C38.7708 28.7706 39.0133 28.1722 39.0133 28.1722C38.9729 28.083 38.8354 28.0426 38.8354 28.0426" fill="#DFDFDF"/>
<path fill-rule="evenodd" clip-rule="evenodd" d="M45.7687 35.2344L45.2429 35.7198L46.4242 36.7715L46.95 36.3182L45.7687 35.2344Z" fill="#DFDFDF"/>
<path fill-rule="evenodd" clip-rule="evenodd" d="M45.1216 35.4849L45.5099 35.0482L44.7899 34.4736C44.5632 34.5786 44.5065 35.0641 44.5065 35.0641L45.1216 35.4849Z" fill="#DFDFDF"/>
<path fill-rule="evenodd" clip-rule="evenodd" d="M16.4984 18.9203L17.2267 17.7715L16.523 17.9169L15.8754 19.0011L16.4984 18.9203Z" fill="#9F9F9F"/>
<path fill-rule="evenodd" clip-rule="evenodd" d="M19.5973 23.1925C19.5973 23.1925 20.892 24.0463 21.992 24.3375C21.992 24.3375 22.6554 24.7584 23.2379 25.4055L23.3633 25.5188L23.8971 25.5026C23.8971 25.5026 23.3187 24.9888 23.1529 24.4871C23.1529 24.4871 23.865 25.3001 24.5201 25.5751C24.5201 25.5751 25.0538 25.6559 25.2238 25.478C25.2238 25.478 24.538 25.1472 24.0413 24.6217C24.3367 25.0026 24.6034 25.3067 24.6034 25.3067C23.5275 24.9667 22.5729 23.5108 22.5729 23.5108C22.4191 23.81 22.6054 24.2388 22.6054 24.2388C22.3716 23.985 21.8012 23.6592 21.212 23.3646L21.219 23.3679C21.1653 23.3175 21.0732 23.1708 20.967 22.7458C20.967 22.7458 22.1462 21.6561 23.3687 21.2178C22.657 21.3669 21.8157 21.6778 21.0253 22.3062C21.0253 22.3062 21.5999 21.5215 21.9637 21.2382C21.9637 21.2382 20.459 21.562 19.6823 21.8853L19.3102 22.0312L19.2331 22.3187C19.2331 22.3187 19.0552 23.7912 19.411 24.3575L20.1552 24.05C20.1552 24.05 19.6981 23.5162 19.5969 23.1925" fill="#303030"/>
<path fill-rule="evenodd" clip-rule="evenodd" d="M23.6708 24.1027C23.6708 24.1027 24.7467 24.9199 25.7097 25.0815L26.0414 24.8711L25.7259 24.5311C25.7259 24.5311 25.0622 24.3386 24.455 23.9902C24.6296 24.2998 25.5264 24.7161 25.5264 24.7161C25.0005 24.724 23.6708 24.1023 23.6708 24.1023" fill="#303030"/>
<path fill-rule="evenodd" clip-rule="evenodd" d="M26.6964 24.3778C26.6964 24.3778 27.7561 25.2679 28.2578 25.0333C28.2578 25.0333 28.3711 24.8875 27.9665 24.5804C27.9665 24.5804 27.7131 24.3195 27.329 24.0362C27.8861 24.7879 26.8123 24.1583 26.8123 24.1583C26.586 23.9882 26.1972 23.8912 26.1972 23.8912C25.5501 23.9399 23.5892 23.2207 23.5892 23.2207C23.5892 23.2207 24.7867 23.8516 26.2268 24.1108C26.2268 24.1108 26.4777 24.1753 26.696 24.3778" fill="#303030"/>
<path fill-rule="evenodd" clip-rule="evenodd" d="M15.6821 24.1675C15.6371 24.17 15.5908 24.1713 15.5429 24.1704C15.5429 24.1704 15.5938 24.17 15.6821 24.1675ZM15.8434 20.1911C17.2676 20.4606 18.1231 21.1882 18.1231 21.1882C17.0147 21.3986 15.7463 22.1162 15.7463 22.1162L18.1527 23.0441C17.9956 23.4466 17.946 23.8662 17.946 23.8662C17.2193 24.1042 16.0767 24.1558 15.6825 24.1667C16.1675 24.1396 16.4655 23.9429 16.4655 23.9429C14.6533 23.8458 14.8937 22.0957 14.8937 22.0957L14.5895 22.7708C13.9099 24.1946 14.282 25.3272 14.282 25.3272C13.7482 24.9713 13.6512 24.2108 13.6512 24.2108C13.4732 24.8742 13.5703 25.2463 13.5703 25.2463C14.207 26.8539 17.3322 25.5134 17.3322 25.5134C15.8596 25.3517 15.2771 24.8259 15.2771 24.8259C17.1784 25.1009 18.7885 24.5104 18.7885 24.5104C18.481 23.9604 18.4973 22.4878 18.4973 22.4878C17.7205 22.1966 15.7467 22.1157 15.7467 22.1157C17.0572 21.5332 18.8614 21.2665 18.8614 21.2665L19.0394 20.3927C18.3193 20.0123 17.2918 19.7939 17.2918 19.7939C17.753 20.0448 18.2543 20.6919 18.2543 20.6919C17.073 19.9152 15.8434 20.1902 15.8434 20.1902V20.1911Z" fill="#606060"/>
<path fill-rule="evenodd" clip-rule="evenodd" d="M23.5942 27.5127C23.5246 26.9614 23.4238 26.5372 23.4238 26.5372C23.2821 26.1418 22.8037 25.8709 22.2308 25.7021C22.2566 25.7126 22.2824 25.723 22.3087 25.7342L23.5942 27.5122V27.5127Z" fill="#303030"/>
<path fill-rule="evenodd" clip-rule="evenodd" d="M26.9336 25.8569C26.9336 25.8569 26.8981 27.7361 27.379 28.5749C27.4057 27.7615 27.5419 26.779 27.9219 25.761L26.7731 25.0977C26.7731 25.0977 25.9802 26.5052 26.6277 28.4633C26.6277 28.4633 26.1423 28.0911 25.8347 26.7157C25.8347 26.7157 25.5435 28.3499 26.1098 29.3854C26.1098 29.3854 25.3493 28.8191 25.0905 27.7349L24.9609 27.2332L24.8964 26.8773C24.8964 26.8773 24.5709 27.9511 24.6118 28.9212L25.0751 29.5625C25.3772 29.7079 25.8768 29.8587 26.6906 29.9183C26.6906 29.9183 26.3569 29.3125 26.2377 28.4783C26.2377 28.4783 26.5252 28.7045 26.9494 28.8183C26.9494 28.8183 26.5327 26.894 26.9331 25.8573" fill="#303030"/>
<path fill-rule="evenodd" clip-rule="evenodd" d="M32.5359 15.3633C33.4272 13.2136 32.7038 10.1426 32.7038 10.1426C32.9789 13.039 31.5875 15.1262 31.5875 15.1262C31.9113 14.2361 31.9271 12.1002 31.9271 12.1002C31.6521 14.2845 30.4062 15.9837 30.4062 15.9837C30.8108 16.6471 31.0213 18.8801 31.0213 18.8801C31.28 18.0063 31.2638 16.2587 31.2638 16.2587C31.7167 17.1809 31.8138 18.8151 31.8138 18.8151C31.9596 18.2488 32.1051 17.0513 32.1051 17.0513C32.4126 18.718 32.2021 20.0931 32.2021 20.0931L34.2085 21.3715L32.6713 20.9669L34.2893 22.3907L35.2765 18.2322C34.6456 18.7176 33.7881 18.7339 33.7881 18.7339C34.791 18.1513 35.4223 16.6625 35.4223 16.6625C34.6944 17.3746 33.0764 18.1351 33.0764 18.1351C34.729 16.7513 35.3915 15.2116 35.6011 13.8836C35.0035 15.8462 32.8601 17.0292 32.8601 17.0292C33.4764 15.9287 33.313 14.3757 33.313 14.3757C33.0055 14.942 32.5363 15.3629 32.5363 15.3629" fill="#303030"/>
<path fill-rule="evenodd" clip-rule="evenodd" d="M28.6686 14.9582C26.4422 15.4508 26.0226 14.5936 25.9468 14.3261C26.0968 15.0045 26.3964 15.487 27.4206 15.6358C29.3949 15.652 29.9124 14.1148 29.9124 14.1148C29.2165 14.6328 28.1323 14.7136 28.1323 14.7136C28.8465 14.424 29.4499 13.9482 29.8432 13.584C28.8907 14.284 27.2285 14.5782 27.2285 14.5782C27.8594 15.0716 28.6686 14.9582 28.6686 14.9582Z" fill="#303030"/>
<path fill-rule="evenodd" clip-rule="evenodd" d="M22.7767 13.5159C22.7767 13.5159 24.0713 15.846 25.301 16.2019C25.301 16.2019 24.7184 14.0013 24.6859 12.7392C24.6859 12.7392 24.3463 14.0417 24.4434 14.6972C23.8088 13.67 23.903 12.2958 24.0655 11.0732C23.475 12.1316 23.8146 14.1409 23.8146 14.1409C23.1188 13.7851 22.3583 12.4904 22.3583 12.4904C22.2129 13.3642 22.4716 14.0922 22.4716 14.0922C21.6791 13.8938 20.6732 12.8033 20.6732 12.8033C20.6732 12.8033 22.4533 14.9393 23.683 15.6835C23.683 15.6835 22.9063 14.5509 22.7767 13.515" fill="#303030"/>
<path fill-rule="evenodd" clip-rule="evenodd" d="M40.0113 24.0123C39.4288 24.2711 39.1375 25.3228 39.1375 25.3228C38.83 22.1189 36.8074 20.6142 36.8074 20.6142C36.8399 21.2776 36.5649 21.9734 36.5649 21.9734C36.5486 21.0188 36.0532 19.1758 36.0532 19.1758C36.2148 20.3408 35.8427 22.7193 35.8427 22.7193L35.8386 22.9051C36.8761 23.3368 36.8815 23.8144 37.1049 24.9682C37.477 24.0298 37.1374 21.9263 37.1374 21.9263C39.2567 24.5315 38.5937 27.6221 38.5937 27.6221C38.9012 27.6383 39.0792 27.9296 39.0792 27.9296L39.5158 27.0075C40.4221 26.2307 40.6647 27.0883 40.6647 27.0883L40.26 28.4959C40.5188 28.2046 40.7938 27.5412 40.7938 27.5412C40.8947 26.9945 40.9343 26.437 40.9297 25.887C40.9068 23.0827 39.7421 20.4704 39.7421 20.4704C39.5642 21.0855 38.7229 22.0722 38.7229 22.0722C39.4138 21.8951 39.8167 21.3101 39.8167 21.3101C40.0113 23.3393 40.0109 24.0123 40.0109 24.0123" fill="#606060"/>
<path fill-rule="evenodd" clip-rule="evenodd" d="M27.6148 23.1471L25.8364 22.0049C25.9172 21.4712 25.5918 21.1328 25.5918 21.1328C25.5918 21.1328 25.713 21.9016 25.4301 22.1441C25.4301 22.1441 25.7051 22.6862 26.4335 22.9287C26.4335 22.9287 27.9948 23.7217 28.3511 24.3284C28.3511 24.3284 29.1441 25.3155 28.3994 25.6714L29.3866 26.3185C29.7095 25.3914 28.9191 24.2959 28.9191 24.2959C28.3794 23.8509 27.7848 23.3463 27.6148 23.1471Z" fill="#606060"/>
<path fill-rule="evenodd" clip-rule="evenodd" d="M28.3799 20.4619L27.4898 21.6595L28.0561 22.0799L28.1865 21.8374L27.8832 21.4795L28.3799 20.4619Z" fill="#606060"/>
<path fill-rule="evenodd" clip-rule="evenodd" d="M27.2794 20.7366L27.9753 20.0728L27.2848 20.3299L25.5718 19.1182L25.1272 19.7007L26.9073 21.2704L25.7585 19.6524L27.2794 20.7366Z" fill="#606060"/>
<path fill-rule="evenodd" clip-rule="evenodd" d="M30.2487 23.0598L29.132 22.5906L30.7258 23.7877L30.9025 23.5815L30.2783 23.171H30.715L28.9624 21.7734L30.2487 23.0598Z" fill="#9F9F9F"/>
<path fill-rule="evenodd" clip-rule="evenodd" d="M31.5513 23.6172C31.5513 23.6172 30.8071 24.8631 30.6612 25.7206L30.5804 26.0686V26.3194L31.2721 25.0468C31.2162 24.4872 31.5513 23.6176 31.5513 23.6176" fill="#606060"/>
<path fill-rule="evenodd" clip-rule="evenodd" d="M34.2252 27.153L32.4938 25.7292C32.4938 25.7292 32.5747 26.6355 36.6361 29.5803C36.6361 29.5803 34.9098 28.0752 34.3144 26.6172L32.5584 25.0654C32.5584 25.0654 33.6426 26.6672 34.2252 27.1526" fill="#606060"/>
<path fill-rule="evenodd" clip-rule="evenodd" d="M23.0921 18.1682C23.4804 17.5695 24.4351 17.0515 24.4351 17.0515L23.733 17.2236C23.3367 17.0861 22.8996 17.0778 22.8996 17.0778C23.215 16.9728 23.5871 16.9728 23.5871 16.9728C21.3703 15.8564 19.979 16.1315 19.979 16.1315C19.8332 14.8531 20.309 13.8643 20.309 13.8643C19.3061 15.3043 19.419 17.0194 19.419 17.0194L19.6777 16.9223L20.0498 16.7607C21.6195 16.3886 22.7846 16.8903 22.7846 16.8903C22.0562 16.9065 21.6358 17.1815 21.6358 17.1815L21.4578 17.5215C22.4771 17.1657 23.545 17.3111 23.545 17.3111C23.1079 17.4565 22.5741 17.8291 22.5741 17.8291L23.0917 18.1691L23.0921 18.1682Z" fill="#606060"/>
<path fill-rule="evenodd" clip-rule="evenodd" d="M24.5692 18.2451L24.0146 18.2614L24.043 18.2939L24.2371 18.496L24.5692 18.2451Z" fill="#606060"/>
<path fill-rule="evenodd" clip-rule="evenodd" d="M25.2843 18.71L24.5851 18.7708L24.9897 19.0137L25.2843 18.71Z" fill="#606060"/>
<path fill-rule="evenodd" clip-rule="evenodd" d="M29.2778 21.4658L28.9624 21.7733L31.2033 23.2297L29.2778 21.4658Z" fill="#9F9F9F"/>
<path fill-rule="evenodd" clip-rule="evenodd" d="M35.0952 27.3066L36.7624 29.3818L37.0082 28.9972L35.0952 27.3066Z" fill="white"/>
<path fill-rule="evenodd" clip-rule="evenodd" d="M45.5062 35.4766L45.2429 35.7195L46.4242 36.7712L46.95 36.3179L46.4508 36.4949L45.5062 35.4766Z" fill="#8F8F8F"/>
<path fill-rule="evenodd" clip-rule="evenodd" d="M45.1216 35.4849L45.2632 35.3253C44.7636 35.0783 44.7899 34.4736 44.7899 34.4736C44.5632 34.5786 44.5065 35.0641 44.5065 35.0641L45.1216 35.4849Z" fill="#8F8F8F"/>
<path fill-rule="evenodd" clip-rule="evenodd" d="M44.0861 34.5947L44.3611 34.2063L44.0315 34.3263L41.5135 32.1191L41.4326 32.3296L44.0861 34.5947Z" fill="#8F8F8F"/>
<path fill-rule="evenodd" clip-rule="evenodd" d="M41.0443 32.216L41.5135 32.1189L38.6758 29.8926L38.9267 29.4396L37.8887 28.6562L38.5846 29.465L38.3096 29.983L41.0443 32.216Z" fill="#8F8F8F"/>
<path fill-rule="evenodd" clip-rule="evenodd" d="M45.7687 35.2344L46.3858 36.1311L46.95 36.3182L45.7687 35.2344Z" fill="#FCE2A6"/>
<path fill-rule="evenodd" clip-rule="evenodd" d="M45.3962 35.1766L45.51 35.0482L44.7899 34.4736C44.7899 34.4736 45.1033 35.0282 45.3962 35.1762" fill="#FCE2A6"/>
<path fill-rule="evenodd" clip-rule="evenodd" d="M29.3478 27.2548C29.3478 27.2548 29.7287 27.6686 29.6649 28.164L29.7833 27.2481L28.6828 26.5039C28.6828 26.5039 29.1682 27.3452 29.2816 27.8306C29.2816 27.8306 28.8607 27.0539 28.4403 26.8923L28.2624 26.8518C28.2624 26.8518 29.0491 27.4085 29.2995 28.1769C29.2995 28.1769 29.4628 27.6331 29.3478 27.2548Z" fill="#303030"/>
<path fill-rule="evenodd" clip-rule="evenodd" d="M30.3975 26.7715C30.1554 27.0219 30.0208 27.5094 29.9529 28.0703C29.9529 28.0703 30.0921 28.4445 30.0679 28.7766C30.0679 28.7766 30.1941 28.4366 30.38 28.2128C30.4596 27.9011 30.5537 27.6003 30.6646 27.3382C30.6646 27.3382 30.2925 27.767 30.1871 28.2282C30.1871 28.2282 30.2146 27.2244 30.3975 26.7719" fill="#303030"/>
<path fill-rule="evenodd" clip-rule="evenodd" d="M31.6029 26.4481C31.2713 26.8227 31.0337 27.2615 30.8721 27.734C30.8721 27.734 30.6183 29.5774 31.2571 30.3379C31.2571 30.3379 31.4754 29.4158 31.71 29.0595C31.71 29.0595 31.6938 29.8845 32.0013 30.3296C32.0013 30.3296 32.1146 29.6662 32.2763 29.3508C32.2763 29.3508 32.4905 30.6162 33.0914 31.0917C33.0914 31.0917 32.2405 29.7533 32.703 27.6773C32.703 27.6773 32.0234 28.972 31.9909 29.8779C31.9909 29.8779 31.8292 28.4861 32.4117 27.224C32.4117 27.224 31.1983 28.7449 31.1983 29.9262C31.1983 29.9262 31.0042 27.8548 31.6029 26.4473" fill="#303030"/>
<path fill-rule="evenodd" clip-rule="evenodd" d="M33.2943 28.5386C33.2943 28.5386 33.4005 29.4994 33.2285 29.9741C33.2676 30.0549 33.3185 30.1291 33.3826 30.1932C33.3826 30.1932 33.2047 29.4411 33.8114 29.1253C33.8114 29.1253 33.771 28.8019 34.0056 28.6481L33.4393 28.2031C33.3893 28.3006 33.3393 28.4144 33.2943 28.5386Z" fill="#303030"/>
<path fill-rule="evenodd" clip-rule="evenodd" d="M34.2885 28.8838L35.7523 30.5114C35.9549 30.5389 36.1703 30.526 36.392 30.4614L34.2885 28.8838Z" fill="#303030"/>
<path fill-rule="evenodd" clip-rule="evenodd" d="M35.729 31.2319L33.8914 29.8535L35.1323 31.2382H35.7057L35.729 31.2319Z" fill="#303030"/>
<path fill-rule="evenodd" clip-rule="evenodd" d="M34.2056 31.2387L33.4489 30.8008L33.906 31.2387H34.2056Z" fill="#303030"/>
<path fill-rule="evenodd" clip-rule="evenodd" d="M29.532 2.81168C29.532 2.81168 27.016 2.70584 25.5926 3.44504C25.5926 3.44504 25.6493 2.18289 25.9851 1.64911C25.9851 1.64911 25.4334 1.56703 24.7042 2.31998C24.5188 2.75376 24.433 3.25337 24.4521 3.84798C24.7109 2.55333 25.6172 1.88996 25.6172 1.88996C25.0347 2.58583 25.0992 3.97716 25.0992 3.97716C27.3644 3.2492 29.7595 3.70214 29.7595 3.70214C29.7228 3.40921 29.662 3.14461 29.5828 2.90502C29.5661 2.87335 29.5495 2.8421 29.5324 2.81168" fill="#8F8F8F"/>
<path fill-rule="evenodd" clip-rule="evenodd" d="M27.8736 28.4062C27.8736 28.4062 29.4024 29.6701 29.4674 30.4451L29.5566 29.2721L27.8736 28.4062Z" fill="#303030"/>
<path fill-rule="evenodd" clip-rule="evenodd" d="M29.9445 10.6928C29.9366 11.4958 27.259 13.6175 27.174 11.5753C27.0956 11.9191 27.1548 12.3425 27.4527 12.8608C27.4527 12.8608 29.087 12.4241 29.7666 11.7766C29.7666 11.7766 29.087 12.8767 28.4719 13.1033C28.4719 13.1033 29.9445 12.7475 30.2683 12.197C30.2683 12.197 30.3979 11.3395 29.9445 10.6924" fill="#303030"/>
<path fill-rule="evenodd" clip-rule="evenodd" d="M29.532 7.95792C29.4024 9.22841 27.3635 9.34966 27.3635 9.34966C25.3734 9.70552 25.2601 7.8125 25.2601 7.8125C25.2601 8.83339 25.746 9.6626 26.6098 9.96095C27.3502 10.2168 28.2973 10.031 29.0082 9.56051C27.9057 9.84177 27.3835 9.63801 27.3835 9.63801C29.2824 9.19882 29.5187 8.39003 29.537 8.0821C29.537 8.00459 29.532 7.95834 29.532 7.95834" fill="#303030"/>
<path fill-rule="evenodd" clip-rule="evenodd" d="M32.0325 7.13906C31.4713 7.70575 31.2587 6.82279 31.2587 6.82279C31.5258 6.9928 31.8334 6.87946 31.8334 6.87946C31.3963 6.62069 31.0754 5.0752 31.0754 5.0752C31.0779 5.87649 31.4492 6.77237 31.4492 6.77237C31.1254 6.64278 30.8341 6.17359 30.8341 6.17359C30.98 7.74325 31.6108 7.80784 31.6108 7.80784C31.8992 7.707 32.0046 7.42282 32.0325 7.13864" fill="#303030"/>
<path fill-rule="evenodd" clip-rule="evenodd" d="M17.7597 18.703L17.9951 17.1162L17.1538 18.8963C18.2543 19.058 18.9014 19.4951 18.9014 19.4951L19.7265 17.6667L18.7668 19.0692C18.4952 18.9467 17.7597 18.703 17.7597 18.703Z" fill="#606060"/>
<path fill-rule="evenodd" clip-rule="evenodd" d="M16.1871 18.9611L16.388 18.1436L15.8754 19.0015L16.1871 18.9611Z" fill="#606060"/>
<path fill-rule="evenodd" clip-rule="evenodd" d="M17.2268 17.7715L16.1871 18.9607L16.4984 18.9203L17.2268 17.7715Z" fill="#606060"/>
<path fill-rule="evenodd" clip-rule="evenodd" d="M23.5642 7.47754L23.4908 8.228L23.23 8.11882C23.2292 8.12674 23.2292 8.13091 23.2292 8.13091L23.7309 8.64885L23.7634 7.77506L24.3296 8.90762L24.0709 7.97715L23.5646 7.47754H23.5642Z" fill="#303030"/>
<path fill-rule="evenodd" clip-rule="evenodd" d="M23.4229 6.75507L23.7792 6.6259L23.6013 5.15332L23.5275 6.5709L23.3342 6.13212L23.4229 6.75507Z" fill="#303030"/>
<path fill-rule="evenodd" clip-rule="evenodd" d="M13.3699 22.8273L13.6799 23.3644L13.1036 24.8741L14.3658 26.8479L15.5312 26.5708L16.1571 27.655C14.4941 27.9313 12.4494 27.6467 12.0131 25.7654C11.8819 25.1983 11.9611 24.6041 12.1323 24.0544C12.3507 23.3544 12.6836 22.7948 13.0419 22.2598L13.3695 22.8273H13.3699ZM35.7948 10.3583C36.482 11.0767 36.9662 11.9692 37.2057 13.1097C38.7592 14.0306 39.9067 15.6852 40.5151 17.4603L40.0647 18.0833L39.6667 19.4054L39.1225 17.8762L38.0545 15.0285L36.4686 13.9201L36.2257 12.8359L35.7082 11.5738L35.2927 10.5637L35.1336 10.7L34.9448 10.3587H35.7944L35.7948 10.3583ZM22.3383 8.16359C22.3208 8.00733 22.3195 7.84857 22.3408 7.70689L22.3537 7.62272L22.3895 7.54522C22.5991 7.0927 22.4808 6.48433 22.3433 6.02597C22.1679 5.44136 22.5995 4.72757 23.0004 4.24046C22.9212 2.19077 23.9971 0.496509 26.1222 0.0981543L26.8848 0.0160665C27.1015 -0.00726804 27.3198 -0.00518485 27.5356 0.0223166L28.2482 0.112322C29.1678 0.314832 29.9508 0.85361 30.5183 1.75324C30.735 2.09659 30.9325 2.5287 31.0717 2.96539C31.4634 2.94497 31.7063 3.10915 31.9926 3.33999C32.4434 4.54214 32.8626 5.76429 33.2926 6.97519C33.4051 7.41938 33.343 7.81398 33.1255 8.16317H31.6446L31.8092 8.10233L32.2947 7.60897L32.4563 6.89685L31.7442 4.97967L31.5017 4.40505L31.17 3.96003L30.9758 5.12509L30.1587 3.53125L29.0341 1.31447L28.1119 0.909864L27.4806 0.715687L26.766 0.660267L26.5906 0.982784L26.2318 0.684435L25.9664 0.861528L25.5814 1.16071L24.6001 1.8645L24.1067 3.97628L23.6617 4.95508L23.1033 5.44052L23.1842 5.94222L23.265 6.79976V7.32562L23.1033 7.82732L23.2104 8.16317H22.3383V8.16359ZM15.8917 16.857C16.4988 15.2765 17.7564 13.7876 19.0927 12.7976L19.0777 11.9034L19.2602 11.7238C19.7302 11.2608 20.4169 10.7891 21.1228 10.3583H23.3717L22.7396 10.5945C22.7396 10.5945 22.2462 11.2579 22.1733 11.3629C22.1004 11.4679 20.6686 11.8484 20.6199 11.8725C20.5715 11.8967 20.199 12.528 20.199 12.528L20.029 13.4826L19.3573 14.5264L18.5322 14.8339L17.2943 16.2011L16.5501 17.6249L16.4946 17.6908L15.8917 16.8566V16.857Z" fill="#7DF51F"/>
<path fill-rule="evenodd" clip-rule="evenodd" d="M23.3688 21.2178C23.3688 21.2178 22.8842 21.4837 22.342 22.0662C22.342 22.0662 23.0379 21.532 24.0409 21.4837C24.0409 21.4837 23.9275 22.0337 24.8255 22.9642C24.8255 22.9642 24.6676 22.6242 24.6597 22.3737C24.6597 22.3737 25.0601 23.2963 26.1239 23.543C26.1239 23.543 27.0815 23.8859 27.3286 24.0363C27.0231 23.8113 26.6352 23.5721 26.2264 23.4396C26.2264 23.4396 25.0289 23.0513 24.5759 21.5949C24.5759 21.5949 24.9401 21.8458 25.1259 21.8941C25.1259 21.8941 25.3201 21.3762 25.1018 21.1174C25.1018 21.1174 24.3609 21.0103 23.3679 21.2183" fill="#7DF51F"/>
<path fill-rule="evenodd" clip-rule="evenodd" d="M32.7038 10.1425C32.7038 10.1425 33.3772 10.7921 33.4255 12.313C33.4255 12.313 33.7331 11.1967 33.6843 10.7596C33.6843 10.7596 34.5743 12.4585 34.2993 14.0769C34.2993 14.0769 35.3686 12.7339 35.4811 11.1726C35.3906 10.8067 35.3023 10.5863 35.2936 10.565L35.2927 10.5634C35.1056 10.3679 34.8881 10.2558 34.8881 10.2558C33.9818 9.94833 32.7038 10.1425 32.7038 10.1425Z" fill="#7DF51F"/>
<path fill-rule="evenodd" clip-rule="evenodd" d="M20.309 13.8643C20.309 13.8643 20.1586 14.3626 20.3674 15.2335C20.3674 15.2335 20.4078 14.7481 20.5453 14.5135L24.4351 17.0519L20.309 13.8643Z" fill="#7DF51F"/>
<path fill-rule="evenodd" clip-rule="evenodd" d="M26.1143 18.4062L25.5718 19.118L26.1035 18.8571L27.9753 20.0726L26.1143 18.4062Z" fill="#7DF51F"/>
<path fill-rule="evenodd" clip-rule="evenodd" d="M24.7355 18.6306L25.4913 18.496L25.0951 18.2939L24.7355 18.6306Z" fill="#7DF51F"/>
<path fill-rule="evenodd" clip-rule="evenodd" d="M23.9863 18.2299L24.9009 17.9953L24.6242 17.8057L23.9863 18.2299Z" fill="#7DF51F"/>
<path fill-rule="evenodd" clip-rule="evenodd" d="M28.3799 20.4619L28.3282 21.164L28.419 21.404L28.7682 20.7532L28.3799 20.4619Z" fill="#7DF51F"/>
<path fill-rule="evenodd" clip-rule="evenodd" d="M31.5513 23.6172L31.5054 24.6177L31.8909 23.9085L31.5513 23.6172Z" fill="#7DF51F"/>
<path fill-rule="evenodd" clip-rule="evenodd" d="M32.9064 23.3496L37.7846 27.9128L37.995 27.7023L32.9064 23.3496Z" fill="#7DF51F"/>
<path fill-rule="evenodd" clip-rule="evenodd" d="M27.3644 19.0534L32.6392 23.0503L27.8011 18.8271L27.3644 19.0534Z" fill="#7DF51F"/>
<path fill-rule="evenodd" clip-rule="evenodd" d="M24.7038 2.31974C24.7038 2.31974 25.5601 0.726326 27.5502 1.25219C27.5502 1.25219 27.4431 1.03134 26.9514 0.953005C26.9514 0.953005 28.5074 0.860501 29.582 2.90519C28.8974 0.843416 26.8202 0.664656 26.7664 0.660073H26.7652C26.5089 0.621321 26.2314 0.68424 26.2314 0.68424L25.966 0.861333C25.8289 0.958005 25.7005 1.05759 25.5809 1.16052C25.1876 1.49929 24.8934 1.87514 24.7034 2.31974" fill="#7DF51F"/>
<path fill-rule="evenodd" clip-rule="evenodd" d="M27.0727 30.2889C26.2947 30.3185 25.761 30.186 25.3959 30.0055L25.696 30.4206L27.5498 30.6468C27.5498 30.6468 27.339 29.803 27.379 28.5742C27.1027 29.4809 27.0727 30.2889 27.0727 30.2889Z" fill="#7DF51F"/>
<path fill-rule="evenodd" clip-rule="evenodd" d="M27.8736 28.4062C27.8736 28.4062 27.6632 29.9434 28.2699 30.2993C28.2699 30.2993 28.7553 30.5743 29.0708 30.8089C29.0708 30.8089 28.4074 30.1051 28.3749 29.4092C28.2382 29.8222 28.3266 30.0709 28.3266 30.0709C27.9107 29.7601 27.8732 28.4062 27.8732 28.4062" fill="#7DF51F"/>
<path fill-rule="evenodd" clip-rule="evenodd" d="M30.6333 28.7949C30.5579 29.4054 30.5737 30.0325 30.6483 30.6221C30.6483 30.6221 31.9426 31.0913 33.0918 31.0913C31.5946 30.9555 31.5634 30.1104 31.5634 30.1104C31.418 30.3371 31.3934 30.6446 31.3934 30.6446C30.5683 30.3208 30.6337 28.7949 30.6337 28.7949" fill="#7DF51F"/>
<path fill-rule="evenodd" clip-rule="evenodd" d="M34.3702 20.7581L32.6872 19.7547C32.6872 18.9134 32.1051 17.0508 32.1051 17.0508C32.4126 18.7175 32.2022 20.0926 32.2022 20.0926L34.2085 21.371L32.6714 20.9664L34.2894 22.3902L35.2765 18.2317L34.3702 20.7576V20.7581Z" fill="#7DF51F"/>
<path fill-rule="evenodd" clip-rule="evenodd" d="M26.0693 13.7043C26.0693 13.7043 27.3632 14.7852 30.3329 13.0801C27.7115 14.3747 25.7697 13.2259 25.7697 13.2259C25.8368 13.628 25.8743 14.0005 25.9464 14.3272L26.0693 13.7047V13.7043Z" fill="#7DF51F"/>
<path fill-rule="evenodd" clip-rule="evenodd" d="M28.4965 10.5162C28.4965 10.5162 27.9627 11.2821 27.9381 12.1492C27.9381 12.1492 28.2777 10.6766 29.3457 10.1104L29.022 10.1995L28.844 10.2399C28.844 10.2399 27.4052 10.5566 27.1735 11.5758C27.1735 11.5758 27.3148 10.9696 28.4961 10.5166" fill="#7DF51F"/>
<path fill-rule="evenodd" clip-rule="evenodd" d="M29.9446 10.6924C29.9446 10.6924 28.6987 11.2262 27.9382 12.1487C27.9382 12.1487 29.3066 11.1074 29.8725 10.9574C29.9183 10.8603 29.9441 10.7703 29.945 10.6928" fill="#7DF51F"/>
<path fill-rule="evenodd" clip-rule="evenodd" d="M24.9526 15.6684C23.8767 15.2234 22.7762 13.515 22.7762 13.515C22.7762 13.515 24.0709 15.8451 25.3005 16.201C25.3005 16.201 24.718 14.0004 24.6855 12.7383C24.5805 14.1204 24.9522 15.6684 24.9522 15.6684" fill="#7DF51F"/>
<path fill-rule="evenodd" clip-rule="evenodd" d="M25.1305 6.07575L25.8289 4.27148C25.6926 4.2744 25.5622 4.30024 25.4339 4.34649L24.8901 5.99074C24.9547 6.0395 25.0289 6.06533 25.1305 6.07575Z" fill="#7DF51F"/>
<path fill-rule="evenodd" clip-rule="evenodd" d="M26.1622 4.30957L25.4993 6.0705C25.5943 6.06342 25.6797 6.05425 25.7564 6.04216L26.3626 4.37082C26.2939 4.34541 26.2272 4.32499 26.1622 4.30957Z" fill="#7DF51F"/>
<path fill-rule="evenodd" clip-rule="evenodd" d="M26.5468 4.4502L26.0835 5.95028C26.1351 5.92569 26.181 5.89736 26.2226 5.8636L26.6456 4.5002C26.6122 4.4827 26.5793 4.46603 26.5472 4.4502" fill="#7DF51F"/>
<path fill-rule="evenodd" clip-rule="evenodd" d="M28.0036 3.86791L27.5515 5.23465C27.6244 5.29341 27.7007 5.35091 27.779 5.40383L28.3765 3.86083C28.2482 3.84958 28.124 3.85083 28.0036 3.86791Z" fill="#7DF51F"/>
<path fill-rule="evenodd" clip-rule="evenodd" d="M28.7045 3.91016L28.0774 5.57608C28.1424 5.60691 28.207 5.63233 28.2703 5.65108C28.2703 5.65108 28.2795 5.65067 28.2961 5.64942L28.9091 3.96016C28.8395 3.94141 28.7716 3.92474 28.7045 3.91016Z" fill="#7DF51F"/>
<path fill-rule="evenodd" clip-rule="evenodd" d="M29.1003 4.01562L28.6065 5.61404C28.644 5.60821 28.6836 5.60196 28.7248 5.59446L29.204 4.04813C29.169 4.03688 29.1345 4.02646 29.1003 4.01604" fill="#7DF51F"/>
<path fill-rule="evenodd" clip-rule="evenodd" d="M17.1863 17.2536C17.1863 17.2536 17.6226 16.5882 18.126 16.1944C18.126 16.1944 18.0618 17.9978 18.5197 18.602C18.5197 18.602 19.1948 17.8933 19.7269 17.6662C19.0069 17.8441 18.4972 18.3379 18.4972 18.3379C18.3031 17.4478 18.4731 15.3281 18.4731 15.3281C17.7464 15.9594 17.5251 16.2986 17.1868 17.2536" fill="#7DF51F"/>
<path fill-rule="evenodd" clip-rule="evenodd" d="M31.0863 4.83857C31.0863 4.83857 31.3692 5.87987 31.693 6.24948C31.693 6.24948 31.5647 5.8557 31.5376 5.67278C31.5376 5.67278 31.7972 6.34615 31.9834 6.43074C31.7084 5.88071 31.2551 4.35938 31.2551 4.35938L31.158 4.5698L31.0934 4.78023C31.0909 4.7994 31.0888 4.81898 31.0867 4.83857" fill="#7DF51F"/>
<path fill-rule="evenodd" clip-rule="evenodd" d="M22.172 11.8273C22.172 11.8273 22.5304 12.4136 23.1267 12.499C23.1267 12.499 22.8233 11.2402 24.1684 10.3447L20.7703 12.2219L20.6732 12.8044C20.6732 12.8044 21.0716 13.0657 21.727 13.009C21.727 13.009 21.452 12.4669 22.172 11.8277" fill="#7DF51F"/>
<path fill-rule="evenodd" clip-rule="evenodd" d="M37.94 17.6689C37.94 17.6689 38.975 19.5265 38.7229 22.0716C39.7101 18.9973 37.9787 16.2305 37.9787 16.2305C37.0241 17.1689 36.9432 20.1786 36.9432 20.1786C36.9432 20.1786 37.3737 18.8177 37.94 17.6689Z" fill="#7DF51F"/>
<path fill-rule="evenodd" clip-rule="evenodd" d="M39.3129 29.8055C39.8309 28.7375 40.025 27.3945 40.025 27.3945C39.3942 28.5113 38.6983 28.8992 38.6983 28.8992C38.6983 28.8992 39.4175 28.7667 39.655 28.4204C39.655 28.4204 39.4392 29.5705 39.1783 29.9984L39.3129 29.8055Z" fill="#7DF51F"/>
<path fill-rule="evenodd" clip-rule="evenodd" d="M38.6979 28.8992C38.7708 28.7697 39.0133 28.1713 39.0133 28.1713C38.9729 28.0821 38.8354 28.0417 38.8354 28.0417C38.4891 27.9929 38.2166 28.2263 38.0545 28.4192C38.0545 28.4192 38.9487 28.0742 38.6979 28.8992Z" fill="#7DF51F"/>
<path fill-rule="evenodd" clip-rule="evenodd" d="M17.2268 17.7715L16.523 17.9169L16.388 18.1432L16.4321 18.4644L17.2268 17.7715Z" fill="#7DF51F"/>
<path fill-rule="evenodd" clip-rule="evenodd" d="M24.0538 7.9179L23.8117 7.04785C23.4642 7.21619 23.3225 7.62455 23.2654 7.88915C23.3675 7.66497 23.5533 7.31203 23.7517 7.20828L24.0538 7.9179Z" fill="#7DF51F"/>
<path fill-rule="evenodd" clip-rule="evenodd" d="M23.245 5.50917L23.5642 5.86211L23.6013 5.15332L23.245 5.50917Z" fill="#7DF51F"/>
<path fill-rule="evenodd" clip-rule="evenodd" d="M30.2278 4.90039C30.2278 4.90039 30.1795 5.41834 29.8153 5.60418C29.8153 5.60418 29.2932 5.90836 28.679 6.10587C29.1145 5.98378 29.822 5.77835 30.017 5.6796C30.017 5.6796 30.0078 6.3113 29.9253 6.54006L29.5236 6.6884H29.9687C29.9687 6.6884 30.5024 5.83086 30.2274 4.90039" fill="#7DF51F"/>
<path fill-rule="evenodd" clip-rule="evenodd" d="M44.3149 34.2234L44.3612 34.2063L39.3451 30.0156L39.1267 30.0723L39.3151 30.111L44.3149 34.2234Z" fill="#7DF51F"/>
<path fill-rule="evenodd" clip-rule="evenodd" d="M25.2755 7.02159C25.2159 6.92075 25.1701 6.6324 25.1701 6.6324C25.4722 6.65073 25.798 6.47447 25.798 6.47447C25.2872 6.54239 24.6767 6.46572 24.3784 5.83944L24.265 5.62109L24.3055 5.98528C24.3055 5.98528 24.5321 6.99658 24.9042 7.53036L25.6001 7.01242L25.2755 7.02117V7.02159Z" fill="#9F9F9F"/>
<path fill-rule="evenodd" clip-rule="evenodd" d="M26.2881 7.32715L26.0777 7.66675L26.2635 8.02302L26.4414 7.69133L26.8785 8.05511L26.5985 7.6105L26.8785 7.65883L26.2881 7.32715Z" fill="#9F9F9F"/>
<path fill-rule="evenodd" clip-rule="evenodd" d="M27.3235 8.15234C27.256 8.24152 27.1885 8.33027 27.1214 8.41944C27.1214 8.41944 26.8785 8.42736 26.5714 8.22526C26.5714 8.22526 26.7177 8.49611 27.3644 8.65404C27.0031 8.73779 26.6335 8.73238 26.2076 8.5407C26.956 9.38574 28.0636 8.96697 28.7515 8.46361C28.1677 8.87572 27.3819 8.79196 27.3819 8.79196C27.6427 8.7828 27.8669 8.58612 27.8669 8.58612C27.5648 8.60904 27.3223 8.42569 27.3223 8.42569L27.3244 8.15276L27.3235 8.15234Z" fill="#9F9F9F"/>
<defs>
<filter id="filter0_d_300_197" x="12.5479" y="0.617188" width="49.0917" height="58.8223" filterUnits="userSpaceOnUse" color-interpolation-filters="sRGB">
<feFlood flood-opacity="0" result="BackgroundImageFix"/>
<feColorMatrix in="SourceAlpha" type="matrix" values="0 0 0 0 0 0 0 0 0 0 0 0 0 0 0 0 0 0 127 0" result="hardAlpha"/>
<feOffset dx="10" dy="18"/>
<feGaussianBlur stdDeviation="2"/>
<feComposite in2="hardAlpha" operator="out"/>
<feColorMatrix type="matrix" values="0 0 0 0 0 0 0 0 0 0 0 0 0 0 0 0 0 0 0.25 0"/>
<feBlend mode="normal" in2="BackgroundImageFix" result="effect1_dropShadow_300_197"/>
<feBlend mode="normal" in="SourceGraphic" in2="effect1_dropShadow_300_197" result="shape"/>
</filter>
</defs>
</svg>
