<svg width="26" height="15" viewBox="0 0 26 15" fill="none" xmlns="http://www.w3.org/2000/svg">
<path d="M24.8403 2.88015L13.9762 14.4387C13.8469 14.5759 13.7053 14.6743 13.5514 14.734C13.3976 14.7945 13.2318 14.8274 13.0541 14.8327C12.8764 14.8379 12.709 14.8148 12.5519 14.7634C12.3947 14.7129 12.2476 14.623 12.1104 14.4937L0.550894 3.59624C0.23075 3.29443 0.0638023 2.9103 0.0500502 2.44383C0.0362981 1.97737 0.191105 1.57263 0.51447 1.22962C0.837836 0.886609 1.22164 0.708555 1.6659 0.695458C2.11015 0.68236 2.50378 0.837494 2.84679 1.16086L12.9313 10.6678L22.4383 0.58327C22.7401 0.263126 23.1184 0.0963476 23.5734 0.082936C24.0292 0.0694982 24.4286 0.224462 24.7716 0.547828C25.1146 0.871193 25.2926 1.255 25.3057 1.69925C25.3188 2.14351 25.1637 2.53714 24.8403 2.88015Z" fill="url(#paint0_linear_272_3)"/>
<defs>
<linearGradient id="paint0_linear_272_3" x1="12.6187" y1="14.8455" x2="12.1923" y2="0.38512" gradientUnits="userSpaceOnUse">
<stop stop-color="#CDEC10"/>
<stop offset="1" stop-color="#08DB06"/>
</linearGradient>
</defs>
</svg>
