<svg aria-hidden="true" xmlns="http://www.w3.org/2000/svg" xmlns:xlink="http://www.w3.org/1999/xlink"><symbol viewBox="0 0 24 18" id="arrow" xmlns="http://www.w3.org/2000/svg">
<path d="M12 17.7408C11.713 17.7408 11.4346 17.6731 11.1648 17.5377C10.8951 17.4023 10.6712 17.2217 10.4933 16.996L0.591927 4.53678C0.197309 4.04022 0 3.40823 0 2.64081C0 1.8734 0.197309 1.24141 0.591927 0.744844C0.986546 0.248281 1.48879 0 2.09865 0C2.70852 0 3.21076 0.248281 3.60538 0.744844L12 11.3081L20.3946 0.744844C20.7892 0.248281 21.2915 0 21.9013 0C22.5112 0 23.0134 0.248281 23.4081 0.744844C23.8027 1.24141 24 1.8734 24 2.64081C24 3.40823 23.8027 4.04022 23.4081 4.53678L13.5067 16.996C13.2915 17.2669 13.0583 17.4592 12.8072 17.5729C12.5561 17.6867 12.287 17.7427 12 17.7408Z"/>
<defs>
<linearGradient id="apaint0_linear_228_3" x1="8.69091e-08" y1="8.56456" x2="24" y2="8.56456" gradientUnits="userSpaceOnUse">
<stop stop-color="#BDDB06"/>
<stop offset="1" stop-color="#08DB06"/>
</linearGradient>
</defs>
</symbol><symbol viewBox="0 0 71 55" id="discord" xmlns="http://www.w3.org/2000/svg">
<path d="M60.0364 5.28468C55.5476 3.19218 50.6877 1.67343 45.6252 0.795932C45.5808 0.794512 45.5366 0.802842 45.4958 0.820335C45.455 0.837829 45.4185 0.864062 45.3889 0.897182C44.7814 2.01093 44.0727 3.46218 43.6002 4.57593C38.2305 3.76593 32.7698 3.76593 27.4002 4.57593C26.9277 3.42843 26.2189 2.01093 25.5777 0.897182C25.5439 0.829682 25.4427 0.795932 25.3414 0.795932C20.2789 1.67343 15.4527 3.19218 10.9302 5.28468C10.8964 5.28468 10.8627 5.31843 10.8289 5.35218C1.6489 19.0884 -0.882349 32.4534 0.366401 45.6834C0.366401 45.7509 0.400151 45.8184 0.467651 45.8522C6.54265 50.3072 12.3814 53.0072 18.1527 54.7959C18.2539 54.8297 18.3552 54.7959 18.3889 54.7284C19.7389 52.8722 20.9539 50.9147 22.0002 48.8559C22.0677 48.7209 22.0002 48.5859 21.8652 48.5522C19.9414 47.8097 18.1189 46.9322 16.3302 45.9197C16.1952 45.8522 16.1952 45.6497 16.2964 45.5484C16.6677 45.2784 17.0389 44.9747 17.4102 44.7047C17.4777 44.6372 17.5789 44.6372 17.6464 44.6709C29.2564 49.9697 41.7777 49.9697 53.2527 44.6709C53.3202 44.6372 53.4214 44.6372 53.4889 44.7047C53.8602 45.0084 54.2314 45.2784 54.6026 45.5822C54.7376 45.6834 54.7376 45.8859 54.5689 45.9534C52.8139 46.9997 50.9577 47.8434 49.0339 48.5859C48.8989 48.6197 48.8652 48.7884 48.8989 48.8897C49.9789 50.9484 51.1939 52.9059 52.5102 54.7622C52.6114 54.7959 52.7127 54.8297 52.8139 54.7959C58.6189 53.0072 64.4576 50.3072 70.5326 45.8522C70.6001 45.8184 70.6339 45.7509 70.6339 45.6834C72.1189 30.3947 68.1701 17.1309 60.1714 5.35218C60.1376 5.31843 60.1039 5.28468 60.0364 5.28468ZM23.7552 37.6172C20.2789 37.6172 17.3764 34.4109 17.3764 30.4622C17.3764 26.5134 20.2114 23.3072 23.7552 23.3072C27.3327 23.3072 30.1677 26.5472 30.1339 30.4622C30.1339 34.4109 27.2989 37.6172 23.7552 37.6172ZM47.2789 37.6172C43.8027 37.6172 40.9002 34.4109 40.9002 30.4622C40.9002 26.5134 43.7351 23.3072 47.2789 23.3072C50.8564 23.3072 53.6914 26.5472 53.6576 30.4622C53.6576 34.4109 50.8564 37.6172 47.2789 37.6172Z"/>
<defs>
<linearGradient id="bpaint0_linear_202_43" x1="0.0688479" y1="26.8715" x2="70.9419" y2="26.8715" gradientUnits="userSpaceOnUse">
<stop stop-color="#BDDB06"/>
<stop offset="1" stop-color="#08DB06"/>
</linearGradient>
</defs>
</symbol><symbol viewBox="0 0 30 30" id="instagram" xmlns="http://www.w3.org/2000/svg">
<path d="M19.5 15C19.5 15.89 19.2361 16.76 18.7416 17.5001C18.2471 18.2401 17.5443 18.8169 16.7221 19.1575C15.8998 19.4981 14.995 19.5872 14.1221 19.4135C13.2492 19.2399 12.4474 18.8113 11.818 18.182C11.1887 17.5526 10.7601 16.7508 10.5865 15.8779C10.4128 15.005 10.5019 14.1002 10.8425 13.2779C11.1831 12.4557 11.7599 11.7529 12.4999 11.2584C13.24 10.7639 14.11 10.5 15 10.5C16.1923 10.5037 17.3348 10.979 18.1779 11.8221C19.021 12.6652 19.4963 13.8077 19.5 15ZM29.0625 8.8125V21.1875C29.0625 23.2761 28.2328 25.2791 26.756 26.756C25.2791 28.2328 23.2761 29.0625 21.1875 29.0625H8.8125C6.72392 29.0625 4.72088 28.2328 3.24403 26.756C1.76719 25.2791 0.9375 23.2761 0.9375 21.1875V8.8125C0.9375 6.72392 1.76719 4.72088 3.24403 3.24403C4.72088 1.76719 6.72392 0.9375 8.8125 0.9375H21.1875C23.2761 0.9375 25.2791 1.76719 26.756 3.24403C28.2328 4.72088 29.0625 6.72392 29.0625 8.8125ZM21.75 15C21.75 13.665 21.3541 12.3599 20.6124 11.2499C19.8707 10.1399 18.8165 9.2747 17.5831 8.76381C16.3497 8.25292 14.9925 8.11925 13.6831 8.3797C12.3738 8.64015 11.171 9.28303 10.227 10.227C9.28303 11.171 8.64015 12.3738 8.3797 13.6831C8.11925 14.9925 8.25292 16.3497 8.76381 17.5831C9.2747 18.8165 10.1399 19.8707 11.2499 20.6124C12.3599 21.3541 13.665 21.75 15 21.75C16.7902 21.75 18.5071 21.0388 19.773 19.773C21.0388 18.5071 21.75 16.7902 21.75 15ZM24 7.6875C24 7.35374 23.901 7.02748 23.7156 6.74998C23.5302 6.47247 23.2666 6.25618 22.9583 6.12845C22.6499 6.00073 22.3106 5.96731 21.9833 6.03242C21.6559 6.09754 21.3553 6.25826 21.1193 6.49426C20.8833 6.73026 20.7225 7.03094 20.6574 7.35828C20.5923 7.68563 20.6257 8.02493 20.7535 8.33328C20.8812 8.64163 21.0975 8.90518 21.375 9.09061C21.6525 9.27603 21.9787 9.375 22.3125 9.375C22.7601 9.375 23.1893 9.19721 23.5057 8.88074C23.8222 8.56428 24 8.13505 24 7.6875Z"/>
<defs>
<linearGradient id="cpaint0_linear_202_132" x1="0.9375" y1="14.5151" x2="29.0625" y2="14.5151" gradientUnits="userSpaceOnUse">
<stop stop-color="#BDDB06"/>
<stop offset="1" stop-color="#08DB06"/>
</linearGradient>
</defs>
</symbol><symbol viewBox="0 0 139 57" id="logo" xmlns="http://www.w3.org/2000/svg">
<g opacity="0.3">
<path d="M73.816 0.799971L70.936 12H69.032L66.664 3.02397H66.632L64.264 12H62.36L59.48 0.799971H61.032L63.304 9.95197H63.336L65.752 0.799971H67.544L69.944 9.95197H69.976L72.264 0.799971H73.816Z"/>
<path d="M80.5965 0.799971L84.5965 12H83.0285L82.0845 9.34397H77.1245L76.1805 12H74.6125L78.6125 0.799971H80.5965ZM79.5885 2.38397L77.6365 7.90397H81.5725L79.6205 2.38397H79.5885Z"/>
<path d="M90.8535 7.53597H88.4375V12H86.8375V0.799971H92.5815L94.4375 1.87197V6.46397L92.5815 7.53597L95.1575 12H93.3815L90.8535 7.53597ZM88.4375 2.23997V6.09597H92.8375V2.23997H88.4375Z"/>
<path d="M97.4819 2.23997V0.799971H104.762V1.75997L99.2419 10.528V10.56H104.762V12H97.1619V11.04L102.682 2.27197V2.23997H97.4819Z"/>
<path d="M116.041 11.008L114.185 12.08H109.497L107.641 11.008V1.79197L109.497 0.719971H114.185L116.041 1.79197V11.008ZM109.241 2.15997V10.64H114.441V2.15997H109.241Z"/>
<path d="M121.002 3.53597V12H119.402V0.799971H120.858L126.65 9.26397H126.682V0.799971H128.282V12H126.826L121.034 3.53597H121.002Z"/>
<path d="M133.248 6.95997V10.56H138.032V12H131.648V0.799971H138.032V2.23997H133.248V5.51997H137.072V6.95997H133.248Z"/>
</g>
<path d="M72.816 0.799971L69.936 12H68.032L65.664 3.02397H65.632L63.264 12H61.36L58.48 0.799971H60.032L62.304 9.95197H62.336L64.752 0.799971H66.544L68.944 9.95197H68.976L71.264 0.799971H72.816Z"/>
<path d="M79.5965 0.799971L83.5965 12H82.0285L81.0845 9.34397H76.1245L75.1805 12H73.6125L77.6125 0.799971H79.5965ZM78.5885 2.38397L76.6365 7.90397H80.5725L78.6205 2.38397H78.5885Z"/>
<path d="M89.8535 7.53597H87.4375V12H85.8375V0.799971H91.5815L93.4375 1.87197V6.46397L91.5815 7.53597L94.1575 12H92.3815L89.8535 7.53597ZM87.4375 2.23997V6.09597H91.8375V2.23997H87.4375Z"/>
<path d="M96.4819 2.23997V0.799971H103.762V1.75997L98.2419 10.528V10.56H103.762V12H96.1619V11.04L101.682 2.27197V2.23997H96.4819Z"/>
<path d="M115.041 11.008L113.185 12.08H108.497L106.641 11.008V1.79197L108.497 0.719971H113.185L115.041 1.79197V11.008ZM108.241 2.15997V10.64H113.441V2.15997H108.241Z"/>
<path d="M120.002 3.53597V12H118.402V0.799971H119.858L125.65 9.26397H125.682V0.799971H127.282V12H125.826L120.034 3.53597H120.002Z"/>
<path d="M132.248 6.95997V10.56H137.032V12H130.648V0.799971H137.032V2.23997H132.248V5.51997H136.072V6.95997H132.248Z"/>
<g opacity="0.3">
<path d="M87.4202 15.4H95.5402V52.404L88.8122 56.29H70.6582L63.9302 52.404V15.4H72.0502V48.75H87.4202V15.4Z"/>
<path d="M124.183 15.4L138.683 56H130.679L127.605 47.242H112.409L109.335 56H101.331L115.831 15.4H124.183ZM119.949 25.608L114.845 40.282H125.111L120.065 25.608H119.949Z"/>
</g>
<path d="M84.4202 15.4H92.5402V52.404L85.8122 56.29H67.6582L60.9302 52.404V15.4H69.0502V48.75H84.4202V15.4Z"/>
<path d="M121.183 15.4L135.683 56H127.679L124.605 47.242H109.409L106.335 56H98.3311L112.831 15.4H121.183ZM116.949 25.608L111.845 40.282H122.111L117.065 25.608H116.949Z"/>
<path d="M25.5902 25.2316C25.0177 25.2316 24.6558 24.6968 24.6558 24.1622C24.6558 20.6889 26.8608 18.8476 28.7324 17.3105C30.3293 15.999 31.8357 15.067 31.8357 12.9681C31.8357 12.4335 31.9865 12 32.5591 12C33.1316 12 33.5958 12.4335 33.5958 12.9681C33.5958 15.9425 31.2727 17.4163 29.5477 18.8331C27.7832 20.2823 26.2864 21.5645 26.2864 24.1622C26.2864 24.6969 26.1628 25.2316 25.5902 25.2316Z"/>
<path fill-rule="evenodd" clip-rule="evenodd" d="M32.8532 12.7691C32.8532 12.7691 32.8531 12.7695 32.8528 12.7702ZM28.7324 17.3105C26.8608 18.8476 24.6558 20.6889 24.6558 24.1622C24.6558 24.6968 25.0177 25.2316 25.5902 25.2316C26.1628 25.2316 26.2864 24.6969 26.2864 24.1622C26.2864 21.5645 27.7832 20.2823 29.5477 18.8331C29.7394 18.6757 29.9384 18.5176 30.1408 18.3568C31.7602 17.0703 33.5958 15.612 33.5958 12.9681C33.5958 12.4335 33.1316 12 32.5591 12C31.9865 12 31.8357 12.4335 31.8357 12.9681C31.8357 14.8262 30.6551 15.7698 29.2762 16.8718C29.0975 17.0146 28.9156 17.1601 28.7324 17.3105Z"/>
<path fill-rule="evenodd" clip-rule="evenodd" d="M48.5943 31.7091L48.5939 31.7083C48.5533 31.6177 48.5135 31.5289 48.4743 31.4413C48.4098 31.2969 48.3466 31.1556 48.2827 31.014L48.2541 30.9506L48.2345 30.8838C47.3155 27.7443 44.2071 25.3695 40.4416 25.3695H11.5408C7.95988 25.3695 4.96915 27.5191 3.89674 30.432L3.882 30.472L3.86391 30.5106C3.72403 30.8093 3.58727 31.115 3.44319 31.437C3.40331 31.5262 3.36286 31.6166 3.32162 31.7085L3.32134 31.7091C0.911322 37.0691 0.958589 41.8363 1.02057 48.0877C1.03083 49.1219 1.04148 50.1967 1.04148 51.3215C1.04148 53.2594 2.27096 54.4386 3.84442 54.7838C5.4563 55.1374 7.33043 54.5802 8.4265 53.0097C8.69563 52.6241 9.20919 51.9344 9.86908 51.0482C10.1664 50.6488 10.4935 50.2096 10.8414 49.7403C11.9721 48.2146 13.3456 46.34 14.7058 44.3882L15.2001 43.6789L15.9734 44.0655C16.6778 44.4176 17.4687 44.6032 18.2747 44.6023L18.2759 44.6023C19.346 44.6023 20.1055 44.4058 20.6913 44.1375C21.2842 43.8658 21.7489 43.4987 22.2217 43.0775C22.3198 42.9901 22.4203 42.8974 22.5241 42.8017C23.367 42.0243 24.4277 41.0461 26.2151 41.0461C26.2486 41.0461 26.2676 41.0436 26.2765 41.0421L26.4405 41.0148L26.6045 41.0421C26.6134 41.0436 26.6323 41.0461 26.6658 41.0461C28.4533 41.0461 29.514 42.0243 30.357 42.8017C30.4608 42.8974 30.5612 42.9901 30.6594 43.0775C31.1322 43.4988 31.5968 43.8658 32.1898 44.1375C32.7755 44.4058 33.535 44.6023 34.6051 44.6023C35.2141 44.6023 35.7944 44.4982 36.3289 44.3103L37.0416 44.0597L37.4774 44.6769C38.8156 46.5721 40.1535 48.3808 41.2516 49.8513C41.5407 50.2383 41.8147 50.604 42.0685 50.9427C42.7695 51.8781 43.316 52.6075 43.5967 53.0097L42.7767 53.582C42.5064 53.1947 41.9769 52.488 41.2824 51.5613C40.0751 49.9501 38.3693 47.6737 36.6605 45.2537C36.0211 45.4785 35.3287 45.6023 34.6051 45.6023C31.9405 45.6023 30.7407 44.5077 29.6724 43.533C28.8152 42.7509 28.0426 42.0461 26.6658 42.0461C26.5801 42.0461 26.5063 42.0395 26.4405 42.0286C26.3746 42.0395 26.3008 42.0461 26.2151 42.0461C24.8384 42.0461 24.0659 42.7509 23.2086 43.533C22.1403 44.5076 20.9405 45.6023 18.2759 45.6023C17.3166 45.6034 16.3719 45.3827 15.5262 44.9599C13.7266 47.5422 11.9067 49.9862 10.6554 51.6666C10.0039 52.5416 9.5065 53.2095 9.24654 53.582C6.54291 57.456 0.0414823 56.271 0.0414823 51.3215C0.0414823 50.2164 0.0304426 49.1533 0.0197535 48.1238C-0.0451124 41.8769 -0.0970674 36.8733 2.4093 31.299C2.4493 31.2099 2.48894 31.1213 2.52835 31.0332C2.67298 30.7099 2.81439 30.3938 2.95832 30.0865C4.18294 26.7602 7.56278 24.3695 11.5408 24.3695H40.4416C44.6226 24.3695 48.1426 27.0104 49.1943 30.6028C49.2586 30.7454 49.3231 30.8896 49.3882 31.0353C49.4273 31.1227 49.4667 31.2106 49.5063 31.299C52.076 37.014 52.0399 42.1292 51.9944 48.5994C51.9882 49.4801 51.9818 50.3858 51.9818 51.3215C51.9818 56.1407 45.4803 57.4559 42.7767 53.582L43.5967 53.0097C44.6865 54.5712 46.5528 55.105 48.1711 54.7366C49.762 54.3744 50.9818 53.1845 50.9818 51.3215C50.9818 50.3779 50.9878 49.4691 50.9936 48.5897C51.0367 42.102 51.0692 37.2134 48.5943 31.7091Z"/>
<path fill-rule="evenodd" clip-rule="evenodd" d="M40.3045 39.6526C44.2238 39.6526 47.3414 36.6939 47.3414 33.1152C47.3414 29.5364 44.2238 26.5778 40.3045 26.5778C36.3853 26.5778 33.2677 29.5364 33.2677 33.1152C33.2677 36.694 36.3853 39.6526 40.3045 39.6526ZM12.0784 26.5778C8.15924 26.5778 5.0415 29.5364 5.0415 33.1152C5.0415 36.694 8.15914 39.6526 12.0784 39.6526C15.9977 39.6526 19.1153 36.694 19.1153 33.1152C19.1153 29.5364 15.9976 26.5778 12.0784 26.5778ZM40.3045 40.1526C44.4671 40.1526 47.8414 37.0018 47.8414 33.1152C47.8414 29.2285 44.4671 26.0778 40.3045 26.0778C36.142 26.0778 32.7677 29.2285 32.7677 33.1152C32.7677 37.0019 36.142 40.1526 40.3045 40.1526ZM4.5415 33.1152C4.5415 29.2285 7.91594 26.0778 12.0784 26.0778C16.2409 26.0778 19.6153 29.2285 19.6153 33.1152C19.6153 37.0019 16.241 40.1526 12.0784 40.1526C7.91584 40.1526 4.5415 37.0019 4.5415 33.1152Z"/>
<path fill-rule="evenodd" clip-rule="evenodd" d="M40.4416 37.8596C41.2078 37.8596 41.7457 37.2907 41.7457 36.6883C41.7457 36.0858 41.2078 35.517 40.4416 35.517C39.6754 35.517 39.1375 36.0858 39.1375 36.6883C39.1375 37.2907 39.6754 37.8596 40.4416 37.8596ZM42.4457 36.6883C42.4457 37.7218 41.5484 38.5596 40.4416 38.5596C39.3348 38.5596 38.4375 37.7218 38.4375 36.6883C38.4375 35.6548 39.3348 34.817 40.4416 34.817C41.5484 34.817 42.4457 35.6548 42.4457 36.6883Z"/>
<path d="M40.4416 31.5516C41.5484 31.5516 42.4457 30.7138 42.4457 29.6804C42.4457 28.6469 41.5484 27.8091 40.4416 27.8091C39.3348 27.8091 38.4375 28.6469 38.4375 29.6804C38.4375 30.7138 39.3348 31.5516 40.4416 31.5516Z"/>
<path fill-rule="evenodd" clip-rule="evenodd" d="M36.6886 34.3554C37.4549 34.3554 37.9927 33.7866 37.9927 33.1841C37.9927 32.5817 37.4549 32.0129 36.6886 32.0129C35.9224 32.0129 35.3846 32.5817 35.3846 33.1841C35.3846 33.7866 35.9224 34.3554 36.6886 34.3554ZM38.6927 33.1841C38.6927 34.2176 37.7955 35.0554 36.6886 35.0554C35.5818 35.0554 34.6846 34.2176 34.6846 33.1841C34.6846 32.1507 35.5818 31.3129 36.6886 31.3129C37.7955 31.3129 38.6927 32.1507 38.6927 33.1841Z"/>
<path d="M44.1945 35.0554C45.3013 35.0554 46.1986 34.2176 46.1986 33.1841C46.1986 32.1507 45.3013 31.3129 44.1945 31.3129C43.0877 31.3129 42.1904 32.1507 42.1904 33.1841C42.1904 34.2176 43.0877 35.0554 44.1945 35.0554Z"/>
<path d="M21.8298 36.3967H24.3364C24.5444 36.3967 24.7438 36.3195 24.8909 36.1822C25.0379 36.0449 25.1205 35.8587 25.1205 35.6645C25.1205 35.4703 25.0379 35.2841 24.8909 35.1468C24.7438 35.0095 24.5444 34.9323 24.3364 34.9323H21.8298C21.6218 34.9323 21.4224 35.0095 21.2753 35.1468C21.1283 35.2841 21.0456 35.4703 21.0456 35.6645C21.0456 35.8587 21.1283 36.0449 21.2753 36.1822C21.4224 36.3195 21.6218 36.3967 21.8298 36.3967Z"/>
<path d="M31.3802 35.1468C31.5272 35.2841 31.6098 35.4703 31.6098 35.6645C31.6098 35.8587 31.5272 36.0449 31.3801 36.1822C31.2331 36.3195 31.0337 36.3966 30.8257 36.3967H28.3191C28.1111 36.3967 27.9117 36.3195 27.7646 36.1822C27.6176 36.0449 27.5349 35.8587 27.5349 35.6645C27.5349 35.4703 27.6176 35.2841 27.7646 35.1468C27.9117 35.0095 28.1111 34.9323 28.3191 34.9323H30.8257C31.0337 34.9323 31.2331 35.0095 31.3802 35.1468Z"/>
<path d="M6.5381 31.4278H9.25437C9.39318 31.4278 9.52719 31.4915 9.63176 31.6072L10.4359 32.4971C10.6965 32.7855 10.6965 33.298 10.4359 33.5864L9.63176 34.4764C9.5273 34.5919 9.39318 34.6557 9.25437 34.6557H6.5381C6.22175 34.6557 5.96533 34.3316 5.96533 33.9317V32.1518C5.96533 31.7519 6.22175 31.4278 6.5381 31.4278Z"/>
<path d="M13.8071 28.0519V30.5882C13.8071 30.7178 13.7388 30.843 13.6149 30.9405L12.6618 31.6914C12.353 31.9347 11.8041 31.9347 11.4952 31.6914L10.5421 30.9405C10.4183 30.843 10.3501 30.7178 10.3501 30.5882V28.0519C10.3501 27.7565 10.6972 27.5171 11.1254 27.5171H13.0317C13.4599 27.5171 13.8071 27.7565 13.8071 28.0519Z"/>
<path d="M17.619 34.8025H14.9028C14.7639 34.8025 14.6298 34.7388 14.5254 34.6231L13.7211 33.7332C13.4605 33.4448 13.4605 32.9323 13.7211 32.6439L14.5254 31.7539C14.6298 31.6384 14.7639 31.5746 14.9028 31.5746H17.619C17.9354 31.5746 18.1918 31.8987 18.1918 32.2986V34.0785C18.1918 34.4784 17.9354 34.8025 17.619 34.8025Z"/>
<path d="M10.3501 38.1784V35.6421C10.3501 35.5125 10.4182 35.3874 10.5422 35.2897L11.4953 34.5389C11.8041 34.2956 12.353 34.2956 12.6619 34.5389L13.615 35.2897C13.7388 35.3873 13.8071 35.5125 13.8071 35.6421V38.1784C13.8071 38.4738 13.4599 38.7132 13.0317 38.7132H11.1254C10.6972 38.7132 10.3501 38.4738 10.3501 38.1784Z"/>
<path fill-rule="evenodd" clip-rule="evenodd" d="M10.4359 32.4971L9.63176 31.6072C9.52719 31.4915 9.39318 31.4278 9.25437 31.4278H6.5381C6.22175 31.4278 5.96533 31.7519 5.96533 32.1518V33.9317C5.96533 34.3316 6.22175 34.6557 6.5381 34.6557H9.25437C9.39318 34.6557 9.5273 34.5919 9.63176 34.4764L10.4359 33.5864C10.6965 33.298 10.6965 32.7855 10.4359 32.4971ZM10.1391 33.3183C10.1391 33.3183 10.1391 33.3183 10.1391 33.3183C10.1916 33.2601 10.2313 33.1612 10.2313 33.0417C10.2313 32.9223 10.1916 32.8234 10.1391 32.7653L9.33509 31.8755C9.33505 31.8754 9.33513 31.8755 9.33509 31.8755C9.29594 31.8322 9.26537 31.8278 9.25437 31.8278H6.5381C6.52503 31.8278 6.48996 31.8334 6.44679 31.888C6.40308 31.9432 6.36533 32.0352 6.36533 32.1518V33.9317C6.36533 34.0483 6.40308 34.1402 6.44679 34.1955C6.48996 34.25 6.52503 34.2557 6.5381 34.2557H9.25437C9.26551 34.2557 9.29602 34.2512 9.33497 34.2082L10.1391 33.3183ZM13.6149 30.9405C13.7388 30.843 13.8071 30.7178 13.8071 30.5882V28.0519C13.8071 27.7565 13.4599 27.5171 13.0317 27.5171H11.1254C10.6972 27.5171 10.3501 27.7565 10.3501 28.0519V30.5882C10.3501 30.7178 10.4183 30.843 10.5421 30.9405L11.4952 31.6914C11.8041 31.9347 12.353 31.9347 12.6618 31.6914L13.6149 30.9405ZM11.7427 31.3772C11.7427 31.3772 11.7427 31.3772 11.7427 31.3772C11.8109 31.4309 11.9316 31.4739 12.0785 31.4739C12.2256 31.4739 12.3462 31.4308 12.4143 31.3772L13.3674 30.6263C13.3924 30.6067 13.4028 30.5912 13.4062 30.5849C13.4066 30.5843 13.4068 30.5838 13.4071 30.5833V28.0566C13.4039 28.0494 13.392 28.03 13.3528 28.003C13.2874 27.9578 13.1751 27.9171 13.0317 27.9171H11.1254C10.9821 27.9171 10.8697 27.9578 10.8043 28.003C10.7651 28.03 10.7532 28.0494 10.7501 28.0566V30.5834C10.7503 30.5838 10.7506 30.5843 10.7509 30.585C10.7544 30.5913 10.7647 30.6067 10.7896 30.6263M10.7896 30.6263L11.7427 31.3772ZM14.5254 34.6231C14.6298 34.7388 14.7639 34.8025 14.9028 34.8025H17.619C17.9354 34.8025 18.1918 34.4784 18.1918 34.0785V32.2986C18.1918 31.8987 17.9354 31.5746 17.619 31.5746H14.9028C14.7639 31.5746 14.6298 31.6384 14.5254 31.7539L13.7211 32.6439C13.4605 32.9323 13.4605 33.4448 13.7211 33.7332L14.5254 34.6231ZM14.0179 32.912C13.9654 32.9702 13.9257 33.0691 13.9257 33.1886C13.9257 33.308 13.9654 33.4069 14.0179 33.465L14.8221 34.3549C14.8611 34.3981 14.8916 34.4025 14.9028 34.4025H17.619C17.6321 34.4025 17.6672 34.3969 17.7103 34.3423C17.754 34.287 17.7918 34.1951 17.7918 34.0785V32.2986C17.7918 32.182 17.754 32.0901 17.7103 32.0348C17.6672 31.9803 17.6321 31.9746 17.619 31.9746H14.9028C14.8916 31.9746 14.861 31.9791 14.8221 32.0222L14.0179 32.912ZM11.4953 34.5389L10.5422 35.2897C10.4182 35.3874 10.3501 35.5125 10.3501 35.6421V38.1784C10.3501 38.4738 10.6972 38.7132 11.1254 38.7132H13.0317C13.4599 38.7132 13.8071 38.4738 13.8071 38.1784V35.6421C13.8071 35.5125 13.7388 35.3873 13.615 35.2897L12.6619 34.5389C12.353 34.2956 11.8041 34.2956 11.4953 34.5389ZM12.4144 34.8531C12.4144 34.8531 12.4144 34.8531 12.4144 34.8531C12.3462 34.7994 12.2256 34.7564 12.0786 34.7564C11.9316 34.7564 11.811 34.7994 11.7429 34.8531L10.7897 35.6039C10.7897 35.604 10.7897 35.6039 10.7897 35.6039C10.7646 35.6237 10.7543 35.6391 10.7509 35.6454C10.7505 35.646 10.7503 35.6465 10.7501 35.6469V38.1737C10.7532 38.1809 10.7651 38.2003 10.8043 38.2273C10.8697 38.2725 10.9821 38.3132 11.1254 38.3132H13.0317C13.1751 38.3132 13.2874 38.2725 13.3528 38.2273C13.392 38.2003 13.4039 38.1809 13.4071 38.1737V35.6469C13.4068 35.6465 13.4066 35.646 13.4062 35.6453C13.4028 35.639 13.3924 35.6235 13.3674 35.6039L12.4144 34.8531ZM21.8298 35.9967H24.3364C24.4468 35.9967 24.5476 35.9555 24.6179 35.8899C24.6872 35.8251 24.7205 35.7434 24.7205 35.6645C24.7205 35.5856 24.6872 35.5039 24.6179 35.4391C24.5476 35.3735 24.4468 35.3323 24.3364 35.3323H21.8298C21.7194 35.3323 21.6186 35.3735 21.5483 35.4391C21.479 35.5039 21.4456 35.5856 21.4456 35.6645C21.4456 35.7434 21.479 35.8251 21.5483 35.8899C21.6186 35.9555 21.7194 35.9967 21.8298 35.9967ZM31.2098 35.6644C31.2098 35.5856 31.1765 35.5039 31.1072 35.4391C31.0369 35.3735 30.9361 35.3323 30.8257 35.3323H28.3191C28.2087 35.3323 28.1079 35.3735 28.0376 35.4391C27.9683 35.5039 27.9349 35.5856 27.9349 35.6645C27.9349 35.7434 27.9683 35.8251 28.0376 35.8899C28.1079 35.9555 28.2087 35.9967 28.3191 35.9967H30.8257C30.8257 35.9967 30.8256 35.9967 30.8257 35.9967C30.936 35.9966 31.0369 35.9554 31.1072 35.8898C31.1765 35.8251 31.2098 35.7433 31.2098 35.6644ZM30.8257 36.3967C31.0337 36.3966 31.2331 36.3195 31.3801 36.1822C31.5272 36.0449 31.6098 35.8587 31.6098 35.6645C31.6098 35.4703 31.5272 35.2841 31.3802 35.1468C31.2331 35.0095 31.0337 34.9323 30.8257 34.9323H28.3191C28.1111 34.9323 27.9117 35.0095 27.7646 35.1468C27.6176 35.2841 27.5349 35.4703 27.5349 35.6645C27.5349 35.8587 27.6176 36.0449 27.7646 36.1822C27.9117 36.3195 28.1111 36.3967 28.3191 36.3967H30.8257ZM24.3364 36.3967H21.8298C21.6218 36.3967 21.4224 36.3195 21.2753 36.1822C21.1283 36.0449 21.0456 35.8587 21.0456 35.6645C21.0456 35.4703 21.1283 35.2841 21.2753 35.1468C21.4224 35.0095 21.6218 34.9323 21.8298 34.9323H24.3364C24.5444 34.9323 24.7438 35.0095 24.8909 35.1468C25.0379 35.2841 25.1205 35.4703 25.1205 35.6645C25.1205 35.8587 25.0379 36.0449 24.8909 36.1822C24.7438 36.3195 24.5444 36.3967 24.3364 36.3967Z"/>
<defs>
<linearGradient id="dpaint0_linear_223_68" x1="59.48" y1="6.2041" x2="138.032" y2="6.20411" gradientUnits="userSpaceOnUse">
<stop stop-color="#BDDB06"/>
<stop offset="1" stop-color="#08DB06"/>
</linearGradient>
<linearGradient id="dpaint1_linear_223_68" x1="59.48" y1="6.2041" x2="138.032" y2="6.20411" gradientUnits="userSpaceOnUse">
<stop stop-color="#BDDB06"/>
<stop offset="1" stop-color="#08DB06"/>
</linearGradient>
<linearGradient id="dpaint2_linear_223_68" x1="59.48" y1="6.2041" x2="138.032" y2="6.20411" gradientUnits="userSpaceOnUse">
<stop stop-color="#BDDB06"/>
<stop offset="1" stop-color="#08DB06"/>
</linearGradient>
<linearGradient id="dpaint3_linear_223_68" x1="59.48" y1="6.2041" x2="138.032" y2="6.20411" gradientUnits="userSpaceOnUse">
<stop stop-color="#BDDB06"/>
<stop offset="1" stop-color="#08DB06"/>
</linearGradient>
<linearGradient id="dpaint4_linear_223_68" x1="59.48" y1="6.2041" x2="138.032" y2="6.20411" gradientUnits="userSpaceOnUse">
<stop stop-color="#BDDB06"/>
<stop offset="1" stop-color="#08DB06"/>
</linearGradient>
<linearGradient id="dpaint5_linear_223_68" x1="59.48" y1="6.2041" x2="138.032" y2="6.20411" gradientUnits="userSpaceOnUse">
<stop stop-color="#BDDB06"/>
<stop offset="1" stop-color="#08DB06"/>
</linearGradient>
<linearGradient id="dpaint6_linear_223_68" x1="59.48" y1="6.2041" x2="138.032" y2="6.20411" gradientUnits="userSpaceOnUse">
<stop stop-color="#BDDB06"/>
<stop offset="1" stop-color="#08DB06"/>
</linearGradient>
<linearGradient id="dpaint7_linear_223_68" x1="58.48" y1="6.2041" x2="137.032" y2="6.20411" gradientUnits="userSpaceOnUse">
<stop stop-color="#BDDB06"/>
<stop offset="1" stop-color="#08DB06"/>
</linearGradient>
<linearGradient id="dpaint8_linear_223_68" x1="58.48" y1="6.2041" x2="137.032" y2="6.20411" gradientUnits="userSpaceOnUse">
<stop stop-color="#BDDB06"/>
<stop offset="1" stop-color="#08DB06"/>
</linearGradient>
<linearGradient id="dpaint9_linear_223_68" x1="58.48" y1="6.2041" x2="137.032" y2="6.20411" gradientUnits="userSpaceOnUse">
<stop stop-color="#BDDB06"/>
<stop offset="1" stop-color="#08DB06"/>
</linearGradient>
<linearGradient id="dpaint10_linear_223_68" x1="58.48" y1="6.2041" x2="137.032" y2="6.20411" gradientUnits="userSpaceOnUse">
<stop stop-color="#BDDB06"/>
<stop offset="1" stop-color="#08DB06"/>
</linearGradient>
<linearGradient id="dpaint11_linear_223_68" x1="58.48" y1="6.2041" x2="137.032" y2="6.20411" gradientUnits="userSpaceOnUse">
<stop stop-color="#BDDB06"/>
<stop offset="1" stop-color="#08DB06"/>
</linearGradient>
<linearGradient id="dpaint12_linear_223_68" x1="58.48" y1="6.2041" x2="137.032" y2="6.20411" gradientUnits="userSpaceOnUse">
<stop stop-color="#BDDB06"/>
<stop offset="1" stop-color="#08DB06"/>
</linearGradient>
<linearGradient id="dpaint13_linear_223_68" x1="58.48" y1="6.2041" x2="137.032" y2="6.20411" gradientUnits="userSpaceOnUse">
<stop stop-color="#BDDB06"/>
<stop offset="1" stop-color="#08DB06"/>
</linearGradient>
<linearGradient id="dpaint14_linear_223_68" x1="63.9302" y1="35.14" x2="138.683" y2="35.14" gradientUnits="userSpaceOnUse">
<stop stop-color="#BDDB06"/>
<stop offset="1" stop-color="#08DB06"/>
</linearGradient>
<linearGradient id="dpaint15_linear_223_68" x1="63.9302" y1="35.14" x2="138.683" y2="35.14" gradientUnits="userSpaceOnUse">
<stop stop-color="#BDDB06"/>
<stop offset="1" stop-color="#08DB06"/>
</linearGradient>
<linearGradient id="dpaint16_linear_223_68" x1="60.9302" y1="35.14" x2="135.683" y2="35.14" gradientUnits="userSpaceOnUse">
<stop stop-color="#BDDB06"/>
<stop offset="1" stop-color="#08DB06"/>
</linearGradient>
<linearGradient id="dpaint17_linear_223_68" x1="60.9302" y1="35.14" x2="135.683" y2="35.14" gradientUnits="userSpaceOnUse">
<stop stop-color="#BDDB06"/>
<stop offset="1" stop-color="#08DB06"/>
</linearGradient>
<linearGradient id="dpaint18_linear_223_68" x1="24.6558" y1="18.3877" x2="33.5958" y2="18.3877" gradientUnits="userSpaceOnUse">
<stop stop-color="#CDEC10"/>
<stop offset="1" stop-color="#08DB06"/>
</linearGradient>
<linearGradient id="dpaint19_linear_223_68" x1="24.6558" y1="18.3877" x2="33.5958" y2="18.3877" gradientUnits="userSpaceOnUse">
<stop stop-color="#CDEC10"/>
<stop offset="1" stop-color="#08DB06"/>
</linearGradient>
<linearGradient id="dpaint20_linear_223_68" x1="1.88324e-07" y1="39.5841" x2="52.0059" y2="39.5841" gradientUnits="userSpaceOnUse">
<stop stop-color="#CDEC10"/>
<stop offset="1" stop-color="#08DB06"/>
</linearGradient>
<linearGradient id="dpaint21_linear_223_68" x1="4.5415" y1="32.8725" x2="47.8414" y2="32.8725" gradientUnits="userSpaceOnUse">
<stop stop-color="#BDDB06"/>
<stop offset="1" stop-color="#08DB06"/>
</linearGradient>
<linearGradient id="dpaint22_linear_223_68" x1="38.4375" y1="36.6238" x2="42.4457" y2="36.6238" gradientUnits="userSpaceOnUse">
<stop stop-color="#CDEC10"/>
<stop offset="1" stop-color="#08DB06"/>
</linearGradient>
<linearGradient id="dpaint23_linear_223_68" x1="38.4375" y1="29.6158" x2="42.4457" y2="29.6158" gradientUnits="userSpaceOnUse">
<stop stop-color="#CDEC10"/>
<stop offset="1" stop-color="#08DB06"/>
</linearGradient>
<linearGradient id="dpaint24_linear_223_68" x1="34.6846" y1="33.1196" x2="38.6927" y2="33.1196" gradientUnits="userSpaceOnUse">
<stop stop-color="#CDEC10"/>
<stop offset="1" stop-color="#08DB06"/>
</linearGradient>
<linearGradient id="dpaint25_linear_223_68" x1="42.1904" y1="33.1196" x2="46.1986" y2="33.1196" gradientUnits="userSpaceOnUse">
<stop stop-color="#CDEC10"/>
<stop offset="1" stop-color="#08DB06"/>
</linearGradient>
<linearGradient id="dpaint26_linear_223_68" x1="5.96533" y1="32.9221" x2="31.6098" y2="32.9221" gradientUnits="userSpaceOnUse">
<stop stop-color="#CDEC10"/>
<stop offset="1" stop-color="#08DB06"/>
</linearGradient>
<linearGradient id="dpaint27_linear_223_68" x1="5.96533" y1="32.9221" x2="31.6098" y2="32.9221" gradientUnits="userSpaceOnUse">
<stop stop-color="#CDEC10"/>
<stop offset="1" stop-color="#08DB06"/>
</linearGradient>
<linearGradient id="dpaint28_linear_223_68" x1="5.96533" y1="32.9221" x2="31.6098" y2="32.9221" gradientUnits="userSpaceOnUse">
<stop stop-color="#CDEC10"/>
<stop offset="1" stop-color="#08DB06"/>
</linearGradient>
<linearGradient id="dpaint29_linear_223_68" x1="5.96533" y1="32.9221" x2="31.6098" y2="32.9221" gradientUnits="userSpaceOnUse">
<stop stop-color="#CDEC10"/>
<stop offset="1" stop-color="#08DB06"/>
</linearGradient>
<linearGradient id="dpaint30_linear_223_68" x1="5.96533" y1="32.9221" x2="31.6098" y2="32.9221" gradientUnits="userSpaceOnUse">
<stop stop-color="#CDEC10"/>
<stop offset="1" stop-color="#08DB06"/>
</linearGradient>
<linearGradient id="dpaint31_linear_223_68" x1="5.96533" y1="32.9221" x2="31.6098" y2="32.9221" gradientUnits="userSpaceOnUse">
<stop stop-color="#CDEC10"/>
<stop offset="1" stop-color="#08DB06"/>
</linearGradient>
<linearGradient id="dpaint32_linear_223_68" x1="5.96533" y1="32.9221" x2="31.6098" y2="32.9221" gradientUnits="userSpaceOnUse">
<stop stop-color="#BDDB06"/>
<stop offset="1" stop-color="#08DB06"/>
</linearGradient>
</defs>
</symbol><symbol viewBox="0 0 30 30" id="telegram" xmlns="http://www.w3.org/2000/svg">
<path d="M15 0C6.72 0 0 6.72 0 15C0 23.28 6.72 30 15 30C23.28 30 30 23.28 30 15C30 6.72 23.28 0 15 0ZM21.96 10.2C21.735 12.57 20.76 18.33 20.265 20.985C20.055 22.11 19.635 22.485 19.245 22.53C18.375 22.605 17.715 21.96 16.875 21.405C15.555 20.535 14.805 19.995 13.53 19.155C12.045 18.18 13.005 17.64 13.86 16.77C14.085 16.545 17.925 13.05 18 12.735C18.0104 12.6873 18.009 12.6378 17.996 12.5907C17.9829 12.5437 17.9585 12.5005 17.925 12.465C17.835 12.39 17.715 12.42 17.61 12.435C17.475 12.465 15.375 13.86 11.28 16.62C10.68 17.025 10.14 17.235 9.66 17.22C9.12 17.205 8.1 16.92 7.335 16.665C6.39 16.365 5.655 16.2 5.715 15.675C5.745 15.405 6.12 15.135 6.825 14.85C11.205 12.945 14.115 11.685 15.57 11.085C19.74 9.345 20.595 9.045 21.165 9.045C21.285 9.045 21.57 9.075 21.75 9.225C21.9 9.345 21.945 9.51 21.96 9.63C21.945 9.72 21.975 9.99 21.96 10.2Z"/>
<defs>
<linearGradient id="epaint0_linear_202_134" x1="1.08636e-07" y1="14.4827" x2="30" y2="14.4827" gradientUnits="userSpaceOnUse">
<stop stop-color="#BDDB06"/>
<stop offset="1" stop-color="#08DB06"/>
</linearGradient>
</defs>
</symbol><symbol viewBox="0 0 30 30" id="tiktok" xmlns="http://www.w3.org/2000/svg">
<path fill-rule="evenodd" clip-rule="evenodd" d="M15 30C23.2843 30 30 23.2843 30 15C30 6.71573 23.2843 0 15 0C6.71573 0 0 6.71573 0 15C0 23.2843 6.71573 30 15 30ZM17.083 5.00467C16.4324 5.00567 15.7805 5.00667 15.1256 5.01667C15.11 7.1103 15.1107 9.20393 15.1113 11.2996C15.1117 12.5571 15.1121 13.8154 15.109 15.0749C15.1068 15.4675 15.1075 15.8595 15.1082 16.2513C15.1101 17.3479 15.112 18.4424 15.0506 19.5415C15.0428 19.8475 14.8872 20.1165 14.7369 20.3765C14.7275 20.3926 14.7182 20.4087 14.709 20.4248C14.2256 21.2165 13.334 21.7581 12.4007 21.7665C11.0007 21.8915 9.68404 20.7415 9.48404 19.3748C9.48275 19.3049 9.48045 19.2346 9.47814 19.1642C9.4656 18.7809 9.45289 18.3922 9.60071 18.0332C9.80904 17.4415 10.209 16.9165 10.734 16.5749C11.459 16.0749 12.4257 15.9999 13.2507 16.2665C13.2507 15.738 13.2598 15.2094 13.269 14.6808C13.2813 13.9761 13.2935 13.2713 13.284 12.5666C11.4757 12.2249 9.54237 12.7999 8.15906 13.9999C6.94241 15.0332 6.15908 16.5499 6.00908 18.1332C5.99242 18.5415 6.00075 18.9582 6.01742 19.3748C6.19242 21.3248 7.37573 23.1414 9.05905 24.1331C10.0757 24.7331 11.2674 25.0581 12.459 24.9914C14.4006 24.9581 16.2923 23.9164 17.3839 22.3165C18.0589 21.3581 18.4423 20.1998 18.5089 19.0332C18.5246 17.5176 18.5239 15.9988 18.5233 14.4788C18.5229 13.5667 18.5225 12.6541 18.5256 11.7416C18.9589 12.0249 19.4006 12.2999 19.8756 12.5166C20.9672 13.0332 22.1755 13.2832 23.3755 13.3249V9.9666C22.0922 9.82494 20.7756 9.39995 19.8422 8.47496C18.9089 7.57497 18.4506 6.27498 18.3839 5C17.9505 5.00333 17.517 5.004 17.083 5.00467Z"/>
<defs>
<linearGradient id="fpaint0_linear_228_2" x1="1.08636e-07" y1="14.4827" x2="30" y2="14.4827" gradientUnits="userSpaceOnUse">
<stop stop-color="#CDEC10"/>
<stop offset="1" stop-color="#08DB06"/>
</linearGradient>
</defs>
</symbol><symbol viewBox="0 0 31 30" id="youtube" xmlns="http://www.w3.org/2000/svg">
<path d="M17.9848 14.7495L14.5035 13.1775C14.1997 13.041 13.9501 13.194 13.9501 13.5195V16.4805C13.9501 16.806 14.1997 16.959 14.5035 16.8225L17.9832 15.2505C18.2886 15.1125 18.2886 14.8875 17.9848 14.7495ZM15.5001 0.599976C7.28202 0.599976 0.620117 7.04698 0.620117 15C0.620117 22.953 7.28202 29.4 15.5001 29.4C23.7182 29.4 30.3801 22.953 30.3801 15C30.3801 7.04698 23.7182 0.599976 15.5001 0.599976ZM15.5001 20.85C7.88342 20.85 7.75012 20.1855 7.75012 15C7.75012 9.81448 7.88342 9.14997 15.5001 9.14997C23.1168 9.14997 23.2501 9.81448 23.2501 15C23.2501 20.1855 23.1168 20.85 15.5001 20.85Z"/>
<defs>
<linearGradient id="gpaint0_linear_202_136" x1="0.620117" y1="14.5034" x2="30.3801" y2="14.5034" gradientUnits="userSpaceOnUse">
<stop stop-color="#BDDB06"/>
<stop offset="1" stop-color="#08DB06"/>
</linearGradient>
</defs>
</symbol></svg>