<svg aria-hidden="true" xmlns="http://www.w3.org/2000/svg" xmlns:xlink="http://www.w3.org/1999/xlink"><symbol viewBox="0 0 24 18" id="arrow" xmlns="http://www.w3.org/2000/svg">
<path d="M12 17.7408C11.713 17.7408 11.4346 17.6731 11.1648 17.5377C10.8951 17.4023 10.6712 17.2217 10.4933 16.996L0.591927 4.53678C0.197309 4.04022 0 3.40823 0 2.64081C0 1.8734 0.197309 1.24141 0.591927 0.744844C0.986546 0.248281 1.48879 0 2.09865 0C2.70852 0 3.21076 0.248281 3.60538 0.744844L12 11.3081L20.3946 0.744844C20.7892 0.248281 21.2915 0 21.9013 0C22.5112 0 23.0134 0.248281 23.4081 0.744844C23.8027 1.24141 24 1.8734 24 2.64081C24 3.40823 23.8027 4.04022 23.4081 4.53678L13.5067 16.996C13.2915 17.2669 13.0583 17.4592 12.8072 17.5729C12.5561 17.6867 12.287 17.7427 12 17.7408Z"/>
<defs>
<linearGradient id="apaint0_linear_228_3" x1="8.69091e-08" y1="8.56456" x2="24" y2="8.56456" gradientUnits="userSpaceOnUse">
<stop stop-color="#BDDB06"/>
<stop offset="1" stop-color="#08DB06"/>
</linearGradient>
</defs>
</symbol><symbol viewBox="0 0 71 55" id="discord" xmlns="http://www.w3.org/2000/svg">
<path d="M60.0364 5.28468C55.5476 3.19218 50.6877 1.67343 45.6252 0.795932C45.5808 0.794512 45.5366 0.802842 45.4958 0.820335C45.455 0.837829 45.4185 0.864062 45.3889 0.897182C44.7814 2.01093 44.0727 3.46218 43.6002 4.57593C38.2305 3.76593 32.7698 3.76593 27.4002 4.57593C26.9277 3.42843 26.2189 2.01093 25.5777 0.897182C25.5439 0.829682 25.4427 0.795932 25.3414 0.795932C20.2789 1.67343 15.4527 3.19218 10.9302 5.28468C10.8964 5.28468 10.8627 5.31843 10.8289 5.35218C1.6489 19.0884 -0.882349 32.4534 0.366401 45.6834C0.366401 45.7509 0.400151 45.8184 0.467651 45.8522C6.54265 50.3072 12.3814 53.0072 18.1527 54.7959C18.2539 54.8297 18.3552 54.7959 18.3889 54.7284C19.7389 52.8722 20.9539 50.9147 22.0002 48.8559C22.0677 48.7209 22.0002 48.5859 21.8652 48.5522C19.9414 47.8097 18.1189 46.9322 16.3302 45.9197C16.1952 45.8522 16.1952 45.6497 16.2964 45.5484C16.6677 45.2784 17.0389 44.9747 17.4102 44.7047C17.4777 44.6372 17.5789 44.6372 17.6464 44.6709C29.2564 49.9697 41.7777 49.9697 53.2527 44.6709C53.3202 44.6372 53.4214 44.6372 53.4889 44.7047C53.8602 45.0084 54.2314 45.2784 54.6026 45.5822C54.7376 45.6834 54.7376 45.8859 54.5689 45.9534C52.8139 46.9997 50.9577 47.8434 49.0339 48.5859C48.8989 48.6197 48.8652 48.7884 48.8989 48.8897C49.9789 50.9484 51.1939 52.9059 52.5102 54.7622C52.6114 54.7959 52.7127 54.8297 52.8139 54.7959C58.6189 53.0072 64.4576 50.3072 70.5326 45.8522C70.6001 45.8184 70.6339 45.7509 70.6339 45.6834C72.1189 30.3947 68.1701 17.1309 60.1714 5.35218C60.1376 5.31843 60.1039 5.28468 60.0364 5.28468ZM23.7552 37.6172C20.2789 37.6172 17.3764 34.4109 17.3764 30.4622C17.3764 26.5134 20.2114 23.3072 23.7552 23.3072C27.3327 23.3072 30.1677 26.5472 30.1339 30.4622C30.1339 34.4109 27.2989 37.6172 23.7552 37.6172ZM47.2789 37.6172C43.8027 37.6172 40.9002 34.4109 40.9002 30.4622C40.9002 26.5134 43.7351 23.3072 47.2789 23.3072C50.8564 23.3072 53.6914 26.5472 53.6576 30.4622C53.6576 34.4109 50.8564 37.6172 47.2789 37.6172Z"/>
<defs>
<linearGradient id="bpaint0_linear_202_43" x1="0.0688479" y1="26.8715" x2="70.9419" y2="26.8715" gradientUnits="userSpaceOnUse">
<stop stop-color="#BDDB06"/>
<stop offset="1" stop-color="#08DB06"/>
</linearGradient>
</defs>
</symbol><symbol viewBox="0 0 30 30" id="instagram" xmlns="http://www.w3.org/2000/svg">
<path d="M19.5 15C19.5 15.89 19.2361 16.76 18.7416 17.5001C18.2471 18.2401 17.5443 18.8169 16.7221 19.1575C15.8998 19.4981 14.995 19.5872 14.1221 19.4135C13.2492 19.2399 12.4474 18.8113 11.818 18.182C11.1887 17.5526 10.7601 16.7508 10.5865 15.8779C10.4128 15.005 10.5019 14.1002 10.8425 13.2779C11.1831 12.4557 11.7599 11.7529 12.4999 11.2584C13.24 10.7639 14.11 10.5 15 10.5C16.1923 10.5037 17.3348 10.979 18.1779 11.8221C19.021 12.6652 19.4963 13.8077 19.5 15ZM29.0625 8.8125V21.1875C29.0625 23.2761 28.2328 25.2791 26.756 26.756C25.2791 28.2328 23.2761 29.0625 21.1875 29.0625H8.8125C6.72392 29.0625 4.72088 28.2328 3.24403 26.756C1.76719 25.2791 0.9375 23.2761 0.9375 21.1875V8.8125C0.9375 6.72392 1.76719 4.72088 3.24403 3.24403C4.72088 1.76719 6.72392 0.9375 8.8125 0.9375H21.1875C23.2761 0.9375 25.2791 1.76719 26.756 3.24403C28.2328 4.72088 29.0625 6.72392 29.0625 8.8125ZM21.75 15C21.75 13.665 21.3541 12.3599 20.6124 11.2499C19.8707 10.1399 18.8165 9.2747 17.5831 8.76381C16.3497 8.25292 14.9925 8.11925 13.6831 8.3797C12.3738 8.64015 11.171 9.28303 10.227 10.227C9.28303 11.171 8.64015 12.3738 8.3797 13.6831C8.11925 14.9925 8.25292 16.3497 8.76381 17.5831C9.2747 18.8165 10.1399 19.8707 11.2499 20.6124C12.3599 21.3541 13.665 21.75 15 21.75C16.7902 21.75 18.5071 21.0388 19.773 19.773C21.0388 18.5071 21.75 16.7902 21.75 15ZM24 7.6875C24 7.35374 23.901 7.02748 23.7156 6.74998C23.5302 6.47247 23.2666 6.25618 22.9583 6.12845C22.6499 6.00073 22.3106 5.96731 21.9833 6.03242C21.6559 6.09754 21.3553 6.25826 21.1193 6.49426C20.8833 6.73026 20.7225 7.03094 20.6574 7.35828C20.5923 7.68563 20.6257 8.02493 20.7535 8.33328C20.8812 8.64163 21.0975 8.90518 21.375 9.09061C21.6525 9.27603 21.9787 9.375 22.3125 9.375C22.7601 9.375 23.1893 9.19721 23.5057 8.88074C23.8222 8.56428 24 8.13505 24 7.6875Z"/>
<defs>
<linearGradient id="cpaint0_linear_202_132" x1="0.9375" y1="14.5151" x2="29.0625" y2="14.5151" gradientUnits="userSpaceOnUse">
<stop stop-color="#BDDB06"/>
<stop offset="1" stop-color="#08DB06"/>
</linearGradient>
</defs>
</symbol><symbol viewBox="0 0 140 70" id="logo" xmlns="http://www.w3.org/2000/svg">
<path opacity="0.3" d="M73.816 5.8L70.936 17H69.032L66.664 8.024H66.632L64.264 17H62.36L59.48 5.8H61.032L63.304 14.952H63.336L65.752 5.8H67.544L69.944 14.952H69.976L72.264 5.8H73.816ZM80.5965 5.8L84.5965 17H83.0285L82.0845 14.344H77.1245L76.1805 17H74.6125L78.6125 5.8H80.5965ZM79.5885 7.384L77.6365 12.904H81.5725L79.6205 7.384H79.5885ZM90.8535 12.536H88.4375V17H86.8375V5.8H92.5815L94.4375 6.872V11.464L92.5815 12.536L95.1575 17H93.3815L90.8535 12.536ZM88.4375 7.24V11.096H92.8375V7.24H88.4375ZM97.4819 7.24V5.8H104.762V6.76L99.2419 15.528V15.56H104.762V17H97.1619V16.04L102.682 7.272V7.24H97.4819ZM116.041 16.008L114.185 17.08H109.497L107.641 16.008V6.792L109.497 5.72H114.185L116.041 6.792V16.008ZM109.241 7.16V15.64H114.441V7.16H109.241ZM121.003 8.536V17H119.403V5.8H120.859L126.651 14.264H126.683V5.8H128.283V17H126.827L121.035 8.536H121.003ZM133.248 11.96V15.56H138.032V17H131.648V5.8H138.032V7.24H133.248V10.52H137.072V11.96H133.248Z"/>
<path d="M72.816 5.8L69.936 17H68.032L65.664 8.024H65.632L63.264 17H61.36L58.48 5.8H60.032L62.304 14.952H62.336L64.752 5.8H66.544L68.944 14.952H68.976L71.264 5.8H72.816ZM79.5965 5.8L83.5965 17H82.0285L81.0845 14.344H76.1245L75.1805 17H73.6125L77.6125 5.8H79.5965ZM78.5885 7.384L76.6365 12.904H80.5725L78.6205 7.384H78.5885ZM89.8535 12.536H87.4375V17H85.8375V5.8H91.5815L93.4375 6.872V11.464L91.5815 12.536L94.1575 17H92.3815L89.8535 12.536ZM87.4375 7.24V11.096H91.8375V7.24H87.4375ZM96.4819 7.24V5.8H103.762V6.76L98.2419 15.528V15.56H103.762V17H96.1619V16.04L101.682 7.272V7.24H96.4819ZM115.041 16.008L113.185 17.08H108.497L106.641 16.008V6.792L108.497 5.72H113.185L115.041 6.792V16.008ZM108.241 7.16V15.64H113.441V7.16H108.241ZM120.003 8.536V17H118.403V5.8H119.859L125.651 14.264H125.683V5.8H127.283V17H125.827L120.035 8.536H120.003ZM132.248 11.96V15.56H137.032V17H130.648V5.8H137.032V7.24H132.248V10.52H136.072V11.96H132.248Z"/>
<path opacity="0.3" d="M87.42 20.4H95.54V57.404L88.812 61.29H70.658L63.93 57.404V20.4H72.05V53.75H87.42V20.4ZM124.183 20.4L138.683 61H130.679L127.605 52.242H112.409L109.335 61H101.331L115.831 20.4H124.183ZM119.949 30.608L114.845 45.282H125.111L120.065 30.608H119.949Z"/>
<path d="M84.42 20.4H92.54V57.404L85.812 61.29H67.658L60.93 57.404V20.4H69.05V53.75H84.42V20.4ZM121.183 20.4L135.683 61H127.679L124.605 52.242H109.409L106.335 61H98.3309L112.831 20.4H121.183ZM116.949 30.608L111.845 45.282H122.111L117.065 30.608H116.949Z"/>
<path d="M29.0497 16.7811L29.0497 16.7811L29.5477 17.9173L29.2304 17.5309C29.2304 17.5309 29.2304 17.5309 29.2304 17.5309C27.4734 18.9739 25.7864 20.3913 25.7864 23.2464C25.7864 23.493 25.7548 23.6622 25.7078 23.7541C25.6886 23.7917 25.6748 23.8004 25.6725 23.8019L25.6725 23.8019C25.671 23.8029 25.6514 23.8159 25.5902 23.8159C25.4743 23.8159 25.3772 23.7663 25.2972 23.6674C25.2115 23.5613 25.1558 23.4066 25.1558 23.2464C25.1558 20.0315 27.1691 18.3256 29.0497 16.7811Z"/>
<path d="M49.0501 30.5879L49.0503 30.5883C51.5726 36.1979 51.5383 41.1997 51.494 47.6785C51.488 48.5586 51.4818 49.4659 51.4818 50.4057C51.4818 52.542 50.0592 53.9038 48.2821 54.3084C46.4913 54.716 44.4075 54.1293 43.1867 52.3801L42.7767 52.6662L43.1867 52.3801C42.9112 51.9854 42.3733 51.2674 41.6756 50.3364C41.4204 49.9958 41.1439 49.6268 40.851 49.2347C39.7519 47.7629 38.411 45.9501 37.069 44.0495L36.8511 43.7409L36.4947 43.8662C35.9078 44.0725 35.2714 44.1865 34.6051 44.1865C33.4697 44.1865 32.6383 43.9771 31.9816 43.6763C31.3211 43.3738 30.8126 42.968 30.3267 42.5351C30.2226 42.4422 30.1185 42.3468 30.0134 42.2504C29.1637 41.471 28.2472 40.6303 26.6658 40.6303C26.6062 40.6303 26.5599 40.6258 26.5225 40.6196L26.4405 40.6059L26.3585 40.6196C26.3211 40.6258 26.2747 40.6303 26.2151 40.6303C24.6339 40.6303 23.7174 41.471 22.8677 42.2503C22.7626 42.3468 22.6585 42.4422 22.5543 42.5351C22.0684 42.968 21.5599 43.3738 20.8995 43.6763C20.2427 43.9771 19.4113 44.1865 18.2759 44.1865H18.2753C17.3926 44.1876 16.5248 43.9844 15.7498 43.5969L15.3631 43.4036L15.116 43.7583C13.7517 45.716 12.3749 47.595 11.2431 49.1222C10.8907 49.5977 10.5609 50.0406 10.2623 50.4416C9.60649 51.3223 9.10106 52.001 8.83652 52.3801C7.61258 54.1338 5.52488 54.7485 3.73728 54.3564C1.9689 53.9685 0.541482 52.6121 0.541482 50.4057C0.541482 49.2908 0.530633 48.2217 0.52016 47.1899C0.456737 40.9407 0.407155 36.0553 2.86532 30.5883L2.86546 30.588C2.90608 30.4975 2.94612 30.408 2.98577 30.3193C3.13013 29.9966 3.26921 29.6857 3.41111 29.3828L3.42016 29.3635L3.42753 29.3434C4.57605 26.2239 7.76133 23.9537 11.5408 23.9537H40.4416C44.4149 23.9537 47.729 26.4616 48.7144 29.8275L48.7242 29.8609L48.7385 29.8926C48.8026 30.0349 48.8665 30.1777 48.9315 30.3229C48.9705 30.4103 49.01 30.4985 49.0501 30.5879Z"/>
<path d="M47.5914 32.1994C47.5914 35.9321 44.3455 38.9869 40.3045 38.9869C36.2636 38.9869 33.0177 35.9322 33.0177 32.1994C33.0177 28.4667 36.2636 25.412 40.3045 25.412C44.3455 25.412 47.5914 28.4667 47.5914 32.1994ZM4.7915 32.1994C4.7915 28.4667 8.03759 25.412 12.0784 25.412C16.1192 25.412 19.3653 28.4667 19.3653 32.1994C19.3653 35.9322 16.1193 38.9869 12.0784 38.9869C8.03749 38.9869 4.7915 35.9322 4.7915 32.1994Z" stroke-width="0.5"/>
<path d="M42.0957 35.7725C42.0957 36.5905 41.3781 37.2938 40.4416 37.2938C39.5051 37.2938 38.7875 36.5905 38.7875 35.7725C38.7875 34.9546 39.5051 34.2512 40.4416 34.2512C41.3781 34.2512 42.0957 34.9546 42.0957 35.7725Z" stroke-width="0.7"/>
<path d="M40.4416 30.6358C41.5484 30.6358 42.4457 29.7981 42.4457 28.7646C42.4457 27.7311 41.5484 26.8933 40.4416 26.8933C39.3348 26.8933 38.4375 27.7311 38.4375 28.7646C38.4375 29.7981 39.3348 30.6358 40.4416 30.6358Z"/>
<path d="M38.3427 32.2684C38.3427 33.0863 37.6252 33.7896 36.6886 33.7896C35.7521 33.7896 35.0346 33.0863 35.0346 32.2684C35.0346 31.4504 35.7521 30.7471 36.6886 30.7471C37.6252 30.7471 38.3427 31.4504 38.3427 32.2684Z" stroke-width="0.7"/>
<path d="M44.1945 34.1396C45.3013 34.1396 46.1986 33.3018 46.1986 32.2684C46.1986 31.2349 45.3013 30.3971 44.1945 30.3971C43.0877 30.3971 42.1904 31.2349 42.1904 32.2684C42.1904 33.3018 43.0877 34.1396 44.1945 34.1396Z"/>
<path d="M10.2875 31.7154L10.2875 31.7154C10.3789 31.8166 10.4313 31.9661 10.4313 32.126C10.4313 32.2858 10.3789 32.4354 10.2875 32.5366L9.48341 33.4265C9.41168 33.5058 9.32935 33.5399 9.25437 33.5399H6.5381C6.37335 33.5399 6.16533 33.3516 6.16533 33.0159V31.236C6.16533 30.9004 6.37335 30.712 6.5381 30.712H9.25437C9.32928 30.712 9.41154 30.7461 9.48342 30.8255L10.2875 31.7154ZM13.4912 29.8677L13.4912 29.8677L12.5381 30.6185L12.538 30.6185C12.4268 30.7062 12.2593 30.7581 12.0785 30.7581C11.8978 30.7581 11.7303 30.7062 11.619 30.6185C11.619 30.6185 11.619 30.6185 11.619 30.6185L10.6659 29.8677C10.5787 29.799 10.5501 29.7274 10.5501 29.6724V27.1361C10.5501 27.073 10.587 26.9941 10.6907 26.9226C10.7936 26.8516 10.9467 26.8013 11.1254 26.8013H13.0317C13.2104 26.8013 13.3635 26.8516 13.4664 26.9226C13.5701 26.9941 13.6071 27.073 13.6071 27.1361V29.6724C13.6071 29.7274 13.5784 29.7989 13.4912 29.8677ZM14.6738 33.5733L14.6737 33.5733L13.8695 32.6833L13.8695 32.6833C13.7781 32.5822 13.7257 32.4326 13.7257 32.2728C13.7257 32.1129 13.7781 31.9633 13.8695 31.8622L14.6737 30.9723C14.7454 30.8929 14.8278 30.8588 14.9028 30.8588H17.619C17.7838 30.8588 17.9918 31.0472 17.9918 31.3828V33.1628C17.9918 33.4984 17.7838 33.6867 17.619 33.6867H14.9028C14.8278 33.6867 14.7455 33.6527 14.6738 33.5733ZM11.6191 33.7803L11.6191 33.7802C11.7303 33.6926 11.8978 33.6406 12.0786 33.6406C12.2593 33.6406 12.4269 33.6926 12.5382 33.7803C12.5382 33.7803 12.5382 33.7803 12.5382 33.7803L13.4912 34.531C13.5784 34.5998 13.6071 34.6714 13.6071 34.7264V37.2626C13.6071 37.3258 13.5701 37.4046 13.4664 37.4762C13.3635 37.5471 13.2104 37.5974 13.0317 37.5974H11.1254C10.9467 37.5974 10.7936 37.5471 10.6907 37.4762C10.587 37.4046 10.5501 37.3258 10.5501 37.2626V34.7264C10.5501 34.6714 10.5786 34.5999 10.6659 34.5311C10.6659 34.5311 10.6659 34.5311 10.6659 34.5311L11.6191 33.7803ZM24.3364 35.2809H21.8298C21.6706 35.2809 21.5205 35.2217 21.4118 35.1203C21.3036 35.0192 21.2456 34.8853 21.2456 34.7487C21.2456 34.6122 21.3036 34.4782 21.4118 34.3772C21.5205 34.2757 21.6706 34.2165 21.8298 34.2165H24.3364C24.4956 34.2165 24.6457 34.2757 24.7544 34.3772C24.8626 34.4782 24.9205 34.6122 24.9205 34.7487C24.9205 34.8853 24.8626 35.0192 24.7544 35.1203C24.6457 35.2217 24.4956 35.2809 24.3364 35.2809ZM31.2437 34.3772C31.3519 34.4782 31.4098 34.6122 31.4098 34.7487C31.4098 34.8852 31.3518 35.0192 31.2436 35.1202C31.135 35.2217 30.9849 35.2809 30.8257 35.2809H28.3191C28.1599 35.2809 28.0098 35.2217 27.9011 35.1203C27.7929 35.0192 27.7349 34.8853 27.7349 34.7487C27.7349 34.6122 27.7929 34.4782 27.9011 34.3772C28.0098 34.2757 28.1599 34.2165 28.3191 34.2165H30.8257C30.9849 34.2165 31.135 34.2757 31.2437 34.3772Z" stroke-width="0.4"/>
<defs>
<linearGradient id="dpaint0_linear_223_68" x1="59" y1="11.1034" x2="140" y2="11.1034" gradientUnits="userSpaceOnUse">
<stop stop-color="#BDDB06"/>
<stop offset="1" stop-color="#08DB06"/>
</linearGradient>
<linearGradient id="dpaint1_linear_223_68" x1="58" y1="11.1034" x2="138" y2="11.1034" gradientUnits="userSpaceOnUse">
<stop stop-color="#BDDB06"/>
<stop offset="1" stop-color="#08DB06"/>
</linearGradient>
<linearGradient id="dpaint2_linear_223_68" x1="59" y1="40" x2="140" y2="40" gradientUnits="userSpaceOnUse">
<stop stop-color="#BDDB06"/>
<stop offset="1" stop-color="#08DB06"/>
</linearGradient>
<linearGradient id="dpaint3_linear_223_68" x1="56" y1="40" x2="137" y2="40" gradientUnits="userSpaceOnUse">
<stop stop-color="#BDDB06"/>
<stop offset="1" stop-color="#08DB06"/>
</linearGradient>
<linearGradient id="dpaint4_linear_223_68" x1="24.6558" y1="17.4719" x2="33.5958" y2="17.4719" gradientUnits="userSpaceOnUse">
<stop stop-color="#CDEC10"/>
<stop offset="1" stop-color="#08DB06"/>
</linearGradient>
<linearGradient id="dpaint5_linear_223_68" x1="24.6558" y1="17.4719" x2="33.5958" y2="17.4719" gradientUnits="userSpaceOnUse">
<stop stop-color="#CDEC10"/>
<stop offset="1" stop-color="#08DB06"/>
</linearGradient>
<linearGradient id="dpaint6_linear_223_68" x1="1.88324e-07" y1="38.6683" x2="52.0059" y2="38.6683" gradientUnits="userSpaceOnUse">
<stop stop-color="#CDEC10"/>
<stop offset="1" stop-color="#08DB06"/>
</linearGradient>
<linearGradient id="dpaint7_linear_223_68" x1="4.5415" y1="31.9567" x2="47.8414" y2="31.9567" gradientUnits="userSpaceOnUse">
<stop stop-color="#BDDB06"/>
<stop offset="1" stop-color="#08DB06"/>
</linearGradient>
<linearGradient id="dpaint8_linear_223_68" x1="38.4375" y1="35.708" x2="42.4457" y2="35.708" gradientUnits="userSpaceOnUse">
<stop stop-color="#CDEC10"/>
<stop offset="1" stop-color="#08DB06"/>
</linearGradient>
<linearGradient id="dpaint9_linear_223_68" x1="38.4375" y1="28.7001" x2="42.4457" y2="28.7001" gradientUnits="userSpaceOnUse">
<stop stop-color="#CDEC10"/>
<stop offset="1" stop-color="#08DB06"/>
</linearGradient>
<linearGradient id="dpaint10_linear_223_68" x1="34.6846" y1="32.2038" x2="38.6927" y2="32.2038" gradientUnits="userSpaceOnUse">
<stop stop-color="#CDEC10"/>
<stop offset="1" stop-color="#08DB06"/>
</linearGradient>
<linearGradient id="dpaint11_linear_223_68" x1="42.1904" y1="32.2038" x2="46.1986" y2="32.2038" gradientUnits="userSpaceOnUse">
<stop stop-color="#CDEC10"/>
<stop offset="1" stop-color="#08DB06"/>
</linearGradient>
<linearGradient id="dpaint12_linear_223_68" x1="5.96533" y1="34.6583" x2="34.7194" y2="34.6583" gradientUnits="userSpaceOnUse">
<stop stop-color="#CDEC10"/>
<stop offset="1" stop-color="#08DB06"/>
</linearGradient>
<linearGradient id="dpaint13_linear_223_68" x1="5.96533" y1="34.6583" x2="34.7194" y2="34.6583" gradientUnits="userSpaceOnUse">
<stop stop-color="#BDDB06"/>
<stop offset="1" stop-color="#08DB06"/>
</linearGradient>
</defs>
</symbol><symbol viewBox="0 0 30 30" id="telegram" xmlns="http://www.w3.org/2000/svg">
<path d="M15 0C6.72 0 0 6.72 0 15C0 23.28 6.72 30 15 30C23.28 30 30 23.28 30 15C30 6.72 23.28 0 15 0ZM21.96 10.2C21.735 12.57 20.76 18.33 20.265 20.985C20.055 22.11 19.635 22.485 19.245 22.53C18.375 22.605 17.715 21.96 16.875 21.405C15.555 20.535 14.805 19.995 13.53 19.155C12.045 18.18 13.005 17.64 13.86 16.77C14.085 16.545 17.925 13.05 18 12.735C18.0104 12.6873 18.009 12.6378 17.996 12.5907C17.9829 12.5437 17.9585 12.5005 17.925 12.465C17.835 12.39 17.715 12.42 17.61 12.435C17.475 12.465 15.375 13.86 11.28 16.62C10.68 17.025 10.14 17.235 9.66 17.22C9.12 17.205 8.1 16.92 7.335 16.665C6.39 16.365 5.655 16.2 5.715 15.675C5.745 15.405 6.12 15.135 6.825 14.85C11.205 12.945 14.115 11.685 15.57 11.085C19.74 9.345 20.595 9.045 21.165 9.045C21.285 9.045 21.57 9.075 21.75 9.225C21.9 9.345 21.945 9.51 21.96 9.63C21.945 9.72 21.975 9.99 21.96 10.2Z"/>
<defs>
<linearGradient id="epaint0_linear_202_134" x1="1.08636e-07" y1="14.4827" x2="30" y2="14.4827" gradientUnits="userSpaceOnUse">
<stop stop-color="#BDDB06"/>
<stop offset="1" stop-color="#08DB06"/>
</linearGradient>
</defs>
</symbol><symbol viewBox="0 0 30 30" id="tiktok" xmlns="http://www.w3.org/2000/svg">
<path fill-rule="evenodd" clip-rule="evenodd" d="M15 30C23.2843 30 30 23.2843 30 15C30 6.71573 23.2843 0 15 0C6.71573 0 0 6.71573 0 15C0 23.2843 6.71573 30 15 30ZM17.083 5.00467C16.4324 5.00567 15.7805 5.00667 15.1256 5.01667C15.11 7.1103 15.1107 9.20393 15.1113 11.2996C15.1117 12.5571 15.1121 13.8154 15.109 15.0749C15.1068 15.4675 15.1075 15.8595 15.1082 16.2513C15.1101 17.3479 15.112 18.4424 15.0506 19.5415C15.0428 19.8475 14.8872 20.1165 14.7369 20.3765C14.7275 20.3926 14.7182 20.4087 14.709 20.4248C14.2256 21.2165 13.334 21.7581 12.4007 21.7665C11.0007 21.8915 9.68404 20.7415 9.48404 19.3748C9.48275 19.3049 9.48045 19.2346 9.47814 19.1642C9.4656 18.7809 9.45289 18.3922 9.60071 18.0332C9.80904 17.4415 10.209 16.9165 10.734 16.5749C11.459 16.0749 12.4257 15.9999 13.2507 16.2665C13.2507 15.738 13.2598 15.2094 13.269 14.6808C13.2813 13.9761 13.2935 13.2713 13.284 12.5666C11.4757 12.2249 9.54237 12.7999 8.15906 13.9999C6.94241 15.0332 6.15908 16.5499 6.00908 18.1332C5.99242 18.5415 6.00075 18.9582 6.01742 19.3748C6.19242 21.3248 7.37573 23.1414 9.05905 24.1331C10.0757 24.7331 11.2674 25.0581 12.459 24.9914C14.4006 24.9581 16.2923 23.9164 17.3839 22.3165C18.0589 21.3581 18.4423 20.1998 18.5089 19.0332C18.5246 17.5176 18.5239 15.9988 18.5233 14.4788C18.5229 13.5667 18.5225 12.6541 18.5256 11.7416C18.9589 12.0249 19.4006 12.2999 19.8756 12.5166C20.9672 13.0332 22.1755 13.2832 23.3755 13.3249V9.9666C22.0922 9.82494 20.7756 9.39995 19.8422 8.47496C18.9089 7.57497 18.4506 6.27498 18.3839 5C17.9505 5.00333 17.517 5.004 17.083 5.00467Z"/>
<defs>
<linearGradient id="fpaint0_linear_228_2" x1="1.08636e-07" y1="14.4827" x2="30" y2="14.4827" gradientUnits="userSpaceOnUse">
<stop stop-color="#CDEC10"/>
<stop offset="1" stop-color="#08DB06"/>
</linearGradient>
</defs>
</symbol><symbol viewBox="0 0 31 30" id="youtube" xmlns="http://www.w3.org/2000/svg">
<path d="M17.9848 14.7495L14.5035 13.1775C14.1997 13.041 13.9501 13.194 13.9501 13.5195V16.4805C13.9501 16.806 14.1997 16.959 14.5035 16.8225L17.9832 15.2505C18.2886 15.1125 18.2886 14.8875 17.9848 14.7495ZM15.5001 0.599976C7.28202 0.599976 0.620117 7.04698 0.620117 15C0.620117 22.953 7.28202 29.4 15.5001 29.4C23.7182 29.4 30.3801 22.953 30.3801 15C30.3801 7.04698 23.7182 0.599976 15.5001 0.599976ZM15.5001 20.85C7.88342 20.85 7.75012 20.1855 7.75012 15C7.75012 9.81448 7.88342 9.14997 15.5001 9.14997C23.1168 9.14997 23.2501 9.81448 23.2501 15C23.2501 20.1855 23.1168 20.85 15.5001 20.85Z"/>
<defs>
<linearGradient id="gpaint0_linear_202_136" x1="0.620117" y1="14.5034" x2="30.3801" y2="14.5034" gradientUnits="userSpaceOnUse">
<stop stop-color="#BDDB06"/>
<stop offset="1" stop-color="#08DB06"/>
</linearGradient>
</defs>
</symbol></svg>