<svg aria-hidden="true" xmlns="http://www.w3.org/2000/svg" xmlns:xlink="http://www.w3.org/1999/xlink"><symbol viewBox="0 0 26 15" id="arrow" xmlns="http://www.w3.org/2000/svg">
<path d="M24.7767 2.88821L13.567 14.1118C13.4335 14.245 13.289 14.3391 13.1334 14.3941C12.9778 14.45 12.8111 14.4778 12.6333 14.4777C12.4556 14.4775 12.2889 14.4494 12.1334 14.3932C11.9779 14.338 11.8335 14.2436 11.7003 14.1102L0.476751 2.86708C0.165911 2.5557 0.0106935 2.16668 0.0110992 1.70001C0.011505 1.23335 0.178519 0.833492 0.512142 0.500448C0.845765 0.167405 1.2348 0.00107635 1.67924 0.00146274C2.12369 0.00184914 2.51243 0.168854 2.84547 0.502477L12.637 10.311L22.4455 0.519517C22.7569 0.208676 23.1401 0.0534535 23.5952 0.0538492C24.0512 0.0542456 24.4457 0.221255 24.7788 0.554878C25.1118 0.888501 25.2781 1.27754 25.2778 1.72198C25.2774 2.16642 25.1104 2.55517 24.7767 2.88821Z"/>
</symbol><symbol viewBox="0 0 30 23" id="dicrord-tap" xmlns="http://www.w3.org/2000/svg">
<path d="M25.4128 2.13441C23.4454 1.24253 21.364 0.608807 19.2237 0.25C18.9571 0.716988 18.6456 1.34509 18.4308 1.84478C16.1231 1.50858 13.8367 1.50858 11.5714 1.84478C11.3567 1.3452 11.0382 0.716988 10.7692 0.25C8.62674 0.608972 6.54358 1.24431 4.57522 2.13907C0.658351 7.87383 -0.403485 13.466 0.127375 18.979C2.7253 20.8587 5.24296 22.0005 7.71819 22.7477C8.33335 21.9281 8.87713 21.0604 9.34393 20.1535C8.45522 19.8257 7.59846 19.4217 6.78386 18.9463C6.99823 18.7924 7.20755 18.6319 7.41151 18.4652C12.3477 20.7022 17.7111 20.7022 22.5885 18.4652C22.7933 18.6308 23.0026 18.7912 23.216 18.9463C22.4001 19.4229 21.5417 19.8277 20.6512 20.1558C21.1207 21.0664 21.6635 21.935 22.277 22.75C24.7546 22.0029 27.2746 20.861 29.8725 18.979C30.4954 12.5881 28.8084 7.04727 25.4128 2.13441ZM10.0165 15.5886C8.53464 15.5886 7.3194 14.2483 7.3194 12.6161C7.3194 10.984 8.50874 9.64142 10.0165 9.64142C11.5243 9.64142 12.7394 10.9816 12.7135 12.6161C12.7159 14.2483 11.5243 15.5886 10.0165 15.5886ZM19.9834 15.5886C18.5015 15.5886 17.2864 14.2483 17.2864 12.6161C17.2864 10.984 18.4756 9.64142 19.9834 9.64142C21.4912 9.64142 22.7063 10.9816 22.6805 12.6161C22.6805 14.2483 21.4912 15.5886 19.9834 15.5886Z"/>
</symbol><symbol viewBox="0 0 31 24" id="discord" xmlns="http://www.w3.org/2000/svg">
<path d="M25.4526 2.69589C23.5526 1.81016 21.4954 1.16728 19.3525 0.795842C19.3337 0.795241 19.315 0.798767 19.2977 0.806172C19.2804 0.813577 19.265 0.824681 19.2525 0.838701C18.9953 1.31014 18.6953 1.92444 18.4953 2.39589C16.2224 2.05302 13.9109 2.05302 11.638 2.39589C11.438 1.91016 11.138 1.31014 10.8665 0.838701C10.8522 0.810128 10.8094 0.795842 10.7665 0.795842C8.6236 1.16728 6.58069 1.81016 4.66635 2.69589C4.65206 2.69589 4.63778 2.71018 4.62349 2.72447C0.737672 8.53891 -0.333786 14.1962 0.1948 19.7964C0.1948 19.8249 0.209086 19.8535 0.237658 19.8678C2.80916 21.7536 5.28065 22.8964 7.72358 23.6536C7.76644 23.6679 7.80929 23.6536 7.82358 23.625C8.39502 22.8393 8.90932 22.0107 9.35219 21.1393C9.38077 21.0821 9.35219 21.025 9.29505 21.0107C8.48074 20.6964 7.70929 20.325 6.95213 19.8964C6.89498 19.8678 6.89498 19.7821 6.93784 19.7392C7.09499 19.6249 7.25214 19.4964 7.40928 19.3821C7.43786 19.3535 7.48071 19.3535 7.50929 19.3678C12.4237 21.6107 17.7239 21.6107 22.5811 19.3678C22.6097 19.3535 22.6526 19.3535 22.6811 19.3821C22.8383 19.5106 22.9954 19.6249 23.1526 19.7535C23.2097 19.7964 23.2097 19.8821 23.1383 19.9107C22.3954 20.3535 21.6097 20.7107 20.7954 21.025C20.7382 21.0393 20.7239 21.1107 20.7382 21.1535C21.1954 22.025 21.7097 22.8536 22.2668 23.6393C22.3097 23.6536 22.3525 23.6679 22.3954 23.6536C24.8526 22.8964 27.3241 21.7536 29.8956 19.8678C29.9242 19.8535 29.9385 19.8249 29.9385 19.7964C30.5671 13.3248 28.8956 7.71032 25.5098 2.72447C25.4955 2.71018 25.4812 2.69589 25.4526 2.69589ZM10.0951 16.382C8.6236 16.382 7.395 15.0248 7.395 13.3533C7.395 11.6819 8.59503 10.3247 10.0951 10.3247C11.6094 10.3247 12.8094 11.6961 12.7951 13.3533C12.7951 15.0248 11.5951 16.382 10.0951 16.382ZM20.0525 16.382C18.581 16.382 17.3524 15.0248 17.3524 13.3533C17.3524 11.6819 18.5524 10.3247 20.0525 10.3247C21.5668 10.3247 22.7668 11.6961 22.7526 13.3533C22.7526 15.0248 21.5668 16.382 20.0525 16.382Z"/>
<defs>
<linearGradient id="cpaint0_linear_202_43" x1="0.0688478" y1="11.8334" x2="30.0688" y2="11.8334" gradientUnits="userSpaceOnUse">
<stop stop-color="#BDDB06"/>
<stop offset="1" stop-color="#08DB06"/>
</linearGradient>
</defs>
</symbol><symbol viewBox="0 0 30 30" id="instagram" xmlns="http://www.w3.org/2000/svg">
<path d="M19.5 15C19.5 15.89 19.2361 16.76 18.7416 17.5001C18.2471 18.2401 17.5443 18.8169 16.7221 19.1575C15.8998 19.4981 14.995 19.5872 14.1221 19.4135C13.2492 19.2399 12.4474 18.8113 11.818 18.182C11.1887 17.5526 10.7601 16.7508 10.5865 15.8779C10.4128 15.005 10.5019 14.1002 10.8425 13.2779C11.1831 12.4557 11.7599 11.7529 12.4999 11.2584C13.24 10.7639 14.11 10.5 15 10.5C16.1923 10.5037 17.3348 10.979 18.1779 11.8221C19.021 12.6652 19.4963 13.8077 19.5 15ZM29.0625 8.8125V21.1875C29.0625 23.2761 28.2328 25.2791 26.756 26.756C25.2791 28.2328 23.2761 29.0625 21.1875 29.0625H8.8125C6.72392 29.0625 4.72088 28.2328 3.24403 26.756C1.76719 25.2791 0.9375 23.2761 0.9375 21.1875V8.8125C0.9375 6.72392 1.76719 4.72088 3.24403 3.24403C4.72088 1.76719 6.72392 0.9375 8.8125 0.9375H21.1875C23.2761 0.9375 25.2791 1.76719 26.756 3.24403C28.2328 4.72088 29.0625 6.72392 29.0625 8.8125ZM21.75 15C21.75 13.665 21.3541 12.3599 20.6124 11.2499C19.8707 10.1399 18.8165 9.2747 17.5831 8.76381C16.3497 8.25292 14.9925 8.11925 13.6831 8.3797C12.3738 8.64015 11.171 9.28303 10.227 10.227C9.28303 11.171 8.64015 12.3738 8.3797 13.6831C8.11925 14.9925 8.25292 16.3497 8.76381 17.5831C9.2747 18.8165 10.1399 19.8707 11.2499 20.6124C12.3599 21.3541 13.665 21.75 15 21.75C16.7902 21.75 18.5071 21.0388 19.773 19.773C21.0388 18.5071 21.75 16.7902 21.75 15ZM24 7.6875C24 7.35374 23.901 7.02748 23.7156 6.74998C23.5302 6.47247 23.2666 6.25618 22.9583 6.12845C22.6499 6.00073 22.3106 5.96731 21.9833 6.03242C21.6559 6.09754 21.3553 6.25826 21.1193 6.49426C20.8833 6.73026 20.7225 7.03094 20.6574 7.35828C20.5923 7.68563 20.6257 8.02493 20.7535 8.33328C20.8812 8.64163 21.0975 8.90518 21.375 9.09061C21.6525 9.27603 21.9787 9.375 22.3125 9.375C22.7601 9.375 23.1893 9.19721 23.5057 8.88074C23.8222 8.56428 24 8.13505 24 7.6875Z"/>
</symbol><symbol viewBox="0 0 30 30" id="telegram" xmlns="http://www.w3.org/2000/svg">
<path d="M15 0C6.72 0 0 6.72 0 15C0 23.28 6.72 30 15 30C23.28 30 30 23.28 30 15C30 6.72 23.28 0 15 0ZM21.96 10.2C21.735 12.57 20.76 18.33 20.265 20.985C20.055 22.11 19.635 22.485 19.245 22.53C18.375 22.605 17.715 21.96 16.875 21.405C15.555 20.535 14.805 19.995 13.53 19.155C12.045 18.18 13.005 17.64 13.86 16.77C14.085 16.545 17.925 13.05 18 12.735C18.0104 12.6873 18.009 12.6378 17.996 12.5907C17.9829 12.5437 17.9585 12.5005 17.925 12.465C17.835 12.39 17.715 12.42 17.61 12.435C17.475 12.465 15.375 13.86 11.28 16.62C10.68 17.025 10.14 17.235 9.66 17.22C9.12 17.205 8.1 16.92 7.335 16.665C6.39 16.365 5.655 16.2 5.715 15.675C5.745 15.405 6.12 15.135 6.825 14.85C11.205 12.945 14.115 11.685 15.57 11.085C19.74 9.345 20.595 9.045 21.165 9.045C21.285 9.045 21.57 9.075 21.75 9.225C21.9 9.345 21.945 9.51 21.96 9.63C21.945 9.72 21.975 9.99 21.96 10.2Z"/>
</symbol><symbol viewBox="0 0 30 27" id="telegram-tap" xmlns="http://www.w3.org/2000/svg">
<path d="M29.9145 3.21079L25.3873 24.5609C25.0458 26.0677 24.1551 26.4428 22.8893 25.7329L15.9914 20.6498L12.663 23.851C12.2946 24.2194 11.9866 24.5274 11.2767 24.5274L11.7723 17.5022L24.5569 5.94987C25.1128 5.45429 24.4363 5.17971 23.693 5.67529L7.888 15.6271L1.08382 13.4974C-0.396218 13.0353 -0.423006 12.0174 1.39189 11.3075L28.0059 1.05434C29.2381 0.59225 30.3163 1.32892 29.9145 3.21079Z"/>
</symbol><symbol viewBox="0 0 30 30" id="tiktok" xmlns="http://www.w3.org/2000/svg">
<path fill-rule="evenodd" clip-rule="evenodd" d="M15 30C23.2843 30 30 23.2843 30 15C30 6.71573 23.2843 0 15 0C6.71573 0 0 6.71573 0 15C0 23.2843 6.71573 30 15 30ZM17.083 5.00467C16.4324 5.00567 15.7805 5.00667 15.1256 5.01667C15.11 7.1103 15.1107 9.20393 15.1113 11.2996C15.1117 12.5571 15.1121 13.8154 15.109 15.0749C15.1068 15.4675 15.1075 15.8595 15.1082 16.2513C15.1101 17.3479 15.112 18.4424 15.0506 19.5415C15.0428 19.8475 14.8872 20.1165 14.7369 20.3765C14.7275 20.3926 14.7182 20.4087 14.709 20.4248C14.2256 21.2165 13.334 21.7581 12.4007 21.7665C11.0007 21.8915 9.68404 20.7415 9.48404 19.3748C9.48275 19.3049 9.48045 19.2346 9.47814 19.1642C9.4656 18.7809 9.45289 18.3922 9.60071 18.0332C9.80904 17.4415 10.209 16.9165 10.734 16.5749C11.459 16.0749 12.4257 15.9999 13.2507 16.2665C13.2507 15.738 13.2598 15.2094 13.269 14.6808C13.2813 13.9761 13.2935 13.2713 13.284 12.5666C11.4757 12.2249 9.54237 12.7999 8.15906 13.9999C6.94241 15.0332 6.15908 16.5499 6.00908 18.1332C5.99242 18.5415 6.00075 18.9582 6.01742 19.3748C6.19242 21.3248 7.37573 23.1414 9.05905 24.1331C10.0757 24.7331 11.2674 25.0581 12.459 24.9914C14.4006 24.9581 16.2923 23.9164 17.3839 22.3165C18.0589 21.3581 18.4423 20.1998 18.5089 19.0332C18.5246 17.5176 18.5239 15.9988 18.5233 14.4788C18.5229 13.5667 18.5225 12.6541 18.5256 11.7416C18.9589 12.0249 19.4006 12.2999 19.8756 12.5166C20.9672 13.0332 22.1755 13.2832 23.3755 13.3249V9.9666C22.0922 9.82494 20.7756 9.39995 19.8422 8.47496C18.9089 7.57497 18.4506 6.27498 18.3839 5C17.9505 5.00333 17.517 5.004 17.083 5.00467Z"/>
</symbol><symbol viewBox="0 0 30 33" id="tournament" xmlns="http://www.w3.org/2000/svg">
<path d="M30 10.1807V10.2902C30 11.5802 30 12.2267 29.6895 12.7547C29.379 13.2827 28.8135 13.5962 27.6855 14.2247L26.496 14.8847C27.315 12.1127 27.5895 9.13368 27.69 6.58668L27.705 6.25519L27.708 6.17719C28.6845 6.51619 29.2335 6.76968 29.5755 7.24369C30 7.83318 30 8.61618 30 10.1807ZM0 10.1807V10.2902C0 11.5802 2.23517e-08 12.2267 0.3105 12.7547C0.621 13.2827 1.1865 13.5962 2.3145 14.2247L3.5055 14.8847C2.685 12.1127 2.4105 9.13368 2.31 6.58668L2.295 6.25519L2.2935 6.17719C1.3155 6.51619 0.7665 6.76968 0.4245 7.24369C0 7.83318 0 8.61768 0 10.1807Z"/>
<path fill-rule="evenodd" clip-rule="evenodd" d="M21.5661 1.45817C19.3958 1.10248 17.1997 0.928375 15.0006 0.93767C12.3261 0.93767 10.1211 1.17317 8.43506 1.45817C6.72656 1.74617 5.87306 1.89017 5.15906 2.76917C4.44656 3.64817 4.48406 4.59767 4.55906 6.49667C4.81856 13.0187 6.22556 21.1667 13.8756 21.8867V27.1877H11.7306C11.3839 27.1879 11.0481 27.3081 10.7801 27.528C10.5121 27.7479 10.3285 28.0538 10.2606 28.3937L9.97556 29.8127H6.00056C5.70219 29.8127 5.41604 29.9312 5.20506 30.1422C4.99408 30.3532 4.87556 30.6393 4.87556 30.9377C4.87556 31.236 4.99408 31.5222 5.20506 31.7332C5.41604 31.9441 5.70219 32.0627 6.00056 32.0627H24.0006C24.2989 32.0627 24.5851 31.9441 24.7961 31.7332C25.007 31.5222 25.1256 31.236 25.1256 30.9377C25.1256 30.6393 25.007 30.3532 24.7961 30.1422C24.5851 29.9312 24.2989 29.8127 24.0006 29.8127H20.0256L19.7406 28.3937C19.6726 28.0538 19.489 27.7479 19.2211 27.528C18.9531 27.3081 18.6172 27.1879 18.2706 27.1877H16.1256V21.8867C23.7756 21.1667 25.1841 13.0202 25.4421 6.49667C25.5171 4.59767 25.5561 3.64667 24.8421 2.76917C24.1281 1.89017 23.2746 1.74617 21.5661 1.45817Z"/>
</symbol><symbol viewBox="0 0 30 31" id="web" xmlns="http://www.w3.org/2000/svg">
<path fill-rule="evenodd" clip-rule="evenodd" d="M10.8025 1.03366C7.891 1.88055 5.3026 3.58584 3.37542 5.92678C1.44824 8.26773 0.271877 11.1355 0 14.1554H6.88468C7.2838 9.56002 8.61619 5.09434 10.8003 1.03151L10.8025 1.03366ZM6.88468 16.8448H0C0.271308 19.8648 1.44717 22.7329 3.37397 25.0742C5.30077 27.4155 7.88893 29.1213 10.8003 29.9687C8.61619 25.9059 7.2838 21.4402 6.88468 16.8448ZM14.2513 30.5431C11.6411 26.4069 10.0417 21.7141 9.58262 16.8448H20.4152C19.9561 21.7141 18.3567 26.4069 15.7466 30.5431C15.2484 30.5673 14.7494 30.5673 14.2513 30.5431ZM19.1997 29.9665C22.1108 29.1193 24.6987 27.4138 26.6255 25.0729C28.5522 22.732 29.7283 19.8644 30 16.8448H23.1153C22.7162 21.4402 21.3838 25.9059 19.1997 29.9687V29.9665ZM23.1153 14.1554H30C29.7287 11.1354 28.5528 8.26734 26.626 5.92601C24.6992 3.58467 22.1111 1.8789 19.1997 1.03151C21.3839 5.09431 22.7163 9.56001 23.1153 14.1554ZM14.2513 0.45707C14.7501 0.432645 15.2499 0.432645 15.7487 0.45707C18.3581 4.59349 19.9568 9.28627 20.4152 14.1554H9.58477C10.0516 9.25655 11.6545 4.55991 14.2513 0.45707Z"/>
</symbol><symbol viewBox="0 0 31 30" id="youtube" xmlns="http://www.w3.org/2000/svg">
<path d="M17.9848 14.7495L14.5035 13.1775C14.1997 13.041 13.9501 13.194 13.9501 13.5195V16.4805C13.9501 16.806 14.1997 16.959 14.5035 16.8225L17.9832 15.2505C18.2886 15.1125 18.2886 14.8875 17.9848 14.7495ZM15.5001 0.599976C7.28202 0.599976 0.620117 7.04698 0.620117 15C0.620117 22.953 7.28202 29.4 15.5001 29.4C23.7182 29.4 30.3801 22.953 30.3801 15C30.3801 7.04698 23.7182 0.599976 15.5001 0.599976ZM15.5001 20.85C7.88342 20.85 7.75012 20.1855 7.75012 15C7.75012 9.81447 7.88342 9.14997 15.5001 9.14997C23.1168 9.14997 23.2501 9.81447 23.2501 15C23.2501 20.1855 23.1168 20.85 15.5001 20.85Z"/>
</symbol></svg>