<svg width="2067" height="2635" viewBox="0 0 2067 2635" fill="none" xmlns="http://www.w3.org/2000/svg">
<path fill-rule="evenodd" clip-rule="evenodd" d="M895.868 14.101C624.754 58.1901 366.608 190.255 229.361 355.058C129.844 474.567 60.3882 628.863 19.5874 821.093C-6.58236 944.4 -6.51836 1206.97 19.7153 1330.62C57.0184 1506.43 64.4193 1500.45 60.3776 1297.74C54.8962 1023 82.7615 876.565 136.605 897.228C157.272 905.165 197.486 967.794 222.109 1030.41C253.025 1109.03 246.232 1156.45 190.65 1249.88C142.225 1331.28 141.116 1335.2 133 1453.49C124.416 1578.59 112.216 1616.91 61.7212 1677.41C40.617 1702.71 37.0019 1715.76 42.5579 1746.75C56.8478 1826.41 107.385 1943.06 147.418 1988.72C200.429 2049.22 332.952 2142.3 366.053 2142.3C380.311 2142.3 429.174 2125.49 474.635 2104.96C521.643 2083.73 574.473 2067.62 597.102 2067.62C635.205 2067.62 636.591 2068.87 629.521 2096.96C616.969 2146.79 602.989 2303.22 602.797 2396.16C602.583 2496.32 611.68 2511.18 700.203 2555.26C859.439 2634.55 1060.84 2656.6 1226.45 2612.88C1331.86 2585.04 1462.06 2522.38 1478.57 2491.52C1493.22 2464.13 1483.56 2139.43 1466.77 2095.26C1456.56 2068.43 1457.48 2067.62 1498.13 2067.62C1522.94 2067.62 1575.61 2083.27 1627.28 2106C1690.77 2133.93 1723.2 2142.66 1746.31 2138.03C1781.2 2131.05 1864.8 2074.68 1928.54 2015.16C1966.87 1979.35 2020.93 1891.12 2020.93 1864.33C2020.93 1855.7 1974.07 1854.23 1852.97 1859.05C1643.58 1867.39 1615.09 1867.39 1362.42 1859.05C1237.03 1854.91 1157.14 1856.16 1157.14 1862.27C1157.14 1867.77 1167.3 1900.62 1179.72 1935.27C1194.01 1975.17 1202.82 2026.98 1203.72 2076.5C1205.04 2149.77 1203.24 2156.33 1175.2 2180.51C1142.06 2209.07 1102.18 2214.02 1083.77 2191.85C1077.18 2183.9 1065.14 2158.69 1057.03 2135.84L1042.28 2094.29L1034.46 2126.29C1016.32 2200.49 985.862 2220.13 929.086 2194.25C871.596 2168.05 866.915 2078.89 915.244 1930.6L940.177 1854.1L896.689 1843.19C872.78 1837.18 831.03 1822.29 803.911 1810.07L754.6 1787.89L685.603 1820.83C588.037 1867.4 483.934 1883.81 405.425 1864.96C333.805 1847.77 319.345 1830.33 303.039 1741.43C296.662 1706.68 282.287 1656.65 271.09 1630.25C224.413 1520.23 227.228 1430.75 279.397 1365.94C318.801 1316.99 367.696 1298.17 434.645 1306.17L485.3 1312.23V1276.13C485.3 1225.01 512.493 1126.98 543.824 1065.13C582.919 987.956 686.723 882.155 763.494 841.212C883.476 777.25 885.033 777.111 1499.27 776.972C1807.69 776.898 2062.8 774.071 2066.19 770.689C2074.1 762.774 2022.5 610.579 1981.47 520.822C1942.38 435.3 1860.54 332.166 1772.77 257.813C1640.15 145.472 1402.74 44.2689 1199.79 13.5676C1079.27 -4.67396 1010.52 -4.54593 895.868 14.101Z" fill="url(#paint0_linear_885_3)"/>
<path d="M761.767 1284.18L802.973 1110.12H825.992L831.249 1139.1L787.343 1317H762.62L761.767 1284.18ZM740.596 1110.12L774.697 1284.18L771.855 1317H744.29L698.395 1110.12H740.596ZM867.482 1283.47L901.157 1110.12H943.358L897.605 1317H870.04L867.482 1283.47ZM838.922 1110.12L880.412 1284.89L879.275 1317H854.552L810.362 1138.96L816.045 1110.12H838.922ZM1044.38 1145.5L988.116 1317H942.79L1019.66 1110.12H1048.5L1044.38 1145.5ZM1091.13 1317L1034.72 1145.5L1030.17 1110.12H1059.3L1136.6 1317H1091.13ZM1088.57 1239.99V1273.38H979.307V1239.99H1088.57ZM1155.78 1110.12H1232.94C1248.76 1110.12 1262.35 1112.49 1273.72 1117.22C1285.18 1121.96 1293.99 1128.97 1300.15 1138.25C1306.3 1147.53 1309.38 1158.95 1309.38 1172.49C1309.38 1183.58 1307.49 1193.1 1303.7 1201.05C1300 1208.92 1294.75 1215.5 1287.93 1220.81C1281.2 1226.02 1273.29 1230.18 1264.2 1233.31L1250.7 1240.41H1183.63L1183.35 1207.16H1233.22C1240.7 1207.16 1246.91 1205.84 1251.83 1203.19C1256.76 1200.53 1260.46 1196.84 1262.92 1192.1C1265.48 1187.37 1266.75 1181.87 1266.75 1175.62C1266.75 1168.99 1265.52 1163.26 1263.06 1158.43C1260.6 1153.6 1256.86 1149.9 1251.83 1147.34C1246.81 1144.79 1240.52 1143.51 1232.94 1143.51H1198.41V1317H1155.78V1110.12ZM1271.44 1317L1224.27 1224.78L1269.31 1224.5L1317.05 1315.01V1317H1271.44ZM1491.82 1283.75V1317H1345.19V1283.75H1491.82ZM1489.69 1133.85L1364.09 1317H1334.1V1292.56L1460.71 1110.12H1489.69V1133.85ZM1475.06 1110.12V1143.51H1334.25V1110.12H1475.06ZM1685.21 1208.73V1218.53C1685.21 1234.26 1683.08 1248.37 1678.81 1260.87C1674.55 1273.38 1668.54 1284.04 1660.77 1292.84C1653 1301.56 1643.72 1308.24 1632.92 1312.88C1622.22 1317.52 1610.33 1319.84 1597.26 1319.84C1584.28 1319.84 1572.39 1317.52 1561.59 1312.88C1550.89 1308.24 1541.6 1301.56 1533.74 1292.84C1525.88 1284.04 1519.77 1273.38 1515.41 1260.87C1511.15 1248.37 1509.02 1234.26 1509.02 1218.53V1208.73C1509.02 1192.91 1511.15 1178.79 1515.41 1166.38C1519.67 1153.88 1525.69 1143.22 1533.46 1134.41C1541.32 1125.6 1550.6 1118.88 1561.31 1114.24C1572.11 1109.6 1583.99 1107.28 1596.97 1107.28C1610.04 1107.28 1621.93 1109.6 1632.64 1114.24C1643.43 1118.88 1652.72 1125.6 1660.49 1134.41C1668.35 1143.22 1674.41 1153.88 1678.67 1166.38C1683.03 1178.79 1685.21 1192.91 1685.21 1208.73ZM1642.16 1218.53V1208.44C1642.16 1197.46 1641.16 1187.79 1639.17 1179.46C1637.18 1171.12 1634.25 1164.11 1630.36 1158.43C1626.48 1152.74 1621.74 1148.48 1616.15 1145.64C1610.56 1142.7 1604.17 1141.23 1596.97 1141.23C1589.77 1141.23 1583.38 1142.7 1577.79 1145.64C1572.29 1148.48 1567.61 1152.74 1563.72 1158.43C1559.93 1164.11 1557.04 1171.12 1555.05 1179.46C1553.07 1187.79 1552.07 1197.46 1552.07 1208.44V1218.53C1552.07 1229.43 1553.07 1239.09 1555.05 1247.52C1557.04 1255.85 1559.98 1262.91 1563.86 1268.69C1567.75 1274.37 1572.48 1278.68 1578.07 1281.62C1583.66 1284.56 1590.06 1286.02 1597.26 1286.02C1604.45 1286.02 1610.85 1284.56 1616.44 1281.62C1622.03 1278.68 1626.72 1274.37 1630.5 1268.69C1634.29 1262.91 1637.18 1255.85 1639.17 1247.52C1641.16 1239.09 1642.16 1229.43 1642.16 1218.53ZM1884.28 1110.12V1317H1841.65L1758.53 1178.32V1317H1715.9V1110.12H1758.53L1841.79 1248.94V1110.12H1884.28ZM2060.18 1283.75V1317H1950.06V1283.75H2060.18ZM1963.99 1110.12V1317H1921.36V1110.12H1963.99ZM2045.83 1194.38V1226.77H1950.06V1194.38H2045.83ZM2060.04 1110.12V1143.51H1950.06V1110.12H2060.04ZM1320.61 1451.12H1363.09V1587.81C1363.09 1603.72 1359.68 1617.13 1352.86 1628.02C1346.14 1638.91 1336.8 1647.11 1324.87 1652.6C1313.03 1658.09 1299.39 1660.84 1283.95 1660.84C1268.51 1660.84 1254.77 1658.09 1242.74 1652.6C1230.81 1647.11 1221.43 1638.91 1214.61 1628.02C1207.88 1617.13 1204.52 1603.72 1204.52 1587.81V1451.12H1247.15V1587.81C1247.15 1597.09 1248.61 1604.67 1251.55 1610.54C1254.49 1616.42 1258.7 1620.73 1264.2 1623.47C1269.79 1626.22 1276.37 1627.59 1283.95 1627.59C1291.71 1627.59 1298.3 1626.22 1303.7 1623.47C1309.19 1620.73 1313.36 1616.42 1316.2 1610.54C1319.14 1604.67 1320.61 1597.09 1320.61 1587.81V1451.12ZM1479.18 1486.5L1422.91 1658H1377.58L1454.46 1451.12H1483.3L1479.18 1486.5ZM1525.93 1658L1469.52 1486.5L1464.97 1451.12H1494.1L1571.4 1658H1525.93ZM1523.37 1580.99V1614.38H1414.1V1580.99H1523.37Z" fill="url(#paint1_linear_885_3)"/>
<defs>
<linearGradient id="paint0_linear_885_3" x1="7.48501e-06" y1="1272.07" x2="2067" y2="1272.07" gradientUnits="userSpaceOnUse">
<stop stop-color="#BDDB06"/>
<stop offset="1" stop-color="#08DB06"/>
</linearGradient>
<linearGradient id="paint1_linear_885_3" x1="693" y1="1376.24" x2="2067" y2="1376.24" gradientUnits="userSpaceOnUse">
<stop stop-color="#CDEC10"/>
<stop offset="1" stop-color="#08DB06"/>
</linearGradient>
</defs>
</svg>
