<svg width="2067" height="2635" viewBox="0 0 2067 2635" fill="none" xmlns="http://www.w3.org/2000/svg">
<path d="M896.51 18.0491L895.868 14.101L896.51 18.0491C1010.73 -0.527817 1079.06 -0.659787 1199.2 17.5226L1199.79 13.5676L1199.2 17.5226C1401.55 48.1333 1638.22 149.085 1770.18 260.865C1857.61 334.921 1939.03 437.604 1977.84 522.485C1998.28 567.206 2021.38 627.56 2038.39 677.731C2046.9 702.817 2053.86 725.286 2058.19 741.937C2060.36 750.279 2061.84 757.057 2062.54 761.932C2062.88 764.265 2063.02 766.029 2063 767.259C2062.77 767.284 2062.53 767.309 2062.27 767.335C2060.23 767.532 2057.24 767.732 2053.3 767.932C2045.45 768.33 2034.04 768.718 2019.45 769.088C1990.26 769.829 1948.44 770.502 1897.07 771.071C1794.34 772.21 1653.47 772.935 1499.27 772.972C1192.27 773.042 1038.08 773.107 945.689 781.173C899.414 785.214 868.436 791.275 841.417 800.421C814.44 809.553 791.561 821.717 761.612 837.683L761.612 837.683C722.732 858.417 677.264 895.411 636.675 936.782C596.088 978.153 560.059 1024.23 540.256 1063.32C524.44 1094.54 509.723 1134.77 498.958 1173.58C488.209 1212.34 481.3 1250.03 481.3 1276.13V1307.72L435.12 1302.2C401.162 1298.14 371.518 1300.85 345.254 1310.96C318.972 1321.08 296.348 1338.5 276.281 1363.43C222.809 1429.86 220.437 1521.1 267.407 1631.81C278.467 1657.89 292.769 1707.63 299.105 1742.15C307.239 1786.5 315.048 1814.11 330.41 1832.64C345.922 1851.36 368.622 1860.24 404.492 1868.85C484.154 1887.98 589.214 1871.27 687.327 1824.44L754.65 1792.29L802.268 1813.72C802.269 1813.72 802.269 1813.72 802.27 1813.72C829.563 1826.02 871.536 1840.99 895.714 1847.07L895.715 1847.07L935.045 1856.94L911.441 1929.36C887.221 2003.67 876.135 2063.59 878.488 2108.42C880.846 2153.32 896.796 2183.93 927.427 2197.89C956.253 2211.03 979.722 2213.22 998.429 2201.16C1016.8 2189.32 1029.24 2164.48 1038.34 2127.24L1034.46 2126.29L1038.34 2127.24L1042.99 2108.24L1053.26 2137.18C1057.37 2148.74 1062.46 2160.88 1067.36 2171.16C1072.2 2181.3 1077.04 2190 1080.69 2194.4L1083.77 2191.85L1080.69 2194.4C1091 2206.83 1107.1 2211.33 1124.45 2209.18C1141.79 2207.02 1160.76 2198.23 1177.81 2183.54C1191.9 2171.39 1200.2 2163.03 1204.33 2147.97C1208.31 2133.47 1208.38 2112.83 1207.72 2076.43C1206.82 2026.54 1197.95 1974.29 1183.49 1933.92L1183.49 1933.92C1177.29 1916.64 1171.67 1899.82 1167.59 1886.66C1165.56 1880.07 1163.92 1874.43 1162.79 1870.11C1162.23 1867.95 1161.8 1866.16 1161.52 1864.77C1161.48 1864.56 1161.44 1864.37 1161.41 1864.19C1161.53 1864.16 1161.65 1864.12 1161.79 1864.09C1163.92 1863.55 1167.29 1863.04 1171.97 1862.59C1181.25 1861.69 1195.03 1861.09 1212.82 1860.82C1248.38 1860.26 1299.62 1860.98 1362.29 1863.05C1615.03 1871.39 1643.63 1871.39 1853.13 1863.05C1913.68 1860.64 1955.54 1859.8 1982.24 1860.64C1995.62 1861.06 2004.98 1861.9 2010.92 1863.11C2013.93 1863.72 2015.74 1864.36 2016.71 1864.91C2016.79 1864.95 2016.86 1864.99 2016.92 1865.03C2016.69 1870.86 2013.68 1880.41 2008.24 1892.52C2002.66 1904.92 1994.79 1919.43 1985.7 1934.27C1967.48 1964.02 1944.6 1994.68 1925.81 2012.24C1894.1 2041.85 1857.43 2070.69 1824.37 2092.98C1807.84 2104.13 1792.26 2113.61 1778.68 2120.71C1765.04 2127.86 1753.68 2132.48 1745.52 2134.11C1734.81 2136.25 1721.61 2135.38 1702.98 2130.36C1684.34 2125.35 1660.58 2116.28 1628.89 2102.34C1602.91 2090.92 1576.67 2081.26 1553.77 2074.45C1530.98 2067.68 1511.15 2063.62 1498.13 2063.62C1488.02 2063.62 1480.15 2063.67 1474.3 2064.18C1468.69 2064.68 1463.84 2065.65 1460.74 2068.38C1457.11 2071.57 1456.92 2076.04 1457.72 2080.35C1458.51 2084.63 1460.52 2090.08 1463.03 2096.68C1464.95 2101.73 1466.89 2111.23 1468.74 2124.4C1470.56 2137.45 1472.25 2153.78 1473.77 2172.28C1476.8 2209.28 1479.12 2254.79 1480.46 2299.8C1481.8 2344.81 1482.16 2389.27 1481.27 2424.16C1480.82 2441.61 1480.06 2456.61 1478.97 2468.06C1478.42 2473.79 1477.8 2478.57 1477.1 2482.3C1476.38 2486.15 1475.64 2488.5 1475.04 2489.63C1473.31 2492.87 1469.88 2496.85 1464.67 2501.46C1459.51 2506.01 1452.82 2510.99 1444.83 2516.25C1428.85 2526.77 1407.91 2538.28 1384.11 2549.73C1336.52 2572.64 1277.86 2595.17 1225.43 2609.01C1060.8 2652.48 860.39 2630.56 701.986 2551.68C657.544 2529.55 634.252 2515.26 621.635 2494.65C609.01 2474.03 606.69 2446.46 606.797 2396.17C606.892 2349.85 610.426 2287.63 615.508 2230.75C620.598 2173.77 627.211 2122.5 633.4 2097.94L629.521 2096.96L633.4 2097.93C635.147 2091 636.49 2085.28 636.788 2080.79C637.089 2076.23 636.385 2071.91 632.935 2068.79C629.793 2065.95 625.104 2064.84 619.648 2064.28C614.027 2063.7 606.581 2063.62 597.102 2063.62C585.144 2063.62 565.786 2067.81 543.844 2074.5C521.765 2081.24 496.645 2090.63 472.989 2101.31L474.635 2104.96L472.989 2101.31C450.364 2111.53 426.898 2120.82 407.343 2127.55C397.562 2130.91 388.801 2133.62 381.635 2135.48C374.356 2137.37 369.062 2138.3 366.053 2138.3C362.679 2138.3 357.554 2137.07 350.771 2134.45C344.088 2131.87 336.15 2128.08 327.283 2123.29C309.555 2113.71 288.367 2100.28 266.501 2084.92C222.718 2054.17 176.628 2015.99 150.426 1986.09L147.418 1988.72L150.426 1986.09C130.825 1963.73 108.379 1923.61 89.0045 1878.89C69.659 1834.25 53.569 1785.48 46.4951 1746.05C43.7511 1730.74 43.3907 1720.44 45.9973 1711.01C48.6113 1701.56 54.3381 1692.5 64.7923 1679.98C90.2357 1649.49 106.243 1624.33 116.888 1590.89C127.482 1557.61 132.697 1516.33 136.991 1453.76C141.06 1394.45 143.352 1364.39 150.558 1338.94C157.733 1313.6 169.811 1292.73 194.088 1251.92C221.952 1205.09 237.879 1169.32 242.776 1135.16C247.691 1100.87 241.433 1068.62 225.832 1028.95C213.426 997.4 197.098 965.854 181.239 941.154C173.312 928.807 165.455 918.096 158.214 909.927C151.099 901.9 144.169 895.848 138.039 893.494L138.038 893.493C130.44 890.578 123.022 890.542 116.053 893.567C109.203 896.541 103.184 902.297 97.8822 910.233C87.322 926.04 78.845 951.648 72.3149 985.96C59.224 1054.75 53.6362 1160.37 56.3784 1297.82C57.3887 1348.5 57.682 1386.79 56.9764 1413.01C56.6232 1426.13 56.022 1436.12 55.1544 1443.09C54.7983 1445.94 54.4073 1448.21 53.9957 1449.92C53.8886 1449.71 53.7777 1449.48 53.6632 1449.23C51.6289 1444.88 49.1582 1437.56 46.2264 1427.08C40.3882 1406.22 32.9545 1373.75 23.6282 1329.79C10.5978 1268.37 4.02404 1172.15 4.00007 1075.73C3.97609 979.31 10.5021 883.168 23.5002 821.924C64.2008 630.166 133.429 476.513 232.435 357.618C368.908 193.744 626.074 62.0281 896.51 18.0491ZM1160.02 1864.67C1160.02 1864.67 1160.02 1864.67 1160.02 1864.67C1159.92 1864.74 1159.9 1864.74 1160.02 1864.67ZM2017.23 1865.26C2017.23 1865.26 2017.22 1865.26 2017.2 1865.23C2017.22 1865.25 2017.23 1865.26 2017.23 1865.26Z" fill="url(#paint0_linear_885_3)" stroke="white" stroke-width="8"/>
<path d="M761.767 1284.18L802.973 1110.12H825.992L831.249 1139.1L787.343 1317H762.62L761.767 1284.18ZM740.596 1110.12L774.697 1284.18L771.855 1317H744.29L698.395 1110.12H740.596ZM867.482 1283.47L901.157 1110.12H943.358L897.605 1317H870.04L867.482 1283.47ZM838.922 1110.12L880.412 1284.89L879.275 1317H854.552L810.362 1138.96L816.045 1110.12H838.922ZM1044.38 1145.5L988.116 1317H942.79L1019.66 1110.12H1048.5L1044.38 1145.5ZM1091.13 1317L1034.72 1145.5L1030.17 1110.12H1059.3L1136.6 1317H1091.13ZM1088.57 1239.99V1273.38H979.307V1239.99H1088.57ZM1155.78 1110.12H1232.94C1248.76 1110.12 1262.35 1112.49 1273.72 1117.22C1285.18 1121.96 1293.99 1128.97 1300.15 1138.25C1306.3 1147.53 1309.38 1158.95 1309.38 1172.49C1309.38 1183.58 1307.49 1193.1 1303.7 1201.05C1300 1208.92 1294.75 1215.5 1287.93 1220.81C1281.2 1226.02 1273.29 1230.18 1264.2 1233.31L1250.7 1240.41H1183.63L1183.35 1207.16H1233.22C1240.7 1207.16 1246.91 1205.84 1251.83 1203.19C1256.76 1200.53 1260.46 1196.84 1262.92 1192.1C1265.48 1187.37 1266.75 1181.87 1266.75 1175.62C1266.75 1168.99 1265.52 1163.26 1263.06 1158.43C1260.6 1153.6 1256.86 1149.9 1251.83 1147.34C1246.81 1144.79 1240.52 1143.51 1232.94 1143.51H1198.41V1317H1155.78V1110.12ZM1271.44 1317L1224.27 1224.78L1269.31 1224.5L1317.05 1315.01V1317H1271.44ZM1491.82 1283.75V1317H1345.19V1283.75H1491.82ZM1489.69 1133.85L1364.09 1317H1334.1V1292.56L1460.71 1110.12H1489.69V1133.85ZM1475.06 1110.12V1143.51H1334.25V1110.12H1475.06ZM1685.21 1208.73V1218.53C1685.21 1234.26 1683.08 1248.37 1678.81 1260.87C1674.55 1273.38 1668.54 1284.04 1660.77 1292.84C1653 1301.56 1643.72 1308.24 1632.92 1312.88C1622.22 1317.52 1610.33 1319.84 1597.26 1319.84C1584.28 1319.84 1572.39 1317.52 1561.59 1312.88C1550.89 1308.24 1541.6 1301.56 1533.74 1292.84C1525.88 1284.04 1519.77 1273.38 1515.41 1260.87C1511.15 1248.37 1509.02 1234.26 1509.02 1218.53V1208.73C1509.02 1192.91 1511.15 1178.79 1515.41 1166.38C1519.67 1153.88 1525.69 1143.22 1533.46 1134.41C1541.32 1125.6 1550.6 1118.88 1561.31 1114.24C1572.11 1109.6 1583.99 1107.28 1596.97 1107.28C1610.04 1107.28 1621.93 1109.6 1632.64 1114.24C1643.43 1118.88 1652.72 1125.6 1660.49 1134.41C1668.35 1143.22 1674.41 1153.88 1678.67 1166.38C1683.03 1178.79 1685.21 1192.91 1685.21 1208.73ZM1642.16 1218.53V1208.44C1642.16 1197.46 1641.16 1187.79 1639.17 1179.46C1637.18 1171.12 1634.25 1164.11 1630.36 1158.43C1626.48 1152.74 1621.74 1148.48 1616.15 1145.64C1610.56 1142.7 1604.17 1141.23 1596.97 1141.23C1589.77 1141.23 1583.38 1142.7 1577.79 1145.64C1572.29 1148.48 1567.61 1152.74 1563.72 1158.43C1559.93 1164.11 1557.04 1171.12 1555.05 1179.46C1553.07 1187.79 1552.07 1197.46 1552.07 1208.44V1218.53C1552.07 1229.43 1553.07 1239.09 1555.05 1247.52C1557.04 1255.85 1559.98 1262.91 1563.86 1268.69C1567.75 1274.37 1572.48 1278.68 1578.07 1281.62C1583.66 1284.56 1590.06 1286.02 1597.26 1286.02C1604.45 1286.02 1610.85 1284.56 1616.44 1281.62C1622.03 1278.68 1626.72 1274.37 1630.5 1268.69C1634.29 1262.91 1637.18 1255.85 1639.17 1247.52C1641.16 1239.09 1642.16 1229.43 1642.16 1218.53ZM1884.28 1110.12V1317H1841.65L1758.53 1178.32V1317H1715.9V1110.12H1758.53L1841.79 1248.94V1110.12H1884.28ZM2060.18 1283.75V1317H1950.06V1283.75H2060.18ZM1963.99 1110.12V1317H1921.36V1110.12H1963.99ZM2045.83 1194.38V1226.77H1950.06V1194.38H2045.83ZM2060.04 1110.12V1143.51H1950.06V1110.12H2060.04ZM1320.61 1451.12H1363.09V1587.81C1363.09 1603.72 1359.68 1617.13 1352.86 1628.02C1346.14 1638.91 1336.8 1647.11 1324.87 1652.6C1313.03 1658.09 1299.39 1660.84 1283.95 1660.84C1268.51 1660.84 1254.77 1658.09 1242.74 1652.6C1230.81 1647.11 1221.43 1638.91 1214.61 1628.02C1207.88 1617.13 1204.52 1603.72 1204.52 1587.81V1451.12H1247.15V1587.81C1247.15 1597.09 1248.61 1604.67 1251.55 1610.54C1254.49 1616.42 1258.7 1620.73 1264.2 1623.47C1269.79 1626.22 1276.37 1627.59 1283.95 1627.59C1291.71 1627.59 1298.3 1626.22 1303.7 1623.47C1309.19 1620.73 1313.36 1616.42 1316.2 1610.54C1319.14 1604.67 1320.61 1597.09 1320.61 1587.81V1451.12ZM1479.18 1486.5L1422.91 1658H1377.58L1454.46 1451.12H1483.3L1479.18 1486.5ZM1525.93 1658L1469.52 1486.5L1464.97 1451.12H1494.1L1571.4 1658H1525.93ZM1523.37 1580.99V1614.38H1414.1V1580.99H1523.37Z" fill="url(#paint1_linear_885_3)"/>
<path d="M761.767 1284.18L753.982 1282.33L753.743 1283.35L753.77 1284.38L761.767 1284.18ZM802.973 1110.12V1102.12H796.646L795.188 1108.27L802.973 1110.12ZM825.992 1110.12L833.863 1108.69L832.671 1102.12H825.992V1110.12ZM831.249 1139.1L839.016 1141.02L839.426 1139.36L839.121 1137.68L831.249 1139.1ZM787.343 1317V1325H793.609L795.11 1318.92L787.343 1317ZM762.62 1317L754.622 1317.21L754.825 1325H762.62V1317ZM740.596 1110.12L748.446 1108.58L747.18 1102.12H740.596V1110.12ZM774.697 1284.18L782.667 1284.87L782.765 1283.74L782.548 1282.64L774.697 1284.18ZM771.855 1317V1325H779.193L779.826 1317.69L771.855 1317ZM744.29 1317L736.48 1318.73L737.87 1325H744.29V1317ZM698.395 1110.12V1102.12H688.426L690.585 1111.85L698.395 1110.12ZM867.482 1283.47L859.629 1281.94L859.423 1283L859.505 1284.08L867.482 1283.47ZM901.157 1110.12V1102.12H894.562L893.304 1108.59L901.157 1110.12ZM943.358 1110.12L951.169 1111.84L953.32 1102.12H943.358V1110.12ZM897.605 1317V1325H904.029L905.416 1318.73L897.605 1317ZM870.04 1317L862.063 1317.61L862.626 1325H870.04V1317ZM838.922 1110.12L846.706 1108.27L845.245 1102.12H838.922V1110.12ZM880.412 1284.89L888.407 1285.17L888.445 1284.09L888.196 1283.04L880.412 1284.89ZM879.275 1317V1325H886.997L887.27 1317.28L879.275 1317ZM854.552 1317L846.787 1318.93L848.295 1325H854.552V1317ZM810.362 1138.96L802.513 1137.41L802.169 1139.16L802.597 1140.89L810.362 1138.96ZM816.045 1110.12V1102.12H809.468L808.196 1108.57L816.045 1110.12ZM769.552 1286.02L810.758 1111.96L795.188 1108.27L753.982 1282.33L769.552 1286.02ZM802.973 1118.12H825.992V1102.12H802.973V1118.12ZM818.12 1111.54L823.377 1140.53L839.121 1137.68L833.863 1108.69L818.12 1111.54ZM823.482 1137.19L779.576 1315.08L795.11 1318.92L839.016 1141.02L823.482 1137.19ZM787.343 1309H762.62V1325H787.343V1309ZM770.617 1316.79L769.764 1283.97L753.77 1284.38L754.622 1317.21L770.617 1316.79ZM732.745 1111.66L766.847 1285.72L782.548 1282.64L748.446 1108.58L732.745 1111.66ZM766.727 1283.49L763.885 1316.31L779.826 1317.69L782.667 1284.87L766.727 1283.49ZM771.855 1309H744.29V1325H771.855V1309ZM752.1 1315.27L706.205 1108.38L690.585 1111.85L736.48 1318.73L752.1 1315.27ZM698.395 1118.12H740.596V1102.12H698.395V1118.12ZM875.335 1284.99L909.01 1111.64L893.304 1108.59L859.629 1281.94L875.335 1284.99ZM901.157 1118.12H943.358V1102.12H901.157V1118.12ZM935.547 1108.39L889.794 1315.27L905.416 1318.73L951.169 1111.84L935.547 1108.39ZM897.605 1309H870.04V1325H897.605V1309ZM878.016 1316.39L875.459 1282.86L859.505 1284.08L862.063 1317.61L878.016 1316.39ZM831.138 1111.97L872.628 1286.74L888.196 1283.04L846.706 1108.27L831.138 1111.97ZM872.417 1284.6L871.28 1316.72L887.27 1317.28L888.407 1285.17L872.417 1284.6ZM879.275 1309H854.552V1325H879.275V1309ZM862.316 1315.07L818.126 1137.03L802.597 1140.89L846.787 1318.93L862.316 1315.07ZM818.211 1140.51L823.894 1111.66L808.196 1108.57L802.513 1137.41L818.211 1140.51ZM816.045 1118.12H838.922V1102.12H816.045V1118.12ZM1044.38 1145.5L1051.99 1147.99L1052.24 1147.22L1052.33 1146.42L1044.38 1145.5ZM988.116 1317V1325H993.911L995.718 1319.49L988.116 1317ZM942.79 1317L935.29 1314.21L931.283 1325H942.79V1317ZM1019.66 1110.12V1102.12H1014.1L1012.16 1107.33L1019.66 1110.12ZM1048.5 1110.12L1056.45 1111.04L1057.49 1102.12H1048.5V1110.12ZM1091.13 1317L1083.53 1319.5L1085.34 1325H1091.13V1317ZM1034.72 1145.5L1026.79 1146.52L1026.88 1147.27L1027.12 1148L1034.72 1145.5ZM1030.17 1110.12V1102.12H1021.08L1022.24 1111.14L1030.17 1110.12ZM1059.3 1110.12L1066.8 1107.32L1064.85 1102.12H1059.3V1110.12ZM1136.6 1317V1325H1148.13L1144.09 1314.2L1136.6 1317ZM1088.57 1239.99H1096.57V1231.99H1088.57V1239.99ZM1088.57 1273.38V1281.38H1096.57V1273.38H1088.57ZM979.307 1273.38H971.307V1281.38H979.307V1273.38ZM979.307 1239.99V1231.99H971.307V1239.99H979.307ZM1036.78 1143L980.515 1314.51L995.718 1319.49L1051.99 1147.99L1036.78 1143ZM988.116 1309H942.79V1325H988.116V1309ZM950.289 1319.79L1027.16 1112.9L1012.16 1107.33L935.29 1314.21L950.289 1319.79ZM1019.66 1118.12H1048.5V1102.12H1019.66V1118.12ZM1040.56 1109.19L1036.44 1144.57L1052.33 1146.42L1056.45 1111.04L1040.56 1109.19ZM1098.73 1314.5L1042.32 1143L1027.12 1148L1083.53 1319.5L1098.73 1314.5ZM1042.66 1144.48L1038.11 1109.1L1022.24 1111.14L1026.79 1146.52L1042.66 1144.48ZM1030.17 1118.12H1059.3V1102.12H1030.17V1118.12ZM1051.81 1112.92L1129.11 1319.8L1144.09 1314.2L1066.8 1107.32L1051.81 1112.92ZM1136.6 1309H1091.13V1325H1136.6V1309ZM1080.57 1239.99V1273.38H1096.57V1239.99H1080.57ZM1088.57 1265.38H979.307V1281.38H1088.57V1265.38ZM987.307 1273.38V1239.99H971.307V1273.38H987.307ZM979.307 1247.99H1088.57V1231.99H979.307V1247.99ZM1155.78 1110.12V1102.12H1147.78V1110.12H1155.78ZM1273.72 1117.22L1270.64 1124.61L1270.65 1124.61L1270.66 1124.62L1273.72 1117.22ZM1303.7 1201.05L1296.47 1197.62L1296.47 1197.63L1296.46 1197.65L1303.7 1201.05ZM1287.93 1220.81L1292.82 1227.13L1292.83 1227.12L1292.84 1227.12L1287.93 1220.81ZM1264.2 1233.31L1261.6 1225.74L1261.01 1225.94L1260.47 1226.23L1264.2 1233.31ZM1250.7 1240.41V1248.41H1252.67L1254.42 1247.49L1250.7 1240.41ZM1183.63 1240.41L1175.63 1240.48L1175.7 1248.41H1183.63V1240.41ZM1183.35 1207.16V1199.16H1175.28L1175.35 1207.23L1183.35 1207.16ZM1262.92 1192.1L1255.88 1188.3L1255.85 1188.36L1255.82 1188.41L1262.92 1192.1ZM1198.41 1143.51V1135.51H1190.41V1143.51H1198.41ZM1198.41 1317V1325H1206.41V1317H1198.41ZM1155.78 1317H1147.78V1325H1155.78V1317ZM1271.44 1317L1264.32 1320.64L1266.55 1325H1271.44V1317ZM1224.27 1224.78L1224.22 1216.78L1211.23 1216.87L1217.15 1228.43L1224.27 1224.78ZM1269.31 1224.5L1276.39 1220.77L1274.12 1216.47L1269.26 1216.5L1269.31 1224.5ZM1317.05 1315.01H1325.05V1313.03L1324.13 1311.28L1317.05 1315.01ZM1317.05 1317V1325H1325.05V1317H1317.05ZM1155.78 1118.12H1232.94V1102.12H1155.78V1118.12ZM1232.94 1118.12C1247.99 1118.12 1260.48 1120.37 1270.64 1124.61L1276.79 1109.84C1264.22 1104.6 1249.52 1102.12 1232.94 1102.12V1118.12ZM1270.66 1124.62C1280.82 1128.81 1288.3 1134.87 1293.48 1142.67L1306.81 1133.83C1299.68 1123.07 1289.53 1115.1 1276.77 1109.83L1270.66 1124.62ZM1293.48 1142.67C1298.59 1150.39 1301.38 1160.18 1301.38 1172.49H1317.38C1317.38 1157.72 1314.01 1144.68 1306.81 1133.83L1293.48 1142.67ZM1301.38 1172.49C1301.38 1182.69 1299.64 1190.97 1296.47 1197.62L1310.92 1204.49C1315.34 1195.22 1317.38 1184.47 1317.38 1172.49H1301.38ZM1296.46 1197.65C1293.3 1204.38 1288.83 1209.96 1283.01 1214.49L1292.84 1227.12C1300.66 1221.04 1306.71 1213.45 1310.94 1204.46L1296.46 1197.65ZM1283.03 1214.48C1277.08 1219.09 1269.97 1222.87 1261.6 1225.74L1266.8 1240.87C1276.61 1237.5 1285.32 1232.94 1292.82 1227.13L1283.03 1214.48ZM1260.47 1226.23L1246.97 1233.33L1254.42 1247.49L1267.92 1240.39L1260.47 1226.23ZM1250.7 1232.41H1183.63V1248.41H1250.7V1232.41ZM1191.63 1240.35L1191.35 1207.1L1175.35 1207.23L1175.63 1240.48L1191.63 1240.35ZM1183.35 1215.16H1233.22V1199.16H1183.35V1215.16ZM1233.22 1215.16C1241.6 1215.16 1249.21 1213.69 1255.63 1210.23L1248.04 1196.14C1244.61 1197.99 1239.81 1199.16 1233.22 1199.16V1215.16ZM1255.63 1210.23C1261.89 1206.86 1266.78 1202.02 1270.02 1195.79L1255.82 1188.41C1254.13 1191.65 1251.63 1194.21 1248.04 1196.14L1255.63 1210.23ZM1269.96 1195.9C1273.24 1189.82 1274.75 1182.98 1274.75 1175.62H1258.75C1258.75 1180.76 1257.71 1184.91 1255.88 1188.3L1269.96 1195.9ZM1274.75 1175.62C1274.75 1168 1273.34 1160.97 1270.19 1154.79L1255.93 1162.06C1257.71 1165.54 1258.75 1169.98 1258.75 1175.62H1274.75ZM1270.19 1154.79C1266.93 1148.4 1261.93 1143.51 1255.47 1140.22L1248.2 1154.47C1251.78 1156.3 1254.27 1158.8 1255.93 1162.06L1270.19 1154.79ZM1255.47 1140.22C1249 1136.92 1241.36 1135.51 1232.94 1135.51V1151.51C1239.67 1151.51 1244.63 1152.65 1248.2 1154.47L1255.47 1140.22ZM1232.94 1135.51H1198.41V1151.51H1232.94V1135.51ZM1190.41 1143.51V1317H1206.41V1143.51H1190.41ZM1198.41 1309H1155.78V1325H1198.41V1309ZM1163.78 1317V1110.12H1147.78V1317H1163.78ZM1278.57 1313.36L1231.39 1221.14L1217.15 1228.43L1264.32 1320.64L1278.57 1313.36ZM1224.32 1232.78L1269.36 1232.5L1269.26 1216.5L1224.22 1216.78L1224.32 1232.78ZM1262.24 1228.23L1309.98 1318.74L1324.13 1311.28L1276.39 1220.77L1262.24 1228.23ZM1309.05 1315.01V1317H1325.05V1315.01H1309.05ZM1317.05 1309H1271.44V1325H1317.05V1309ZM1491.82 1283.75H1499.82V1275.75H1491.82V1283.75ZM1491.82 1317V1325H1499.82V1317H1491.82ZM1345.19 1317H1337.19V1325H1345.19V1317ZM1345.19 1283.75V1275.75H1337.19V1283.75H1345.19ZM1489.69 1133.85L1496.29 1138.37L1497.69 1136.33V1133.85H1489.69ZM1364.09 1317V1325H1368.3L1370.68 1321.52L1364.09 1317ZM1334.1 1317H1326.1V1325H1334.1V1317ZM1334.1 1292.56L1327.53 1288L1326.1 1290.06V1292.56H1334.1ZM1460.71 1110.12V1102.12H1456.52L1454.13 1105.56L1460.71 1110.12ZM1489.69 1110.12H1497.69V1102.12H1489.69V1110.12ZM1475.06 1110.12H1483.06V1102.12H1475.06V1110.12ZM1475.06 1143.51V1151.51H1483.06V1143.51H1475.06ZM1334.25 1143.51H1326.25V1151.51H1334.25V1143.51ZM1334.25 1110.12V1102.12H1326.25V1110.12H1334.25ZM1483.82 1283.75V1317H1499.82V1283.75H1483.82ZM1491.82 1309H1345.19V1325H1491.82V1309ZM1353.19 1317V1283.75H1337.19V1317H1353.19ZM1345.19 1291.75H1491.82V1275.75H1345.19V1291.75ZM1483.1 1129.32L1357.49 1312.48L1370.68 1321.52L1496.29 1138.37L1483.1 1129.32ZM1364.09 1309H1334.1V1325H1364.09V1309ZM1342.1 1317V1292.56H1326.1V1317H1342.1ZM1340.68 1297.12L1467.28 1114.68L1454.13 1105.56L1327.53 1288L1340.68 1297.12ZM1460.71 1118.12H1489.69V1102.12H1460.71V1118.12ZM1481.69 1110.12V1133.85H1497.69V1110.12H1481.69ZM1467.06 1110.12V1143.51H1483.06V1110.12H1467.06ZM1475.06 1135.51H1334.25V1151.51H1475.06V1135.51ZM1342.25 1143.51V1110.12H1326.25V1143.51H1342.25ZM1334.25 1118.12H1475.06V1102.12H1334.25V1118.12ZM1660.77 1292.84L1666.74 1298.17L1666.76 1298.15L1666.77 1298.14L1660.77 1292.84ZM1632.92 1312.88L1629.76 1305.53L1629.75 1305.53L1629.74 1305.54L1632.92 1312.88ZM1561.59 1312.88L1558.41 1320.22L1558.42 1320.22L1558.43 1320.23L1561.59 1312.88ZM1533.74 1292.84L1527.77 1298.17L1527.79 1298.19L1527.8 1298.2L1533.74 1292.84ZM1515.41 1260.87L1507.84 1263.46L1507.85 1263.48L1507.86 1263.51L1515.41 1260.87ZM1515.41 1166.38L1522.98 1168.98L1522.98 1168.97L1522.98 1168.97L1515.41 1166.38ZM1533.46 1134.41L1527.49 1129.09L1527.47 1129.11L1527.46 1129.12L1533.46 1134.41ZM1561.31 1114.24L1558.15 1106.89L1558.14 1106.89L1558.12 1106.9L1561.31 1114.24ZM1632.64 1114.24L1629.45 1121.58L1629.46 1121.58L1629.48 1121.59L1632.64 1114.24ZM1660.49 1134.41L1654.48 1139.71L1654.5 1139.72L1654.52 1139.74L1660.49 1134.41ZM1678.67 1166.38L1671.1 1168.97L1671.11 1169L1671.12 1169.04L1678.67 1166.38ZM1616.15 1145.64L1612.43 1152.72L1612.48 1152.75L1612.53 1152.77L1616.15 1145.64ZM1577.79 1145.64L1581.46 1152.75L1581.49 1152.73L1581.51 1152.72L1577.79 1145.64ZM1563.72 1158.43L1557.12 1153.91L1557.09 1153.95L1557.07 1153.99L1563.72 1158.43ZM1555.05 1247.52L1547.27 1249.36L1547.27 1249.37L1547.27 1249.38L1555.05 1247.52ZM1563.86 1268.69L1557.22 1273.15L1557.24 1273.18L1557.26 1273.2L1563.86 1268.69ZM1630.5 1268.69L1637.16 1273.13L1637.18 1273.1L1637.19 1273.08L1630.5 1268.69ZM1639.17 1247.52L1646.95 1249.38L1646.96 1249.37L1646.96 1249.36L1639.17 1247.52ZM1677.21 1208.73V1218.53H1693.21V1208.73H1677.21ZM1677.21 1218.53C1677.21 1233.54 1675.17 1246.76 1671.24 1258.29L1686.39 1263.46C1690.98 1249.98 1693.21 1234.97 1693.21 1218.53H1677.21ZM1671.24 1258.29C1667.28 1269.92 1661.76 1279.63 1654.77 1287.55L1666.77 1298.14C1675.32 1288.44 1681.83 1276.83 1686.39 1263.46L1671.24 1258.29ZM1654.8 1287.52C1647.81 1295.36 1639.49 1301.35 1629.76 1305.53L1636.08 1320.23C1647.94 1315.13 1658.19 1307.76 1666.74 1298.17L1654.8 1287.52ZM1629.74 1305.54C1620.15 1309.7 1609.36 1311.84 1597.26 1311.84V1327.84C1611.29 1327.84 1624.28 1325.35 1636.1 1320.22L1629.74 1305.54ZM1597.26 1311.84C1585.25 1311.84 1574.45 1309.7 1564.75 1305.53L1558.43 1320.23C1570.33 1325.34 1583.31 1327.84 1597.26 1327.84V1311.84ZM1564.77 1305.54C1555.13 1301.36 1546.78 1295.36 1539.68 1287.49L1527.8 1298.2C1536.43 1307.76 1546.65 1315.12 1558.41 1320.22L1564.77 1305.54ZM1539.71 1287.52C1532.63 1279.58 1527.02 1269.87 1522.97 1258.24L1507.86 1263.51C1512.52 1276.88 1519.13 1288.49 1527.77 1298.17L1539.71 1287.52ZM1522.98 1258.29C1519.05 1246.76 1517.02 1233.54 1517.02 1218.53H1501.02C1501.02 1234.97 1503.25 1249.98 1507.84 1263.46L1522.98 1258.29ZM1517.02 1218.53V1208.73H1501.02V1218.53H1517.02ZM1517.02 1208.73C1517.02 1193.62 1519.05 1180.4 1522.98 1168.98L1507.85 1163.79C1503.24 1177.18 1501.02 1192.2 1501.02 1208.73H1517.02ZM1522.98 1168.97C1526.95 1157.34 1532.47 1147.63 1539.46 1139.71L1527.46 1129.12C1518.91 1138.82 1512.4 1150.43 1507.84 1163.8L1522.98 1168.97ZM1539.43 1139.74C1546.53 1131.79 1554.86 1125.75 1564.49 1121.58L1558.12 1106.9C1546.34 1112.01 1536.11 1119.42 1527.49 1129.09L1539.43 1139.74ZM1564.47 1121.59C1574.17 1117.42 1584.97 1115.28 1596.97 1115.28V1099.28C1583.02 1099.28 1570.04 1101.77 1558.15 1106.89L1564.47 1121.59ZM1596.97 1115.28C1609.08 1115.28 1619.87 1117.42 1629.45 1121.58L1635.82 1106.9C1624 1101.77 1611.01 1099.28 1596.97 1099.28V1115.28ZM1629.48 1121.59C1639.19 1125.76 1647.5 1131.78 1654.48 1139.71L1666.49 1129.12C1657.93 1119.43 1647.68 1112 1635.79 1106.89L1629.48 1121.59ZM1654.52 1139.74C1661.59 1147.66 1667.14 1157.36 1671.1 1168.97L1686.24 1163.8C1681.68 1150.41 1675.11 1138.79 1666.45 1129.09L1654.52 1139.74ZM1671.12 1169.04C1675.13 1180.44 1677.21 1193.63 1677.21 1208.73H1693.21C1693.21 1192.18 1690.93 1177.15 1686.22 1163.73L1671.12 1169.04ZM1650.16 1218.53V1208.44H1634.16V1218.53H1650.16ZM1650.16 1208.44C1650.16 1197 1649.12 1186.69 1646.95 1177.6L1631.39 1181.31C1633.2 1188.9 1634.16 1197.91 1634.16 1208.44H1650.16ZM1646.95 1177.6C1644.79 1168.54 1641.52 1160.57 1636.97 1153.91L1623.76 1162.94C1626.97 1167.65 1629.57 1173.7 1631.39 1181.31L1646.95 1177.6ZM1636.97 1153.91C1632.4 1147.23 1626.68 1142.02 1619.78 1138.51L1612.53 1152.77C1616.8 1154.95 1620.56 1158.26 1623.76 1162.94L1636.97 1153.91ZM1619.87 1138.56C1612.99 1134.94 1605.28 1133.23 1596.97 1133.23V1149.23C1603.06 1149.23 1608.14 1150.47 1612.43 1152.72L1619.87 1138.56ZM1596.97 1133.23C1588.66 1133.23 1580.96 1134.94 1574.07 1138.56L1581.51 1152.72C1585.8 1150.47 1590.88 1149.23 1596.97 1149.23V1133.23ZM1574.11 1138.53C1567.32 1142.05 1561.66 1147.26 1557.12 1153.91L1570.33 1162.94C1573.55 1158.23 1577.27 1154.91 1581.46 1152.75L1574.11 1138.53ZM1557.07 1153.99C1552.64 1160.63 1549.43 1168.57 1547.27 1177.6L1562.84 1181.31C1564.66 1173.67 1567.23 1167.59 1570.38 1162.87L1557.07 1153.99ZM1547.27 1177.6C1545.1 1186.69 1544.07 1197 1544.07 1208.44H1560.07C1560.07 1197.91 1561.03 1188.9 1562.84 1181.31L1547.27 1177.6ZM1544.07 1208.44V1218.53H1560.07V1208.44H1544.07ZM1544.07 1218.53C1544.07 1229.89 1545.11 1240.19 1547.27 1249.36L1562.84 1245.68C1561.02 1237.98 1560.07 1228.96 1560.07 1218.53H1544.07ZM1547.27 1249.38C1549.43 1258.43 1552.7 1266.42 1557.22 1273.15L1570.5 1264.23C1567.26 1259.4 1564.65 1253.27 1562.84 1245.66L1547.27 1249.38ZM1557.26 1273.2C1561.81 1279.87 1567.5 1285.1 1574.35 1288.7L1581.79 1274.54C1577.46 1272.26 1573.68 1268.88 1570.47 1264.18L1557.26 1273.2ZM1574.35 1288.7C1581.24 1292.32 1588.94 1294.02 1597.26 1294.02V1278.02C1591.17 1278.02 1586.08 1276.79 1581.79 1274.54L1574.35 1288.7ZM1597.26 1294.02C1605.57 1294.02 1613.27 1292.32 1620.16 1288.7L1612.72 1274.54C1608.43 1276.79 1603.34 1278.02 1597.26 1278.02V1294.02ZM1620.16 1288.7C1627.03 1285.09 1632.69 1279.83 1637.16 1273.13L1623.85 1264.25C1620.74 1268.92 1617.03 1272.27 1612.72 1274.54L1620.16 1288.7ZM1637.19 1273.08C1641.6 1266.36 1644.8 1258.4 1646.95 1249.38L1631.39 1245.66C1629.57 1253.3 1626.99 1259.46 1623.81 1264.3L1637.19 1273.08ZM1646.96 1249.36C1649.12 1240.19 1650.16 1229.89 1650.16 1218.53H1634.16C1634.16 1228.96 1633.2 1237.98 1631.39 1245.68L1646.96 1249.36ZM1884.28 1110.12H1892.28V1102.12H1884.28V1110.12ZM1884.28 1317V1325H1892.28V1317H1884.28ZM1841.65 1317L1834.79 1321.11L1837.12 1325H1841.65V1317ZM1758.53 1178.32L1765.39 1174.21L1750.53 1149.41V1178.32H1758.53ZM1758.53 1317V1325H1766.53V1317H1758.53ZM1715.9 1317H1707.9V1325H1715.9V1317ZM1715.9 1110.12V1102.12H1707.9V1110.12H1715.9ZM1758.53 1110.12L1765.39 1106L1763.06 1102.12H1758.53V1110.12ZM1841.79 1248.94L1834.93 1253.05L1849.79 1277.83V1248.94H1841.79ZM1841.79 1110.12V1102.12H1833.79V1110.12H1841.79ZM1876.28 1110.12V1317H1892.28V1110.12H1876.28ZM1884.28 1309H1841.65V1325H1884.28V1309ZM1848.51 1312.89L1765.39 1174.21L1751.67 1182.43L1834.79 1321.11L1848.51 1312.89ZM1750.53 1178.32V1317H1766.53V1178.32H1750.53ZM1758.53 1309H1715.9V1325H1758.53V1309ZM1723.9 1317V1110.12H1707.9V1317H1723.9ZM1715.9 1118.12H1758.53V1102.12H1715.9V1118.12ZM1751.67 1114.23L1834.93 1253.05L1848.65 1244.82L1765.39 1106L1751.67 1114.23ZM1849.79 1248.94V1110.12H1833.79V1248.94H1849.79ZM1841.79 1118.12H1884.28V1102.12H1841.79V1118.12ZM2060.18 1283.75H2068.18V1275.75H2060.18V1283.75ZM2060.18 1317V1325H2068.18V1317H2060.18ZM1950.06 1317H1942.06V1325H1950.06V1317ZM1950.06 1283.75V1275.75H1942.06V1283.75H1950.06ZM1963.99 1110.12H1971.99V1102.12H1963.99V1110.12ZM1963.99 1317V1325H1971.99V1317H1963.99ZM1921.36 1317H1913.36V1325H1921.36V1317ZM1921.36 1110.12V1102.12H1913.36V1110.12H1921.36ZM2045.83 1194.38H2053.83V1186.38H2045.83V1194.38ZM2045.83 1226.77V1234.77H2053.83V1226.77H2045.83ZM1950.06 1226.77H1942.06V1234.77H1950.06V1226.77ZM1950.06 1194.38V1186.38H1942.06V1194.38H1950.06ZM2060.04 1110.12H2068.04V1102.12H2060.04V1110.12ZM2060.04 1143.51V1151.51H2068.04V1143.51H2060.04ZM1950.06 1143.51H1942.06V1151.51H1950.06V1143.51ZM1950.06 1110.12V1102.12H1942.06V1110.12H1950.06ZM2052.18 1283.75V1317H2068.18V1283.75H2052.18ZM2060.18 1309H1950.06V1325H2060.18V1309ZM1958.06 1317V1283.75H1942.06V1317H1958.06ZM1950.06 1291.75H2060.18V1275.75H1950.06V1291.75ZM1955.99 1110.12V1317H1971.99V1110.12H1955.99ZM1963.99 1309H1921.36V1325H1963.99V1309ZM1929.36 1317V1110.12H1913.36V1317H1929.36ZM1921.36 1118.12H1963.99V1102.12H1921.36V1118.12ZM2037.83 1194.38V1226.77H2053.83V1194.38H2037.83ZM2045.83 1218.77H1950.06V1234.77H2045.83V1218.77ZM1958.06 1226.77V1194.38H1942.06V1226.77H1958.06ZM1950.06 1202.38H2045.83V1186.38H1950.06V1202.38ZM2052.04 1110.12V1143.51H2068.04V1110.12H2052.04ZM2060.04 1135.51H1950.06V1151.51H2060.04V1135.51ZM1958.06 1143.51V1110.12H1942.06V1143.51H1958.06ZM1950.06 1118.12H2060.04V1102.12H1950.06V1118.12ZM1320.61 1451.12V1443.12H1312.61V1451.12H1320.61ZM1363.09 1451.12H1371.09V1443.12H1363.09V1451.12ZM1352.86 1628.02L1346.08 1623.77L1346.07 1623.8L1346.05 1623.82L1352.86 1628.02ZM1324.87 1652.6L1321.52 1645.33L1321.51 1645.34L1321.5 1645.34L1324.87 1652.6ZM1242.74 1652.6L1239.4 1659.87L1239.41 1659.87L1239.42 1659.88L1242.74 1652.6ZM1214.61 1628.02L1207.8 1632.22L1207.81 1632.24L1207.83 1632.26L1214.61 1628.02ZM1204.52 1451.12V1443.12H1196.52V1451.12H1204.52ZM1247.15 1451.12H1255.15V1443.12H1247.15V1451.12ZM1264.2 1623.47L1260.62 1630.63L1260.64 1630.64L1260.67 1630.65L1264.2 1623.47ZM1303.7 1623.47L1300.12 1616.32L1300.1 1616.33L1300.07 1616.34L1303.7 1623.47ZM1316.2 1610.54L1309.05 1606.96L1309.02 1607.01L1309 1607.06L1316.2 1610.54ZM1320.61 1459.12H1363.09V1443.12H1320.61V1459.12ZM1355.09 1451.12V1587.81H1371.09V1451.12H1355.09ZM1355.09 1587.81C1355.09 1602.58 1351.93 1614.42 1346.08 1623.77L1359.64 1632.26C1367.43 1619.83 1371.09 1604.87 1371.09 1587.81H1355.09ZM1346.05 1623.82C1340.18 1633.33 1332.07 1640.48 1321.52 1645.33L1328.21 1659.87C1341.54 1653.73 1352.09 1644.49 1359.67 1632.22L1346.05 1623.82ZM1321.5 1645.34C1310.89 1650.27 1298.44 1652.84 1283.95 1652.84V1668.84C1300.34 1668.84 1315.16 1665.92 1328.24 1659.86L1321.5 1645.34ZM1283.95 1652.84C1269.46 1652.84 1256.89 1650.27 1246.06 1645.32L1239.42 1659.88C1252.65 1665.92 1267.55 1668.84 1283.95 1668.84V1652.84ZM1246.09 1645.33C1235.53 1640.48 1227.36 1633.32 1221.39 1623.77L1207.83 1632.26C1215.49 1644.51 1226.08 1653.74 1239.4 1659.87L1246.09 1645.33ZM1221.41 1623.82C1215.64 1614.46 1212.52 1602.6 1212.52 1587.81H1196.52C1196.52 1604.85 1200.13 1619.79 1207.8 1632.22L1221.41 1623.82ZM1212.52 1587.81V1451.12H1196.52V1587.81H1212.52ZM1204.52 1459.12H1247.15V1443.12H1204.52V1459.12ZM1239.15 1451.12V1587.81H1255.15V1451.12H1239.15ZM1239.15 1587.81C1239.15 1597.85 1240.72 1606.77 1244.4 1614.12L1258.71 1606.96C1256.51 1602.56 1255.15 1596.33 1255.15 1587.81H1239.15ZM1244.4 1614.12C1248.05 1621.43 1253.47 1627.05 1260.62 1630.63L1267.77 1616.32C1263.94 1614.4 1260.93 1611.4 1258.71 1606.96L1244.4 1614.12ZM1260.67 1630.65C1267.57 1634.04 1275.41 1635.59 1283.95 1635.59V1619.59C1277.33 1619.59 1272 1618.4 1267.73 1616.29L1260.67 1630.65ZM1283.95 1635.59C1292.63 1635.59 1300.53 1634.06 1307.33 1630.6L1300.07 1616.34C1296.07 1618.38 1290.8 1619.59 1283.95 1619.59V1635.59ZM1307.28 1630.63C1314.45 1627.04 1319.84 1621.38 1323.4 1614.03L1309 1607.06C1306.88 1611.45 1303.93 1614.41 1300.12 1616.32L1307.28 1630.63ZM1323.36 1614.12C1327.03 1606.77 1328.61 1597.85 1328.61 1587.81H1312.61C1312.61 1596.33 1311.25 1602.56 1309.05 1606.96L1323.36 1614.12ZM1328.61 1587.81V1451.12H1312.61V1587.81H1328.61ZM1479.18 1486.5L1486.78 1488.99L1487.03 1488.22L1487.12 1487.42L1479.18 1486.5ZM1422.91 1658V1666H1428.71L1430.51 1660.49L1422.91 1658ZM1377.58 1658L1370.09 1655.21L1366.08 1666H1377.58V1658ZM1454.46 1451.12V1443.12H1448.89L1446.96 1448.33L1454.46 1451.12ZM1483.3 1451.12L1491.25 1452.04L1492.29 1443.12H1483.3V1451.12ZM1525.93 1658L1518.33 1660.5L1520.14 1666H1525.93V1658ZM1469.52 1486.5L1461.58 1487.52L1461.68 1488.27L1461.92 1489L1469.52 1486.5ZM1464.97 1451.12V1443.12H1455.88L1457.03 1452.14L1464.97 1451.12ZM1494.1 1451.12L1501.59 1448.32L1499.65 1443.12H1494.1V1451.12ZM1571.4 1658V1666H1582.92L1578.89 1655.2L1571.4 1658ZM1523.37 1580.99H1531.37V1572.99H1523.37V1580.99ZM1523.37 1614.38V1622.38H1531.37V1614.38H1523.37ZM1414.1 1614.38H1406.1V1622.38H1414.1V1614.38ZM1414.1 1580.99V1572.99H1406.1V1580.99H1414.1ZM1471.58 1484L1415.31 1655.51L1430.51 1660.49L1486.78 1488.99L1471.58 1484ZM1422.91 1650H1377.58V1666H1422.91V1650ZM1385.08 1660.79L1461.95 1453.9L1446.96 1448.33L1370.09 1655.21L1385.08 1660.79ZM1454.46 1459.12H1483.3V1443.12H1454.46V1459.12ZM1475.35 1450.19L1471.23 1485.57L1487.12 1487.42L1491.25 1452.04L1475.35 1450.19ZM1533.53 1655.5L1477.12 1484L1461.92 1489L1518.33 1660.5L1533.53 1655.5ZM1477.45 1485.48L1472.9 1450.1L1457.03 1452.14L1461.58 1487.52L1477.45 1485.48ZM1464.97 1459.12H1494.1V1443.12H1464.97V1459.12ZM1486.6 1453.92L1563.9 1660.8L1578.89 1655.2L1501.59 1448.32L1486.6 1453.92ZM1571.4 1650H1525.93V1666H1571.4V1650ZM1515.37 1580.99V1614.38H1531.37V1580.99H1515.37ZM1523.37 1606.38H1414.1V1622.38H1523.37V1606.38ZM1422.1 1614.38V1580.99H1406.1V1614.38H1422.1ZM1414.1 1588.99H1523.37V1572.99H1414.1V1588.99Z" fill="white"/>
<defs>
<linearGradient id="paint0_linear_885_3" x1="7.48501e-06" y1="1272.07" x2="2067" y2="1272.07" gradientUnits="userSpaceOnUse">
<stop stop-color="#BDDB06"/>
<stop offset="1" stop-color="#08DB06"/>
</linearGradient>
<linearGradient id="paint1_linear_885_3" x1="693" y1="1376.24" x2="2067" y2="1376.24" gradientUnits="userSpaceOnUse">
<stop stop-color="#CDEC10"/>
<stop offset="1" stop-color="#08DB06"/>
</linearGradient>
</defs>
</svg>
