<svg width="24" height="18" viewBox="0 0 24 18" fill="none" xmlns="http://www.w3.org/2000/svg">
<path d="M12 17.7408C11.713 17.7408 11.4346 17.6731 11.1648 17.5377C10.8951 17.4023 10.6712 17.2217 10.4933 16.996L0.591927 4.53678C0.197309 4.04022 0 3.40823 0 2.64081C0 1.8734 0.197309 1.24141 0.591927 0.744844C0.986546 0.248281 1.48879 0 2.09865 0C2.70852 0 3.21076 0.248281 3.60538 0.744844L12 11.3081L20.3946 0.744844C20.7892 0.248281 21.2915 0 21.9013 0C22.5112 0 23.0134 0.248281 23.4081 0.744844C23.8027 1.24141 24 1.8734 24 2.64081C24 3.40823 23.8027 4.04022 23.4081 4.53678L13.5067 16.996C13.2915 17.2669 13.0583 17.4592 12.8072 17.5729C12.5561 17.6867 12.287 17.7427 12 17.7408Z" fill="url(#paint0_linear_228_3)"/>
<defs>
<linearGradient id="paint0_linear_228_3" x1="8.69091e-08" y1="8.56456" x2="24" y2="8.56456" gradientUnits="userSpaceOnUse">
<stop stop-color="#BDDB06"/>
<stop offset="1" stop-color="#08DB06"/>
</linearGradient>
</defs>
</svg>
