<svg width="30" height="30" viewBox="0 0 30 30" fill="none" xmlns="http://www.w3.org/2000/svg">
<path fill-rule="evenodd" clip-rule="evenodd" d="M15 30C23.2843 30 30 23.2843 30 15C30 6.71573 23.2843 0 15 0C6.71573 0 0 6.71573 0 15C0 23.2843 6.71573 30 15 30ZM17.083 5.00467C16.4324 5.00567 15.7805 5.00667 15.1256 5.01667C15.11 7.1103 15.1107 9.20393 15.1113 11.2996C15.1117 12.5571 15.1121 13.8154 15.109 15.0749C15.1068 15.4675 15.1075 15.8595 15.1082 16.2513C15.1101 17.3479 15.112 18.4424 15.0506 19.5415C15.0428 19.8475 14.8872 20.1165 14.7369 20.3765C14.7275 20.3926 14.7182 20.4087 14.709 20.4248C14.2256 21.2165 13.334 21.7581 12.4007 21.7665C11.0007 21.8915 9.68404 20.7415 9.48404 19.3748C9.48275 19.3049 9.48045 19.2346 9.47814 19.1642C9.4656 18.7809 9.45289 18.3922 9.60071 18.0332C9.80904 17.4415 10.209 16.9165 10.734 16.5749C11.459 16.0749 12.4257 15.9999 13.2507 16.2665C13.2507 15.738 13.2598 15.2094 13.269 14.6808C13.2813 13.9761 13.2935 13.2713 13.284 12.5666C11.4757 12.2249 9.54237 12.7999 8.15906 13.9999C6.94241 15.0332 6.15908 16.5499 6.00908 18.1332C5.99242 18.5415 6.00075 18.9582 6.01742 19.3748C6.19242 21.3248 7.37573 23.1414 9.05905 24.1331C10.0757 24.7331 11.2674 25.0581 12.459 24.9914C14.4006 24.9581 16.2923 23.9164 17.3839 22.3165C18.0589 21.3581 18.4423 20.1998 18.5089 19.0332C18.5246 17.5176 18.5239 15.9988 18.5233 14.4788C18.5229 13.5667 18.5225 12.6541 18.5256 11.7416C18.9589 12.0249 19.4006 12.2999 19.8756 12.5166C20.9672 13.0332 22.1755 13.2832 23.3755 13.3249V9.9666C22.0922 9.82494 20.7756 9.39995 19.8422 8.47496C18.9089 7.57497 18.4506 6.27498 18.3839 5C17.9505 5.00333 17.517 5.004 17.083 5.00467Z" fill="url(#paint0_linear_228_2)"/>
<defs>
<linearGradient id="paint0_linear_228_2" x1="1.08636e-07" y1="14.4827" x2="30" y2="14.4827" gradientUnits="userSpaceOnUse">
<stop stop-color="#CDEC10"/>
<stop offset="1" stop-color="#08DB06"/>
</linearGradient>
</defs>
</svg>
