<svg width="75" height="65" viewBox="0 0 75 65" fill="none" xmlns="http://www.w3.org/2000/svg">
<path fill-rule="evenodd" clip-rule="evenodd" d="M71.4039 37.3304L73.7205 36.9922C73.7205 43.8991 73.8303 49.9565 73.8303 56.7498H1.17017V40.5214C2.42666 39.5149 3.68748 38.5176 4.95642 37.5279C31.0609 40.9429 44.9591 41.1919 71.4034 37.3304" fill="#231916"/>
<path fill-rule="evenodd" clip-rule="evenodd" d="M36.9086 43.1791L57.8794 14.1678H15.9383L36.9091 43.1791H36.9086ZM68.69 9.88531L54.4389 34.5693C54.4281 34.9362 54.407 35.2987 54.3729 35.6483C54.3588 36.579 53.4421 37.8799 52.6948 38.7749L53.4562 39.4189C52.8555 39.4584 52.1927 39.5044 51.5617 39.552L36.9086 64.9318L5.1272 9.88477H68.69V9.88531Z" fill="#51F4E9"/>
<path fill-rule="evenodd" clip-rule="evenodd" d="M67.4499 10.6025H6.36816L21.6387 37.0517L36.9093 63.5008L52.1799 37.0517L67.4504 10.6025H67.4499ZM36.9088 44.4029L14.537 13.4526H59.281L36.9093 44.4029H36.9088Z" fill="black"/>
<path fill-rule="evenodd" clip-rule="evenodd" d="M12.261 15.1416L36.9093 57.8337L61.5575 15.1416L36.9093 49.2412L12.261 15.1416Z" fill="#51F4E9"/>
<path fill-rule="evenodd" clip-rule="evenodd" d="M32.8604 57.9224H0V39.9619L0.438853 39.6108C1.69859 38.6016 2.96429 37.6005 4.23701 36.6081L4.62284 36.3072L5.10822 36.3705C10.5557 37.0832 16.0108 37.7341 21.4789 38.2092L32.8604 57.9224ZM73.8301 57.9224H40.7246L50.4719 40.0101L41.8707 40.1189L39.7262 38.9814C50.3128 38.8727 60.7538 37.7049 71.2349 36.1752L74.8901 35.6416V36.995C74.8901 43.581 75 50.1665 75 56.7525V57.9224H73.8301Z" fill="#5EF9F6"/>
<path fill-rule="evenodd" clip-rule="evenodd" d="M71.4039 37.3304L73.7205 36.9922C73.7205 43.8991 73.8303 49.9565 73.8303 56.7498H1.17017V40.5214C2.42666 39.5149 3.68748 38.5176 4.95642 37.5279C31.0609 40.9429 44.9591 41.1919 71.4034 37.3304" fill="black"/>
<path fill-rule="evenodd" clip-rule="evenodd" d="M37.9725 40.5648L36.2858 40.0848L33.6841 39.9365L34.1381 40.5648H37.9725Z" fill="#FFCE4B"/>
<path fill-rule="evenodd" clip-rule="evenodd" d="M40.501 40.569L39.4896 40.2676L38.4912 40.569H40.501Z" fill="#FFCE4B"/>
<path fill-rule="evenodd" clip-rule="evenodd" d="M17.362 29.6442L17.7645 30.3418L17.0162 32.3023L18.6552 34.8656L20.1688 34.5057L20.9815 35.9137C18.8219 36.2725 16.1666 35.9029 15.6 33.4597C15.4296 32.7232 15.5324 31.9516 15.7548 31.2379C16.0384 30.3288 16.4707 29.602 16.9361 28.9072L17.3614 29.6442H17.362ZM46.4837 13.4516C47.376 14.3845 48.0048 15.5436 48.316 17.0247C50.3333 18.2205 51.8235 20.3694 52.6136 22.6745L52.0286 23.4835L51.5118 25.2005L50.8051 23.2146L49.4182 19.5165L47.3587 18.0771L47.0432 16.6691L46.3711 15.0301L45.8316 13.7184L45.6249 13.8953L45.3798 13.4521H46.4832L46.4837 13.4516ZM29.0086 10.6015C28.9859 10.3986 28.9842 10.1924 29.0118 10.0084L29.0286 9.89911L29.0752 9.79846C29.3473 9.2108 29.1937 8.42076 29.0151 7.82552C28.7873 7.06632 29.3479 6.13937 29.8684 5.50679C29.7656 2.845 31.1628 0.644782 33.9226 0.127466L34.9128 0.0208645C35.1942 -0.0094385 35.4777 -0.00673321 35.7581 0.0289811L36.6834 0.145864C37.8776 0.408851 38.8944 1.10853 39.6314 2.27682C39.9128 2.7227 40.1693 3.28385 40.35 3.85095C40.8587 3.82444 41.1742 4.03764 41.5459 4.33742C42.1314 5.89857 42.6758 7.48569 43.2342 9.0582C43.3803 9.63504 43.2997 10.1475 43.0172 10.601H41.0941L41.3078 10.5219L41.9382 9.88126L42.1482 8.95647L41.2234 6.46675L40.9085 5.72054L40.4777 5.14262L40.2256 6.6556L39.1644 4.5858L37.7039 1.70701L36.5064 1.18158L35.6866 0.929413L34.7586 0.857444L34.5308 1.27627L34.0649 0.888829L33.7202 1.11881L33.2202 1.50734L31.9458 2.4213L31.3051 5.16372L30.7272 6.43483L30.0021 7.06524L30.1071 7.71675L30.2121 8.83039V9.51329L30.0021 10.1648L30.1412 10.601H29.0086V10.6015ZM20.6368 21.891C21.4253 19.8385 23.0584 17.9051 24.7938 16.6194L24.7743 15.4581L25.0113 15.2249C25.6217 14.6237 26.5135 14.0111 27.4301 13.4516H30.3506L29.5297 13.7584C29.5297 13.7584 28.889 14.6199 28.7943 14.7563C28.6996 14.8926 26.8403 15.3867 26.777 15.4181C26.7142 15.4494 26.2305 16.2692 26.2305 16.2692L26.0097 17.509L25.1374 18.8645L24.066 19.2638L22.4583 21.0393L21.4918 22.8883L21.4198 22.9738L20.6368 21.8905V21.891Z" fill="#51F4E9"/>
<path fill-rule="evenodd" clip-rule="evenodd" d="M44.5277 37.5078L47.2593 39.5565C45.6944 40.0143 44.387 38.4667 44.5277 37.5078Z" fill="black"/>
<path fill-rule="evenodd" clip-rule="evenodd" d="M42.8899 31.9023L48.6475 36.8612L48.2903 37.1978L42.8899 31.9023Z" fill="black"/>
<path fill-rule="evenodd" clip-rule="evenodd" d="M37.3531 36.6472C36.3233 36.0796 36.6593 35.1342 36.6593 35.1342L36.7016 34.8718L36.9326 34.9243C37.4791 35.1342 38.0251 36.1429 38.0251 36.1429C37.878 35.5125 37.2475 34.4199 37.2475 34.4199L38.6767 35.3864L38.4245 37.3404L37.3531 36.6467V36.6472Z" fill="black"/>
<path fill-rule="evenodd" clip-rule="evenodd" d="M36.1969 36.8916L38.3825 38.0161L38.2667 39.5393C37.5627 39.3186 36.8484 38.1946 36.8484 38.1946C36.8906 39.0983 37.7521 40.0123 37.7521 40.0123C37.3425 39.7076 36.7121 39.3505 36.7121 39.3505C35.9242 38.8884 36.1975 36.8921 36.1975 36.8921" fill="black"/>
<path fill-rule="evenodd" clip-rule="evenodd" d="M38.9391 39.9389C38.7925 38.7528 38.6285 35.6456 39.4748 34.7695C39.2378 35.3572 39.2016 36.6608 39.2016 36.6608C39.3385 36.0617 39.8217 35.5049 39.8217 35.5049C39.128 37.144 38.9391 39.9384 38.9391 39.9384" fill="black"/>
<path fill-rule="evenodd" clip-rule="evenodd" d="M28.1961 24.8078L28.3536 26.0372L28.8682 24.5556L29.1517 24.7656L29.7713 24.1562L30.7486 24.7131L31.0846 24.3559L31.3579 24.5134L30.8222 25.3538L31.6101 25.9739C31.6101 25.9739 30.4651 25.7006 29.3406 25.9631C29.3406 25.9631 30.0024 26.1525 30.3595 26.3516L28.4894 26.383L27.7854 26.4355L28.195 24.8067L28.1961 24.8078Z" fill="black"/>
<path fill-rule="evenodd" clip-rule="evenodd" d="M31.5076 25.247L31.9069 24.8477L32.2327 25.0998L31.8014 25.4992L31.5076 25.247Z" fill="black"/>
<path fill-rule="evenodd" clip-rule="evenodd" d="M31.9277 24.3735L32.5901 23.7539L33.1047 24.0164L32.4532 24.689L31.9277 24.3735Z" fill="black"/>
<path fill-rule="evenodd" clip-rule="evenodd" d="M31.1492 23.676L31.969 23.1191L32.3369 23.3713L31.4749 24.0223L31.2228 23.7598L31.1492 23.676Z" fill="black"/>
<path fill-rule="evenodd" clip-rule="evenodd" d="M25.5602 28.4213C26.5688 28.0008 28.5228 27.5809 28.5228 27.5809C28.0499 27.9483 27.3042 28.9678 27.3042 28.9678C29.7631 27.0138 32.5997 27.4234 32.5997 27.4234C32.8832 27.7595 32.6311 28.4321 32.6311 28.4321C32.3892 28.3688 31.9168 28.0436 31.9168 28.0436C32.505 29.9348 34.0602 30.4391 34.0602 30.4391C35.2577 30.8277 36.3188 31.9207 36.3188 31.9207C36.8443 32.3201 36.6971 32.5089 36.6971 32.5089C36.0456 32.8136 34.6695 31.6578 34.6695 31.6578C34.3859 31.3953 34.0602 31.3109 34.0602 31.3109C32.1901 30.9748 30.6349 30.155 30.6349 30.155C31.2339 31.2265 33.4087 31.8569 33.4087 31.8569L33.8183 32.2984L33.3876 32.5717C32.1376 32.3618 30.7398 31.3006 30.7398 31.3006C31.2544 32.3618 32.7572 33.0869 32.7572 33.0869C32.5364 33.3179 31.8432 33.2129 31.8432 33.2129C30.992 32.8558 30.0678 31.8001 30.0678 31.8001C30.2831 32.4516 31.0342 33.1188 31.0342 33.1188L30.341 33.1399L30.1781 32.9927C29.4217 32.1523 28.5602 31.6058 28.5602 31.6058C27.1311 31.2276 25.4503 30.1188 25.4503 30.1188C25.5818 30.5392 26.1754 31.2324 26.1754 31.2324L25.209 31.6318C24.7469 30.8964 24.9779 28.984 24.9779 28.984L25.078 28.6107L25.5613 28.4213H25.5602Z" fill="black"/>
<path fill-rule="evenodd" clip-rule="evenodd" d="M27.5241 23.7803L26.5993 27.2056L25.5696 27.3528C25.5696 27.3528 25.9267 24.6001 27.5241 23.7808" fill="black"/>
<path fill-rule="evenodd" clip-rule="evenodd" d="M33.2356 27.4463L36.1355 29.3797L35.8623 30.0626C36.293 30.567 38.8249 32.5843 38.8249 32.5843C38.6777 32.8364 38.1631 34.1811 38.1631 34.1811L36.8812 33.3408C37.8477 32.8786 36.8184 31.5967 36.8184 31.5967C36.3563 30.8088 34.3282 29.7791 34.3282 29.7791C33.3828 29.4636 33.0251 28.7601 33.0251 28.7601C33.3926 28.4452 33.2351 27.4468 33.2351 27.4468" fill="black"/>
<path fill-rule="evenodd" clip-rule="evenodd" d="M32.6309 25.5821L33.9128 23.9014L36.3295 26.0653L35.4258 26.9273L33.4507 25.5193L34.9425 27.6205L32.6309 25.5821Z" fill="black"/>
<path fill-rule="evenodd" clip-rule="evenodd" d="M36.5334 29.5977L39.3386 31.615L38.9814 32.214C38.351 31.8255 36.2915 30.0392 36.2915 30.0392L36.5334 29.5977Z" fill="black"/>
<path fill-rule="evenodd" clip-rule="evenodd" d="M36.8556 26.5732L37.3599 26.9515L36.4351 28.6744L35.6997 28.1284L36.8556 26.5732Z" fill="black"/>
<path fill-rule="evenodd" clip-rule="evenodd" d="M58.7542 46.3882L59.4371 45.7578L60.9711 47.1653L60.2882 47.754L58.7542 46.3882Z" fill="black"/>
<path fill-rule="evenodd" clip-rule="evenodd" d="M57.7988 45.5344C57.7988 45.5344 57.8724 44.9039 58.1668 44.7676L59.1019 45.5138L58.5975 46.0809L57.7988 45.5344Z" fill="black"/>
<path fill-rule="evenodd" clip-rule="evenodd" d="M42.2821 32.5479L48.0608 37.6539L47.5776 38.4104C42.3032 34.5857 42.1982 33.4093 42.1982 33.4093L44.4466 35.2583C43.6901 34.6279 42.2821 32.5479 42.2821 32.5479Z" fill="black"/>
<path fill-rule="evenodd" clip-rule="evenodd" d="M43.3517 39.2104C42.7337 38.5924 43.0768 37.3045 43.4253 36.626L44.1607 37.2039C43.856 37.4036 43.9085 37.8235 43.9085 37.8235C43.1206 38.2331 43.3517 39.2104 43.3517 39.2104Z" fill="black"/>
<path fill-rule="evenodd" clip-rule="evenodd" d="M39.8008 39.7682C39.567 37.9138 39.7786 35.772 41.0405 34.3467C40.2629 36.1746 40.5151 38.8645 40.5151 38.8645C40.5151 37.3304 42.0908 35.3553 42.0908 35.3553C41.3344 36.9944 41.5443 38.8018 41.5443 38.8018C41.5865 37.6248 42.4691 35.9441 42.4691 35.9441C41.8684 38.64 42.9734 40.3781 42.9734 40.3781C41.4815 40.3781 39.8003 39.7688 39.8003 39.7688" fill="black"/>
<path fill-rule="evenodd" clip-rule="evenodd" d="M39.8179 33.4035C40.0073 32.2898 40.9737 30.6719 40.9737 30.6719L41.4147 31.0501L39.7129 34.1811V33.8553L39.8179 33.4035Z" fill="black"/>
<path fill-rule="evenodd" clip-rule="evenodd" d="M38.021 27.8779L40.5215 30.1685L39.9014 30.8931L37.8316 29.3384L39.2818 29.9477L37.6113 28.2773L38.021 27.8779Z" fill="black"/>
<path fill-rule="evenodd" clip-rule="evenodd" d="M35.0425 23.7439L35.9564 22.6514C36.1236 23.2607 35.9196 23.7006 35.4418 24.0383L35.0425 23.7439Z" fill="black"/>
<path fill-rule="evenodd" clip-rule="evenodd" d="M22.3713 23.0791L21.4254 24.571L20.6165 24.676L21.4574 23.268L22.3713 23.0791Z" fill="black"/>
<path fill-rule="evenodd" clip-rule="evenodd" d="M41.0511 10.1358C41.0511 10.1358 40.2319 10.0519 40.0425 8.01351C40.0425 8.01351 40.4207 8.62282 40.8412 8.79111C40.8412 8.79111 40.2319 7.32033 40.3791 6.20669L40.4629 5.93342L40.589 5.66016C40.589 5.66016 41.1772 7.63526 41.5349 8.35009C41.5349 8.35009 41.892 9.84197 41.0517 10.1363" fill="black"/>
<path fill-rule="evenodd" clip-rule="evenodd" d="M36.1037 24.4512L42.3867 29.9355L41.9035 30.1454L35.5366 24.745L36.1037 24.4512Z" fill="black"/>
<path fill-rule="evenodd" clip-rule="evenodd" d="M46.5469 29.5045C46.5469 29.5045 47.0301 26.4158 46.8202 24.9028C46.8202 24.9028 46.9463 23.3687 47.745 21.7296C47.745 21.7296 47.535 23.7681 47.976 26.2053C47.976 26.2053 48.081 22.2967 49.3207 21.0781C49.3207 21.0781 51.5691 24.6712 50.2872 28.6636C50.2872 28.6636 51.3797 27.3817 51.6108 26.5835C51.6108 26.5835 53.7753 31.4374 52.9766 35.7664C52.9766 35.7664 52.6194 36.6279 52.2834 37.0062L52.8088 35.1782C52.8088 35.1782 52.4933 34.0646 51.3169 35.0733L50.7498 36.2708C50.7498 36.2708 50.5188 35.8925 50.1194 35.8714C50.1194 35.8714 50.9804 31.8579 48.2282 28.4748C48.2282 28.4748 48.6698 31.2064 48.186 32.425C47.8959 30.9266 47.8889 30.3065 46.5415 29.7459L46.5469 29.5045Z" fill="black"/>
<path fill-rule="evenodd" clip-rule="evenodd" d="M49.2034 37.2162C49.2034 37.2162 49.6866 36.3125 50.4328 36.4175C50.4328 36.4175 50.6114 36.47 50.6639 36.5858C50.6639 36.5858 50.3489 37.3634 50.2542 37.5312C50.2542 37.5312 51.1579 37.0268 51.9772 35.5771C51.9772 35.5771 51.725 37.3212 51.0524 38.7081L50.8111 39.055L51.0946 38.9814L57.6087 44.4235L57.2515 44.9278L53.8056 41.9857L53.9106 41.7124L53.3013 41.8385L49.7499 38.9386L50.107 38.266L49.2034 37.2157V37.2162Z" fill="black"/>
<path fill-rule="evenodd" clip-rule="evenodd" d="M42.7331 30.3232L49.3413 35.9758L49.068 36.2491L42.2812 30.5121L42.7331 30.3232Z" fill="black"/>
<path fill-rule="evenodd" clip-rule="evenodd" d="M44.0515 30.3006C46.1316 29.8623 46.9341 30.7514 46.8881 33.0322L44.0515 30.3006Z" fill="black"/>
<path fill-rule="evenodd" clip-rule="evenodd" d="M34.1121 21.2241C35.026 21.3983 36.3383 21.2874 37.1851 21.0244C38.4265 21.7528 38.5931 24.0926 38.5931 24.0926C38.94 23.4514 38.8978 22.1592 38.8978 22.1592C39.7381 24.1976 38.7295 25.8572 38.7295 25.8572L36.8226 23.5774L36.8648 23.3464C37.012 22.1905 35.9194 21.9173 35.9194 21.9173L34.7847 22.7998L34.1121 21.2241Z" fill="black"/>
<path fill-rule="evenodd" clip-rule="evenodd" d="M33.4666 17.1747C33.4666 17.1747 35.9882 18.6666 39.3924 16.9854C39.3924 16.9854 38.1949 18.435 36.5347 19.1076C36.5347 19.1076 37.9427 19.0027 38.8464 18.3301C38.8464 18.3301 38.1738 20.3263 35.6105 20.3052C33.6392 20.0189 33.735 18.7803 33.4671 17.1742" fill="black"/>
<path fill-rule="evenodd" clip-rule="evenodd" d="M22.4557 25.7056C22.4557 25.7056 23.7902 25.9892 24.7252 26.4832L24.4942 27.618C24.4942 27.618 22.1511 27.9648 20.4493 28.7208C20.4493 28.7208 23.0126 28.8257 24.0212 29.204C24.0212 29.204 24.0001 31.1163 24.3995 31.8306C24.3995 31.8306 22.3086 32.5974 19.8394 32.2403C19.8394 32.2403 20.5959 32.9232 22.5082 33.1331C22.5082 33.1331 18.4498 34.8739 17.623 32.7862C17.623 32.7862 17.4969 32.303 17.7279 31.4416C17.7279 31.4416 17.854 32.4291 18.5472 32.8912C18.5472 32.8912 18.064 31.4204 18.9466 29.5714L20.1024 27.0076L20.5753 26.2197C20.5753 26.2197 22.1722 25.8625 23.7063 26.8712C23.7063 26.8712 23.0548 26.0308 22.4563 25.7051" fill="black"/>
<path fill-rule="evenodd" clip-rule="evenodd" d="M25.6183 22.943L24.5468 25.3175C24.5468 25.3175 23.7065 24.7504 22.2773 24.5399L23.3699 22.2282L22.319 22.4068C22.7584 21.1665 23.0463 20.7261 23.9895 19.9062C23.9895 19.9062 23.7687 22.659 24.0209 23.8148C24.0209 23.8148 24.6826 23.1741 25.6177 22.9425" fill="black"/>
<path fill-rule="evenodd" clip-rule="evenodd" d="M35.6509 16.7004C34.1168 14.0316 37.4583 13.2962 37.4583 13.2962L37.6893 13.2437L38.1098 13.1279C36.7229 13.8633 36.2819 15.7757 36.2819 15.7757C37.2694 14.5781 38.8874 13.8844 38.8874 13.8844C39.4756 14.7248 39.3079 15.8384 39.3079 15.8384C38.8874 16.5527 36.9751 17.0154 36.9751 17.0154C37.7738 16.721 38.6563 15.2924 38.6563 15.2924C37.7738 16.1328 35.6515 16.7004 35.6515 16.7004" fill="black"/>
<path fill-rule="evenodd" clip-rule="evenodd" d="M26.3739 18.0054L31.7321 22.145C31.7321 22.145 30.4924 22.8177 29.9881 23.5952L29.316 23.1537C29.316 23.1537 30.0092 22.6705 30.5768 22.4811C30.5768 22.4811 29.1899 22.2922 27.8663 22.7543L28.0974 22.3128C28.0974 22.3128 28.6439 21.9556 29.5893 21.9345C29.5893 21.9345 28.0763 21.283 26.0379 21.7662L25.5547 21.9762L25.2186 22.1023C25.2186 22.1023 25.0714 19.875 26.3745 18.0049" fill="black"/>
<path fill-rule="evenodd" clip-rule="evenodd" d="M34.3384 9.9875L34.1073 10.4182L33.866 9.95557L34.1392 9.51456L34.906 9.94529L35.2734 9.33598L35.5835 9.7402L36.2507 9.13631L36.6603 9.49345L37.0597 9.02051L37.3016 9.46207L37.1647 9.84031L36.9444 9.65092L36.6603 10.1341L36.2193 9.64064L35.7047 10.271L35.2843 9.8717L34.906 10.4599L34.3384 9.9875Z" fill="black"/>
<path fill-rule="evenodd" clip-rule="evenodd" d="M37.4276 10.9229C36.5439 11.6053 35.0396 12.2265 34.0342 11.0912C34.5878 11.3396 35.0672 11.3472 35.5363 11.2384C34.6965 11.0333 34.5066 10.6816 34.5066 10.6816C34.9059 10.944 35.2209 10.9338 35.2209 10.9338C35.3085 10.818 35.3962 10.7027 35.4833 10.5869C35.6305 10.7027 35.7777 10.818 35.9243 10.9338C36.0537 10.7308 36.1835 10.5274 36.3129 10.3244L36.6386 10.7552C36.7647 10.5382 36.8908 10.3212 37.0169 10.1037L37.1954 10.4922C37.6159 10.2503 37.7945 9.45215 37.7945 9.45215C37.9622 10.3244 37.4265 10.9229 37.4265 10.9229" fill="black"/>
<path fill-rule="evenodd" clip-rule="evenodd" d="M33.2452 9.10614L32.3416 9.77876C31.8583 9.08504 31.564 7.77227 31.564 7.77227L31.5115 7.29932L31.6587 7.58287C32.394 9.12724 34.5899 8.09802 34.5899 8.09802C34.4536 8.8859 34.8946 8.78092 34.8946 8.78092C35.2306 8.77064 35.2831 8.37129 35.2831 8.37129C35.5039 8.84424 35.9135 8.58125 35.9135 8.58125C36.3021 8.3188 35.8086 7.4254 35.8086 7.4254C35.9135 7.59369 36.7858 8.05582 36.7858 8.05582C37.7631 7.83504 38.7193 7.27822 38.7193 7.27822C39.1922 7.03633 39.255 6.36426 39.255 6.36426C39.6121 7.57259 38.9189 8.68623 38.9189 8.68623H38.341L38.2674 8.42378L37.6267 8.58125L37.3432 9.0753L37.0071 8.62346L36.5975 8.92811L36.1668 8.73926L35.6413 9.22248L35.1792 8.89672L34.8324 9.1911L34.8221 9.55906L34.2231 9.04445L34.4541 8.59261L33.3405 9.47519L33.2458 9.10722L33.2452 9.10614Z" fill="black"/>
<path d="M3.68438 41.7461H8.00256V52.0978H9.5913V54.6812H6.27691L3.68384 52.0978V41.7461H3.68438ZM10.2737 52.0978H11.8721V41.7461H16.1806V52.0978L13.5973 54.6812H10.2731V52.0978H10.2737Z" fill="#51F4E9"/>
<path d="M21.4326 42.331L23.3433 47.468L20.9748 54.6812H16.8125L21.4326 42.331ZM22.924 50.9772H25.4683L21.9007 41.7461H26.102L31.2584 54.6812H26.9012L26.4526 53.5405H22.0273L22.924 50.9766V50.9772Z" fill="#51F4E9"/>
<path d="M31.7922 44.3294L34.3853 41.7461H36.1007V54.6812H34.3853L31.7922 52.0978V44.3289V44.3294ZM39.6488 44.3294H36.783V41.7461H41.3739L43.9573 44.3294V46.9322H39.6488V44.3294ZM36.783 52.0984H39.6488V50.2071H43.9573V52.0984L41.3739 54.6817H36.783V52.0984Z" fill="#51F4E9"/>
<path d="M45.2231 44.3294L47.8454 41.7461H51.1598V44.3684H49.5419V52.0497H51.1598V54.6817H47.8454L45.2231 52.0984V44.3294ZM51.8417 52.0497H53.4888V44.3684H51.8417V41.7461H55.1853L57.7978 44.3294V52.0984L55.1853 54.6817H51.8417V52.0497Z" fill="#51F4E9"/>
<path d="M59.2869 41.7466H63.5953V54.6817H59.2869V41.7466ZM64.2777 52.0984H67.4746V44.3294H64.2777V41.7461H69.2003L71.7934 44.3294V52.0984L69.2003 54.6817H64.2777V52.0984Z" fill="#51F4E9"/>
<path fill-rule="evenodd" clip-rule="evenodd" d="M25.5552 15.7767L25.5763 17.0164C25.5763 17.0164 22.0882 19.3281 21.1218 22.9C21.1218 22.9 20.1553 23.6565 19.4616 26.1149C19.4616 26.1149 18.7684 27.9428 17.9275 28.8254C17.9275 28.8254 14.0401 33.6793 18.2635 35.1084C18.2635 35.1084 20.1126 35.781 23.0758 34.4569C23.0758 34.4569 25.6564 32.0629 28.8701 33.3773C29.6142 33.5965 30.2349 33.9477 30.4194 34.4617C30.4194 34.4617 30.5503 35.0126 30.6407 35.7285L31.9627 37.557C31.9091 36.2972 32.3323 34.9028 32.3323 34.9028L32.4161 35.3649L32.5844 36.0164C32.9205 37.4244 33.908 38.1598 33.908 38.1598C33.1726 36.8151 33.5509 34.6928 33.5509 34.6928C33.9502 36.4791 34.5806 36.9623 34.5806 36.9623C33.7403 34.4195 34.7695 32.5916 34.7695 32.5916L36.2614 33.4531C35.0217 36.7734 35.7781 39.7989 35.7781 39.7989L33.3707 39.505L34.1385 40.5673C36.9735 40.7258 40.7219 40.5445 43.5552 40.5976L43.6007 40.5673C43.4924 40.3757 43.4334 40.1782 43.4383 39.998L44.421 40.5673H45.4389C44.5433 40.3194 43.9205 39.399 44.013 38.7691L46.3994 40.5586C46.3891 40.5618 46.3783 40.5645 46.368 40.5673C46.6131 40.5472 46.8009 40.5483 46.9416 40.5673H47.368C47.5195 40.3724 47.6732 40.1571 47.829 39.9201L48.3333 40.0884L49.1109 39.6262L53.5238 43.1776L54.0281 42.9888L58.2938 46.5608L58.336 47.0023L60.1645 48.6203L61.8664 47.1284L58.3149 44.0397L58.105 44.2707L51.6959 38.8492C51.6959 38.8492 53.6921 36.6847 53.671 35.6132C53.671 35.6132 54.1753 30.5489 52.4524 25.6322C52.4524 25.6322 52.0319 19.8746 47.6196 17.5213C47.6196 17.5213 47.2625 15.084 45.8333 13.7177C45.8333 13.7177 48.1239 19.2231 42.9546 23.5516C42.9546 23.5516 45.0557 22.564 46.0011 21.6392C46.0011 21.6392 45.1818 23.5727 43.8788 24.3292C43.8788 24.3292 44.9924 24.3081 45.8117 23.6776L44.5298 29.0781L42.4286 27.2291L44.4248 27.7545L41.8193 26.0943C41.8193 26.0943 42.0925 24.3081 41.6932 22.1441C41.6932 22.1441 41.5043 23.6993 41.3149 24.4347C41.3149 24.4347 41.1889 22.3124 40.6007 21.1149C40.6007 21.1149 40.6218 23.3844 40.2857 24.5191C40.2857 24.5191 40.0125 21.6192 39.487 20.7577C39.487 20.7577 41.105 18.5516 41.4621 15.7144C41.4621 15.7144 41.441 18.4883 41.0211 19.6441C41.0211 19.6441 42.8285 16.9336 42.4708 13.1722C42.4708 13.1722 44.131 12.9201 45.3074 13.3194C45.3074 13.3194 43.5422 12.0169 40.7267 11.2393C40.7267 11.2393 42.849 10.6928 42.4919 9.28533C42.4919 9.28533 41.0839 5.31401 40.895 4.80969C40.895 4.80969 40.2435 4.28425 39.8236 5.01964C39.8236 5.01964 39.2565 0.228517 34.7597 0.858928C34.7597 0.858928 38.1851 1.11109 38.6472 4.80969C37.2798 5.08133 36.9075 4.63923 32.5952 5.16683C32.5952 5.16683 32.5114 3.35947 33.2679 2.45633C33.2679 2.45633 32.0909 3.3178 31.7549 4.99908C31.6932 3.0467 32.4995 1.88544 34.0666 0.891396C31.6342 1.34702 30.4546 3.30806 30.6623 5.77668C30.6623 5.77668 29.5698 6.97473 29.7587 7.60514C29.9475 8.23555 30.1786 9.26531 29.7798 10.1268C29.7798 10.1268 29.5698 11.5137 31.0828 12.3124C31.0828 12.3124 26.901 14.4558 25.5563 15.7794" fill="black"/>
<path fill-rule="evenodd" clip-rule="evenodd" d="M30.6502 6.69043L30.8812 8.60277L30.4186 8.77052L30.1875 7.15255L30.6502 6.69043Z" fill="black"/>
<path fill-rule="evenodd" clip-rule="evenodd" d="M34.5571 12.9385C33.4354 12.551 32.8044 11.4742 32.8044 10.1484C32.8044 10.1484 32.9516 12.6068 35.536 12.1446C35.536 12.1446 38.1838 11.9872 38.3521 10.3373C38.3521 10.3373 38.4781 11.5348 37.5956 12.1652C37.5956 12.1652 38.6464 11.7031 38.9825 10.5472C38.707 12.3616 36.2271 13.5148 34.5571 12.9379" fill="black"/>
<path fill-rule="evenodd" clip-rule="evenodd" d="M31.3852 13.4316C31.1303 15.2146 30.7493 17.4766 31.7423 19.0842C31.6162 18.233 32.0572 16.5415 32.0572 16.5415C32.0994 18.1806 32.8559 21.0382 32.8559 21.0382C31.2591 20.5761 29.5778 17.5501 29.5778 17.5501C29.7461 18.8948 30.7547 20.3662 30.7547 20.3662C29.1579 19.3997 26.8462 16.6259 26.8462 16.6259L26.9723 15.8694L31.3852 13.4316Z" fill="black"/>
<path fill-rule="evenodd" clip-rule="evenodd" d="M30.8163 11.232L30.1648 10.5594C30.1648 10.5594 30.2276 9.48795 30.9213 9.15137L31.5939 11.568L30.8585 10.0973L30.8163 11.232Z" fill="black"/>
<path fill-rule="evenodd" clip-rule="evenodd" d="M45.8314 13.7188C45.5884 13.465 45.3059 13.3195 45.3059 13.3195C44.129 12.9201 42.4694 13.1723 42.4694 13.1723C42.8265 16.9337 41.0197 19.6441 41.0197 19.6441C41.4401 18.4883 41.4607 15.7145 41.4607 15.7145C41.1036 18.5511 39.4856 20.7578 39.4856 20.7578C40.011 21.6193 40.2843 24.5191 40.2843 24.5191C40.6203 23.3844 40.5992 21.1149 40.5992 21.1149C41.1874 22.3124 41.3135 24.4347 41.3135 24.4347C41.5029 23.6993 41.6918 22.1441 41.6918 22.1441C42.0911 24.3086 41.8178 26.0944 41.8178 26.0944L44.4234 27.7545L42.4272 27.2291L44.5283 29.0781L45.8103 23.6777C44.991 24.3081 43.8774 24.3292 43.8774 24.3292C45.1799 23.5727 45.9997 21.6393 45.9997 21.6393C45.0543 22.5641 42.9531 23.5516 42.9531 23.5516C48.1225 19.2226 45.8319 13.7177 45.8319 13.7177" fill="#505050"/>
<path fill-rule="evenodd" clip-rule="evenodd" d="M32.5942 5.16119C35.5357 4.21585 38.6461 4.80405 38.6461 4.80405C38.184 1.106 34.7587 0.853292 34.7587 0.853292C34.4259 0.802967 34.0655 0.884678 34.0655 0.884678C32.4984 1.87927 31.6921 3.03998 31.7538 4.99236C32.0898 3.31108 33.2668 2.44961 33.2668 2.44961C32.5103 3.35329 32.5942 5.16011 32.5942 5.16011" fill="#BFBFBF"/>
<path fill-rule="evenodd" clip-rule="evenodd" d="M38.5933 5.47798C37.1328 4.97906 36.0678 4.59324 35.1263 5.81402L34.7058 5.89789C33.4385 5.17333 32.6831 5.63003 31.6382 6.67549C32.2859 7.80915 32.175 7.94984 33.1144 7.88112C34.1809 7.80319 34.2994 7.50882 34.6539 6.32917C34.6539 6.32917 34.7275 6.077 35.0007 6.0559C35.0007 6.0559 35.9255 7.10677 36.7134 7.33783C36.7134 7.33783 38.6885 7.22203 38.6993 6.37138L38.5944 5.47852L38.5933 5.47798Z" fill="#BFBFBF"/>
<path fill-rule="evenodd" clip-rule="evenodd" d="M38.7193 7.27735C38.7193 7.27735 37.7631 7.83417 36.7858 8.05495C36.7858 8.05495 35.9141 7.59282 35.8086 7.42453C35.8086 7.42453 36.3026 8.31739 35.9135 8.58038C35.9135 8.58038 35.5039 8.84336 35.2831 8.37042C35.2831 8.37042 35.2306 8.76977 34.8946 8.78005C34.8946 8.78005 34.4536 8.88503 34.5899 8.09715C34.5899 8.09715 32.394 9.12692 31.6587 7.582L31.5115 7.29845L31.564 7.7714C31.564 7.7714 31.8583 9.08471 32.3416 9.77789L33.2452 9.10527L33.3399 9.47324L34.4536 8.59066L34.2225 9.0425L34.8215 9.55711L34.8318 9.18914L35.1787 8.89477L35.6408 9.22053L36.1662 8.7373L36.597 8.92616L37.0066 8.6215L37.3426 9.07334L37.6262 8.5793L38.2669 8.42183L38.3405 8.68427H38.9184C38.9184 8.68427 39.6116 7.57064 39.2544 6.3623C39.2544 6.3623 39.1917 7.03492 38.7187 7.27626" fill="#DFDFDF"/>
<path fill-rule="evenodd" clip-rule="evenodd" d="M37.3016 9.46207L37.0597 9.02051L36.6603 9.49345L36.2507 9.13631L35.5835 9.7402L35.2734 9.33598L34.906 9.94529L34.1392 9.51456L33.866 9.95557L34.1073 10.4182L34.3384 9.9875L34.906 10.4599L35.2843 9.8717L35.7047 10.271L36.2193 9.64064L36.6603 10.1341L36.9444 9.65092L37.1647 9.84031L37.3016 9.46207Z" fill="#DFDFDF"/>
<path fill-rule="evenodd" clip-rule="evenodd" d="M37.0174 10.1027C36.8913 10.3197 36.7652 10.5372 36.6391 10.7542L36.3133 10.3235C36.1835 10.5264 36.0541 10.7299 35.9248 10.9328C35.7776 10.817 35.6304 10.7017 35.4838 10.5859C35.3961 10.7017 35.3085 10.817 35.2214 10.9328C35.2214 10.9328 34.9059 10.9431 34.5071 10.6806C34.5071 10.6806 34.697 11.0323 35.5368 11.2374C35.0677 11.3462 34.5877 11.3392 34.0347 11.0902C35.0401 12.2255 36.5444 11.6043 37.4281 10.922C37.4281 10.922 37.9638 10.3235 37.796 9.45117C37.796 9.45117 37.6175 10.2499 37.197 10.4912L37.0184 10.1027H37.0174Z" fill="#DFDFDF"/>
<path fill-rule="evenodd" clip-rule="evenodd" d="M40.3786 6.20724C40.2314 7.32087 40.8407 8.79165 40.8407 8.79165C40.4202 8.62336 40.042 8.01405 40.042 8.01405C40.2314 10.0525 41.0507 10.1363 41.0507 10.1363C41.891 9.84198 41.5339 8.35009 41.5339 8.35009C41.1767 7.63581 40.588 5.66016 40.588 5.66016L40.4619 5.93343L40.378 6.20669L40.3786 6.20724Z" fill="#404040"/>
<path fill-rule="evenodd" clip-rule="evenodd" d="M31.5939 11.568L30.9213 9.15137C30.2276 9.48741 30.1648 10.5594 30.1648 10.5594L30.8163 11.232L30.8585 10.0973L31.5939 11.568Z" fill="#404040"/>
<path fill-rule="evenodd" clip-rule="evenodd" d="M30.4186 8.77052L30.8812 8.60277L30.6502 6.69043L30.1875 7.15255L30.4186 8.77052Z" fill="#404040"/>
<path fill-rule="evenodd" clip-rule="evenodd" d="M35.5365 12.1446C32.9521 12.6068 32.8049 10.1484 32.8049 10.1484C32.8049 11.4742 33.4359 12.551 34.5576 12.9385C36.2276 13.5153 38.707 12.3622 38.983 10.5478C38.6469 11.7036 37.5961 12.1658 37.5961 12.1658C38.4786 11.5353 38.3526 10.3378 38.3526 10.3378C38.1843 11.9877 35.5365 12.1452 35.5365 12.1452" fill="#505050"/>
<path fill-rule="evenodd" clip-rule="evenodd" d="M37.4583 13.2962C37.4583 13.2962 34.1174 14.0316 35.651 16.7004C35.651 16.7004 37.7733 16.1333 38.6558 15.2924C38.6558 15.2924 37.7733 16.721 36.9746 17.0154C36.9746 17.0154 38.8869 16.5533 39.3074 15.8384C39.3074 15.8384 39.4756 14.7248 38.8869 13.8844C38.8869 13.8844 37.2689 14.5776 36.2814 15.7757C36.2814 15.7757 36.7224 13.8633 38.1093 13.1279L37.6888 13.2437L37.4578 13.2962H37.4583Z" fill="#505050"/>
<path fill-rule="evenodd" clip-rule="evenodd" d="M39.3919 16.9854C35.9877 18.6666 33.4661 17.1747 33.4661 17.1747C33.7339 18.7808 33.6381 20.0194 35.6095 20.3057C38.1733 20.3268 38.8454 18.3306 38.8454 18.3306C37.9417 19.0032 36.5337 19.1082 36.5337 19.1082C38.1939 18.4356 39.3914 16.9859 39.3914 16.9859" fill="#505050"/>
<path fill-rule="evenodd" clip-rule="evenodd" d="M31.7428 19.0842C30.7498 17.4771 31.1308 15.2152 31.3856 13.4316L26.9728 15.8694L26.8467 16.6259C26.8467 16.6259 29.1584 19.3997 30.7552 20.3662C30.7552 20.3662 29.7466 18.8954 29.5783 17.5501C29.5783 17.5501 31.2596 20.5761 32.8564 21.0382C32.8564 21.0382 32.0999 18.1806 32.0577 16.5415C32.0577 16.5415 31.6167 18.233 31.7428 19.0842Z" fill="#505050"/>
<path fill-rule="evenodd" clip-rule="evenodd" d="M31.7322 22.1455L26.3739 18.0059C25.0714 19.876 25.2181 22.1033 25.2181 22.1033L25.5541 21.9772L26.0373 21.7672C28.0758 21.284 29.5888 21.9355 29.5888 21.9355C28.6429 21.9566 28.0969 22.3138 28.0969 22.3138L27.8658 22.7553C29.1894 22.2932 30.5763 22.482 30.5763 22.482C30.0087 22.6709 29.3155 23.1547 29.3155 23.1547L29.9876 23.5962C30.4919 22.8186 31.7316 22.146 31.7316 22.146" fill="#9F9F9F"/>
<path fill-rule="evenodd" clip-rule="evenodd" d="M35.9194 21.9173C35.9194 21.9173 37.012 22.1905 36.8648 23.3464L36.8226 23.5774L38.7295 25.8572C38.7295 25.8572 39.7381 24.197 38.8978 22.1592C38.8978 22.1592 38.94 23.4514 38.5931 24.0926C38.5931 24.0926 38.4265 21.7528 37.1851 21.0244C36.3383 21.2874 35.026 21.3983 34.1121 21.2241L34.7847 22.7998L35.9194 21.9173Z" fill="#303030"/>
<path fill-rule="evenodd" clip-rule="evenodd" d="M35.4418 24.0383C35.9196 23.7012 36.1236 23.2607 35.9564 22.6514L35.0425 23.7439L35.4418 24.0383Z" fill="#9F9F9F"/>
<path fill-rule="evenodd" clip-rule="evenodd" d="M49.3207 21.0781C48.081 22.2967 47.976 26.2053 47.976 26.2053C47.535 23.7681 47.745 21.7296 47.745 21.7296C46.9463 23.3687 46.8202 24.9028 46.8202 24.9028C47.0301 26.4158 46.5469 29.5045 46.5469 29.5045L46.5415 29.7459C47.8889 30.3065 47.8959 30.9266 48.186 32.425C48.6692 31.2064 48.2282 28.4748 48.2282 28.4748C50.9804 31.8579 50.1194 35.8714 50.1194 35.8714C50.5188 35.8925 50.7498 36.2708 50.7498 36.2708L51.3169 35.0733C52.4939 34.0646 52.8088 35.1782 52.8088 35.1782L52.2834 37.0062C52.6194 36.6279 52.9766 35.7664 52.9766 35.7664C53.7753 31.438 51.6108 26.5835 51.6108 26.5835C51.3797 27.3822 50.2872 28.6636 50.2872 28.6636C51.5691 24.6712 49.3207 21.0781 49.3207 21.0781Z" fill="#9F9F9F"/>
<path fill-rule="evenodd" clip-rule="evenodd" d="M46.8881 33.0322C46.9341 30.7514 46.1316 29.8623 44.0515 30.3006L46.8881 33.0322Z" fill="#505050"/>
<path fill-rule="evenodd" clip-rule="evenodd" d="M42.9734 40.3771C42.9734 40.3771 41.8684 38.639 42.4691 35.9431C42.4691 35.9431 41.5865 37.6244 41.5443 38.8008C41.5443 38.8008 41.3344 36.9934 42.0908 35.3544C42.0908 35.3544 40.5151 37.3295 40.5151 38.8636C40.5151 38.8636 40.2629 36.1736 41.0405 34.3457C39.7786 35.7705 39.567 37.9128 39.8008 39.7672C39.8008 39.7672 41.4815 40.3765 42.974 40.3765" fill="#505050"/>
<path fill-rule="evenodd" clip-rule="evenodd" d="M43.4253 36.626C43.0768 37.3045 42.7337 38.5924 43.3517 39.2104C43.3517 39.2104 43.1206 38.2337 43.9085 37.8235C43.9085 37.8235 43.856 37.4036 44.1607 37.2039L43.4253 36.626Z" fill="#505050"/>
<path fill-rule="evenodd" clip-rule="evenodd" d="M44.5279 37.5078C44.3877 38.4672 45.6946 40.0143 47.2595 39.5565L44.5279 37.5078Z" fill="#505050"/>
<path fill-rule="evenodd" clip-rule="evenodd" d="M46.3985 40.5571L44.0122 38.7676C43.9202 39.3974 44.5425 40.3179 45.438 40.5657H46.3672C46.3774 40.563 46.3883 40.5603 46.3985 40.5571Z" fill="#505050"/>
<path fill-rule="evenodd" clip-rule="evenodd" d="M44.42 40.5673L43.4373 39.998C43.4324 40.1782 43.4914 40.3758 43.5996 40.5673H44.42Z" fill="#505050"/>
<path fill-rule="evenodd" clip-rule="evenodd" d="M30.6347 30.155C30.6347 30.155 32.1899 30.9743 34.06 31.3109C34.06 31.3109 34.3858 31.3948 34.6694 31.6578C34.6694 31.6578 36.0454 32.8136 36.6969 32.5089C36.6969 32.5089 36.8441 32.3195 36.3187 31.9207C36.3187 31.9207 35.2576 30.8282 34.06 30.4391C34.06 30.4391 32.5048 29.9348 31.9166 28.0436C31.9166 28.0436 32.3896 28.3693 32.6309 28.4321C32.6309 28.4321 32.8831 27.7595 32.5995 27.4234C32.5995 27.4234 29.763 27.0138 27.3041 28.9678C27.3041 28.9678 28.0503 27.9489 28.5227 27.5809C28.5227 27.5809 26.5687 28.0014 25.56 28.4213L25.0768 28.6107L24.9767 28.984C24.9767 28.984 24.7457 30.8964 25.2078 31.6318L26.1742 31.2324C26.1742 31.2324 25.5806 30.5392 25.4491 30.1188C25.4491 30.1188 27.1304 31.2276 28.559 31.6058C28.559 31.6058 29.4204 32.1523 30.1769 32.9927L30.3398 33.1399L31.033 33.1188C31.033 33.1188 30.2819 32.4516 30.0665 31.8001C30.0665 31.8001 30.9913 32.8558 31.842 33.2129C31.842 33.2129 32.5352 33.3179 32.7559 33.0869C32.7559 33.0869 31.2532 32.3618 30.7386 31.3006C30.7386 31.3006 32.1358 32.3618 33.3863 32.5717L33.8171 32.2984L33.4074 31.8569C33.4074 31.8569 31.2327 31.2265 30.6336 30.155" fill="#505050"/>
<path fill-rule="evenodd" clip-rule="evenodd" d="M33.0256 28.7601C33.0256 28.7601 33.3828 29.4641 34.3287 29.7791C34.3287 29.7791 36.3563 30.8088 36.8189 31.5967C36.8189 31.5967 37.8487 32.8786 36.8817 33.3408L38.1636 34.1811C38.1636 34.1811 38.6782 32.8364 38.8254 32.5843C38.8254 32.5843 36.2935 30.567 35.8628 30.0626L36.136 29.3797L33.2361 27.4463C33.2361 27.4463 33.3936 28.4447 33.0262 28.7596" fill="#9F9F9F"/>
<path fill-rule="evenodd" clip-rule="evenodd" d="M36.2922 30.0392C36.2922 30.0392 38.3512 31.8255 38.9822 32.214L39.3393 31.615L36.5341 29.5977L36.2922 30.0392Z" fill="#9F9F9F"/>
<path fill-rule="evenodd" clip-rule="evenodd" d="M37.8316 29.3384L39.9014 30.8931L40.5215 30.1685L38.021 27.8779L37.6113 28.2773L39.2818 29.9477L37.8316 29.3384Z" fill="#9F9F9F"/>
<path fill-rule="evenodd" clip-rule="evenodd" d="M35.4258 26.9273L36.3295 26.0653L33.9128 23.9014L32.6309 25.5821L34.9425 27.6205L33.4507 25.5193L35.4258 26.9273Z" fill="#9F9F9F"/>
<path fill-rule="evenodd" clip-rule="evenodd" d="M36.8556 26.5732L35.6997 28.1284L36.4351 28.6744L37.3599 26.9515L36.8556 26.5732Z" fill="#9F9F9F"/>
<path fill-rule="evenodd" clip-rule="evenodd" d="M35.5366 24.745L41.9035 30.1454L42.3867 29.9355L36.1037 24.4512L35.5366 24.745Z" fill="#CFCFCF"/>
<path fill-rule="evenodd" clip-rule="evenodd" d="M32.4532 24.689L33.1047 24.0164L32.5901 23.7539L31.9277 24.3735L32.4532 24.689Z" fill="#9F9F9F"/>
<path fill-rule="evenodd" clip-rule="evenodd" d="M32.2327 25.0998L31.9069 24.8477L31.5076 25.247L31.8014 25.4992L32.2327 25.0998Z" fill="#9F9F9F"/>
<path fill-rule="evenodd" clip-rule="evenodd" d="M31.4749 24.0223L32.3369 23.3713L31.969 23.1191L31.1492 23.676L31.2228 23.7598L31.4749 24.0223Z" fill="#9F9F9F"/>
<path fill-rule="evenodd" clip-rule="evenodd" d="M30.7512 24.714L29.7739 24.1572L29.1543 24.7665L28.8708 24.5566L28.3562 26.0382L28.1987 24.8087L27.7891 26.4375L28.4931 26.385L30.3632 26.3537C30.0061 26.154 29.3443 25.9651 29.3443 25.9651C30.4682 25.7027 31.6137 25.9759 31.6137 25.9759L30.8259 25.3558L31.3616 24.5155L31.0883 24.358L30.7523 24.7151L30.7512 24.714Z" fill="#303030"/>
<path fill-rule="evenodd" clip-rule="evenodd" d="M26.5993 27.2056L27.5241 23.7803C25.9273 24.6001 25.5696 27.3522 25.5696 27.3522L26.5993 27.2051V27.2056Z" fill="#303030"/>
<path fill-rule="evenodd" clip-rule="evenodd" d="M24.5468 25.3179L25.6182 22.9435C24.6831 23.1745 24.0213 23.8158 24.0213 23.8158C23.7692 22.6599 23.99 19.9072 23.99 19.9072C23.0462 20.727 22.7589 21.1675 22.3195 22.4078L23.3704 22.2292L22.2778 24.5409C23.7069 24.7508 24.5473 25.3185 24.5473 25.3185" fill="#9F9F9F"/>
<path fill-rule="evenodd" clip-rule="evenodd" d="M23.7058 26.8716C22.1717 25.863 20.5748 26.2201 20.5748 26.2201L20.1019 27.008L18.9461 29.5719C18.0635 31.4209 18.5467 32.8917 18.5467 32.8917C17.8535 32.4295 17.7274 31.442 17.7274 31.442C17.4964 32.3035 17.6225 32.7867 17.6225 32.7867C18.4493 34.8743 22.5077 33.1335 22.5077 33.1335C20.5954 32.9236 19.8389 32.2407 19.8389 32.2407C22.3081 32.5978 24.399 31.8311 24.399 31.8311C23.9996 31.1168 24.0207 29.2044 24.0207 29.2044C23.0121 28.8262 20.4488 28.7212 20.4488 28.7212C22.1506 27.9647 24.4937 27.6184 24.4937 27.6184L24.7247 26.4837C23.7897 25.9896 22.4553 25.7061 22.4553 25.7061C23.0543 26.0318 23.7053 26.8722 23.7053 26.8722" fill="#9F9F9F"/>
<path fill-rule="evenodd" clip-rule="evenodd" d="M30.6409 35.7311C30.5506 35.0152 30.4196 34.4643 30.4196 34.4643C30.2356 33.9508 29.6144 33.599 28.8704 33.3799C28.9039 33.3934 28.9375 33.4069 28.9716 33.4216L30.6409 35.7305V35.7311Z" fill="#505050"/>
<path fill-rule="evenodd" clip-rule="evenodd" d="M33.5493 34.693C33.5493 34.693 33.1711 36.8153 33.9065 38.16C33.9065 38.16 32.9189 37.4246 32.5829 36.0166L32.4146 35.3651L32.3307 34.9029C32.3307 34.9029 31.9081 36.2974 31.9611 37.5572L33.3692 39.5052L35.7766 39.799C35.7766 39.799 35.0201 36.7731 36.2598 33.4533L34.768 32.5918C34.768 32.5918 33.7382 34.4197 34.5791 36.9625C34.5791 36.9625 33.9487 36.4792 33.5493 34.693Z" fill="#505050"/>
<path fill-rule="evenodd" clip-rule="evenodd" d="M36.1967 36.8912C36.1967 36.8912 35.9235 38.8874 36.7113 39.3495C36.7113 39.3495 37.3417 39.7066 37.7514 40.0113C37.7514 40.0113 36.8899 39.0973 36.8477 38.1937C36.8477 38.1937 37.562 39.3181 38.266 39.5384L38.3818 38.0151L36.1962 36.8906L36.1967 36.8912Z" fill="#505050"/>
<path fill-rule="evenodd" clip-rule="evenodd" d="M36.6593 35.1346C36.6593 35.1346 36.3233 36.08 37.3531 36.6476L38.4245 37.3414L38.6767 35.3873L37.2475 34.4209C37.2475 34.4209 37.878 35.5134 38.0251 36.1438C38.0251 36.1438 37.4786 35.1352 36.9326 34.9252L36.7016 34.8727L36.6593 35.1352V35.1346Z" fill="#505050"/>
<path fill-rule="evenodd" clip-rule="evenodd" d="M39.4748 34.7695C38.6285 35.6451 38.7925 38.7522 38.9391 39.9389C38.9391 39.9389 39.128 37.144 39.8217 35.5055C39.8217 35.5055 39.3385 36.0623 39.2016 36.6613C39.2016 36.6613 39.2373 35.3577 39.4748 34.7701" fill="#505050"/>
<path fill-rule="evenodd" clip-rule="evenodd" d="M39.7129 34.1801L41.4147 31.0491L40.9737 30.6709C40.9737 30.6709 40.0073 32.2889 39.8179 33.4025L39.7129 33.8543V34.1801Z" fill="#9F9F9F"/>
<path fill-rule="evenodd" clip-rule="evenodd" d="M42.1982 33.4093C42.1982 33.4093 42.3032 34.5863 47.5776 38.4104L48.0608 37.6539L42.2821 32.5479C42.2821 32.5479 43.6901 34.6279 44.4466 35.2583L42.1982 33.4093Z" fill="#CFCFCF"/>
<path fill-rule="evenodd" clip-rule="evenodd" d="M42.8899 31.9023L48.2903 37.1978L48.6475 36.8612L42.8899 31.9023Z" fill="#CFCFCF"/>
<path fill-rule="evenodd" clip-rule="evenodd" d="M42.2812 30.5121L49.068 36.2491L49.3413 35.9758L42.7331 30.3232L42.2812 30.5121Z" fill="#CFCFCF"/>
<path fill-rule="evenodd" clip-rule="evenodd" d="M50.4328 36.417C49.6866 36.312 49.2034 37.2157 49.2034 37.2157L50.107 38.266L49.7499 38.9386L53.3013 41.8385L53.9106 41.7124L53.8056 41.9857L57.2515 44.9278L57.6087 44.4235L51.0946 38.9814L50.8111 39.055L51.0524 38.7081C51.725 37.3212 51.9772 35.5771 51.9772 35.5771C51.1579 37.0274 50.2542 37.5312 50.2542 37.5312C50.3489 37.3629 50.6639 36.5858 50.6639 36.5858C50.6114 36.47 50.4328 36.4175 50.4328 36.4175" fill="#DFDFDF"/>
<path fill-rule="evenodd" clip-rule="evenodd" d="M59.4371 45.7578L58.7542 46.3882L60.2882 47.754L60.9711 47.1653L59.4371 45.7578Z" fill="#DFDFDF"/>
<path fill-rule="evenodd" clip-rule="evenodd" d="M58.597 46.0809L59.1014 45.5138L58.1663 44.7676C57.8719 44.9039 57.7983 45.5344 57.7983 45.5344L58.597 46.0809Z" fill="#DFDFDF"/>
<path fill-rule="evenodd" clip-rule="evenodd" d="M21.4254 24.571L22.3713 23.0791L21.4574 23.268L20.6165 24.676L21.4254 24.571Z" fill="#9F9F9F"/>
<path fill-rule="evenodd" clip-rule="evenodd" d="M25.4497 30.1171C25.4497 30.1171 27.1309 31.2259 28.5595 31.6041C28.5595 31.6041 29.421 32.1507 30.1775 32.991L30.3403 33.1382L31.0335 33.1171C31.0335 33.1171 30.2824 32.4499 30.0671 31.7984C30.0671 31.7984 30.9919 32.8541 31.8425 33.2113C31.8425 33.2113 32.5357 33.3163 32.7565 33.0852C32.7565 33.0852 31.8658 32.6555 31.2208 31.9732C31.6044 32.4678 31.9507 32.8628 31.9507 32.8628C30.5535 32.4212 29.3138 30.5305 29.3138 30.5305C29.1142 30.9191 29.356 31.4759 29.356 31.4759C29.0525 31.1463 28.3117 30.7232 27.5465 30.3406L27.5557 30.3449C27.4859 30.2795 27.3663 30.089 27.2283 29.537C27.2283 29.537 28.7597 28.122 30.3474 27.5527C29.4231 27.7465 28.3306 28.1501 27.3041 28.9662C27.3041 28.9662 28.0503 27.9472 28.5227 27.5792C28.5227 27.5792 26.5687 27.9997 25.56 28.4196L25.0768 28.609L24.9767 28.9824C24.9767 28.9824 24.7457 30.8947 25.2078 31.6301L26.1742 31.2308C26.1742 31.2308 25.5806 30.5376 25.4491 30.1171" fill="#303030"/>
<path fill-rule="evenodd" clip-rule="evenodd" d="M30.74 31.2975C30.74 31.2975 32.1372 32.3586 33.3877 32.5686L33.8185 32.2953L33.4088 31.8537C33.4088 31.8537 32.5468 31.6037 31.7584 31.1514C31.9851 31.5534 33.1496 32.094 33.1496 32.094C32.4667 32.1043 30.74 31.2969 30.74 31.2969" fill="#303030"/>
<path fill-rule="evenodd" clip-rule="evenodd" d="M34.669 31.6599C34.669 31.6599 36.045 32.8158 36.6966 32.5111C36.6966 32.5111 36.8437 32.3217 36.3183 31.9229C36.3183 31.9229 35.9893 31.5842 35.4904 31.2162C36.2139 32.1924 34.8194 31.3748 34.8194 31.3748C34.5256 31.154 34.0207 31.0279 34.0207 31.0279C33.1803 31.0912 30.6338 30.1572 30.6338 30.1572C30.6338 30.1572 32.189 30.9765 34.0591 31.3131C34.0591 31.3131 34.3849 31.3969 34.6684 31.6599" fill="#303030"/>
<path fill-rule="evenodd" clip-rule="evenodd" d="M30.3482 27.5549C30.3482 27.5549 29.7189 27.9001 29.0149 28.6566C29.0149 28.6566 29.9186 27.9629 31.2211 27.9001C31.2211 27.9001 31.0739 28.6144 32.24 29.8227C32.24 29.8227 32.0349 29.3812 32.0246 29.056C32.0246 29.056 32.5447 30.254 33.9261 30.5744C33.9261 30.5744 35.1697 31.0197 35.4905 31.2151C35.0939 30.9229 34.5901 30.6122 34.0593 30.4402C34.0593 30.4402 32.5041 29.9358 31.9159 28.0446C31.9159 28.0446 32.3888 28.3704 32.6302 28.4331C32.6302 28.4331 32.8823 27.7605 32.5988 27.4245C32.5988 27.4245 31.6366 27.2854 30.3471 27.5554" fill="#51F4E9"/>
<path fill-rule="evenodd" clip-rule="evenodd" d="M20.3661 31.3847C20.3077 31.388 20.2476 31.3896 20.1854 31.3885C20.1854 31.3885 20.2514 31.388 20.3661 31.3847ZM20.5755 26.2208C22.4251 26.5709 23.536 27.5157 23.536 27.5157C22.0966 27.789 20.4494 28.7208 20.4494 28.7208L23.5744 29.9259C23.3704 30.4486 23.306 30.9935 23.306 30.9935C22.3623 31.3025 20.8786 31.3696 20.3667 31.3836C20.9965 31.3485 21.3834 31.0931 21.3834 31.0931C19.0301 30.967 19.3423 28.6943 19.3423 28.6943L18.9473 29.5709C18.0647 31.4199 18.5479 32.8907 18.5479 32.8907C17.8548 32.4286 17.7287 31.441 17.7287 31.441C17.4976 32.3025 17.6237 32.7857 17.6237 32.7857C18.4505 34.8734 22.509 33.1326 22.509 33.1326C20.5966 32.9226 19.8401 32.2397 19.8401 32.2397C22.3093 32.5969 24.4002 31.8301 24.4002 31.8301C24.0009 31.1158 24.022 29.2035 24.022 29.2035C23.0133 28.8252 20.45 28.7202 20.45 28.7202C22.1518 27.9637 24.4949 27.6174 24.4949 27.6174L24.726 26.4827C23.7909 25.9886 22.4565 25.7051 22.4565 25.7051C23.0555 26.0308 23.7065 26.8712 23.7065 26.8712C22.1724 25.8625 20.5755 26.2197 20.5755 26.2197V26.2208Z" fill="#606060"/>
<path fill-rule="evenodd" clip-rule="evenodd" d="M30.6409 35.7311C30.5506 35.0152 30.4196 34.4643 30.4196 34.4643C30.2356 33.9508 29.6144 33.599 28.8704 33.3799C28.9039 33.3934 28.9375 33.4069 28.9716 33.4216L30.6409 35.7305V35.7311Z" fill="#303030"/>
<path fill-rule="evenodd" clip-rule="evenodd" d="M34.9763 33.5777C34.9763 33.5777 34.9303 36.0182 35.5548 37.1075C35.5894 36.0512 35.7663 34.7752 36.2598 33.4533L34.768 32.5918C34.768 32.5918 33.7382 34.4197 34.5791 36.9625C34.5791 36.9625 33.9487 36.4792 33.5493 34.693C33.5493 34.693 33.1711 36.8153 33.9065 38.16C33.9065 38.16 32.9189 37.4246 32.5829 36.0166L32.4146 35.3651L32.3307 34.9029C32.3307 34.9029 31.9081 36.2974 31.9611 37.5572L32.5629 38.39C32.9552 38.5788 33.604 38.7747 34.6608 38.8521C34.6608 38.8521 34.2274 38.0653 34.0726 36.9819C34.0726 36.9819 34.446 37.2758 34.9969 37.4235C34.9969 37.4235 34.4557 34.9246 34.9758 33.5783" fill="#303030"/>
<path fill-rule="evenodd" clip-rule="evenodd" d="M42.2513 19.9516C43.4088 17.16 42.4694 13.1719 42.4694 13.1719C42.8265 16.9332 41.0197 19.6437 41.0197 19.6437C41.4401 18.4879 41.4607 15.7141 41.4607 15.7141C41.1036 18.5507 39.4856 20.7574 39.4856 20.7574C40.011 21.6188 40.2843 24.5187 40.2843 24.5187C40.6203 23.384 40.5992 21.1145 40.5992 21.1145C41.1874 22.312 41.3135 24.4343 41.3135 24.4343C41.5029 23.6989 41.6918 22.1437 41.6918 22.1437C42.0911 24.3082 41.8178 26.094 41.8178 26.094L44.4234 27.7541L42.4272 27.2287L44.5283 29.0777L45.8103 23.6773C44.991 24.3077 43.8774 24.3288 43.8774 24.3288C45.1799 23.5723 45.9997 21.6389 45.9997 21.6389C45.0543 22.5636 42.9531 23.5512 42.9531 23.5512C45.0992 21.7541 45.9596 19.7547 46.2318 18.0301C45.4558 20.5788 42.6723 22.1151 42.6723 22.1151C43.4726 20.6859 43.2605 18.6692 43.2605 18.6692C42.8611 19.4046 42.2518 19.9511 42.2518 19.9511" fill="#303030"/>
<path fill-rule="evenodd" clip-rule="evenodd" d="M37.2297 19.4262C34.3385 20.0658 33.7936 18.9527 33.6951 18.6053C33.8899 19.4863 34.2789 20.1129 35.609 20.3061C38.1729 20.3272 38.845 18.331 38.845 18.331C37.9413 19.0036 36.5333 19.1086 36.5333 19.1086C37.4608 18.7325 38.2443 18.1145 38.7551 17.6416C37.5181 18.5507 35.3596 18.9327 35.3596 18.9327C36.1788 19.5734 37.2297 19.4262 37.2297 19.4262Z" fill="#303030"/>
<path fill-rule="evenodd" clip-rule="evenodd" d="M29.5783 17.55C29.5783 17.55 31.2596 20.576 32.8564 21.0381C32.8564 21.0381 32.0999 18.1804 32.0577 16.5414C32.0577 16.5414 31.6167 18.2329 31.7428 19.0841C30.9186 17.7502 31.0409 15.9656 31.252 14.3779C30.4852 15.7524 30.9262 18.3617 30.9262 18.3617C30.0225 17.8996 29.035 16.2183 29.035 16.2183C28.8461 17.353 29.1822 18.2984 29.1822 18.2984C28.153 18.0408 26.8467 16.6247 26.8467 16.6247C26.8467 16.6247 29.1584 19.3985 30.7552 20.3649C30.7552 20.3649 29.7466 18.8942 29.5783 17.5489" fill="#303030"/>
<path fill-rule="evenodd" clip-rule="evenodd" d="M28.7931 15.357C28.7931 15.357 29.2585 16.1183 30.0328 16.2293C30.0328 16.2293 29.6389 14.5945 31.3856 13.4316L26.9728 15.8694L26.8467 16.6259C26.8467 16.6259 27.364 16.9652 28.2152 16.8916C28.2152 16.8916 27.858 16.1876 28.7931 15.3575" fill="#51F4E9"/>
<path fill-rule="evenodd" clip-rule="evenodd" d="M42.4695 13.1723C42.4695 13.1723 43.3439 14.0159 43.4067 15.991C43.4067 15.991 43.8061 14.5413 43.7428 13.9737C43.7428 13.9737 44.8986 16.1799 44.5415 18.2816C44.5415 18.2816 45.93 16.5375 46.0761 14.51C45.9587 14.0348 45.8439 13.7486 45.8326 13.721L45.8315 13.7188C45.5885 13.465 45.3061 13.3195 45.3061 13.3195C44.1291 12.9201 42.4695 13.1723 42.4695 13.1723Z" fill="#51F4E9"/>
<path fill-rule="evenodd" clip-rule="evenodd" d="M51.9603 31.1822C51.2038 31.5183 50.8256 32.8841 50.8256 32.8841C50.4262 28.7233 47.7996 26.7693 47.7996 26.7693C47.8418 27.6308 47.4847 28.5345 47.4847 28.5345C47.4636 27.2948 46.8202 24.9014 46.8202 24.9014C47.0301 26.4144 46.5469 29.5031 46.5469 29.5031L46.5415 29.7444C47.8889 30.305 47.8959 30.9252 48.186 32.4236C48.6692 31.2049 48.2282 28.4733 48.2282 28.4733C50.9804 31.8565 50.1194 35.87 50.1194 35.87C50.5188 35.8911 50.7498 36.2693 50.7498 36.2693L51.3169 35.0718C52.4939 34.0632 52.8088 35.1768 52.8088 35.1768L52.2834 37.0047C52.6194 36.6265 52.9766 35.765 52.9766 35.765C53.1075 35.055 53.1589 34.331 53.153 33.6167C53.1232 29.975 51.6108 26.5826 51.6108 26.5826C51.3797 27.3813 50.2872 28.6627 50.2872 28.6627C51.1844 28.4328 51.7076 27.673 51.7076 27.673C51.9603 30.3083 51.9598 31.1822 51.9598 31.1822" fill="#606060"/>
<path fill-rule="evenodd" clip-rule="evenodd" d="M49.27 22.9461C49.27 22.9461 50.6141 25.3584 50.2867 28.6636C51.5687 24.6712 49.3203 21.0781 49.3203 21.0781C48.0806 22.2967 47.9756 26.2053 47.9756 26.2053C47.9756 26.2053 48.5346 24.438 49.27 22.9461Z" fill="#51F4E9"/>
<path fill-rule="evenodd" clip-rule="evenodd" d="M35.8623 30.0621L33.5527 28.5789C33.6577 27.8857 33.2351 27.4463 33.2351 27.4463C33.2351 27.4463 33.3926 28.4447 33.0251 28.7596C33.0251 28.7596 33.3823 29.4636 34.3282 29.7785C34.3282 29.7785 36.3558 30.8083 36.8184 31.5962C36.8184 31.5962 37.8482 32.8781 36.8812 33.3402L38.1631 34.1806C38.5825 32.9766 37.556 31.554 37.556 31.554C36.8552 30.976 36.083 30.3207 35.8623 30.0621Z" fill="#606060"/>
<path fill-rule="evenodd" clip-rule="evenodd" d="M36.8556 26.5732L35.6997 28.1284L36.4351 28.6744L36.6045 28.3595L36.2105 27.8947L36.8556 26.5732Z" fill="#606060"/>
<path fill-rule="evenodd" clip-rule="evenodd" d="M35.4258 26.9299L36.3295 26.0678L35.4328 26.4017L33.2082 24.8281L32.6309 25.5846L34.9425 27.623L33.4507 25.5218L35.4258 26.9299Z" fill="#606060"/>
<path fill-rule="evenodd" clip-rule="evenodd" d="M39.2818 29.9449L37.8316 29.3356L39.9014 30.8902L40.1308 30.6224L39.3202 30.0894H39.8873L37.6113 28.2744L39.2818 29.9449Z" fill="#9F9F9F"/>
<path fill-rule="evenodd" clip-rule="evenodd" d="M40.9737 30.6709C40.9737 30.6709 40.0073 32.2889 39.8179 33.4025L39.7129 33.8543V34.1801L40.6112 32.5275C40.5386 31.8008 40.9737 30.6714 40.9737 30.6714" fill="#606060"/>
<path fill-rule="evenodd" clip-rule="evenodd" d="M44.4466 35.2579L42.1982 33.4089C42.1982 33.4089 42.3032 34.5858 47.5776 38.41C47.5776 38.41 45.3357 36.4554 44.5624 34.562L42.2821 32.5469C42.2821 32.5469 43.6901 34.627 44.4466 35.2574" fill="#606060"/>
<path fill-rule="evenodd" clip-rule="evenodd" d="M29.9881 23.5951C30.4924 22.8175 31.7322 22.1449 31.7322 22.1449L30.8204 22.3684C30.3057 22.1898 29.7381 22.179 29.7381 22.179C30.1477 22.0427 30.631 22.0427 30.631 22.0427C27.7522 20.593 25.9454 20.9501 25.9454 20.9501C25.756 19.2899 26.3739 18.0059 26.3739 18.0059C25.0714 19.876 25.2181 22.1033 25.2181 22.1033L25.5541 21.9772L26.0373 21.7672C28.0758 21.284 29.5888 21.9355 29.5888 21.9355C28.6429 21.9566 28.0969 22.3138 28.0969 22.3138L27.8658 22.7553C29.1894 22.2932 30.5763 22.482 30.5763 22.482C30.0087 22.6709 29.3155 23.1547 29.3155 23.1547L29.9876 23.5962L29.9881 23.5951Z" fill="#606060"/>
<path fill-rule="evenodd" clip-rule="evenodd" d="M31.9063 23.6904L31.186 23.7115L31.2228 23.7537L31.475 24.0162L31.9063 23.6904Z" fill="#606060"/>
<path fill-rule="evenodd" clip-rule="evenodd" d="M32.8357 24.2988L31.9277 24.3778L32.4532 24.6933L32.8357 24.2988Z" fill="#606060"/>
<path fill-rule="evenodd" clip-rule="evenodd" d="M26.3745 18.0059C26.3745 18.0059 26.1791 18.653 26.4502 19.784C26.4502 19.784 26.5027 19.1536 26.6813 18.8489L31.7327 22.1455L26.3745 18.0059Z" fill="#51F4E9"/>
<path fill-rule="evenodd" clip-rule="evenodd" d="M33.9135 23.9014L33.209 24.8256L33.8995 24.4869L36.3302 26.0653L33.9135 23.9014Z" fill="#51F4E9"/>
<path fill-rule="evenodd" clip-rule="evenodd" d="M32.1216 24.1911L33.1032 24.0164L32.5886 23.7539L32.1216 24.1911Z" fill="#51F4E9"/>
<path fill-rule="evenodd" clip-rule="evenodd" d="M31.1492 23.6759L32.3369 23.3712L31.9776 23.125L31.1492 23.6759Z" fill="#51F4E9"/>
<path fill-rule="evenodd" clip-rule="evenodd" d="M36.8549 26.5732L36.7878 27.485L36.9058 27.7967L37.3593 26.9515L36.8549 26.5732Z" fill="#51F4E9"/>
<path fill-rule="evenodd" clip-rule="evenodd" d="M38.021 27.8779L37.6113 28.2773L40.5215 30.1685L38.021 27.8779Z" fill="#9F9F9F"/>
<path fill-rule="evenodd" clip-rule="evenodd" d="M40.9726 30.6709L40.9131 31.9701L41.4136 31.0491L40.9726 30.6709Z" fill="#51F4E9"/>
<path fill-rule="evenodd" clip-rule="evenodd" d="M45.5757 35.4609L47.7407 38.1557L48.06 37.6563L45.5757 35.4609Z" fill="white"/>
<path fill-rule="evenodd" clip-rule="evenodd" d="M42.7334 30.3232L49.0684 36.2491L49.3416 35.9758L42.7334 30.3232Z" fill="#51F4E9"/>
<path fill-rule="evenodd" clip-rule="evenodd" d="M35.5366 24.745L42.3867 29.9355L36.1037 24.4512L35.5366 24.745Z" fill="#51F4E9"/>
<path fill-rule="evenodd" clip-rule="evenodd" d="M59.0961 46.0713L58.7542 46.3868L60.2882 47.7526L60.9711 47.1638L60.3229 47.3938L59.0961 46.0713Z" fill="#8F8F8F"/>
<path fill-rule="evenodd" clip-rule="evenodd" d="M58.597 46.0809L58.781 45.8736C58.1322 45.5528 58.1663 44.7676 58.1663 44.7676C57.8719 44.9039 57.7983 45.5344 57.7983 45.5344L58.597 46.0809Z" fill="#8F8F8F"/>
<path fill-rule="evenodd" clip-rule="evenodd" d="M57.2525 44.9228L57.6097 44.4185L57.1816 44.5743L53.9116 41.708L53.8066 41.9813L57.2525 44.9228Z" fill="#8F8F8F"/>
<path fill-rule="evenodd" clip-rule="evenodd" d="M53.3013 41.8367L53.9106 41.7106L50.2256 38.8194L50.5513 38.2312L49.2034 37.2139L50.107 38.2642L49.7499 38.9368L53.3013 41.8367Z" fill="#8F8F8F"/>
<path fill-rule="evenodd" clip-rule="evenodd" d="M59.4368 45.7578L60.2382 46.9223L60.9709 47.1653L59.4368 45.7578Z" fill="#FCE2A6"/>
<path fill-rule="evenodd" clip-rule="evenodd" d="M58.9536 45.6795L59.1013 45.5128L58.1663 44.7666C58.1663 44.7666 58.5732 45.4868 58.9536 45.6789" fill="#FCE2A6"/>
<path fill-rule="evenodd" clip-rule="evenodd" d="M57.5486 44.4428L57.6087 44.4206L51.0946 38.9785L50.811 39.0521L51.0556 39.1024L57.5486 44.4428Z" fill="#51F4E9"/>
<path fill-rule="evenodd" clip-rule="evenodd" d="M51.0538 38.7081C51.7264 37.3212 51.9786 35.5771 51.9786 35.5771C51.1593 37.0274 50.2556 37.5312 50.2556 37.5312C50.2556 37.5312 51.1896 37.3591 51.498 36.9094C51.498 36.9094 51.2177 38.4029 50.879 38.9586L51.0538 38.7081Z" fill="#51F4E9"/>
<path fill-rule="evenodd" clip-rule="evenodd" d="M50.2544 37.5294C50.3491 37.3611 50.6641 36.584 50.6641 36.584C50.6116 36.4682 50.433 36.4157 50.433 36.4157C49.9833 36.3524 49.6294 36.6554 49.4189 36.906C49.4189 36.906 50.5802 36.4579 50.2544 37.5294Z" fill="#51F4E9"/>
<path fill-rule="evenodd" clip-rule="evenodd" d="M38.1113 35.395C38.1113 35.395 38.6059 35.9324 38.5231 36.5758L38.6768 35.3864L37.2477 34.4199C37.2477 34.4199 37.8781 35.5125 38.0253 36.1429C38.0253 36.1429 37.4787 35.1342 36.9327 34.9243L36.7017 34.8718C36.7017 34.8718 37.7233 35.5947 38.0485 36.5925C38.0485 36.5925 38.2606 35.8864 38.1113 35.395Z" fill="#303030"/>
<path fill-rule="evenodd" clip-rule="evenodd" d="M39.4746 34.7695C39.1602 35.0947 38.9854 35.7279 38.8972 36.4562C38.8972 36.4562 39.078 36.9422 39.0466 37.3734C39.0466 37.3734 39.2105 36.9319 39.4519 36.6413C39.5552 36.2365 39.6775 35.8458 39.8215 35.5055C39.8215 35.5055 39.3382 36.0623 39.2013 36.6613C39.2013 36.6613 39.237 35.3577 39.4746 34.7701" fill="#303030"/>
<path fill-rule="evenodd" clip-rule="evenodd" d="M41.0406 34.3458C40.6099 34.8323 40.3014 35.4021 40.0915 36.0157C40.0915 36.0157 39.7619 38.4097 40.5915 39.3972C40.5915 39.3972 40.875 38.1997 41.1797 37.737C41.1797 37.737 41.1586 38.8085 41.5579 39.3864C41.5579 39.3864 41.7051 38.5249 41.915 38.1153C41.915 38.1153 42.1932 39.7587 42.9735 40.3761C42.9735 40.3761 41.8685 38.638 42.4692 35.9421C42.4692 35.9421 41.5866 37.6234 41.5444 38.7998C41.5444 38.7998 41.3344 36.9925 42.0909 35.3534C42.0909 35.3534 40.5152 37.3285 40.5152 38.8626C40.5152 38.8626 40.263 36.1726 41.0406 34.3447" fill="#303030"/>
<path fill-rule="evenodd" clip-rule="evenodd" d="M43.2376 37.0616C43.2376 37.0616 43.3756 38.3094 43.1521 38.9258C43.203 39.0307 43.269 39.1271 43.3523 39.2104C43.3523 39.2104 43.1213 38.2337 43.9091 37.8235C43.9091 37.8235 43.8566 37.4036 44.1613 37.2039L43.4259 36.626C43.361 36.7526 43.296 36.9003 43.2376 37.0616Z" fill="#303030"/>
<path fill-rule="evenodd" clip-rule="evenodd" d="M44.5283 37.5078L46.4293 39.6215C46.6923 39.6572 46.972 39.6404 47.2599 39.5565L44.5283 37.5078Z" fill="#303030"/>
<path fill-rule="evenodd" clip-rule="evenodd" d="M46.3993 40.5566L44.0129 38.7666L45.6244 40.5648H46.369L46.3993 40.5566Z" fill="#303030"/>
<path fill-rule="evenodd" clip-rule="evenodd" d="M44.4199 40.5668L43.4373 39.998L44.0309 40.5668H44.4199Z" fill="#303030"/>
<path fill-rule="evenodd" clip-rule="evenodd" d="M32.0811 3.00957C32.0811 3.00957 33.1931 0.940307 35.7775 1.62321C35.7775 1.62321 35.6385 1.33641 34.9999 1.23468C34.9999 1.23468 37.0205 1.11455 38.4161 3.76985C37.527 1.09236 34.8295 0.860221 34.7597 0.854269H34.7581C34.4253 0.803944 34.0649 0.885653 34.0649 0.885653L33.7202 1.11563C33.5421 1.24117 33.3755 1.3705 33.2202 1.50416C32.7094 1.9441 32.3273 2.43219 32.0806 3.00957" fill="#51F4E9"/>
<path fill-rule="evenodd" clip-rule="evenodd" d="M38.3513 3.65085C38.3513 3.65085 35.0839 3.51341 33.2355 4.47336C33.2355 4.47336 33.309 2.83429 33.7452 2.14111C33.7452 2.14111 33.0287 2.03451 32.0818 3.01232C31.841 3.57564 31.7295 4.22445 31.7544 4.99663C32.0904 3.31535 33.2674 2.45388 33.2674 2.45388C32.5109 3.35756 32.5948 5.16438 32.5948 5.16438C35.5363 4.21903 38.6467 4.80724 38.6467 4.80724C38.5991 4.42683 38.5201 4.08321 38.4173 3.77206C38.3956 3.73094 38.374 3.69035 38.3518 3.65085" fill="#8F8F8F"/>
<path fill-rule="evenodd" clip-rule="evenodd" d="M36.1978 36.8916C36.1978 36.8916 38.1831 38.5328 38.2676 39.5393L38.3834 38.0161L36.1978 36.8916Z" fill="#303030"/>
<path fill-rule="evenodd" clip-rule="evenodd" d="M35.1572 39.3371C34.1469 39.3755 33.4538 39.2034 32.9797 38.9691L33.3693 39.5081L35.7768 39.8019C35.7768 39.8019 35.503 38.7061 35.555 37.1104C35.1962 38.2878 35.1572 39.3371 35.1572 39.3371Z" fill="#51F4E9"/>
<path fill-rule="evenodd" clip-rule="evenodd" d="M36.1967 36.8916C36.1967 36.8916 35.9235 38.8878 36.7113 39.3499C36.7113 39.3499 37.3417 39.7071 37.7514 40.0117C37.7514 40.0117 36.8899 39.0978 36.8477 38.1941C36.6702 38.7303 36.7849 39.0534 36.7849 39.0534C36.2449 38.6497 36.1962 36.8916 36.1962 36.8916" fill="#51F4E9"/>
<path fill-rule="evenodd" clip-rule="evenodd" d="M39.7814 37.3975C39.6834 38.1902 39.704 39.0046 39.8008 39.7703C39.8008 39.7703 41.4816 40.3796 42.974 40.3796C41.0297 40.2032 40.9892 39.1058 40.9892 39.1058C40.8003 39.4002 40.7684 39.7995 40.7684 39.7995C39.6969 39.3791 39.7819 37.3975 39.7819 37.3975" fill="#51F4E9"/>
<path fill-rule="evenodd" clip-rule="evenodd" d="M44.6342 26.955L42.4486 25.652C42.4486 24.5595 41.6926 22.1406 41.6926 22.1406C42.092 24.3051 41.8187 26.0908 41.8187 26.0908L44.4242 27.751L42.428 27.2256L44.5292 29.0746L45.8111 23.6742L44.6342 26.9545V26.955Z" fill="#51F4E9"/>
<path fill-rule="evenodd" clip-rule="evenodd" d="M33.8551 17.7969C33.8551 17.7969 35.5353 19.2006 39.3919 16.9863C35.9877 18.6676 33.4661 17.1757 33.4661 17.1757C33.5532 17.6979 33.6019 18.1817 33.6955 18.6059L33.8551 17.7975V17.7969Z" fill="#51F4E9"/>
<path fill-rule="evenodd" clip-rule="evenodd" d="M38.8868 13.8882C38.8765 14.931 35.3993 17.6864 35.2889 15.0343C35.1871 15.4808 35.264 16.0306 35.6509 16.7037C35.6509 16.7037 37.7732 16.1366 38.6558 15.2957C38.6558 15.2957 37.7732 16.7243 36.9745 17.0186C36.9745 17.0186 38.8868 16.5565 39.3073 15.8417C39.3073 15.8417 39.4756 14.7281 38.8868 13.8877" fill="#303030"/>
<path fill-rule="evenodd" clip-rule="evenodd" d="M37.0062 13.655C37.0062 13.655 36.313 14.6496 36.281 15.7757C36.281 15.7757 36.7221 13.8633 38.109 13.1279L37.6885 13.2437L37.4575 13.2962C37.4575 13.2962 35.589 13.7075 35.2881 15.0311C35.2881 15.0311 35.4715 14.2437 37.0056 13.6555" fill="#51F4E9"/>
<path fill-rule="evenodd" clip-rule="evenodd" d="M38.886 13.8887C38.886 13.8887 37.2681 14.5819 36.2805 15.7799C36.2805 15.7799 38.0576 14.4276 38.7924 14.2328C38.8519 14.1067 38.8855 13.9899 38.8866 13.8892" fill="#51F4E9"/>
<path fill-rule="evenodd" clip-rule="evenodd" d="M32.4034 20.3501C31.0063 19.7722 29.5771 17.5536 29.5771 17.5536C29.5771 17.5536 31.2584 20.5796 32.8553 21.0417C32.8553 21.0417 32.0988 18.184 32.0566 16.5449C31.9202 18.3398 32.4029 20.3501 32.4029 20.3501" fill="#51F4E9"/>
<path fill-rule="evenodd" clip-rule="evenodd" d="M38.3521 10.3383C38.1838 11.9882 35.536 12.1456 35.536 12.1456C32.9516 12.6077 32.8044 10.1494 32.8044 10.1494C32.8044 11.4752 33.4354 12.552 34.5571 12.9395C35.5187 13.2717 36.7487 13.0304 37.6719 12.4194C36.24 12.7847 35.562 12.5201 35.562 12.5201C38.0279 11.9497 38.3347 10.8994 38.3586 10.4995C38.3586 10.3989 38.3521 10.3388 38.3521 10.3388" fill="#303030"/>
<path fill-rule="evenodd" clip-rule="evenodd" d="M32.635 7.8919L33.5419 5.54883C33.365 5.55262 33.1956 5.58617 33.0289 5.64623L32.3228 7.78151C32.4066 7.84482 32.5029 7.87837 32.635 7.8919Z" fill="#51F4E9"/>
<path fill-rule="evenodd" clip-rule="evenodd" d="M33.9742 5.59375L33.1133 7.88055C33.2367 7.87135 33.3476 7.85944 33.4472 7.84375L34.2345 5.6733C34.1452 5.64029 34.0586 5.61377 33.9742 5.59375Z" fill="#51F4E9"/>
<path fill-rule="evenodd" clip-rule="evenodd" d="M34.4745 5.7793L33.8728 7.72735C33.9399 7.69542 33.9994 7.65862 34.0535 7.61479L34.6028 5.84423C34.5595 5.8215 34.5167 5.79986 34.4751 5.7793" fill="#51F4E9"/>
<path fill-rule="evenodd" clip-rule="evenodd" d="M36.3664 5.01967L35.7793 6.79457C35.874 6.87087 35.973 6.94554 36.0747 7.01426L36.8507 5.01048C36.6841 4.99587 36.5228 4.99749 36.3664 5.01967Z" fill="#51F4E9"/>
<path fill-rule="evenodd" clip-rule="evenodd" d="M37.2758 5.07617L36.4614 7.23959C36.5458 7.27963 36.6297 7.31264 36.712 7.33699C36.712 7.33699 36.7239 7.33645 36.7455 7.33483L37.5415 5.14111C37.4511 5.11676 37.3629 5.09511 37.2758 5.07617Z" fill="#51F4E9"/>
<path fill-rule="evenodd" clip-rule="evenodd" d="M37.7906 5.21387L37.1494 7.28962C37.1981 7.28205 37.2495 7.27393 37.3031 7.26419L37.9254 5.25607C37.8799 5.24146 37.835 5.22794 37.7906 5.21441" fill="#51F4E9"/>
<path fill-rule="evenodd" clip-rule="evenodd" d="M41.5988 9.27004C40.8699 10.006 40.5939 8.85932 40.5939 8.85932C40.9407 9.0801 41.3401 8.93292 41.3401 8.93292C40.7725 8.59688 40.3558 6.58984 40.3558 6.58984C40.359 7.63043 40.8412 8.79385 40.8412 8.79385C40.4207 8.62556 40.0425 8.01625 40.0425 8.01625C40.2319 10.0547 41.0511 10.1385 41.0511 10.1385C41.4256 10.0076 41.5625 9.63854 41.5988 9.2695" fill="#303030"/>
<path fill-rule="evenodd" clip-rule="evenodd" d="M23.0641 24.2852L23.3699 22.2246L22.2773 24.5363C23.7065 24.7463 24.5468 25.3139 24.5468 25.3139L25.6183 22.9394L24.372 24.7609C24.0192 24.6018 23.0641 24.2852 23.0641 24.2852Z" fill="#606060"/>
<path fill-rule="evenodd" clip-rule="evenodd" d="M21.0212 24.6261L21.282 23.5645L20.6165 24.6786L21.0212 24.6261Z" fill="#606060"/>
<path fill-rule="evenodd" clip-rule="evenodd" d="M22.3711 23.0791L21.021 24.6235L21.4252 24.571L22.3711 23.0791Z" fill="#606060"/>
<path fill-rule="evenodd" clip-rule="evenodd" d="M22.3188 22.4078C22.3188 22.4078 22.8854 21.5436 23.5391 21.0322C23.5391 21.0322 23.4558 23.3742 24.0504 24.1588C24.0504 24.1588 24.9271 23.2384 25.6181 22.9435C24.683 23.1745 24.0212 23.8158 24.0212 23.8158C23.7691 22.6599 23.9898 19.9072 23.9898 19.9072C23.0461 20.727 22.7588 21.1675 22.3194 22.4078" fill="#51F4E9"/>
<path fill-rule="evenodd" clip-rule="evenodd" d="M22.3708 23.0791L21.4568 23.268L21.2815 23.5618L21.3389 23.979L22.3708 23.0791Z" fill="#51F4E9"/>
<path fill-rule="evenodd" clip-rule="evenodd" d="M30.6004 9.71387L30.5051 10.6884L30.1664 10.5467C30.1653 10.5569 30.1653 10.5624 30.1653 10.5624L30.8168 11.235L30.859 10.1002L31.5944 11.571L31.2584 10.3627L30.6009 9.71387H30.6004Z" fill="#303030"/>
<path fill-rule="evenodd" clip-rule="evenodd" d="M30.4178 8.77052L30.8804 8.60277L30.6494 6.69043L30.5536 8.53134L30.3025 7.96153L30.4178 8.77052Z" fill="#303030"/>
<path fill-rule="evenodd" clip-rule="evenodd" d="M31.2369 10.2822L30.9225 9.15234C30.4713 9.37096 30.2873 9.90126 30.2131 10.2449C30.3457 9.95375 30.5871 9.49542 30.8446 9.36068L31.2369 10.2822Z" fill="#51F4E9"/>
<path fill-rule="evenodd" clip-rule="evenodd" d="M30.1875 7.15255L30.602 7.61088L30.6502 6.69043L30.1875 7.15255Z" fill="#51F4E9"/>
<path fill-rule="evenodd" clip-rule="evenodd" d="M40.3701 6.28245C40.3701 6.28245 40.7375 7.63472 41.158 8.1147C41.158 8.1147 40.9913 7.60334 40.9562 7.36578C40.9562 7.36578 41.2933 8.24024 41.5352 8.35009C41.178 7.6358 40.5893 5.66016 40.5893 5.66016L40.4632 5.93342L40.3793 6.20669C40.3761 6.23159 40.3734 6.25702 40.3707 6.28245" fill="#51F4E9"/>
<path fill-rule="evenodd" clip-rule="evenodd" d="M32.8237 9.1195C32.7463 8.98855 32.6868 8.61409 32.6868 8.61409C33.0791 8.6379 33.5023 8.40901 33.5023 8.40901C32.8389 8.49721 32.0461 8.39764 31.6587 7.58433L31.5115 7.30078L31.564 7.77373C31.564 7.77373 31.8583 9.08704 32.3416 9.78022L33.2452 9.1076L32.8237 9.11896V9.1195Z" fill="#9F9F9F"/>
<path fill-rule="evenodd" clip-rule="evenodd" d="M34.1392 9.51562L33.866 9.95664L34.1073 10.4193L34.3384 9.98857L34.906 10.461L34.5424 9.88359L34.906 9.94636L34.1392 9.51562Z" fill="#9F9F9F"/>
<path fill-rule="evenodd" clip-rule="evenodd" d="M35.4838 10.5898C35.3961 10.7056 35.3085 10.8209 35.2214 10.9367C35.2214 10.9367 34.9059 10.947 34.5071 10.6845C34.5071 10.6845 34.697 11.0363 35.5368 11.2414C35.0677 11.3501 34.5877 11.3431 34.0347 11.0942C35.0065 12.1916 36.4448 11.6477 37.3382 10.9941C36.5801 11.5292 35.5596 11.4205 35.5596 11.4205C35.8983 11.4086 36.1894 11.1532 36.1894 11.1532C35.7971 11.1829 35.4822 10.9448 35.4822 10.9448L35.4849 10.5904L35.4838 10.5898Z" fill="#9F9F9F"/>
<path fill-rule="evenodd" clip-rule="evenodd" d="M39.255 6.36328C39.255 6.36328 39.1922 7.0359 38.7193 7.27724C38.7193 7.27724 38.0413 7.67226 37.2437 7.92876C37.8091 7.77021 38.728 7.50343 38.9812 7.37519C38.9812 7.37519 38.9693 8.19553 38.8622 8.49261L38.3405 8.68525H38.9184C38.9184 8.68525 39.6116 7.57161 39.2545 6.36328" fill="#51F4E9"/>
</svg>
